<svg width="1200" height="480" viewBox="0 0 1200 480" xmlns="http://www.w3.org/2000/svg" role="img" aria-label="Generative art for 2026-07-19"><rect width="1200" height="480" fill="#0b0e1a"/><g font-family="Consolas, Menlo, monospace"><circle cx="588.4" cy="247.9" r="1.9" fill="#2b3352" opacity="0.70"></circle><line x1="153.6" y1="290.4" x2="142.1" y2="292.0" stroke="#3a466f" stroke-width="1.1" opacity="0.40"></line><circle cx="57.1" cy="339.7" r="1.7" fill="#4f46e5" opacity="0.51"></circle><circle cx="365.1" cy="377.7" r="1.9" fill="#333d63" opacity="0.56"></circle><circle cx="790.0" cy="373.0" r="2.1" fill="#0ea5a4" opacity="0.57"><animate attributeName="opacity" values="0.25;0.9;0.25" dur="8.9s" repeatCount="indefinite"/></circle><circle cx="997.9" cy="298.5" r="1.4" fill="#3a466f" opacity="0.48"></circle><circle cx="849.3" cy="177.6" r="1.5" fill="#0ea5a4" opacity="0.66"><animate attributeName="opacity" values="0.25;0.9;0.25" dur="10.1s" repeatCount="indefinite"/></circle><line x1="533.6" y1="73.8" x2="528.2" y2="72.1" stroke="#eab308" stroke-width="1.1" opacity="0.39"><animate attributeName="opacity" values="0.25;0.9;0.25" dur="13.4s" repeatCount="indefinite"/></line><circle cx="355.9" cy="38.6" r="2.3" fill="#2b3352" opacity="0.47"></circle><line x1="466.8" y1="109.9" x2="475.0" y2="113.4" stroke="#0ea5a4" stroke-width="1.1" opacity="0.77"></line><circle cx="753.1" cy="239.2" r="1.9" fill="#2b3352" opacity="0.88"></circle><circle cx="905.5" cy="359.2" r="1.5" fill="#4f46e5" opacity="0.61"></circle><text x="752.2" y="411.3" font-size="10" fill="#3a466f" opacity="0.72">1</text><line x1="401.0" y1="373.0" x2="395.0" y2="371.7" stroke="#333d63" stroke-width="1.1" opacity="0.50"></line><text x="162.4" y="289.0" font-size="12" fill="#eab308" opacity="0.84">1<animate attributeName="opacity" values="0.25;0.9;0.25" dur="7.9s" repeatCount="indefinite"/></text><line x1="247.0" y1="222.2" x2="252.1" y2="221.3" stroke="#4f46e5" stroke-width="1.1" opacity="0.58"></line><line x1="635.4" y1="181.7" x2="642.2" y2="181.3" stroke="#4f46e5" stroke-width="1.1" opacity="0.73"></line><circle cx="1002.4" cy="166.5" r="1.8" fill="#3a466f" opacity="0.49"></circle><circle cx="1076.9" cy="150.0" r="1.3" fill="#eab308" opacity="0.68"><animate attributeName="opacity" values="0.25;0.9;0.25" dur="10.5s" repeatCount="indefinite"/></circle><circle cx="803.8" cy="148.0" r="1.9" fill="#2b3352" opacity="0.45"></circle><line x1="405.8" y1="167.0" x2="397.3" y2="168.5" stroke="#0ea5a4" stroke-width="1.1" opacity="0.71"></line><line x1="204.6" y1="229.2" x2="207.1" y2="241.0" stroke="#2b3352" stroke-width="1.1" opacity="0.66"></line><circle cx="328.6" cy="326.8" r="2.3" fill="#4f46e5" opacity="0.82"></circle><circle cx="634.7" cy="398.0" r="2.2" fill="#4f46e5" opacity="0.80"></circle><line x1="832.2" y1="401.7" x2="835.2" y2="394.8" stroke="#0ea5a4" stroke-width="1.1" opacity="0.63"></line><line x1="766.1" y1="315.7" x2="758.5" y2="311.5" stroke="#3a466f" stroke-width="1.1" opacity="0.58"></line><circle cx="540.4" cy="200.5" r="1.6" fill="#333d63" opacity="0.82"></circle><text x="374.6" y="99.9" font-size="10" fill="#3a466f" opacity="0.72">1</text><circle cx="466.2" cy="75.5" r="1.6" fill="#4f46e5" opacity="0.49"></circle><text x="738.8" y="140.1" font-size="10" fill="#333d63" opacity="0.84">1</text><circle cx="940.3" cy="232.3" r="2.0" fill="#eab308" opacity="0.70"><animate attributeName="opacity" values="0.25;0.9;0.25" dur="9.5s" repeatCount="indefinite"/></circle><circle cx="872.0" cy="298.3" r="1.7" fill="#0ea5a4" opacity="0.47"></circle><text x="556.7" y="330.5" font-size="12" fill="#2b3352" opacity="0.78">0</text><line x1="250.5" y1="322.6" x2="239.8" y2="321.7" stroke="#0ea5a4" stroke-width="1.1" opacity="0.51"></line><text x="183.4" y="302.7" font-size="11" fill="#eab308" opacity="0.62">1<animate attributeName="opacity" values="0.25;0.9;0.25" dur="11.4s" repeatCount="indefinite"/></text><circle cx="433.8" cy="287.8" r="1.2" fill="#3a466f" opacity="0.73"></circle><circle cx="783.0" cy="254.6" r="1.9" fill="#3a466f" opacity="0.62"></circle><circle cx="975.4" cy="210.9" r="2.4" fill="#3a466f" opacity="0.60"></circle><text x="866.1" y="148.0" font-size="10" fill="#2b3352" opacity="0.66">0</text><circle cx="586.6" cy="114.0" r="1.0" fill="#eab308" opacity="0.42"><animate attributeName="opacity" values="0.25;0.9;0.25" dur="8.5s" repeatCount="indefinite"/></circle><line x1="380.9" y1="134.5" x2="374.1" y2="138.2" stroke="#4f46e5" stroke-width="1.1" opacity="0.51"></line><circle cx="402.4" cy="202.0" r="2.3" fill="#4f46e5" opacity="0.83"></circle><circle cx="595.4" cy="313.0" r="2.0" fill="#333d63" opacity="0.78"></circle><line x1="766.4" y1="378.6" x2="774.6" y2="386.3" stroke="#4f46e5" stroke-width="1.1" opacity="0.38"></line><line x1="728.5" y1="381.3" x2="721.2" y2="378.9" stroke="#4f46e5" stroke-width="1.1" opacity="0.37"></line><line x1="523.8" y1="307.1" x2="511.0" y2="302.1" stroke="#3a466f" stroke-width="1.1" opacity="0.50"></line><circle cx="356.7" cy="218.0" r="1.2" fill="#0ea5a4" opacity="0.73"></circle><text x="394.0" y="153.6" font-size="11" fill="#4f46e5" opacity="0.57">0</text><circle cx="632.0" cy="143.1" r="1.3" fill="#0ea5a4" opacity="0.53"></circle><text x="889.7" y="165.5" font-size="11" fill="#3a466f" opacity="0.67">1</text><circle cx="936.4" cy="206.6" r="1.5" fill="#2b3352" opacity="0.84"></circle><text x="729.0" y="240.7" font-size="11" fill="#333d63" opacity="0.57">1</text><line x1="418.8" y1="258.3" x2="409.3" y2="259.4" stroke="#333d63" stroke-width="1.1" opacity="0.74"></line><line x1="249.6" y1="288.1" x2="252.3" y2="298.5" stroke="#3a466f" stroke-width="1.1" opacity="0.77"></line><text x="350.7" y="311.5" font-size="11" fill="#0ea5a4" opacity="0.59">0</text><circle cx="608.3" cy="334.7" r="2.1" fill="#333d63" opacity="0.89"></circle><circle cx="825.9" cy="308.0" r="1.4" fill="#2b3352" opacity="0.67"></circle><text x="820.1" y="234.6" font-size="10" fill="#333d63" opacity="0.58">1</text><circle cx="641.9" cy="159.9" r="1.4" fill="#2b3352" opacity="0.79"></circle><circle cx="469.4" cy="108.1" r="1.6" fill="#0ea5a4" opacity="0.56"></circle><circle cx="464.2" cy="126.3" r="1.9" fill="#4f46e5" opacity="0.85"></circle><circle cx="620.7" cy="207.4" r="2.1" fill="#333d63" opacity="0.48"></circle><circle cx="773.9" cy="284.6" r="2.3" fill="#3a466f" opacity="0.61"></circle><circle cx="754.0" cy="342.5" r="1.5" fill="#2b3352" opacity="0.56"></circle><text x="576.2" y="343.2" font-size="12" fill="#eab308" opacity="0.60">1<animate attributeName="opacity" values="0.25;0.9;0.25" dur="12.1s" repeatCount="indefinite"/></text><circle cx="368.0" cy="296.8" r="1.5" fill="#3a466f" opacity="0.87"></circle><line x1="332.0" y1="249.6" x2="340.4" y2="244.5" stroke="#4f46e5" stroke-width="1.1" opacity="0.38"></line><line x1="503.7" y1="207.8" x2="517.1" y2="207.3" stroke="#3a466f" stroke-width="1.1" opacity="0.56"></line><circle cx="763.0" cy="192.4" r="1.2" fill="#3a466f" opacity="0.69"></circle><line x1="906.5" y1="183.8" x2="917.8" y2="191.9" stroke="#2b3352" stroke-width="1.1" opacity="0.44"></line><circle cx="822.5" cy="183.6" r="2.3" fill="#4f46e5" opacity="0.80"></circle><text x="587.8" y="190.0" font-size="10" fill="#333d63" opacity="0.66">1</text><circle cx="379.4" cy="215.7" r="2.4" fill="#0ea5a4" opacity="0.63"></circle><line x1="380.0" y1="262.6" x2="388.7" y2="268.9" stroke="#3a466f" stroke-width="1.1" opacity="0.38"></line><line x1="532.3" y1="317.8" x2="542.4" y2="320.3" stroke="#3a466f" stroke-width="1.1" opacity="0.75"></line><circle cx="707.0" cy="342.9" r="1.1" fill="#2b3352" opacity="0.61"></circle><line x1="736.9" y1="318.5" x2="733.2" y2="313.9" stroke="#3a466f" stroke-width="1.1" opacity="0.47"></line><circle cx="623.6" cy="248.9" r="1.0" fill="#0ea5a4" opacity="0.70"><animate attributeName="opacity" values="0.25;0.9;0.25" dur="7.4s" repeatCount="indefinite"/></circle><line x1="494.7" y1="179.3" x2="490.1" y2="175.6" stroke="#2b3352" stroke-width="1.1" opacity="0.76"></line><text x="468.0" y="132.5" font-size="12" fill="#3a466f" opacity="0.71">0</text><circle cx="607.3" cy="153.7" r="1.0" fill="#eab308" opacity="0.45"><animate attributeName="opacity" values="0.25;0.9;0.25" dur="8.7s" repeatCount="indefinite"/></circle><circle cx="774.8" cy="206.5" r="2.4" fill="#0ea5a4" opacity="0.50"></circle><circle cx="810.9" cy="263.9" r="2.4" fill="#4f46e5" opacity="0.64"></circle><text x="667.0" y="297.2" font-size="12" fill="#0ea5a4" opacity="0.41">0</text><circle cx="451.1" cy="299.4" r="1.8" fill="#333d63" opacity="0.74"></circle><circle cx="332.1" cy="284.1" r="1.9" fill="#2b3352" opacity="0.85"></circle><line x1="412.8" y1="268.8" x2="419.9" y2="269.0" stroke="#4f46e5" stroke-width="1.1" opacity="0.71"></line><line x1="623.1" y1="265.3" x2="630.9" y2="264.1" stroke="#0ea5a4" stroke-width="1.1" opacity="0.73"></line><circle cx="809.3" cy="240.4" r="1.2" fill="#333d63" opacity="0.72"></circle><circle cx="823.5" cy="198.3" r="1.0" fill="#2b3352" opacity="0.70"></circle><text x="672.0" y="163.8" font-size="12" fill="#2b3352" opacity="0.41">1</text><text x="507.2" y="160.2" font-size="12" fill="#3a466f" opacity="0.48">1</text><text x="444.3" y="189.4" font-size="11" fill="#0ea5a4" opacity="0.68">1</text><text x="542.0" y="257.0" font-size="10" fill="#333d63" opacity="0.76">1</text><line x1="671.9" y1="317.7" x2="679.3" y2="319.8" stroke="#0ea5a4" stroke-width="1.1" opacity="0.50"><animate attributeName="opacity" values="0.25;0.9;0.25" dur="12.2s" repeatCount="indefinite"/></line><circle cx="713.0" cy="334.3" r="1.2" fill="#2b3352" opacity="0.68"></circle><circle cx="619.0" cy="312.3" r="1.1" fill="#0ea5a4" opacity="0.49"></circle><line x1="477.5" y1="245.3" x2="468.1" y2="240.4" stroke="#333d63" stroke-width="1.1" opacity="0.57"></line><circle cx="445.9" cy="194.2" r="1.5" fill="#2b3352" opacity="0.47"></circle><circle cx="549.5" cy="180.5" r="1.2" fill="#4f46e5" opacity="0.84"></circle><text x="722.2" y="188.9" font-size="12" fill="#4f46e5" opacity="0.54">1</text><line x1="822.6" y1="213.2" x2="816.9" y2="216.9" stroke="#2b3352" stroke-width="1.1" opacity="0.76"></line><line x1="751.1" y1="231.7" x2="737.8" y2="232.7" stroke="#3a466f" stroke-width="1.1" opacity="0.51"></line><text x="572.4" y="246.7" font-size="11" fill="#4f46e5" opacity="0.49">1</text><line x1="413.1" y1="255.9" x2="400.4" y2="260.9" stroke="#0ea5a4" stroke-width="1.1" opacity="0.69"></line><line x1="398.1" y1="285.3" x2="412.1" y2="285.3" stroke="#4f46e5" stroke-width="1.1" opacity="0.64"></line><circle cx="530.9" cy="293.1" r="2.3" fill="#333d63" opacity="0.50"></circle><circle cx="690.6" cy="286.5" r="1.4" fill="#333d63" opacity="0.58"></circle><circle cx="749.5" cy="252.7" r="1.3" fill="#3a466f" opacity="0.60"></circle><text x="681.2" y="207.4" font-size="10" fill="#0ea5a4" opacity="0.61">1</text><text x="559.9" y="165.6" font-size="10" fill="#eab308" opacity="0.50">1</text><text x="501.5" y="159.9" font-size="10" fill="#4f46e5" opacity="0.72">0</text><text x="559.0" y="200.7" font-size="12" fill="#333d63" opacity="0.44">1</text><line x1="671.7" y1="250.0" x2="681.5" y2="255.5" stroke="#4f46e5" stroke-width="1.1" opacity="0.63"></line><circle cx="715.8" cy="296.5" r="1.1" fill="#3a466f" opacity="0.70"></circle><circle cx="645.6" cy="302.6" r="1.4" fill="#4f46e5" opacity="0.46"></circle><text x="503.6" y="292.5" font-size="11" fill="#eab308" opacity="0.51">1</text><text x="420.5" y="256.0" font-size="10" fill="#3a466f" opacity="0.44">1</text><line x1="476.8" y1="228.3" x2="486.8" y2="227.3" stroke="#3a466f" stroke-width="1.1" opacity="0.76"></line><text x="638.4" y="212.0" font-size="11" fill="#3a466f" opacity="0.83">0</text><line x1="773.5" y1="208.3" x2="782.0" y2="208.4" stroke="#333d63" stroke-width="1.1" opacity="0.47"></line><circle cx="777.0" cy="200.9" r="1.9" fill="#333d63" opacity="0.66"></circle><line x1="664.1" y1="209.7" x2="651.1" y2="208.7" stroke="#333d63" stroke-width="1.1" opacity="0.58"></line><circle cx="504.4" cy="219.0" r="1.1" fill="#0ea5a4" opacity="0.72"></circle><line x1="445.5" y1="240.7" x2="451.1" y2="250.5" stroke="#0ea5a4" stroke-width="1.1" opacity="0.59"></line><circle cx="503.6" cy="280.2" r="1.4" fill="#eab308" opacity="0.44"></circle><circle cx="629.0" cy="305.1" r="1.4" fill="#0ea5a4" opacity="0.57"></circle><circle cx="690.6" cy="296.0" r="1.1" fill="#0ea5a4" opacity="0.43"></circle><text x="650.7" y="261.7" font-size="12" fill="#3a466f" opacity="0.44">1</text><circle cx="557.3" cy="221.6" r="1.7" fill="#3a466f" opacity="0.70"></circle><line x1="509.1" y1="186.8" x2="513.1" y2="180.6" stroke="#eab308" stroke-width="1.1" opacity="0.35"></line><circle cx="563.7" cy="173.1" r="1.7" fill="#eab308" opacity="0.49"></circle><line x1="669.0" y1="197.6" x2="674.6" y2="200.9" stroke="#2b3352" stroke-width="1.1" opacity="0.74"></line><text x="730.7" y="244.9" font-size="12" fill="#4f46e5" opacity="0.46">0</text><text x="691.1" y="264.4" font-size="11" fill="#333d63" opacity="0.78">1</text><circle cx="564.5" cy="272.6" r="1.5" fill="#333d63" opacity="0.43"></circle><line x1="449.9" y1="267.7" x2="442.1" y2="268.7" stroke="#333d63" stroke-width="1.1" opacity="0.67"></line><circle cx="445.7" cy="269.7" r="1.2" fill="#4f46e5" opacity="0.54"></circle><text x="555.3" y="254.2" font-size="10" fill="#333d63" opacity="0.81">0</text><circle cx="693.2" cy="241.2" r="2.2" fill="#4f46e5" opacity="0.51"></circle><line x1="743.8" y1="226.7" x2="743.8" y2="219.1" stroke="#4f46e5" stroke-width="1.1" opacity="0.49"></line><line x1="689.3" y1="199.9" x2="676.1" y2="198.9" stroke="#3a466f" stroke-width="1.1" opacity="0.50"></line><line x1="576.2" y1="188.8" x2="564.9" y2="189.5" stroke="#2b3352" stroke-width="1.1" opacity="0.41"></line><circle cx="507.4" cy="200.8" r="1.9" fill="#3a466f" opacity="0.66"></circle><circle cx="535.0" cy="228.5" r="1.9" fill="#0ea5a4" opacity="0.58"></circle><circle cx="616.9" cy="270.0" r="2.2" fill="#2b3352" opacity="0.65"></circle><text x="666.8" y="301.2" font-size="11" fill="#3a466f" opacity="0.71">1</text><line x1="640.6" y1="293.4" x2="628.9" y2="288.8" stroke="#3a466f" stroke-width="1.1" opacity="0.45"></line><text x="560.2" y="257.8" font-size="12" fill="#3a466f" opacity="0.77">0</text><circle cx="502.4" cy="225.9" r="1.3" fill="#2b3352" opacity="0.90"></circle><line x1="524.0" y1="201.0" x2="533.7" y2="200.8" stroke="#eab308" stroke-width="1.1" opacity="0.62"></line><circle cx="625.9" cy="201.8" r="1.4" fill="#0ea5a4" opacity="0.57"></circle><circle cx="724.4" cy="217.5" r="2.3" fill="#2b3352" opacity="0.48"></circle><text x="728.3" y="226.5" font-size="12" fill="#333d63" opacity="0.70">0</text><circle cx="635.3" cy="238.7" r="2.0" fill="#4f46e5" opacity="0.89"></circle><line x1="510.2" y1="251.7" x2="501.1" y2="251.8" stroke="#2b3352" stroke-width="1.1" opacity="0.58"></line><line x1="463.5" y1="254.8" x2="467.0" y2="264.4" stroke="#4f46e5" stroke-width="1.1" opacity="0.45"></line><text x="515.2" y="268.5" font-size="10" fill="#4f46e5" opacity="0.67">1</text><circle cx="624.2" cy="271.6" r="1.9" fill="#2b3352" opacity="0.75"></circle><text x="697.2" y="259.5" font-size="10" fill="#3a466f" opacity="0.60">1</text><circle cx="680.3" cy="235.8" r="1.0" fill="#2b3352" opacity="0.44"></circle><circle cx="609.4" cy="206.4" r="1.1" fill="#eab308" opacity="0.89"></circle><line x1="543.5" y1="192.0" x2="535.0" y2="187.8" stroke="#4f46e5" stroke-width="1.1" opacity="0.58"></line><line x1="551.2" y1="196.5" x2="561.1" y2="203.0" stroke="#4f46e5" stroke-width="1.1" opacity="0.38"></line><line x1="621.7" y1="224.8" x2="630.8" y2="234.4" stroke="#333d63" stroke-width="1.1" opacity="0.60"></line><circle cx="674.6" cy="260.4" r="1.5" fill="#eab308" opacity="0.81"></circle><circle cx="659.8" cy="283.5" r="2.1" fill="#0ea5a4" opacity="0.81"></circle><text x="579.5" y="278.6" font-size="10" fill="#333d63" opacity="0.67">1</text><line x1="503.5" y1="260.9" x2="495.2" y2="255.7" stroke="#0ea5a4" stroke-width="1.1" opacity="0.57"></line><line x1="503.0" y1="238.0" x2="514.5" y2="235.1" stroke="#2b3352" stroke-width="1.1" opacity="0.40"></line><circle cx="579.4" cy="225.2" r="1.7" fill="#2b3352" opacity="0.88"></circle><text x="679.7" y="220.7" font-size="12" fill="#333d63" opacity="0.85">1</text><circle cx="727.1" cy="222.5" r="1.2" fill="#3a466f" opacity="0.78"></circle><text x="673.5" y="216.4" font-size="10" fill="#4f46e5" opacity="0.75">0</text><circle cx="585.0" cy="219.9" r="1.1" fill="#0ea5a4" opacity="0.57"></circle><line x1="513.1" y1="234.5" x2="504.8" y2="237.3" stroke="#2b3352" stroke-width="1.1" opacity="0.71"></line><line x1="516.4" y1="250.9" x2="523.8" y2="255.0" stroke="#2b3352" stroke-width="1.1" opacity="0.65"></line><circle cx="585.3" cy="274.9" r="2.1" fill="#2b3352" opacity="0.74"></circle><line x1="645.2" y1="277.8" x2="653.7" y2="278.6" stroke="#0ea5a4" stroke-width="1.1" opacity="0.54"></line><text x="657.6" y="267.3" font-size="11" fill="#2b3352" opacity="0.49">1</text><line x1="607.1" y1="234.0" x2="594.7" y2="231.4" stroke="#4f46e5" stroke-width="1.1" opacity="0.46"></line><line x1="547.7" y1="213.0" x2="545.7" y2="205.0" stroke="#3a466f" stroke-width="1.1" opacity="0.40"></line><line x1="549.7" y1="202.6" x2="557.3" y2="201.5" stroke="#4f46e5" stroke-width="1.1" opacity="0.78"></line><circle cx="607.1" cy="206.7" r="1.3" fill="#3a466f" opacity="0.51"></circle><line x1="673.9" y1="226.4" x2="680.4" y2="234.0" stroke="#4f46e5" stroke-width="1.1" opacity="0.56"></line><line x1="681.4" y1="245.5" x2="670.9" y2="252.0" stroke="#333d63" stroke-width="1.1" opacity="0.44"></line><text x="611.2" y="265.5" font-size="12" fill="#3a466f" opacity="0.46">0</text><text x="535.8" y="262.3" font-size="10" fill="#eab308" opacity="0.62">0</text><circle cx="496.1" cy="256.4" r="1.3" fill="#3a466f" opacity="0.65"></circle><circle cx="540.3" cy="248.1" r="2.1" fill="#eab308" opacity="0.50"></circle><text x="616.8" y="244.0" font-size="10" fill="#3a466f" opacity="0.70">1</text><line x1="686.5" y1="240.5" x2="693.5" y2="232.4" stroke="#3a466f" stroke-width="1.1" opacity="0.79"></line><circle cx="676.6" cy="227.6" r="2.1" fill="#eab308" opacity="0.80"></circle><line x1="620.3" y1="208.6" x2="610.9" y2="208.9" stroke="#3a466f" stroke-width="1.1" opacity="0.56"></line><circle cx="555.8" cy="211.7" r="1.9" fill="#3a466f" opacity="0.86"></circle><text x="544.1" y="222.0" font-size="10" fill="#3a466f" opacity="0.64">0</text><circle cx="589.6" cy="245.8" r="2.2" fill="#333d63" opacity="0.69"></circle><line x1="626.8" y1="275.0" x2="633.9" y2="274.8" stroke="#2b3352" stroke-width="1.1" opacity="0.75"></line><circle cx="643.8" cy="274.3" r="2.3" fill="#eab308" opacity="0.42"></circle><circle cx="593.1" cy="267.5" r="1.7" fill="#3a466f" opacity="0.67"></circle><circle cx="550.5" cy="244.1" r="1.7" fill="#eab308" opacity="0.56"></circle><line x1="539.9" y1="222.3" x2="545.2" y2="220.1" stroke="#0ea5a4" stroke-width="1.1" opacity="0.77"></line><text x="590.5" y="210.2" font-size="11" fill="#2b3352" opacity="0.59">0</text><line x1="661.0" y1="219.0" x2="673.8" y2="222.1" stroke="#4f46e5" stroke-width="1.1" opacity="0.80"></line><line x1="682.3" y1="234.5" x2="687.7" y2="224.8" stroke="#333d63" stroke-width="1.1" opacity="0.69"></line><line x1="652.3" y1="242.5" x2="643.3" y2="241.0" stroke="#333d63" stroke-width="1.1" opacity="0.67"></line><text x="577.9" y="248.6" font-size="11" fill="#0ea5a4" opacity="0.60">0</text><line x1="525.5" y1="254.2" x2="519.5" y2="252.8" stroke="#4f46e5" stroke-width="1.1" opacity="0.55"></line><circle cx="528.9" cy="259.2" r="1.3" fill="#4f46e5" opacity="0.69"></circle><circle cx="577.8" cy="263.2" r="1.4" fill="#0ea5a4" opacity="0.78"></circle><line x1="644.0" y1="254.0" x2="651.5" y2="255.2" stroke="#333d63" stroke-width="1.1" opacity="0.45"></line><line x1="662.3" y1="244.2" x2="650.4" y2="237.1" stroke="#333d63" stroke-width="1.1" opacity="0.53"></line><line x1="629.6" y1="222.3" x2="619.4" y2="221.0" stroke="#eab308" stroke-width="1.1" opacity="0.67"></line><line x1="582.7" y1="204.5" x2="572.0" y2="207.7" stroke="#4f46e5" stroke-width="1.1" opacity="0.55"></line><line x1="563.3" y1="211.2" x2="573.2" y2="216.4" stroke="#4f46e5" stroke-width="1.1" opacity="0.71"></line><line x1="589.4" y1="229.0" x2="595.8" y2="229.9" stroke="#333d63" stroke-width="1.1" opacity="0.77"></line><circle cx="636.1" cy="251.6" r="2.3" fill="#0ea5a4" opacity="0.62"></circle><circle cx="644.2" cy="257.7" r="1.0" fill="#4f46e5" opacity="0.55"></circle><circle cx="608.2" cy="270.2" r="1.9" fill="#2b3352" opacity="0.86"></circle><line x1="554.8" y1="253.1" x2="549.3" y2="253.5" stroke="#4f46e5" stroke-width="1.1" opacity="0.41"></line><line x1="530.9" y1="247.0" x2="535.5" y2="234.2" stroke="#3a466f" stroke-width="1.1" opacity="0.71"></line><circle cx="561.1" cy="237.6" r="2.4" fill="#333d63" opacity="0.72"></circle><circle cx="629.0" cy="232.6" r="1.7" fill="#2b3352" opacity="0.87"></circle><circle cx="672.8" cy="222.1" r="1.4" fill="#3a466f" opacity="0.60"></circle><text x="668.0" y="230.4" font-size="12" fill="#2b3352" opacity="0.71">1</text><text x="610.5" y="228.9" font-size="10" fill="#4f46e5" opacity="0.83">0</text><line x1="557.0" y1="230.5" x2="544.5" y2="234.5" stroke="#2b3352" stroke-width="1.1" opacity="0.59"></line><circle cx="538.8" cy="239.5" r="2.3" fill="#2b3352" opacity="0.87"></circle><circle cx="568.9" cy="256.2" r="1.4" fill="#2b3352" opacity="0.51"></circle><line x1="619.3" y1="261.8" x2="631.3" y2="268.3" stroke="#0ea5a4" stroke-width="1.1" opacity="0.57"></line><line x1="635.9" y1="266.3" x2="635.2" y2="259.1" stroke="#3a466f" stroke-width="1.1" opacity="0.40"></line><line x1="616.2" y1="250.2" x2="606.0" y2="240.9" stroke="#3a466f" stroke-width="1.1" opacity="0.62"></line><text x="581.1" y="231.1" font-size="10" fill="#3a466f" opacity="0.47">1</text><circle cx="569.3" cy="219.9" r="1.4" fill="#eab308" opacity="0.78"></circle><line x1="595.1" y1="211.9" x2="599.0" y2="216.0" stroke="#0ea5a4" stroke-width="1.1" opacity="0.75"></line><circle cx="633.8" cy="232.6" r="1.2" fill="#333d63" opacity="0.87"></circle><line x1="653.7" y1="240.7" x2="649.2" y2="251.5" stroke="#3a466f" stroke-width="1.1" opacity="0.52"></line><line x1="632.6" y1="247.2" x2="625.1" y2="249.9" stroke="#4f46e5" stroke-width="1.1" opacity="0.57"></line><circle cx="582.1" cy="248.0" r="2.1" fill="#eab308" opacity="0.85"></circle><circle cx="537.9" cy="247.5" r="2.1" fill="#4f46e5" opacity="0.55"></circle><line x1="541.5" y1="244.9" x2="548.4" y2="246.9" stroke="#333d63" stroke-width="1.1" opacity="0.70"></line><text x="589.1" y="241.1" font-size="12" fill="#2b3352" opacity="0.76">1</text><circle cx="637.5" cy="237.8" r="1.8" fill="#2b3352" opacity="0.58"></circle><circle cx="663.9" cy="230.4" r="2.3" fill="#3a466f" opacity="0.61"></circle><line x1="629.3" y1="223.8" x2="619.6" y2="222.7" stroke="#3a466f" stroke-width="1.1" opacity="0.70"></line><circle cx="586.8" cy="223.2" r="1.7" fill="#4f46e5" opacity="0.68"></circle><circle cx="559.4" cy="223.0" r="1.5" fill="#3a466f" opacity="0.68"></circle><circle cx="572.7" cy="233.9" r="1.6" fill="#0ea5a4" opacity="0.57"></circle><line x1="606.8" y1="252.7" x2="615.7" y2="257.4" stroke="#3a466f" stroke-width="1.1" opacity="0.70"></line><circle cx="630.3" cy="267.8" r="1.6" fill="#eab308" opacity="0.63"></circle><circle cx="613.5" cy="262.0" r="1.7" fill="#0ea5a4" opacity="0.87"></circle><circle cx="580.3" cy="245.8" r="1.2" fill="#3a466f" opacity="0.44"></circle><line x1="559.5" y1="232.2" x2="566.1" y2="221.7" stroke="#333d63" stroke-width="1.1" opacity="0.49"></line><circle cx="581.3" cy="229.3" r="1.4" fill="#4f46e5" opacity="0.46"></circle><circle cx="619.9" cy="229.4" r="2.2" fill="#4f46e5" opacity="0.75"></circle><text x="647.6" y="234.9" font-size="11" fill="#333d63" opacity="0.75">0</text><line x1="645.6" y1="242.0" x2="639.7" y2="238.6" stroke="#0ea5a4" stroke-width="1.1" opacity="0.64"></line><line x1="607.6" y1="240.3" x2="601.1" y2="240.8" stroke="#3a466f" stroke-width="1.1" opacity="0.57"></line><circle cx="558.8" cy="240.0" r="1.1" fill="#333d63" opacity="0.89"></circle><circle cx="544.8" cy="253.6" r="1.3" fill="#4f46e5" opacity="0.56"></circle><circle cx="573.2" cy="254.0" r="1.1" fill="#3a466f" opacity="0.40"></circle><line x1="613.4" y1="258.7" x2="622.6" y2="252.8" stroke="#2b3352" stroke-width="1.1" opacity="0.77"></line><circle cx="642.3" cy="248.6" r="1.7" fill="#3a466f" opacity="0.60"></circle><circle cx="624.1" cy="236.9" r="2.2" fill="#333d63" opacity="0.67"></circle><text x="593.8" y="224.4" font-size="12" fill="#2b3352" opacity="0.40">1</text><text x="579.3" y="220.7" font-size="12" fill="#3a466f" opacity="0.66">1</text><circle cx="582.2" cy="222.0" r="1.2" fill="#3a466f" opacity="0.49"></circle><text x="614.1" y="240.3" font-size="11" fill="#4f46e5" opacity="0.55">0</text><circle cx="633.9" cy="245.8" r="1.5" fill="#0ea5a4" opacity="0.89"></circle><line x1="617.4" y1="256.1" x2="609.6" y2="256.5" stroke="#3a466f" stroke-width="1.1" opacity="0.69"></line><circle cx="590.5" cy="249.1" r="2.3" fill="#2b3352" opacity="0.87"></circle><circle cx="559.9" cy="250.7" r="1.3" fill="#333d63" opacity="0.63"></circle><circle cx="561.4" cy="236.3" r="1.2" fill="#2b3352" opacity="0.54"></circle><text x="601.7" y="238.9" font-size="10" fill="#0ea5a4" opacity="0.66">0</text><line x1="639.6" y1="233.4" x2="645.0" y2="231.9" stroke="#2b3352" stroke-width="1.1" opacity="0.45"></line><circle cx="650.1" cy="232.9" r="1.2" fill="#4f46e5" opacity="0.63"></circle><line x1="622.1" y1="230.7" x2="608.5" y2="231.6" stroke="#2b3352" stroke-width="1.1" opacity="0.61"></line><circle cx="586.7" cy="232.4" r="1.9" fill="#333d63" opacity="0.41"></circle><circle cx="565.9" cy="232.3" r="1.6" fill="#4f46e5" opacity="0.77"></circle><circle cx="566.3" cy="249.9" r="2.1" fill="#0ea5a4" opacity="0.70"></circle><circle cx="600.6" cy="249.4" r="1.4" fill="#4f46e5" opacity="0.74"></circle><circle cx="625.6" cy="254.8" r="1.1" fill="#2b3352" opacity="0.64"></circle><circle cx="624.1" cy="252.5" r="2.3" fill="#0ea5a4" opacity="0.61"></circle><circle cx="593.0" cy="241.9" r="2.0" fill="#2b3352" opacity="0.57"></circle><text x="585.2" y="225.4" font-size="12" fill="#2b3352" opacity="0.51">0</text><text x="579.8" y="219.6" font-size="11" fill="#4f46e5" opacity="0.67">1</text><circle cx="604.7" cy="232.3" r="1.9" fill="#3a466f" opacity="0.89"></circle><circle cx="636.1" cy="236.9" r="2.2" fill="#2b3352" opacity="0.44"></circle><text x="629.1" y="245.3" font-size="10" fill="#3a466f" opacity="0.45">1</text><line x1="603.9" y1="249.6" x2="598.6" y2="249.2" stroke="#3a466f" stroke-width="1.1" opacity="0.46"></line><circle cx="574.2" cy="251.1" r="1.3" fill="#2b3352" opacity="0.81"></circle><text x="553.6" y="243.3" font-size="12" fill="#0ea5a4" opacity="0.58">0</text><line x1="581.4" y1="242.5" x2="590.2" y2="244.5" stroke="#3a466f" stroke-width="1.1" opacity="0.73"></line><line x1="616.1" y1="247.2" x2="622.0" y2="241.6" stroke="#2b3352" stroke-width="1.1" opacity="0.39"></line><circle cx="639.7" cy="244.1" r="1.4" fill="#2b3352" opacity="0.67"></circle><text x="624.4" y="234.6" font-size="10" fill="#333d63" opacity="0.49">1</text><text x="599.8" y="223.1" font-size="12" fill="#333d63" opacity="0.55">0</text><line x1="583.8" y1="225.8" x2="577.0" y2="230.3" stroke="#0ea5a4" stroke-width="1.1" opacity="0.67"></line><text x="573.2" y="234.6" font-size="10" fill="#eab308" opacity="0.70">1</text><circle cx="591.9" cy="250.2" r="2.3" fill="#3a466f" opacity="0.86"></circle><text x="618.2" y="250.0" font-size="10" fill="#2b3352" opacity="0.75">1</text><line x1="611.4" y1="252.1" x2="604.4" y2="257.3" stroke="#4f46e5" stroke-width="1.1" opacity="0.49"></line><line x1="594.0" y1="250.5" x2="585.9" y2="240.7" stroke="#eab308" stroke-width="1.1" opacity="0.60"></line><line x1="579.8" y1="236.8" x2="574.7" y2="236.7" stroke="#333d63" stroke-width="1.1" opacity="0.38"></line><text x="582.2" y="226.5" font-size="11" fill="#4f46e5" opacity="0.62">0</text><circle cx="598.3" cy="226.3" r="2.3" fill="#3a466f" opacity="0.79"></circle><circle cx="630.7" cy="228.8" r="2.1" fill="#333d63" opacity="0.86"></circle><circle cx="637.7" cy="237.2" r="1.8" fill="#3a466f" opacity="0.67"></circle><circle cx="621.7" cy="241.2" r="1.9" fill="#333d63" opacity="0.54"></circle><line x1="587.0" y1="240.5" x2="581.9" y2="241.6" stroke="#0ea5a4" stroke-width="1.1" opacity="0.42"></line><text x="561.7" y="242.0" font-size="12" fill="#3a466f" opacity="0.74">1</text><circle cx="567.4" cy="241.7" r="1.5" fill="#4f46e5" opacity="0.85"></circle><line x1="602.7" y1="253.7" x2="606.2" y2="245.0" stroke="#333d63" stroke-width="1.1" opacity="0.72"></line><circle cx="622.8" cy="247.5" r="1.4" fill="#3a466f" opacity="0.65"></circle><line x1="624.4" y1="235.4" x2="617.4" y2="239.9" stroke="#eab308" stroke-width="1.1" opacity="0.63"></line><line x1="609.6" y1="233.8" x2="601.0" y2="231.1" stroke="#2b3352" stroke-width="1.1" opacity="0.44"></line><line x1="584.6" y1="231.5" x2="588.1" y2="223.9" stroke="#eab308" stroke-width="1.1" opacity="0.39"></line><circle cx="581.4" cy="228.5" r="1.5" fill="#3a466f" opacity="0.64"></circle><line x1="594.0" y1="236.3" x2="599.4" y2="237.0" stroke="#333d63" stroke-width="1.1" opacity="0.69"></line><circle cx="615.8" cy="242.4" r="1.7" fill="#3a466f" opacity="0.56"></circle><line x1="620.6" y1="255.4" x2="610.4" y2="247.7" stroke="#3a466f" stroke-width="1.1" opacity="0.56"></line><text x="598.1" y="250.4" font-size="10" fill="#eab308" opacity="0.66">1</text><line x1="583.0" y1="251.7" x2="578.8" y2="247.7" stroke="#2b3352" stroke-width="1.1" opacity="0.48"></line><line x1="568.3" y1="243.3" x2="575.0" y2="239.9" stroke="#3a466f" stroke-width="1.1" opacity="0.50"></line><line x1="587.4" y1="235.2" x2="597.6" y2="237.7" stroke="#0ea5a4" stroke-width="1.1" opacity="0.63"></line><circle cx="618.1" cy="231.0" r="2.0" fill="#333d63" opacity="0.83"></circle><line x1="633.5" y1="236.7" x2="626.2" y2="232.6" stroke="#4f46e5" stroke-width="1.1" opacity="0.64"></line><circle cx="623.3" cy="239.9" r="1.4" fill="#4f46e5" opacity="0.43"></circle><circle cx="605.0" cy="230.2" r="1.1" fill="#4f46e5" opacity="0.74"></circle><line x1="586.4" y1="237.7" x2="576.7" y2="238.2" stroke="#333d63" stroke-width="1.1" opacity="0.69"></line><line x1="582.0" y1="242.1" x2="574.5" y2="246.3" stroke="#333d63" stroke-width="1.1" opacity="0.77"></line><text x="590.4" y="246.7" font-size="10" fill="#4f46e5" opacity="0.59">0</text><line x1="607.7" y1="245.9" x2="611.5" y2="249.6" stroke="#3a466f" stroke-width="1.1" opacity="0.78"></line><line x1="611.4" y1="244.2" x2="617.4" y2="253.7" stroke="#3a466f" stroke-width="1.1" opacity="0.58"></line><circle cx="608.8" cy="247.1" r="2.0" fill="#3a466f" opacity="0.63"></circle><line x1="594.0" y1="234.1" x2="582.4" y2="231.5" stroke="#333d63" stroke-width="1.1" opacity="0.58"></line><line x1="585.1" y1="231.5" x2="592.4" y2="228.6" stroke="#0ea5a4" stroke-width="1.1" opacity="0.60"></line><circle cx="592.5" cy="228.5" r="1.7" fill="#0ea5a4" opacity="0.42"></circle><line x1="611.9" y1="236.3" x2="625.2" y2="239.0" stroke="#3a466f" stroke-width="1.1" opacity="0.58"></line><circle cx="618.1" cy="241.0" r="2.2" fill="#4f46e5" opacity="0.59"></circle><text x="611.1" y="242.4" font-size="10" fill="#3a466f" opacity="0.68">0</text><line x1="586.2" y1="243.4" x2="576.3" y2="249.2" stroke="#2b3352" stroke-width="1.1" opacity="0.59"></line><circle cx="575.4" cy="244.8" r="2.0" fill="#3a466f" opacity="0.73"></circle><line x1="583.6" y1="238.0" x2="584.9" y2="249.7" stroke="#4f46e5" stroke-width="1.1" opacity="0.76"></line><line x1="603.3" y1="240.4" x2="612.9" y2="246.1" stroke="#4f46e5" stroke-width="1.1" opacity="0.38"></line><line x1="614.7" y1="240.3" x2="627.0" y2="238.4" stroke="#3a466f" stroke-width="1.1" opacity="0.61"></line><circle cx="623.0" cy="235.8" r="2.0" fill="#333d63" opacity="0.79"></circle><circle cx="615.4" cy="237.9" r="2.1" fill="#3a466f" opacity="0.62"></circle><circle cx="596.7" cy="229.6" r="1.1" fill="#0ea5a4" opacity="0.74"></circle><line x1="587.6" y1="231.1" x2="584.1" y2="242.5" stroke="#3a466f" stroke-width="1.1" opacity="0.53"></line><circle cx="594.3" cy="246.2" r="1.0" fill="#4f46e5" opacity="0.83"></circle><circle cx="610.1" cy="243.5" r="1.6" fill="#0ea5a4" opacity="0.60"></circle><line x1="606.8" y1="245.2" x2="615.5" y2="256.0" stroke="#3a466f" stroke-width="1.1" opacity="0.44"></line><circle cx="599.7" cy="245.1" r="1.8" fill="#0ea5a4" opacity="0.69"></circle><line x1="587.1" y1="237.0" x2="587.3" y2="244.1" stroke="#333d63" stroke-width="1.1" opacity="0.38"></line><line x1="579.9" y1="241.5" x2="585.0" y2="235.9" stroke="#333d63" stroke-width="1.1" opacity="0.64"></line><text x="596.7" y="234.9" font-size="10" fill="#2b3352" opacity="0.81">1</text><text x="612.3" y="239.1" font-size="10" fill="#eab308" opacity="0.45">0</text><circle cx="619.3" cy="238.2" r="1.2" fill="#3a466f" opacity="0.72"></circle><circle cx="620.5" cy="238.5" r="2.0" fill="#333d63" opacity="0.50"></circle></g><text x="24" y="460" font-family="Consolas, Menlo, monospace" font-size="13" fill="#4a5578">2026-07-19 · sin(5t+φ)·e^(−λt), sin(8t) · seed 921636</text></svg>