<svg width="1200" height="480" viewBox="0 0 1200 480" xmlns="http://www.w3.org/2000/svg" role="img" aria-label="Generative art for 2026-07-22"><rect width="1200" height="480" fill="#0b0e1a"/><g font-family="Consolas, Menlo, monospace"><line x1="757.1" y1="395.8" x2="749.9" y2="396.3" stroke="#eab308" stroke-width="1.1" opacity="0.51"><animate attributeName="opacity" values="0.25;0.9;0.25" dur="10.3s" repeatCount="indefinite"/></line><line x1="463.7" y1="413.8" x2="455.1" y2="414.6" stroke="#0ea5a4" stroke-width="1.1" opacity="0.74"></line><circle cx="299.4" cy="408.6" r="1.4" fill="#0ea5a4" opacity="0.82"></circle><circle cx="344.2" cy="373.9" r="2.0" fill="#0ea5a4" opacity="0.88"><animate attributeName="opacity" values="0.25;0.9;0.25" dur="13.0s" repeatCount="indefinite"/></circle><circle cx="545.2" cy="296.0" r="1.5" fill="#4f46e5" opacity="0.86"></circle><circle cx="799.0" cy="214.8" r="1.7" fill="#333d63" opacity="0.56"></circle><text x="952.2" y="150.6" font-size="11" fill="#2b3352" opacity="0.40">1</text><text x="915.9" y="118.2" font-size="12" fill="#3a466f" opacity="0.63">0</text><line x1="685.4" y1="109.1" x2="679.2" y2="109.7" stroke="#333d63" stroke-width="1.1" opacity="0.38"></line><circle cx="368.2" cy="133.3" r="1.8" fill="#2b3352" opacity="0.53"></circle><text x="119.3" y="148.7" font-size="10" fill="#2b3352" opacity="0.76">0</text><line x1="33.7" y1="150.1" x2="42.2" y2="147.7" stroke="#333d63" stroke-width="1.1" opacity="0.78"></line><circle cx="164.9" cy="128.8" r="1.4" fill="#3a466f" opacity="0.80"></circle><circle cx="451.7" cy="88.8" r="1.9" fill="#3a466f" opacity="0.78"></circle><line x1="733.1" y1="73.2" x2="742.5" y2="72.4" stroke="#0ea5a4" stroke-width="1.1" opacity="0.69"></line><line x1="890.6" y1="77.0" x2="901.5" y2="85.7" stroke="#333d63" stroke-width="1.1" opacity="0.46"></line><line x1="847.4" y1="112.0" x2="839.2" y2="115.7" stroke="#3a466f" stroke-width="1.1" opacity="0.71"></line><line x1="654.9" y1="184.7" x2="647.7" y2="186.7" stroke="#333d63" stroke-width="1.1" opacity="0.46"></line><line x1="412.5" y1="262.0" x2="402.3" y2="265.3" stroke="#2b3352" stroke-width="1.1" opacity="0.71"></line><text x="264.0" y="321.3" font-size="12" fill="#2b3352" opacity="0.62">1</text><line x1="298.7" y1="364.0" x2="304.4" y2="363.8" stroke="#2b3352" stroke-width="1.1" opacity="0.40"></line><circle cx="516.8" cy="355.4" r="2.3" fill="#4f46e5" opacity="0.75"></circle><line x1="812.6" y1="345.9" x2="824.0" y2="344.9" stroke="#2b3352" stroke-width="1.1" opacity="0.73"></line><circle cx="1066.2" cy="324.0" r="1.1" fill="#0ea5a4" opacity="0.60"></circle><line x1="1133.3" y1="331.8" x2="1121.3" y2="331.2" stroke="#3a466f" stroke-width="1.1" opacity="0.69"></line><circle cx="1009.3" cy="351.0" r="1.1" fill="#2b3352" opacity="0.73"></circle><circle cx="743.0" cy="375.4" r="1.3" fill="#eab308" opacity="0.66"><animate attributeName="opacity" values="0.25;0.9;0.25" dur="10.4s" repeatCount="indefinite"/></circle><line x1="472.4" y1="402.9" x2="463.3" y2="403.1" stroke="#eab308" stroke-width="1.1" opacity="0.42"><animate attributeName="opacity" values="0.25;0.9;0.25" dur="6.5s" repeatCount="indefinite"/></line><circle cx="328.5" cy="395.3" r="1.0" fill="#333d63" opacity="0.74"></circle><circle cx="364.4" cy="355.8" r="1.5" fill="#333d63" opacity="0.86"></circle><circle cx="551.5" cy="300.3" r="1.3" fill="#3a466f" opacity="0.72"></circle><line x1="787.4" y1="215.1" x2="795.1" y2="212.8" stroke="#3a466f" stroke-width="1.1" opacity="0.60"></line><circle cx="927.6" cy="157.2" r="1.7" fill="#0ea5a4" opacity="0.81"></circle><line x1="893.6" y1="127.3" x2="885.3" y2="126.6" stroke="#4f46e5" stroke-width="1.1" opacity="0.57"></line><circle cx="686.4" cy="124.2" r="1.6" fill="#2b3352" opacity="0.45"></circle><text x="387.1" y="141.1" font-size="11" fill="#3a466f" opacity="0.66">1</text><text x="155.9" y="154.6" font-size="10" fill="#0ea5a4" opacity="0.69">0</text><circle cx="89.2" cy="159.9" r="1.1" fill="#eab308" opacity="0.89"><animate attributeName="opacity" values="0.25;0.9;0.25" dur="8.0s" repeatCount="indefinite"/></circle><circle cx="209.9" cy="141.4" r="2.3" fill="#333d63" opacity="0.90"></circle><text x="463.2" y="104.1" font-size="10" fill="#333d63" opacity="0.71">1</text><line x1="719.2" y1="80.7" x2="727.9" y2="81.1" stroke="#0ea5a4" stroke-width="1.1" opacity="0.59"></line><line x1="862.7" y1="90.1" x2="873.4" y2="98.4" stroke="#2b3352" stroke-width="1.1" opacity="0.48"></line><circle cx="829.2" cy="119.3" r="1.7" fill="#4f46e5" opacity="0.46"></circle><circle cx="640.7" cy="185.3" r="1.4" fill="#0ea5a4" opacity="0.57"></circle><line x1="422.4" y1="254.3" x2="411.5" y2="259.5" stroke="#2b3352" stroke-width="1.1" opacity="0.78"></line><text x="292.4" y="321.2" font-size="11" fill="#3a466f" opacity="0.60">1</text><circle cx="330.7" cy="353.7" r="2.3" fill="#0ea5a4" opacity="0.66"></circle><circle cx="522.0" cy="352.9" r="1.7" fill="#333d63" opacity="0.54"></circle><circle cx="796.7" cy="340.0" r="2.0" fill="#2b3352" opacity="0.78"></circle><line x1="1024.7" y1="322.0" x2="1034.1" y2="320.9" stroke="#4f46e5" stroke-width="1.1" opacity="0.79"></line><line x1="1095.0" y1="322.1" x2="1085.9" y2="322.5" stroke="#2b3352" stroke-width="1.1" opacity="0.79"></line><text x="979.0" y="343.7" font-size="11" fill="#2b3352" opacity="0.50">1</text><circle cx="735.3" cy="372.0" r="1.1" fill="#eab308" opacity="0.47"><animate attributeName="opacity" values="0.25;0.9;0.25" dur="6.6s" repeatCount="indefinite"/></circle><line x1="489.4" y1="386.1" x2="476.7" y2="386.8" stroke="#0ea5a4" stroke-width="1.1" opacity="0.51"></line><line x1="345.4" y1="384.9" x2="343.3" y2="380.1" stroke="#4f46e5" stroke-width="1.1" opacity="0.64"></line><text x="380.4" y="354.4" font-size="12" fill="#333d63" opacity="0.56">1</text><circle cx="561.2" cy="289.3" r="1.7" fill="#3a466f" opacity="0.60"></circle><line x1="768.5" y1="225.6" x2="780.3" y2="220.2" stroke="#3a466f" stroke-width="1.1" opacity="0.72"></line><line x1="895.4" y1="169.5" x2="899.1" y2="162.7" stroke="#0ea5a4" stroke-width="1.1" opacity="0.71"></line><circle cx="863.3" cy="139.1" r="1.7" fill="#0ea5a4" opacity="0.66"></circle><circle cx="673.3" cy="130.5" r="2.2" fill="#3a466f" opacity="0.48"></circle><line x1="407.3" y1="154.8" x2="397.3" y2="154.8" stroke="#2b3352" stroke-width="1.1" opacity="0.64"></line><circle cx="198.9" cy="163.6" r="1.4" fill="#333d63" opacity="0.72"></circle><line x1="132.6" y1="168.3" x2="142.1" y2="163.4" stroke="#333d63" stroke-width="1.1" opacity="0.47"></line><circle cx="246.2" cy="142.0" r="2.4" fill="#0ea5a4" opacity="0.45"></circle><text x="470.8" y="120.4" font-size="11" fill="#4f46e5" opacity="0.74">1</text><circle cx="709.2" cy="96.9" r="1.8" fill="#eab308" opacity="0.77"><animate attributeName="opacity" values="0.25;0.9;0.25" dur="13.1s" repeatCount="indefinite"/></circle><line x1="839.9" y1="100.8" x2="845.5" y2="108.0" stroke="#3a466f" stroke-width="1.1" opacity="0.61"></line><line x1="808.8" y1="131.2" x2="799.5" y2="135.7" stroke="#eab308" stroke-width="1.1" opacity="0.46"><animate attributeName="opacity" values="0.25;0.9;0.25" dur="7.0s" repeatCount="indefinite"/></line><text x="645.4" y="193.8" font-size="10" fill="#333d63" opacity="0.68">0</text><circle cx="443.0" cy="257.3" r="2.0" fill="#0ea5a4" opacity="0.66"></circle><text x="322.7" y="314.2" font-size="10" fill="#2b3352" opacity="0.70">0</text><line x1="352.1" y1="333.5" x2="363.1" y2="336.0" stroke="#4f46e5" stroke-width="1.1" opacity="0.77"></line><circle cx="534.0" cy="344.6" r="2.1" fill="#3a466f" opacity="0.87"></circle><text x="778.9" y="324.5" font-size="11" fill="#2b3352" opacity="0.46">1</text><circle cx="979.4" cy="307.4" r="2.2" fill="#333d63" opacity="0.56"></circle><line x1="1050.1" y1="315.2" x2="1044.2" y2="315.3" stroke="#0ea5a4" stroke-width="1.1" opacity="0.63"></line><line x1="935.9" y1="330.6" x2="923.0" y2="332.1" stroke="#4f46e5" stroke-width="1.1" opacity="0.40"></line><circle cx="722.4" cy="356.2" r="1.5" fill="#333d63" opacity="0.40"></circle><circle cx="492.2" cy="374.3" r="1.7" fill="#333d63" opacity="0.60"></circle><line x1="367.0" y1="373.7" x2="364.9" y2="364.3" stroke="#4f46e5" stroke-width="1.1" opacity="0.57"></line><line x1="397.0" y1="341.8" x2="402.9" y2="339.5" stroke="#3a466f" stroke-width="1.1" opacity="0.41"></line><circle cx="559.1" cy="288.9" r="1.8" fill="#4f46e5" opacity="0.73"></circle><line x1="750.1" y1="227.3" x2="758.4" y2="223.7" stroke="#3a466f" stroke-width="1.1" opacity="0.39"></line><line x1="870.1" y1="178.6" x2="875.1" y2="165.7" stroke="#0ea5a4" stroke-width="1.1" opacity="0.36"></line><circle cx="838.7" cy="145.7" r="2.2" fill="#eab308" opacity="0.70"><animate attributeName="opacity" values="0.25;0.9;0.25" dur="10.4s" repeatCount="indefinite"/></circle><circle cx="668.5" cy="145.9" r="1.4" fill="#0ea5a4" opacity="0.81"></circle><circle cx="429.1" cy="155.8" r="1.6" fill="#3a466f" opacity="0.62"></circle><circle cx="233.9" cy="173.2" r="2.1" fill="#333d63" opacity="0.81"></circle><circle cx="169.8" cy="172.5" r="1.5" fill="#3a466f" opacity="0.80"></circle><circle cx="272.0" cy="150.6" r="1.8" fill="#333d63" opacity="0.49"></circle><text x="481.6" y="127.6" font-size="10" fill="#4f46e5" opacity="0.59">1</text><line x1="694.3" y1="111.3" x2="702.0" y2="111.1" stroke="#333d63" stroke-width="1.1" opacity="0.50"></line><text x="811.7" y="116.8" font-size="10" fill="#2b3352" opacity="0.43">1</text><line x1="789.9" y1="142.9" x2="785.1" y2="144.9" stroke="#333d63" stroke-width="1.1" opacity="0.37"></line><line x1="634.4" y1="194.3" x2="627.1" y2="197.1" stroke="#2b3352" stroke-width="1.1" opacity="0.49"></line><text x="453.9" y="256.7" font-size="10" fill="#3a466f" opacity="0.63">1</text><circle cx="346.4" cy="310.0" r="2.3" fill="#3a466f" opacity="0.89"></circle><text x="371.7" y="331.8" font-size="10" fill="#333d63" opacity="0.51">1</text><circle cx="537.9" cy="332.6" r="1.5" fill="#eab308" opacity="0.41"><animate attributeName="opacity" values="0.25;0.9;0.25" dur="10.9s" repeatCount="indefinite"/></circle><circle cx="763.4" cy="320.0" r="1.7" fill="#4f46e5" opacity="0.42"></circle><line x1="947.2" y1="307.3" x2="956.8" y2="306.5" stroke="#3a466f" stroke-width="1.1" opacity="0.50"></line><line x1="1006.6" y1="302.7" x2="995.4" y2="307.9" stroke="#3a466f" stroke-width="1.1" opacity="0.36"></line><circle cx="904.1" cy="323.3" r="1.7" fill="#eab308" opacity="0.76"><animate attributeName="opacity" values="0.25;0.9;0.25" dur="10.9s" repeatCount="indefinite"/></circle><line x1="712.4" y1="344.1" x2="703.6" y2="345.1" stroke="#4f46e5" stroke-width="1.1" opacity="0.43"></line><line x1="509.6" y1="359.4" x2="504.0" y2="359.9" stroke="#4f46e5" stroke-width="1.1" opacity="0.43"></line><line x1="398.2" y1="358.8" x2="392.2" y2="356.4" stroke="#0ea5a4" stroke-width="1.1" opacity="0.50"></line><line x1="425.7" y1="326.2" x2="434.5" y2="323.6" stroke="#0ea5a4" stroke-width="1.1" opacity="0.44"></line><circle cx="564.3" cy="276.1" r="1.3" fill="#2b3352" opacity="0.44"></circle><circle cx="741.5" cy="227.2" r="1.9" fill="#3a466f" opacity="0.65"></circle><circle cx="841.9" cy="177.4" r="1.2" fill="#2b3352" opacity="0.51"></circle><line x1="816.0" y1="153.4" x2="807.6" y2="152.9" stroke="#0ea5a4" stroke-width="1.1" opacity="0.62"></line><circle cx="660.4" cy="152.1" r="1.3" fill="#3a466f" opacity="0.76"></circle><text x="446.7" y="170.7" font-size="10" fill="#3a466f" opacity="0.73">1</text><circle cx="266.8" cy="179.9" r="1.8" fill="#0ea5a4" opacity="0.68"></circle><text x="216.3" y="171.2" font-size="12" fill="#3a466f" opacity="0.47">0</text><circle cx="298.3" cy="161.1" r="1.2" fill="#2b3352" opacity="0.78"></circle><line x1="490.8" y1="145.4" x2="496.9" y2="144.3" stroke="#3a466f" stroke-width="1.1" opacity="0.51"></line><text x="689.8" y="126.5" font-size="11" fill="#2b3352" opacity="0.42">1</text><circle cx="801.4" cy="127.6" r="1.6" fill="#3a466f" opacity="0.72"></circle><circle cx="773.1" cy="150.5" r="2.0" fill="#333d63" opacity="0.88"></circle><circle cx="631.9" cy="206.0" r="2.0" fill="#3a466f" opacity="0.43"></circle><line x1="465.9" y1="256.4" x2="453.7" y2="260.4" stroke="#333d63" stroke-width="1.1" opacity="0.45"></line><line x1="371.5" y1="296.5" x2="365.7" y2="302.0" stroke="#0ea5a4" stroke-width="1.1" opacity="0.57"></line><line x1="390.6" y1="316.4" x2="399.2" y2="318.4" stroke="#4f46e5" stroke-width="1.1" opacity="0.48"></line><line x1="539.1" y1="319.5" x2="551.0" y2="319.8" stroke="#4f46e5" stroke-width="1.1" opacity="0.79"></line><text x="753.5" y="315.5" font-size="11" fill="#2b3352" opacity="0.82">1</text><circle cx="915.8" cy="301.1" r="1.4" fill="#3a466f" opacity="0.69"></circle><circle cx="967.2" cy="305.1" r="2.3" fill="#333d63" opacity="0.89"></circle><circle cx="885.0" cy="309.3" r="1.1" fill="#333d63" opacity="0.59"></circle><line x1="694.8" y1="329.9" x2="689.2" y2="331.1" stroke="#0ea5a4" stroke-width="1.1" opacity="0.37"></line><line x1="512.2" y1="357.1" x2="498.8" y2="355.7" stroke="#3a466f" stroke-width="1.1" opacity="0.38"></line><line x1="414.6" y1="346.0" x2="402.7" y2="343.2" stroke="#3a466f" stroke-width="1.1" opacity="0.37"></line><line x1="439.7" y1="320.3" x2="450.5" y2="316.5" stroke="#4f46e5" stroke-width="1.1" opacity="0.75"></line><text x="561.8" y="274.6" font-size="10" fill="#eab308" opacity="0.61">1<animate attributeName="opacity" values="0.25;0.9;0.25" dur="9.0s" repeatCount="indefinite"/></text><text x="721.6" y="222.9" font-size="11" fill="#333d63" opacity="0.63">1</text><circle cx="820.6" cy="188.2" r="1.1" fill="#2b3352" opacity="0.70"></circle><line x1="795.5" y1="166.5" x2="782.1" y2="163.2" stroke="#2b3352" stroke-width="1.1" opacity="0.48"></line><circle cx="649.9" cy="162.1" r="1.7" fill="#0ea5a4" opacity="0.42"></circle><circle cx="458.5" cy="166.6" r="2.0" fill="#4f46e5" opacity="0.76"></circle><circle cx="292.4" cy="188.5" r="1.9" fill="#3a466f" opacity="0.84"></circle><text x="251.5" y="177.6" font-size="12" fill="#3a466f" opacity="0.71">0</text><text x="333.5" y="163.7" font-size="12" fill="#2b3352" opacity="0.55">1</text><circle cx="506.5" cy="145.1" r="2.4" fill="#4f46e5" opacity="0.52"></circle><circle cx="687.0" cy="137.0" r="1.8" fill="#333d63" opacity="0.52"></circle><circle cx="775.4" cy="131.9" r="2.0" fill="#2b3352" opacity="0.58"></circle><line x1="754.9" y1="165.3" x2="744.6" y2="167.9" stroke="#2b3352" stroke-width="1.1" opacity="0.42"></line><line x1="632.3" y1="209.1" x2="624.1" y2="210.8" stroke="#2b3352" stroke-width="1.1" opacity="0.51"></line><circle cx="479.0" cy="253.5" r="1.4" fill="#eab308" opacity="0.75"></circle><text x="391.0" y="297.1" font-size="12" fill="#0ea5a4" opacity="0.74">1</text><line x1="410.9" y1="310.1" x2="417.7" y2="311.6" stroke="#333d63" stroke-width="1.1" opacity="0.55"></line><text x="550.6" y="314.9" font-size="10" fill="#4f46e5" opacity="0.80">0</text><circle cx="736.9" cy="310.4" r="1.6" fill="#0ea5a4" opacity="0.61"></circle><line x1="888.6" y1="294.4" x2="902.2" y2="293.9" stroke="#4f46e5" stroke-width="1.1" opacity="0.41"></line><line x1="933.4" y1="294.4" x2="925.8" y2="297.3" stroke="#4f46e5" stroke-width="1.1" opacity="0.39"></line><circle cx="862.6" cy="303.1" r="1.9" fill="#3a466f" opacity="0.52"></circle><line x1="695.9" y1="328.3" x2="687.1" y2="328.9" stroke="#4f46e5" stroke-width="1.1" opacity="0.52"></line><text x="516.6" y="339.9" font-size="12" fill="#3a466f" opacity="0.82">1</text><line x1="425.9" y1="333.9" x2="416.4" y2="335.7" stroke="#4f46e5" stroke-width="1.1" opacity="0.50"></line><text x="447.6" y="316.0" font-size="11" fill="#3a466f" opacity="0.46">1</text><circle cx="568.5" cy="274.7" r="2.1" fill="#eab308" opacity="0.76"></circle><text x="712.5" y="229.0" font-size="12" fill="#333d63" opacity="0.53">1</text><line x1="804.6" y1="194.2" x2="806.2" y2="189.4" stroke="#3a466f" stroke-width="1.1" opacity="0.61"></line><circle cx="786.7" cy="164.9" r="1.2" fill="#333d63" opacity="0.47"></circle><line x1="645.4" y1="163.2" x2="637.2" y2="164.4" stroke="#3a466f" stroke-width="1.1" opacity="0.68"></line><circle cx="475.7" cy="178.4" r="1.6" fill="#4f46e5" opacity="0.42"></circle><circle cx="328.1" cy="193.3" r="1.6" fill="#2b3352" opacity="0.83"></circle><text x="279.9" y="183.9" font-size="12" fill="#333d63" opacity="0.70">0</text><line x1="353.1" y1="178.9" x2="360.1" y2="177.5" stroke="#4f46e5" stroke-width="1.1" opacity="0.76"></line><text x="507.6" y="158.5" font-size="10" fill="#3a466f" opacity="0.65">0</text><line x1="673.1" y1="137.2" x2="679.2" y2="137.9" stroke="#333d63" stroke-width="1.1" opacity="0.48"></line><line x1="764.9" y1="141.5" x2="770.7" y2="152.4" stroke="#333d63" stroke-width="1.1" opacity="0.71"></line><line x1="738.7" y1="165.3" x2="732.6" y2="168.9" stroke="#0ea5a4" stroke-width="1.1" opacity="0.51"></line><line x1="623.3" y1="207.8" x2="615.8" y2="210.4" stroke="#0ea5a4" stroke-width="1.1" opacity="0.48"></line><line x1="486.6" y1="246.1" x2="476.2" y2="252.5" stroke="#2b3352" stroke-width="1.1" opacity="0.59"></line><line x1="408.5" y1="292.7" x2="402.9" y2="295.1" stroke="#4f46e5" stroke-width="1.1" opacity="0.51"></line><line x1="431.8" y1="312.5" x2="438.2" y2="311.8" stroke="#4f46e5" stroke-width="1.1" opacity="0.76"></line><circle cx="548.2" cy="306.7" r="1.6" fill="#4f46e5" opacity="0.43"></circle><text x="726.9" y="297.1" font-size="12" fill="#0ea5a4" opacity="0.77">1</text><line x1="867.2" y1="290.8" x2="875.6" y2="289.9" stroke="#4f46e5" stroke-width="1.1" opacity="0.68"></line><circle cx="903.7" cy="287.4" r="1.5" fill="#2b3352" opacity="0.62"></circle><line x1="835.7" y1="305.1" x2="829.6" y2="305.3" stroke="#2b3352" stroke-width="1.1" opacity="0.67"></line><line x1="681.1" y1="320.5" x2="669.8" y2="321.4" stroke="#333d63" stroke-width="1.1" opacity="0.50"></line><text x="527.2" y="336.3" font-size="12" fill="#2b3352" opacity="0.60">0</text><circle cx="440.4" cy="335.4" r="1.6" fill="#333d63" opacity="0.51"></circle><line x1="458.9" y1="306.6" x2="467.3" y2="304.5" stroke="#3a466f" stroke-width="1.1" opacity="0.57"></line><circle cx="571.2" cy="267.8" r="2.3" fill="#3a466f" opacity="0.53"></circle><circle cx="701.4" cy="226.3" r="2.3" fill="#2b3352" opacity="0.64"></circle><text x="787.3" y="198.1" font-size="12" fill="#4f46e5" opacity="0.63">0</text><circle cx="760.8" cy="176.0" r="2.1" fill="#333d63" opacity="0.88"></circle><circle cx="641.0" cy="170.2" r="2.1" fill="#4f46e5" opacity="0.49"></circle><line x1="487.3" y1="186.3" x2="478.9" y2="186.3" stroke="#3a466f" stroke-width="1.1" opacity="0.39"></line><text x="345.2" y="196.5" font-size="11" fill="#0ea5a4" opacity="0.42">1</text><circle cx="304.6" cy="187.6" r="2.0" fill="#333d63" opacity="0.57"></circle><circle cx="375.9" cy="186.6" r="1.0" fill="#3a466f" opacity="0.75"></circle><circle cx="514.9" cy="160.8" r="1.0" fill="#2b3352" opacity="0.66"></circle><circle cx="673.6" cy="149.2" r="1.5" fill="#333d63" opacity="0.69"></circle><line x1="755.0" y1="150.2" x2="754.0" y2="160.0" stroke="#4f46e5" stroke-width="1.1" opacity="0.36"></line><line x1="724.6" y1="173.1" x2="715.8" y2="178.2" stroke="#eab308" stroke-width="1.1" opacity="0.76"></line><text x="622.8" y="214.2" font-size="12" fill="#4f46e5" opacity="0.80">1</text><circle cx="503.9" cy="255.9" r="2.1" fill="#333d63" opacity="0.45"></circle><text x="422.2" y="287.8" font-size="12" fill="#0ea5a4" opacity="0.61">0</text><circle cx="445.0" cy="303.1" r="1.2" fill="#0ea5a4" opacity="0.40"></circle><line x1="553.3" y1="301.7" x2="566.3" y2="301.5" stroke="#2b3352" stroke-width="1.1" opacity="0.60"></line><line x1="710.1" y1="297.8" x2="722.5" y2="296.0" stroke="#eab308" stroke-width="1.1" opacity="0.79"></line><text x="845.5" y="282.9" font-size="12" fill="#4f46e5" opacity="0.49">0</text><line x1="875.2" y1="288.2" x2="863.3" y2="286.1" stroke="#4f46e5" stroke-width="1.1" opacity="0.76"></line><circle cx="811.5" cy="291.3" r="2.3" fill="#0ea5a4" opacity="0.57"></circle><circle cx="671.3" cy="317.7" r="1.0" fill="#2b3352" opacity="0.62"></circle><circle cx="531.6" cy="323.9" r="1.6" fill="#2b3352" opacity="0.50"></circle><circle cx="455.3" cy="323.7" r="1.5" fill="#4f46e5" opacity="0.73"></circle><circle cx="480.4" cy="299.5" r="2.3" fill="#3a466f" opacity="0.87"></circle><circle cx="577.7" cy="264.1" r="1.8" fill="#333d63" opacity="0.40"></circle><text x="690.0" y="235.0" font-size="10" fill="#eab308" opacity="0.68">0</text><circle cx="768.3" cy="203.3" r="2.0" fill="#2b3352" opacity="0.73"></circle><circle cx="751.4" cy="175.4" r="1.8" fill="#0ea5a4" opacity="0.71"></circle><line x1="644.2" y1="174.9" x2="631.1" y2="177.0" stroke="#3a466f" stroke-width="1.1" opacity="0.42"></line><line x1="489.6" y1="186.9" x2="483.4" y2="187.6" stroke="#333d63" stroke-width="1.1" opacity="0.77"></line><circle cx="367.3" cy="198.9" r="1.8" fill="#2b3352" opacity="0.89"></circle><text x="331.8" y="202.0" font-size="11" fill="#eab308" opacity="0.74">0</text><circle cx="393.9" cy="183.3" r="2.4" fill="#333d63" opacity="0.63"></circle><circle cx="522.8" cy="168.9" r="1.4" fill="#3a466f" opacity="0.64"></circle><circle cx="660.4" cy="165.5" r="1.7" fill="#0ea5a4" opacity="0.76"></circle><text x="732.2" y="156.8" font-size="12" fill="#333d63" opacity="0.70">1</text><circle cx="714.5" cy="184.7" r="1.1" fill="#4f46e5" opacity="0.59"></circle><line x1="627.6" y1="217.9" x2="617.6" y2="219.4" stroke="#4f46e5" stroke-width="1.1" opacity="0.69"></line><text x="503.8" y="253.6" font-size="10" fill="#3a466f" opacity="0.78">1</text><text x="436.8" y="274.6" font-size="10" fill="#2b3352" opacity="0.64">0</text><circle cx="457.7" cy="296.2" r="2.0" fill="#333d63" opacity="0.89"></circle><text x="561.8" y="299.6" font-size="12" fill="#4f46e5" opacity="0.65">0</text><line x1="699.7" y1="294.9" x2="707.7" y2="293.3" stroke="#3a466f" stroke-width="1.1" opacity="0.71"></line><circle cx="814.2" cy="285.7" r="1.5" fill="#eab308" opacity="0.88"></circle><line x1="851.4" y1="283.1" x2="842.5" y2="283.2" stroke="#4f46e5" stroke-width="1.1" opacity="0.53"></line><circle cx="795.2" cy="286.7" r="1.4" fill="#333d63" opacity="0.46"></circle><text x="668.5" y="311.4" font-size="12" fill="#2b3352" opacity="0.52">0</text><circle cx="541.0" cy="319.2" r="1.5" fill="#333d63" opacity="0.69"></circle><circle cx="464.5" cy="314.5" r="1.6" fill="#333d63" opacity="0.63"></circle><circle cx="490.0" cy="295.0" r="1.5" fill="#2b3352" opacity="0.85"></circle><circle cx="581.6" cy="263.7" r="1.7" fill="#333d63" opacity="0.79"></circle><circle cx="683.1" cy="226.7" r="1.7" fill="#2b3352" opacity="0.71"></circle><line x1="756.4" y1="201.9" x2="759.2" y2="189.2" stroke="#2b3352" stroke-width="1.1" opacity="0.55"></line><circle cx="741.7" cy="185.2" r="1.7" fill="#2b3352" opacity="0.70"></circle><line x1="635.0" y1="180.7" x2="627.1" y2="182.1" stroke="#333d63" stroke-width="1.1" opacity="0.79"></line><circle cx="502.8" cy="193.5" r="2.2" fill="#0ea5a4" opacity="0.55"></circle><line x1="391.1" y1="202.5" x2="377.9" y2="201.8" stroke="#eab308" stroke-width="1.1" opacity="0.50"></line><circle cx="353.3" cy="199.9" r="2.0" fill="#333d63" opacity="0.40"></circle><circle cx="415.4" cy="190.9" r="2.2" fill="#333d63" opacity="0.76"></circle><circle cx="535.4" cy="183.1" r="2.2" fill="#4f46e5" opacity="0.80"></circle><line x1="657.8" y1="169.4" x2="671.3" y2="167.5" stroke="#3a466f" stroke-width="1.1" opacity="0.47"></line><line x1="727.3" y1="166.8" x2="728.6" y2="177.0" stroke="#4f46e5" stroke-width="1.1" opacity="0.42"></line><text x="707.3" y="190.2" font-size="12" fill="#0ea5a4" opacity="0.45">1</text><circle cx="619.4" cy="212.6" r="1.7" fill="#3a466f" opacity="0.58"></circle><circle cx="516.0" cy="251.3" r="1.4" fill="#2b3352" opacity="0.72"></circle><circle cx="451.3" cy="278.1" r="2.3" fill="#2b3352" opacity="0.83"></circle><circle cx="471.5" cy="296.1" r="1.3" fill="#0ea5a4" opacity="0.78"></circle><text x="567.3" y="294.2" font-size="11" fill="#2b3352" opacity="0.67">1</text><text x="699.3" y="287.1" font-size="10" fill="#3a466f" opacity="0.76">1</text><circle cx="794.1" cy="273.1" r="2.1" fill="#eab308" opacity="0.71"></circle><circle cx="829.4" cy="281.0" r="1.5" fill="#0ea5a4" opacity="0.76"></circle><line x1="779.7" y1="284.6" x2="771.5" y2="286.1" stroke="#4f46e5" stroke-width="1.1" opacity="0.72"></line><circle cx="657.9" cy="304.8" r="1.6" fill="#3a466f" opacity="0.72"></circle><circle cx="541.3" cy="315.7" r="1.4" fill="#0ea5a4" opacity="0.75"></circle><circle cx="482.5" cy="309.7" r="1.4" fill="#3a466f" opacity="0.87"></circle><text x="495.9" y="296.5" font-size="10" fill="#333d63" opacity="0.66">1</text><circle cx="574.0" cy="262.6" r="2.1" fill="#4f46e5" opacity="0.44"></circle><line x1="675.7" y1="230.6" x2="683.1" y2="228.4" stroke="#3a466f" stroke-width="1.1" opacity="0.47"></line><circle cx="740.8" cy="202.5" r="1.0" fill="#3a466f" opacity="0.81"></circle><text x="725.7" y="195.0" font-size="12" fill="#3a466f" opacity="0.84">1</text><circle cx="634.8" cy="185.6" r="2.1" fill="#333d63" opacity="0.65"></circle><circle cx="515.2" cy="192.7" r="1.5" fill="#333d63" opacity="0.73"></circle><line x1="405.9" y1="205.5" x2="400.0" y2="205.3" stroke="#0ea5a4" stroke-width="1.1" opacity="0.39"></line><line x1="379.7" y1="208.9" x2="385.1" y2="203.2" stroke="#333d63" stroke-width="1.1" opacity="0.62"></line><circle cx="428.9" cy="192.6" r="2.2" fill="#333d63" opacity="0.64"></circle><line x1="535.3" y1="179.5" x2="547.2" y2="179.5" stroke="#2b3352" stroke-width="1.1" opacity="0.59"></line><line x1="654.8" y1="174.5" x2="665.5" y2="173.5" stroke="#3a466f" stroke-width="1.1" opacity="0.42"></line><circle cx="713.8" cy="179.2" r="2.0" fill="#2b3352" opacity="0.46"></circle><circle cx="696.4" cy="186.8" r="1.2" fill="#2b3352" opacity="0.88"></circle><circle cx="623.8" cy="214.7" r="1.4" fill="#0ea5a4" opacity="0.70"></circle><text x="528.3" y="245.8" font-size="11" fill="#3a466f" opacity="0.46">1</text><text x="466.1" y="273.4" font-size="12" fill="#2b3352" opacity="0.69">1</text><circle cx="475.4" cy="283.0" r="2.0" fill="#333d63" opacity="0.85"></circle><line x1="572.5" y1="290.5" x2="579.3" y2="289.4" stroke="#333d63" stroke-width="1.1" opacity="0.54"></line><text x="682.3" y="281.1" font-size="10" fill="#4f46e5" opacity="0.55">1</text><circle cx="776.2" cy="274.3" r="2.4" fill="#3a466f" opacity="0.61"></circle><circle cx="814.5" cy="272.0" r="2.3" fill="#3a466f" opacity="0.52"></circle><line x1="759.6" y1="282.2" x2="753.7" y2="283.1" stroke="#333d63" stroke-width="1.1" opacity="0.69"></line><circle cx="655.5" cy="295.5" r="1.0" fill="#0ea5a4" opacity="0.82"></circle><line x1="555.8" y1="306.3" x2="544.8" y2="305.6" stroke="#2b3352" stroke-width="1.1" opacity="0.60"></line><circle cx="487.4" cy="307.3" r="1.2" fill="#4f46e5" opacity="0.69"></circle><line x1="509.9" y1="287.8" x2="516.4" y2="284.4" stroke="#0ea5a4" stroke-width="1.1" opacity="0.68"></line><line x1="578.4" y1="255.9" x2="588.4" y2="254.9" stroke="#333d63" stroke-width="1.1" opacity="0.42"></line><circle cx="674.3" cy="232.3" r="1.4" fill="#3a466f" opacity="0.55"></circle><text x="724.5" y="207.6" font-size="11" fill="#333d63" opacity="0.74">0</text><circle cx="709.8" cy="196.6" r="2.4" fill="#4f46e5" opacity="0.75"></circle><line x1="625.8" y1="195.7" x2="612.1" y2="195.9" stroke="#333d63" stroke-width="1.1" opacity="0.78"></line><circle cx="514.9" cy="197.7" r="2.3" fill="#0ea5a4" opacity="0.86"></circle><line x1="426.1" y1="207.7" x2="417.4" y2="207.9" stroke="#0ea5a4" stroke-width="1.1" opacity="0.80"></line><circle cx="396.7" cy="206.2" r="1.6" fill="#0ea5a4" opacity="0.74"></circle><text x="449.1" y="195.3" font-size="10" fill="#2b3352" opacity="0.72">0</text><circle cx="550.1" cy="193.6" r="2.3" fill="#4f46e5" opacity="0.55"></circle><line x1="649.4" y1="183.9" x2="658.5" y2="181.5" stroke="#333d63" stroke-width="1.1" opacity="0.57"></line><line x1="702.9" y1="181.3" x2="714.3" y2="189.0" stroke="#3a466f" stroke-width="1.1" opacity="0.39"></line><text x="690.5" y="189.0" font-size="10" fill="#eab308" opacity="0.67">0</text><circle cx="618.9" cy="222.9" r="1.6" fill="#2b3352" opacity="0.87"></circle><line x1="536.5" y1="249.3" x2="527.7" y2="251.3" stroke="#333d63" stroke-width="1.1" opacity="0.69"></line><line x1="476.0" y1="265.2" x2="475.0" y2="276.8" stroke="#2b3352" stroke-width="1.1" opacity="0.79"></line><line x1="490.4" y1="286.5" x2="497.6" y2="285.4" stroke="#2b3352" stroke-width="1.1" opacity="0.37"></line><line x1="570.6" y1="278.6" x2="581.6" y2="279.9" stroke="#2b3352" stroke-width="1.1" opacity="0.56"></line><line x1="682.3" y1="275.1" x2="689.0" y2="275.1" stroke="#333d63" stroke-width="1.1" opacity="0.51"></line><circle cx="762.6" cy="274.5" r="2.2" fill="#4f46e5" opacity="0.50"></circle><circle cx="789.8" cy="269.5" r="1.7" fill="#3a466f" opacity="0.80"></circle><circle cx="751.9" cy="280.0" r="2.4" fill="#3a466f" opacity="0.44"></circle><circle cx="652.2" cy="292.7" r="2.4" fill="#3a466f" opacity="0.46"></circle><text x="558.3" y="294.6" font-size="11" fill="#0ea5a4" opacity="0.64">0</text><line x1="498.9" y1="293.2" x2="496.0" y2="304.6" stroke="#4f46e5" stroke-width="1.1" opacity="0.77"></line><circle cx="515.1" cy="284.7" r="2.1" fill="#4f46e5" opacity="0.89"></circle><circle cx="578.0" cy="254.5" r="1.6" fill="#333d63" opacity="0.65"></circle><circle cx="662.6" cy="229.6" r="1.3" fill="#3a466f" opacity="0.52"></circle><circle cx="711.2" cy="205.1" r="1.7" fill="#0ea5a4" opacity="0.41"></circle><circle cx="705.7" cy="199.8" r="1.8" fill="#0ea5a4" opacity="0.57"></circle><circle cx="622.9" cy="203.5" r="1.1" fill="#2b3352" opacity="0.71"></circle><circle cx="524.3" cy="200.8" r="1.7" fill="#333d63" opacity="0.66"></circle><line x1="444.7" y1="213.2" x2="434.3" y2="211.9" stroke="#4f46e5" stroke-width="1.1" opacity="0.71"></line><circle cx="421.0" cy="207.6" r="1.7" fill="#4f46e5" opacity="0.54"></circle><line x1="465.3" y1="208.5" x2="473.8" y2="204.6" stroke="#333d63" stroke-width="1.1" opacity="0.53"></line><circle cx="554.7" cy="189.6" r="2.0" fill="#333d63" opacity="0.56"></circle><circle cx="639.7" cy="181.6" r="2.4" fill="#eab308" opacity="0.72"></circle><line x1="690.0" y1="182.0" x2="695.9" y2="187.8" stroke="#2b3352" stroke-width="1.1" opacity="0.70"></line><circle cx="680.9" cy="203.7" r="1.1" fill="#3a466f" opacity="0.46"></circle><circle cx="616.7" cy="215.8" r="1.5" fill="#3a466f" opacity="0.42"></circle><line x1="537.3" y1="246.0" x2="532.1" y2="248.1" stroke="#333d63" stroke-width="1.1" opacity="0.59"></line><circle cx="485.4" cy="271.3" r="2.1" fill="#2b3352" opacity="0.51"></circle><circle cx="499.7" cy="280.8" r="1.4" fill="#3a466f" opacity="0.87"></circle><line x1="576.9" y1="283.3" x2="583.3" y2="281.9" stroke="#4f46e5" stroke-width="1.1" opacity="0.74"></line><circle cx="676.1" cy="271.3" r="2.4" fill="#2b3352" opacity="0.90"></circle><circle cx="747.7" cy="273.4" r="2.1" fill="#4f46e5" opacity="0.83"></circle><circle cx="771.9" cy="266.4" r="1.6" fill="#333d63" opacity="0.80"></circle><circle cx="730.5" cy="281.0" r="1.7" fill="#3a466f" opacity="0.70"></circle><text x="647.1" y="281.8" font-size="12" fill="#0ea5a4" opacity="0.43">1</text><text x="563.7" y="295.1" font-size="11" fill="#333d63" opacity="0.41">1</text><text x="508.1" y="293.8" font-size="10" fill="#4f46e5" opacity="0.59">0</text><line x1="518.0" y1="284.3" x2="529.8" y2="277.6" stroke="#333d63" stroke-width="1.1" opacity="0.52"></line><text x="580.9" y="256.6" font-size="12" fill="#333d63" opacity="0.70">0</text><circle cx="658.7" cy="228.5" r="1.5" fill="#3a466f" opacity="0.56"></circle><circle cx="706.0" cy="215.9" r="1.3" fill="#333d63" opacity="0.58"></circle><circle cx="698.3" cy="198.4" r="2.3" fill="#0ea5a4" opacity="0.61"></circle><line x1="625.3" y1="197.0" x2="616.1" y2="199.4" stroke="#3a466f" stroke-width="1.1" opacity="0.35"></line><circle cx="526.5" cy="206.3" r="2.3" fill="#eab308" opacity="0.71"></circle><text x="460.1" y="215.7" font-size="12" fill="#4f46e5" opacity="0.41">0</text><line x1="428.5" y1="215.3" x2="439.9" y2="211.0" stroke="#2b3352" stroke-width="1.1" opacity="0.76"></line><text x="473.9" y="212.3" font-size="12" fill="#eab308" opacity="0.79">1</text><circle cx="558.6" cy="197.6" r="1.7" fill="#3a466f" opacity="0.74"></circle><circle cx="633.1" cy="192.4" r="1.4" fill="#2b3352" opacity="0.65"></circle><line x1="689.0" y1="191.5" x2="683.5" y2="200.1" stroke="#333d63" stroke-width="1.1" opacity="0.71"></line><line x1="674.1" y1="201.1" x2="667.2" y2="204.6" stroke="#2b3352" stroke-width="1.1" opacity="0.50"></line><line x1="612.5" y1="222.5" x2="602.0" y2="226.6" stroke="#333d63" stroke-width="1.1" opacity="0.77"></line><line x1="541.9" y1="249.1" x2="531.9" y2="251.2" stroke="#333d63" stroke-width="1.1" opacity="0.68"></line><circle cx="499.9" cy="259.9" r="1.8" fill="#4f46e5" opacity="0.77"></circle><text x="509.2" y="278.6" font-size="10" fill="#eab308" opacity="0.64">0</text><line x1="579.1" y1="279.0" x2="587.0" y2="277.4" stroke="#0ea5a4" stroke-width="1.1" opacity="0.72"></line><circle cx="669.6" cy="265.5" r="2.4" fill="#4f46e5" opacity="0.57"></circle><circle cx="731.6" cy="265.3" r="1.3" fill="#2b3352" opacity="0.41"></circle><circle cx="759.0" cy="261.2" r="2.4" fill="#eab308" opacity="0.59"></circle><line x1="720.2" y1="273.0" x2="708.4" y2="274.0" stroke="#2b3352" stroke-width="1.1" opacity="0.78"></line></g><text x="24" y="460" font-family="Consolas, Menlo, monospace" font-size="13" fill="#4a5578">2026-07-22 · sin(2t+φ)·e^(−λt), sin(6t) · seed d5f802</text></svg>