<svg width="1200" height="480" viewBox="0 0 1200 480" xmlns="http://www.w3.org/2000/svg" role="img" aria-label="Generative art for 2026-07-24"><rect width="1200" height="480" fill="#0b0e1a"/><g font-family="Consolas, Menlo, monospace"><line x1="930.9" y1="315.8" x2="922.6" y2="325.8" stroke="#2b3352" stroke-width="1.1" opacity="0.44"></line><line x1="846.2" y1="408.2" x2="839.7" y2="412.2" stroke="#2b3352" stroke-width="1.1" opacity="0.65"></line><line x1="773.3" y1="461.1" x2="766.2" y2="465.6" stroke="#3a466f" stroke-width="1.1" opacity="0.40"></line><line x1="752.6" y1="468.6" x2="755.4" y2="463.1" stroke="#3a466f" stroke-width="1.1" opacity="0.61"></line><circle cx="783.8" cy="427.7" r="1.7" fill="#3a466f" opacity="0.74"></circle><line x1="854.9" y1="349.6" x2="861.4" y2="339.4" stroke="#0ea5a4" stroke-width="1.1" opacity="0.50"></line><circle cx="928.4" cy="245.7" r="1.8" fill="#2b3352" opacity="0.55"></circle><circle cx="948.9" cy="164.1" r="2.2" fill="#eab308" opacity="0.55"><animate attributeName="opacity" values="0.25;0.9;0.25" dur="11.8s" repeatCount="indefinite"/></circle><line x1="915.8" y1="116.1" x2="903.1" y2="115.9" stroke="#333d63" stroke-width="1.1" opacity="0.45"></line><text x="806.4" y="120.6" font-size="10" fill="#333d63" opacity="0.56">0</text><circle cx="630.4" cy="162.5" r="2.2" fill="#eab308" opacity="0.64"><animate attributeName="opacity" values="0.25;0.9;0.25" dur="11.5s" repeatCount="indefinite"/></circle><text x="423.6" y="213.8" font-size="12" fill="#2b3352" opacity="0.74">0</text><line x1="242.9" y1="274.0" x2="237.3" y2="275.4" stroke="#4f46e5" stroke-width="1.1" opacity="0.40"></line><circle cx="110.5" cy="305.0" r="2.3" fill="#333d63" opacity="0.64"></circle><text x="63.0" y="300.2" font-size="12" fill="#3a466f" opacity="0.79">0</text><circle cx="112.1" cy="244.4" r="1.0" fill="#4f46e5" opacity="0.85"></circle><text x="213.5" y="181.0" font-size="12" fill="#3a466f" opacity="0.68">1</text><line x1="354.7" y1="103.1" x2="366.7" y2="98.0" stroke="#0ea5a4" stroke-width="1.1" opacity="0.74"></line><circle cx="475.1" cy="59.4" r="2.0" fill="#2b3352" opacity="0.51"></circle><text x="546.1" y="53.9" font-size="10" fill="#4f46e5" opacity="0.51">1</text><line x1="573.5" y1="87.3" x2="570.8" y2="100.8" stroke="#333d63" stroke-width="1.1" opacity="0.51"></line><line x1="551.8" y1="165.8" x2="546.0" y2="176.0" stroke="#3a466f" stroke-width="1.1" opacity="0.56"></line><text x="514.1" y="259.8" font-size="10" fill="#3a466f" opacity="0.81">0</text><circle cx="486.1" cy="336.1" r="1.2" fill="#2b3352" opacity="0.78"></circle><text x="509.3" y="392.7" font-size="12" fill="#2b3352" opacity="0.74">1</text><text x="580.9" y="392.4" font-size="12" fill="#3a466f" opacity="0.76">1</text><circle cx="717.5" cy="363.1" r="1.8" fill="#333d63" opacity="0.64"></circle><text x="874.9" y="309.7" font-size="10" fill="#0ea5a4" opacity="0.71">0</text><circle cx="1007.9" cy="248.3" r="1.5" fill="#4f46e5" opacity="0.48"></circle><text x="1105.4" y="198.5" font-size="10" fill="#333d63" opacity="0.75">1</text><circle cx="1115.1" cy="188.9" r="1.4" fill="#3a466f" opacity="0.87"></circle><text x="1045.6" y="213.0" font-size="12" fill="#4f46e5" opacity="0.61">0</text><circle cx="921.4" cy="264.7" r="1.9" fill="#333d63" opacity="0.56"></circle><line x1="751.5" y1="319.3" x2="745.4" y2="322.2" stroke="#4f46e5" stroke-width="1.1" opacity="0.79"></line><circle cx="605.5" cy="366.1" r="1.6" fill="#333d63" opacity="0.56"></circle><circle cx="498.3" cy="378.5" r="1.1" fill="#3a466f" opacity="0.41"></circle><circle cx="448.8" cy="348.2" r="1.3" fill="#3a466f" opacity="0.75"></circle><line x1="442.4" y1="281.4" x2="447.1" y2="274.6" stroke="#2b3352" stroke-width="1.1" opacity="0.73"></line><circle cx="485.9" cy="210.0" r="2.1" fill="#333d63" opacity="0.42"></circle><circle cx="522.2" cy="131.3" r="2.3" fill="#2b3352" opacity="0.87"></circle><line x1="539.0" y1="83.1" x2="533.3" y2="73.5" stroke="#2b3352" stroke-width="1.1" opacity="0.38"></line><circle cx="504.2" cy="64.4" r="1.4" fill="#3a466f" opacity="0.52"></circle><text x="431.8" y="100.7" font-size="11" fill="#2b3352" opacity="0.76">1</text><text x="333.0" y="155.5" font-size="12" fill="#2b3352" opacity="0.80">0</text><circle cx="239.6" cy="222.5" r="1.3" fill="#333d63" opacity="0.76"></circle><text x="192.7" y="275.0" font-size="11" fill="#4f46e5" opacity="0.50">0</text><text x="198.6" y="295.2" font-size="12" fill="#3a466f" opacity="0.44">0</text><line x1="280.1" y1="296.9" x2="286.9" y2="295.0" stroke="#333d63" stroke-width="1.1" opacity="0.51"></line><circle cx="413.9" cy="260.3" r="1.1" fill="#0ea5a4" opacity="0.74"></circle><line x1="576.4" y1="215.3" x2="585.4" y2="212.5" stroke="#eab308" stroke-width="1.1" opacity="0.62"><animate attributeName="opacity" values="0.25;0.9;0.25" dur="12.6s" repeatCount="indefinite"/></line><circle cx="735.4" cy="177.4" r="1.5" fill="#eab308" opacity="0.47"><animate attributeName="opacity" values="0.25;0.9;0.25" dur="9.0s" repeatCount="indefinite"/></circle><line x1="843.2" y1="152.4" x2="849.0" y2="153.3" stroke="#2b3352" stroke-width="1.1" opacity="0.44"></line><line x1="905.6" y1="170.0" x2="906.8" y2="177.9" stroke="#333d63" stroke-width="1.1" opacity="0.66"></line><line x1="902.9" y1="218.2" x2="894.5" y2="227.8" stroke="#4f46e5" stroke-width="1.1" opacity="0.47"></line><circle cx="845.7" cy="284.0" r="1.7" fill="#eab308" opacity="0.87"><animate attributeName="opacity" values="0.25;0.9;0.25" dur="8.6s" repeatCount="indefinite"/></circle><text x="786.6" y="353.3" font-size="10" fill="#2b3352" opacity="0.42">1</text><circle cx="721.9" cy="395.4" r="1.5" fill="#3a466f" opacity="0.50"></circle><line x1="701.4" y1="399.2" x2="714.0" y2="401.6" stroke="#333d63" stroke-width="1.1" opacity="0.69"></line><text x="729.1" y="381.3" font-size="11" fill="#2b3352" opacity="0.60">0</text><circle cx="769.5" cy="327.7" r="1.2" fill="#3a466f" opacity="0.54"></circle><text x="828.3" y="255.0" font-size="10" fill="#2b3352" opacity="0.83">1</text><circle cx="853.6" cy="194.1" r="2.2" fill="#3a466f" opacity="0.78"></circle><line x1="833.5" y1="153.3" x2="820.6" y2="153.1" stroke="#0ea5a4" stroke-width="1.1" opacity="0.56"></line><text x="752.9" y="150.4" font-size="12" fill="#4f46e5" opacity="0.79">1</text><circle cx="641.9" cy="173.0" r="1.5" fill="#eab308" opacity="0.85"><animate attributeName="opacity" values="0.25;0.9;0.25" dur="8.8s" repeatCount="indefinite"/></circle><line x1="494.4" y1="220.3" x2="482.7" y2="223.3" stroke="#333d63" stroke-width="1.1" opacity="0.57"></line><circle cx="361.0" cy="257.5" r="1.3" fill="#4f46e5" opacity="0.68"></circle><circle cx="263.4" cy="281.5" r="2.1" fill="#3a466f" opacity="0.47"></circle><circle cx="219.4" cy="282.8" r="1.9" fill="#3a466f" opacity="0.87"></circle><line x1="245.5" y1="258.5" x2="250.1" y2="253.0" stroke="#0ea5a4" stroke-width="1.1" opacity="0.46"></line><circle cx="314.7" cy="204.8" r="2.0" fill="#333d63" opacity="0.63"></circle><line x1="413.6" y1="155.1" x2="420.7" y2="150.1" stroke="#333d63" stroke-width="1.1" opacity="0.67"></line><line x1="498.5" y1="113.0" x2="504.4" y2="111.4" stroke="#2b3352" stroke-width="1.1" opacity="0.37"></line><line x1="555.9" y1="101.0" x2="560.7" y2="103.0" stroke="#4f46e5" stroke-width="1.1" opacity="0.78"></line><text x="582.3" y="131.8" font-size="12" fill="#eab308" opacity="0.79">0<animate attributeName="opacity" values="0.25;0.9;0.25" dur="11.3s" repeatCount="indefinite"/></text><line x1="568.5" y1="178.2" x2="566.0" y2="183.3" stroke="#0ea5a4" stroke-width="1.1" opacity="0.63"></line><circle cx="536.8" cy="235.2" r="2.0" fill="#2b3352" opacity="0.57"></circle><circle cx="519.1" cy="301.3" r="1.4" fill="#0ea5a4" opacity="0.44"></circle><line x1="528.6" y1="338.3" x2="538.0" y2="346.7" stroke="#eab308" stroke-width="1.1" opacity="0.51"><animate attributeName="opacity" values="0.25;0.9;0.25" dur="6.8s" repeatCount="indefinite"/></line><circle cx="579.5" cy="347.7" r="1.9" fill="#333d63" opacity="0.48"></circle><circle cx="671.5" cy="330.8" r="1.9" fill="#2b3352" opacity="0.50"></circle><text x="779.5" y="296.4" font-size="11" fill="#3a466f" opacity="0.82">0</text><circle cx="882.0" cy="246.8" r="1.3" fill="#3a466f" opacity="0.58"></circle><circle cx="947.6" cy="211.5" r="1.9" fill="#4f46e5" opacity="0.51"></circle><line x1="971.4" y1="203.1" x2="959.7" y2="207.1" stroke="#0ea5a4" stroke-width="1.1" opacity="0.41"></line><text x="932.0" y="219.2" font-size="11" fill="#333d63" opacity="0.50">0</text><text x="845.1" y="250.3" font-size="12" fill="#eab308" opacity="0.77">1<animate attributeName="opacity" values="0.25;0.9;0.25" dur="11.0s" repeatCount="indefinite"/></text><text x="723.8" y="289.6" font-size="11" fill="#4f46e5" opacity="0.40">0</text><line x1="621.5" y1="325.4" x2="614.7" y2="327.1" stroke="#eab308" stroke-width="1.1" opacity="0.39"><animate attributeName="opacity" values="0.25;0.9;0.25" dur="10.7s" repeatCount="indefinite"/></line><line x1="529.9" y1="333.6" x2="520.6" y2="335.5" stroke="#2b3352" stroke-width="1.1" opacity="0.46"></line><circle cx="495.0" cy="326.6" r="1.3" fill="#0ea5a4" opacity="0.79"></circle><circle cx="487.5" cy="282.7" r="2.0" fill="#eab308" opacity="0.51"><animate attributeName="opacity" values="0.25;0.9;0.25" dur="11.1s" repeatCount="indefinite"/></circle><text x="510.2" y="229.0" font-size="10" fill="#0ea5a4" opacity="0.63">1<animate attributeName="opacity" values="0.25;0.9;0.25" dur="6.9s" repeatCount="indefinite"/></text><circle cx="536.3" cy="169.6" r="1.2" fill="#333d63" opacity="0.67"></circle><line x1="555.9" y1="131.3" x2="552.4" y2="119.2" stroke="#3a466f" stroke-width="1.1" opacity="0.39"></line><line x1="542.4" y1="119.2" x2="531.1" y2="118.5" stroke="#eab308" stroke-width="1.1" opacity="0.69"></line><circle cx="488.6" cy="127.8" r="2.0" fill="#333d63" opacity="0.67"></circle><text x="417.8" y="171.5" font-size="12" fill="#4f46e5" opacity="0.73">1</text><circle cx="352.1" cy="215.2" r="1.9" fill="#0ea5a4" opacity="0.52"></circle><text x="315.7" y="254.0" font-size="10" fill="#2b3352" opacity="0.59">0</text><line x1="317.1" y1="283.1" x2="323.7" y2="283.7" stroke="#eab308" stroke-width="1.1" opacity="0.57"></line><circle cx="362.9" cy="277.2" r="1.8" fill="#4f46e5" opacity="0.59"></circle><line x1="451.9" y1="256.3" x2="457.1" y2="255.2" stroke="#3a466f" stroke-width="1.1" opacity="0.71"></line><text x="564.4" y="224.5" font-size="11" fill="#eab308" opacity="0.76">0</text><text x="683.2" y="193.6" font-size="12" fill="#2b3352" opacity="0.75">1</text><text x="765.8" y="182.5" font-size="12" fill="#333d63" opacity="0.84">1</text><circle cx="809.8" cy="184.3" r="2.1" fill="#2b3352" opacity="0.56"></circle><circle cx="810.4" cy="224.1" r="1.8" fill="#4f46e5" opacity="0.52"></circle><circle cx="787.2" cy="261.1" r="2.2" fill="#333d63" opacity="0.50"></circle><circle cx="732.0" cy="317.2" r="1.6" fill="#3a466f" opacity="0.76"></circle><line x1="690.2" y1="347.1" x2="682.4" y2="357.7" stroke="#0ea5a4" stroke-width="1.1" opacity="0.65"></line><text x="679.9" y="356.6" font-size="12" fill="#2b3352" opacity="0.67">1</text><line x1="681.1" y1="340.9" x2="691.6" y2="334.8" stroke="#333d63" stroke-width="1.1" opacity="0.64"></line><circle cx="718.6" cy="309.0" r="2.2" fill="#333d63" opacity="0.51"></circle><line x1="752.7" y1="264.1" x2="759.0" y2="252.6" stroke="#0ea5a4" stroke-width="1.1" opacity="0.41"></line><line x1="780.7" y1="212.6" x2="778.7" y2="202.0" stroke="#4f46e5" stroke-width="1.1" opacity="0.41"></line><line x1="769.3" y1="188.0" x2="763.8" y2="183.4" stroke="#4f46e5" stroke-width="1.1" opacity="0.38"></line><text x="717.3" y="180.4" font-size="10" fill="#4f46e5" opacity="0.53">1</text><circle cx="642.2" cy="194.7" r="1.6" fill="#333d63" opacity="0.89"></circle><circle cx="542.2" cy="220.4" r="1.3" fill="#4f46e5" opacity="0.53"></circle><circle cx="446.5" cy="246.5" r="1.0" fill="#333d63" opacity="0.85"></circle><circle cx="363.5" cy="273.5" r="1.5" fill="#0ea5a4" opacity="0.48"></circle><circle cx="334.6" cy="277.0" r="1.8" fill="#2b3352" opacity="0.41"></circle><circle cx="339.4" cy="257.9" r="1.7" fill="#333d63" opacity="0.88"></circle><line x1="393.3" y1="214.6" x2="403.8" y2="209.9" stroke="#2b3352" stroke-width="1.1" opacity="0.69"></line><line x1="449.5" y1="185.0" x2="455.4" y2="182.0" stroke="#0ea5a4" stroke-width="1.1" opacity="0.51"></line><line x1="514.1" y1="148.1" x2="519.3" y2="148.0" stroke="#3a466f" stroke-width="1.1" opacity="0.70"></line><line x1="571.1" y1="139.5" x2="576.2" y2="145.2" stroke="#0ea5a4" stroke-width="1.1" opacity="0.39"></line><text x="591.5" y="154.5" font-size="12" fill="#eab308" opacity="0.52">0</text><circle cx="581.7" cy="187.1" r="1.7" fill="#3a466f" opacity="0.43"></circle><line x1="561.6" y1="235.0" x2="555.6" y2="245.3" stroke="#333d63" stroke-width="1.1" opacity="0.71"></line><line x1="541.6" y1="272.6" x2="542.1" y2="285.7" stroke="#eab308" stroke-width="1.1" opacity="0.66"></line><text x="546.5" y="312.1" font-size="11" fill="#333d63" opacity="0.61">1</text><circle cx="573.0" cy="324.7" r="1.9" fill="#333d63" opacity="0.89"></circle><circle cx="643.5" cy="308.5" r="1.7" fill="#0ea5a4" opacity="0.89"></circle><circle cx="720.1" cy="283.0" r="2.3" fill="#333d63" opacity="0.80"></circle><circle cx="795.2" cy="255.7" r="1.8" fill="#0ea5a4" opacity="0.45"></circle><circle cx="839.8" cy="227.1" r="1.5" fill="#333d63" opacity="0.88"></circle><circle cx="865.9" cy="212.9" r="1.0" fill="#333d63" opacity="0.55"></circle><text x="837.2" y="226.7" font-size="11" fill="#333d63" opacity="0.41">1</text><line x1="780.4" y1="244.4" x2="773.5" y2="247.4" stroke="#0ea5a4" stroke-width="1.1" opacity="0.68"></line><circle cx="706.9" cy="276.2" r="1.0" fill="#2b3352" opacity="0.80"></circle><circle cx="621.0" cy="296.2" r="2.3" fill="#2b3352" opacity="0.76"></circle><circle cx="555.9" cy="308.6" r="2.4" fill="#333d63" opacity="0.65"></circle><text x="523.1" y="301.6" font-size="11" fill="#4f46e5" opacity="0.84">0</text><line x1="519.7" y1="274.2" x2="521.7" y2="267.3" stroke="#4f46e5" stroke-width="1.1" opacity="0.55"></line><circle cx="532.9" cy="237.4" r="1.0" fill="#333d63" opacity="0.67"></circle><line x1="557.1" y1="192.9" x2="559.6" y2="187.2" stroke="#2b3352" stroke-width="1.1" opacity="0.79"></line><line x1="564.8" y1="159.0" x2="571.8" y2="156.3" stroke="#2b3352" stroke-width="1.1" opacity="0.42"></line><line x1="555.6" y1="154.6" x2="547.7" y2="150.2" stroke="#3a466f" stroke-width="1.1" opacity="0.44"></line><text x="529.7" y="161.3" font-size="11" fill="#3a466f" opacity="0.50">0</text><line x1="477.2" y1="182.1" x2="472.4" y2="187.5" stroke="#0ea5a4" stroke-width="1.1" opacity="0.69"></line><circle cx="431.8" cy="219.2" r="1.6" fill="#333d63" opacity="0.48"></circle><text x="392.6" y="255.5" font-size="11" fill="#333d63" opacity="0.40">1</text><circle cx="396.0" cy="265.8" r="1.0" fill="#4f46e5" opacity="0.78"></circle><text x="422.6" y="272.9" font-size="11" fill="#4f46e5" opacity="0.59">1</text><circle cx="488.2" cy="258.0" r="2.2" fill="#0ea5a4" opacity="0.46"></circle><line x1="572.1" y1="227.3" x2="582.3" y2="226.4" stroke="#3a466f" stroke-width="1.1" opacity="0.63"></line><circle cx="647.2" cy="209.1" r="1.2" fill="#2b3352" opacity="0.52"></circle><line x1="716.8" y1="202.3" x2="726.4" y2="197.2" stroke="#4f46e5" stroke-width="1.1" opacity="0.58"></line><circle cx="743.5" cy="205.1" r="1.8" fill="#333d63" opacity="0.68"></circle><line x1="749.7" y1="223.2" x2="750.3" y2="234.9" stroke="#0ea5a4" stroke-width="1.1" opacity="0.73"></line><circle cx="737.5" cy="247.1" r="1.4" fill="#333d63" opacity="0.77"></circle><line x1="704.3" y1="284.9" x2="698.1" y2="289.8" stroke="#0ea5a4" stroke-width="1.1" opacity="0.47"></line><text x="674.7" y="317.1" font-size="10" fill="#333d63" opacity="0.59">0</text><circle cx="659.0" cy="322.0" r="1.3" fill="#eab308" opacity="0.68"></circle><line x1="661.0" y1="314.1" x2="668.2" y2="303.4" stroke="#3a466f" stroke-width="1.1" opacity="0.57"></line><text x="682.1" y="287.5" font-size="10" fill="#4f46e5" opacity="0.70">0</text><circle cx="702.2" cy="260.4" r="1.5" fill="#3a466f" opacity="0.63"></circle><line x1="719.7" y1="219.8" x2="732.1" y2="215.0" stroke="#2b3352" stroke-width="1.1" opacity="0.62"></line><text x="717.6" y="197.1" font-size="12" fill="#0ea5a4" opacity="0.67">1</text><circle cx="692.2" cy="195.0" r="2.0" fill="#0ea5a4" opacity="0.62"></circle><text x="637.9" y="199.7" font-size="11" fill="#0ea5a4" opacity="0.57">0</text><line x1="562.0" y1="221.5" x2="551.5" y2="226.5" stroke="#2b3352" stroke-width="1.1" opacity="0.59"></line><circle cx="491.3" cy="244.5" r="1.8" fill="#0ea5a4" opacity="0.81"></circle><circle cx="440.6" cy="265.7" r="2.3" fill="#333d63" opacity="0.43"></circle><text x="407.4" y="261.4" font-size="10" fill="#4f46e5" opacity="0.45">0</text><line x1="417.0" y1="252.8" x2="422.4" y2="243.1" stroke="#2b3352" stroke-width="1.1" opacity="0.46"></line><text x="438.3" y="229.0" font-size="10" fill="#0ea5a4" opacity="0.77">1</text><line x1="489.6" y1="197.2" x2="495.2" y2="196.3" stroke="#333d63" stroke-width="1.1" opacity="0.37"></line><circle cx="531.1" cy="186.4" r="1.2" fill="#2b3352" opacity="0.79"></circle><line x1="568.7" y1="170.6" x2="580.1" y2="171.1" stroke="#4f46e5" stroke-width="1.1" opacity="0.62"></line><circle cx="592.3" cy="177.7" r="2.3" fill="#333d63" opacity="0.81"></circle><line x1="591.4" y1="201.1" x2="582.7" y2="209.2" stroke="#333d63" stroke-width="1.1" opacity="0.44"></line><line x1="568.9" y1="228.8" x2="569.2" y2="237.2" stroke="#2b3352" stroke-width="1.1" opacity="0.51"></line><circle cx="564.4" cy="265.4" r="1.9" fill="#333d63" opacity="0.76"></circle><circle cx="564.0" cy="286.9" r="1.6" fill="#0ea5a4" opacity="0.85"></circle><line x1="579.8" y1="300.5" x2="588.1" y2="297.9" stroke="#3a466f" stroke-width="1.1" opacity="0.51"></line><line x1="625.7" y1="297.1" x2="634.9" y2="288.1" stroke="#2b3352" stroke-width="1.1" opacity="0.48"></line><line x1="679.4" y1="271.4" x2="689.3" y2="268.1" stroke="#3a466f" stroke-width="1.1" opacity="0.64"></line><circle cx="723.1" cy="247.9" r="1.4" fill="#4f46e5" opacity="0.48"></circle><circle cx="772.7" cy="237.5" r="2.3" fill="#2b3352" opacity="0.83"></circle><line x1="788.7" y1="223.5" x2="777.5" y2="219.5" stroke="#0ea5a4" stroke-width="1.1" opacity="0.49"></line><circle cx="770.0" cy="224.4" r="2.1" fill="#2b3352" opacity="0.57"></circle><line x1="733.6" y1="236.7" x2="723.4" y2="244.6" stroke="#4f46e5" stroke-width="1.1" opacity="0.77"></line><text x="685.0" y="263.4" font-size="12" fill="#2b3352" opacity="0.77">1</text><line x1="622.2" y1="281.7" x2="615.3" y2="282.9" stroke="#333d63" stroke-width="1.1" opacity="0.80"></line><circle cx="575.6" cy="285.7" r="2.0" fill="#2b3352" opacity="0.67"></circle><circle cx="553.1" cy="287.2" r="2.2" fill="#333d63" opacity="0.83"></circle><circle cx="546.1" cy="263.3" r="1.6" fill="#4f46e5" opacity="0.55"></circle><line x1="550.1" y1="242.8" x2="554.6" y2="234.3" stroke="#4f46e5" stroke-width="1.1" opacity="0.58"></line><line x1="568.1" y1="211.0" x2="570.6" y2="203.9" stroke="#2b3352" stroke-width="1.1" opacity="0.55"></line><circle cx="575.8" cy="184.9" r="1.0" fill="#eab308" opacity="0.65"></circle><circle cx="572.7" cy="180.1" r="1.7" fill="#4f46e5" opacity="0.57"></circle><circle cx="547.2" cy="184.4" r="1.2" fill="#3a466f" opacity="0.51"></circle><line x1="524.7" y1="194.9" x2="518.7" y2="198.9" stroke="#333d63" stroke-width="1.1" opacity="0.63"></line><line x1="481.9" y1="224.3" x2="475.6" y2="229.1" stroke="#0ea5a4" stroke-width="1.1" opacity="0.57"></line><circle cx="460.4" cy="248.6" r="1.1" fill="#333d63" opacity="0.76"></circle><line x1="455.4" y1="257.4" x2="455.1" y2="269.4" stroke="#3a466f" stroke-width="1.1" opacity="0.73"></line><circle cx="472.5" cy="256.1" r="1.4" fill="#4f46e5" opacity="0.60"></circle><text x="515.2" y="252.1" font-size="10" fill="#4f46e5" opacity="0.71">0</text><circle cx="567.9" cy="231.9" r="1.2" fill="#333d63" opacity="0.83"></circle><circle cx="620.5" cy="226.0" r="1.3" fill="#333d63" opacity="0.84"></circle><circle cx="676.9" cy="209.0" r="1.7" fill="#2b3352" opacity="0.58"></circle><circle cx="709.4" cy="214.2" r="1.8" fill="#eab308" opacity="0.58"></circle><line x1="709.8" y1="220.3" x2="708.3" y2="229.1" stroke="#0ea5a4" stroke-width="1.1" opacity="0.74"></line><text x="699.4" y="248.0" font-size="10" fill="#4f46e5" opacity="0.73">0</text><circle cx="678.9" cy="267.7" r="1.4" fill="#2b3352" opacity="0.65"></circle><circle cx="649.7" cy="288.3" r="2.3" fill="#333d63" opacity="0.53"></circle><circle cx="636.6" cy="302.1" r="1.1" fill="#2b3352" opacity="0.50"></circle><line x1="640.8" y1="299.3" x2="643.0" y2="293.4" stroke="#eab308" stroke-width="1.1" opacity="0.64"></line><line x1="655.8" y1="285.2" x2="659.0" y2="275.0" stroke="#333d63" stroke-width="1.1" opacity="0.64"></line><line x1="674.8" y1="260.4" x2="678.8" y2="247.3" stroke="#3a466f" stroke-width="1.1" opacity="0.72"></line><circle cx="691.6" cy="236.7" r="1.5" fill="#333d63" opacity="0.60"></circle><line x1="694.6" y1="218.6" x2="686.2" y2="212.3" stroke="#0ea5a4" stroke-width="1.1" opacity="0.40"></line><line x1="665.4" y1="210.3" x2="653.9" y2="204.3" stroke="#0ea5a4" stroke-width="1.1" opacity="0.37"></line><line x1="636.3" y1="213.7" x2="629.4" y2="214.5" stroke="#3a466f" stroke-width="1.1" opacity="0.47"></line><text x="583.4" y="223.5" font-size="10" fill="#3a466f" opacity="0.67">0</text><text x="531.4" y="239.2" font-size="10" fill="#4f46e5" opacity="0.41">1</text><circle cx="487.4" cy="258.5" r="1.2" fill="#3a466f" opacity="0.45"></circle><circle cx="465.2" cy="256.5" r="2.4" fill="#333d63" opacity="0.66"></circle><circle cx="462.0" cy="248.5" r="1.2" fill="#2b3352" opacity="0.60"></circle><text x="480.2" y="234.2" font-size="10" fill="#0ea5a4" opacity="0.80">1</text><circle cx="512.8" cy="219.3" r="1.7" fill="#333d63" opacity="0.74"></circle><circle cx="547.6" cy="205.2" r="1.8" fill="#3a466f" opacity="0.84"></circle><text x="571.7" y="187.6" font-size="10" fill="#3a466f" opacity="0.67">0</text><line x1="590.0" y1="189.5" x2="594.3" y2="202.0" stroke="#0ea5a4" stroke-width="1.1" opacity="0.46"></line><line x1="593.2" y1="206.1" x2="588.5" y2="216.9" stroke="#3a466f" stroke-width="1.1" opacity="0.54"></line><line x1="579.6" y1="226.5" x2="579.7" y2="239.2" stroke="#0ea5a4" stroke-width="1.1" opacity="0.70"></line><line x1="577.5" y1="254.0" x2="570.3" y2="260.8" stroke="#2b3352" stroke-width="1.1" opacity="0.71"></line><circle cx="575.2" cy="270.5" r="1.0" fill="#2b3352" opacity="0.54"></circle><line x1="588.3" y1="285.9" x2="589.9" y2="279.9" stroke="#4f46e5" stroke-width="1.1" opacity="0.58"></line><circle cx="613.6" cy="274.1" r="1.8" fill="#3a466f" opacity="0.87"></circle><line x1="642.5" y1="267.1" x2="653.8" y2="263.5" stroke="#2b3352" stroke-width="1.1" opacity="0.63"></line><line x1="679.9" y1="245.6" x2="689.1" y2="245.7" stroke="#2b3352" stroke-width="1.1" opacity="0.66"></line><circle cx="714.2" cy="232.6" r="1.5" fill="#3a466f" opacity="0.42"></circle><text x="734.0" y="233.4" font-size="12" fill="#2b3352" opacity="0.72">1</text><text x="723.1" y="234.8" font-size="12" fill="#2b3352" opacity="0.70">1</text><circle cx="701.4" cy="235.9" r="1.4" fill="#3a466f" opacity="0.71"></circle><circle cx="661.0" cy="257.6" r="1.3" fill="#4f46e5" opacity="0.73"></circle><circle cx="623.9" cy="263.9" r="1.9" fill="#4f46e5" opacity="0.79"></circle><line x1="589.4" y1="279.2" x2="578.0" y2="274.6" stroke="#2b3352" stroke-width="1.1" opacity="0.47"></line><line x1="564.5" y1="272.1" x2="553.4" y2="263.7" stroke="#0ea5a4" stroke-width="1.1" opacity="0.41"></line><line x1="554.4" y1="260.3" x2="559.9" y2="256.4" stroke="#4f46e5" stroke-width="1.1" opacity="0.53"></line><line x1="561.9" y1="246.7" x2="564.9" y2="241.2" stroke="#0ea5a4" stroke-width="1.1" opacity="0.79"></line><line x1="570.7" y1="221.9" x2="575.4" y2="218.3" stroke="#3a466f" stroke-width="1.1" opacity="0.59"></line><text x="581.9" y="208.5" font-size="11" fill="#3a466f" opacity="0.57">0</text><circle cx="586.1" cy="198.5" r="1.5" fill="#2b3352" opacity="0.47"></circle><line x1="565.5" y1="197.9" x2="555.1" y2="206.8" stroke="#333d63" stroke-width="1.1" opacity="0.48"></line><line x1="542.5" y1="205.0" x2="540.2" y2="210.4" stroke="#4f46e5" stroke-width="1.1" opacity="0.77"></line><text x="522.6" y="229.6" font-size="12" fill="#eab308" opacity="0.66">0</text><line x1="505.6" y1="240.5" x2="500.3" y2="243.7" stroke="#3a466f" stroke-width="1.1" opacity="0.38"></line><line x1="489.7" y1="250.2" x2="495.2" y2="253.8" stroke="#4f46e5" stroke-width="1.1" opacity="0.64"></line><text x="503.6" y="251.3" font-size="11" fill="#4f46e5" opacity="0.44">1</text><circle cx="536.8" cy="254.3" r="2.1" fill="#4f46e5" opacity="0.82"></circle><line x1="567.7" y1="234.7" x2="574.5" y2="235.4" stroke="#3a466f" stroke-width="1.1" opacity="0.68"></line><line x1="612.0" y1="232.7" x2="617.9" y2="229.0" stroke="#0ea5a4" stroke-width="1.1" opacity="0.61"></line><line x1="647.8" y1="214.2" x2="655.1" y2="217.7" stroke="#2b3352" stroke-width="1.1" opacity="0.41"></line><line x1="673.5" y1="217.1" x2="678.9" y2="227.0" stroke="#4f46e5" stroke-width="1.1" opacity="0.64"></line><text x="680.9" y="231.2" font-size="11" fill="#2b3352" opacity="0.67">1</text><line x1="667.5" y1="236.4" x2="667.4" y2="246.5" stroke="#4f46e5" stroke-width="1.1" opacity="0.78"></line><text x="659.3" y="259.4" font-size="12" fill="#333d63" opacity="0.80">0</text><circle cx="634.1" cy="275.1" r="1.3" fill="#2b3352" opacity="0.66"></circle><line x1="632.7" y1="286.0" x2="626.8" y2="281.6" stroke="#eab308" stroke-width="1.1" opacity="0.56"></line><text x="629.4" y="283.0" font-size="10" fill="#3a466f" opacity="0.52">0</text><circle cx="637.7" cy="270.4" r="1.9" fill="#2b3352" opacity="0.71"></circle><text x="654.7" y="259.5" font-size="11" fill="#333d63" opacity="0.84">1</text><line x1="662.7" y1="240.2" x2="663.6" y2="226.5" stroke="#4f46e5" stroke-width="1.1" opacity="0.42"></line><line x1="660.6" y1="223.7" x2="664.6" y2="215.7" stroke="#333d63" stroke-width="1.1" opacity="0.73"></line><line x1="654.1" y1="217.0" x2="641.3" y2="217.5" stroke="#eab308" stroke-width="1.1" opacity="0.76"></line><circle cx="633.3" cy="218.1" r="1.3" fill="#4f46e5" opacity="0.46"></circle><circle cx="591.7" cy="224.4" r="1.3" fill="#2b3352" opacity="0.49"></circle><line x1="555.1" y1="240.4" x2="544.7" y2="243.0" stroke="#3a466f" stroke-width="1.1" opacity="0.45"></line><circle cx="522.3" cy="253.7" r="2.1" fill="#0ea5a4" opacity="0.65"></circle><circle cx="505.8" cy="249.2" r="2.3" fill="#333d63" opacity="0.54"></circle><text x="505.9" y="246.5" font-size="12" fill="#3a466f" opacity="0.54">0</text><line x1="516.1" y1="235.2" x2="529.0" y2="233.3" stroke="#2b3352" stroke-width="1.1" opacity="0.72"></line><line x1="533.7" y1="220.4" x2="539.5" y2="220.6" stroke="#2b3352" stroke-width="1.1" opacity="0.64"></line><text x="559.5" y="212.2" font-size="11" fill="#2b3352" opacity="0.72">0</text><circle cx="581.6" cy="205.7" r="1.1" fill="#333d63" opacity="0.81"></circle><circle cx="594.1" cy="208.6" r="2.2" fill="#0ea5a4" opacity="0.44"></circle><line x1="598.1" y1="214.5" x2="590.1" y2="223.3" stroke="#0ea5a4" stroke-width="1.1" opacity="0.36"></line><line x1="593.0" y1="228.4" x2="588.3" y2="233.7" stroke="#333d63" stroke-width="1.1" opacity="0.65"></line><line x1="587.8" y1="247.2" x2="577.3" y2="253.7" stroke="#0ea5a4" stroke-width="1.1" opacity="0.44"></line><text x="580.8" y="257.2" font-size="10" fill="#4f46e5" opacity="0.59">0</text><circle cx="584.1" cy="266.6" r="1.5" fill="#3a466f" opacity="0.82"></circle><circle cx="599.1" cy="269.7" r="1.2" fill="#2b3352" opacity="0.65"></circle><circle cx="631.2" cy="256.6" r="2.1" fill="#2b3352" opacity="0.83"></circle><line x1="653.7" y1="245.5" x2="666.5" y2="245.8" stroke="#333d63" stroke-width="1.1" opacity="0.39"></line><circle cx="679.1" cy="240.8" r="2.0" fill="#4f46e5" opacity="0.73"></circle><line x1="694.9" y1="228.7" x2="692.4" y2="235.7" stroke="#0ea5a4" stroke-width="1.1" opacity="0.54"></line><circle cx="690.3" cy="234.3" r="1.5" fill="#4f46e5" opacity="0.43"></circle><circle cx="681.2" cy="237.7" r="1.9" fill="#eab308" opacity="0.66"></circle><circle cx="645.4" cy="253.1" r="1.4" fill="#0ea5a4" opacity="0.71"></circle><line x1="617.3" y1="260.0" x2="605.7" y2="260.8" stroke="#333d63" stroke-width="1.1" opacity="0.54"></line><text x="592.2" y="265.2" font-size="10" fill="#2b3352" opacity="0.80">1</text><line x1="571.6" y1="264.6" x2="576.1" y2="261.4" stroke="#3a466f" stroke-width="1.1" opacity="0.41"></line><line x1="568.8" y1="252.5" x2="581.5" y2="257.7" stroke="#3a466f" stroke-width="1.1" opacity="0.72"></line><line x1="575.9" y1="242.1" x2="575.6" y2="229.9" stroke="#0ea5a4" stroke-width="1.1" opacity="0.66"></line><circle cx="583.7" cy="227.8" r="1.4" fill="#eab308" opacity="0.66"></circle><circle cx="583.3" cy="221.3" r="1.0" fill="#0ea5a4" opacity="0.72"></circle><line x1="588.3" y1="203.8" x2="583.3" y2="214.5" stroke="#333d63" stroke-width="1.1" opacity="0.68"></line><circle cx="580.9" cy="214.1" r="2.0" fill="#0ea5a4" opacity="0.87"></circle><line x1="561.9" y1="219.2" x2="548.0" y2="219.4" stroke="#eab308" stroke-width="1.1" opacity="0.53"></line><line x1="550.3" y1="223.5" x2="541.9" y2="230.8" stroke="#3a466f" stroke-width="1.1" opacity="0.64"></line><circle cx="534.4" cy="237.8" r="2.0" fill="#2b3352" opacity="0.52"></circle><line x1="521.3" y1="252.5" x2="531.8" y2="245.4" stroke="#4f46e5" stroke-width="1.1" opacity="0.47"></line><text x="530.5" y="253.4" font-size="11" fill="#333d63" opacity="0.76">1</text><circle cx="542.5" cy="244.5" r="1.1" fill="#0ea5a4" opacity="0.89"></circle><line x1="574.2" y1="241.5" x2="586.7" y2="237.8" stroke="#333d63" stroke-width="1.1" opacity="0.35"></line><circle cx="609.5" cy="226.8" r="1.7" fill="#4f46e5" opacity="0.77"></circle><line x1="627.4" y1="220.3" x2="633.5" y2="223.2" stroke="#3a466f" stroke-width="1.1" opacity="0.57"></line><line x1="652.4" y1="224.8" x2="652.4" y2="237.7" stroke="#333d63" stroke-width="1.1" opacity="0.70"></line><line x1="657.0" y1="234.5" x2="650.3" y2="222.5" stroke="#333d63" stroke-width="1.1" opacity="0.72"></line><circle cx="655.9" cy="233.5" r="1.8" fill="#2b3352" opacity="0.83"></circle><line x1="644.7" y1="249.1" x2="635.1" y2="257.7" stroke="#3a466f" stroke-width="1.1" opacity="0.40"></line><circle cx="624.1" cy="262.0" r="1.1" fill="#333d63" opacity="0.62"></circle><line x1="622.1" y1="270.7" x2="616.7" y2="268.6" stroke="#333d63" stroke-width="1.1" opacity="0.65"></line><line x1="615.8" y1="269.1" x2="624.8" y2="266.8" stroke="#3a466f" stroke-width="1.1" opacity="0.57"></line><line x1="625.7" y1="264.4" x2="628.7" y2="256.5" stroke="#333d63" stroke-width="1.1" opacity="0.68"></line><text x="629.5" y="256.2" font-size="11" fill="#3a466f" opacity="0.79">0</text><circle cx="644.5" cy="238.3" r="1.9" fill="#0ea5a4" opacity="0.73"></circle><circle cx="649.7" cy="224.5" r="1.1" fill="#2b3352" opacity="0.81"></circle><circle cx="634.5" cy="219.6" r="2.1" fill="#3a466f" opacity="0.83"></circle><circle cx="624.7" cy="227.2" r="1.6" fill="#333d63" opacity="0.88"></circle><circle cx="603.7" cy="233.3" r="2.3" fill="#333d63" opacity="0.63"></circle><line x1="572.6" y1="238.6" x2="566.8" y2="240.4" stroke="#0ea5a4" stroke-width="1.1" opacity="0.75"></line><line x1="552.8" y1="244.2" x2="546.4" y2="246.2" stroke="#eab308" stroke-width="1.1" opacity="0.56"></line><circle cx="530.1" cy="246.5" r="2.2" fill="#2b3352" opacity="0.86"></circle><line x1="526.3" y1="245.8" x2="533.7" y2="245.0" stroke="#eab308" stroke-width="1.1" opacity="0.62"></line><circle cx="537.5" cy="236.3" r="1.3" fill="#333d63" opacity="0.65"></circle><circle cx="552.6" cy="227.7" r="1.9" fill="#333d63" opacity="0.43"></circle><circle cx="572.7" cy="227.1" r="2.3" fill="#2b3352" opacity="0.80"></circle><circle cx="586.3" cy="221.3" r="2.3" fill="#4f46e5" opacity="0.85"></circle><line x1="594.5" y1="218.4" x2="601.0" y2="210.3" stroke="#2b3352" stroke-width="1.1" opacity="0.54"></line><text x="601.5" y="222.5" font-size="12" fill="#2b3352" opacity="0.49">1</text><line x1="594.9" y1="226.8" x2="589.4" y2="239.5" stroke="#2b3352" stroke-width="1.1" opacity="0.56"></line><circle cx="585.1" cy="247.4" r="1.2" fill="#333d63" opacity="0.75"></circle><circle cx="591.2" cy="249.8" r="1.3" fill="#0ea5a4" opacity="0.73"></circle><line x1="591.1" y1="265.3" x2="592.4" y2="253.9" stroke="#3a466f" stroke-width="1.1" opacity="0.51"></line><text x="599.8" y="257.5" font-size="11" fill="#2b3352" opacity="0.61">0</text><circle cx="623.5" cy="257.7" r="1.7" fill="#3a466f" opacity="0.63"></circle><circle cx="638.7" cy="252.8" r="1.2" fill="#2b3352" opacity="0.46"></circle><circle cx="654.8" cy="239.6" r="2.1" fill="#333d63" opacity="0.54"></circle><circle cx="670.5" cy="238.1" r="1.6" fill="#eab308" opacity="0.57"></circle><circle cx="661.2" cy="239.9" r="1.6" fill="#2b3352" opacity="0.70"></circle><line x1="652.9" y1="239.1" x2="639.6" y2="241.6" stroke="#333d63" stroke-width="1.1" opacity="0.56"></line><circle cx="639.0" cy="239.5" r="2.4" fill="#333d63" opacity="0.60"></circle><circle cx="619.0" cy="251.3" r="2.1" fill="#2b3352" opacity="0.65"></circle><text x="597.6" y="255.3" font-size="11" fill="#2b3352" opacity="0.81">1</text><line x1="587.0" y1="251.6" x2="583.1" y2="256.3" stroke="#2b3352" stroke-width="1.1" opacity="0.56"></line><line x1="584.9" y1="247.1" x2="576.4" y2="252.7" stroke="#3a466f" stroke-width="1.1" opacity="0.75"></line><line x1="578.1" y1="246.7" x2="581.3" y2="242.3" stroke="#2b3352" stroke-width="1.1" opacity="0.38"></line><text x="580.2" y="239.4" font-size="12" fill="#333d63" opacity="0.84">0</text><text x="592.7" y="229.8" font-size="12" fill="#2b3352" opacity="0.77">1</text><circle cx="589.8" cy="220.6" r="1.7" fill="#333d63" opacity="0.88"></circle><circle cx="583.8" cy="219.1" r="1.8" fill="#0ea5a4" opacity="0.42"></circle><line x1="578.4" y1="219.8" x2="574.2" y2="223.1" stroke="#333d63" stroke-width="1.1" opacity="0.36"></line><circle cx="560.6" cy="229.7" r="2.4" fill="#333d63" opacity="0.47"></circle><circle cx="548.1" cy="232.6" r="1.5" fill="#4f46e5" opacity="0.47"></circle><circle cx="550.8" cy="246.1" r="1.1" fill="#0ea5a4" opacity="0.80"></circle><line x1="552.3" y1="243.4" x2="552.1" y2="250.3" stroke="#333d63" stroke-width="1.1" opacity="0.62"></line><circle cx="564.3" cy="252.1" r="2.3" fill="#3a466f" opacity="0.44"></circle><line x1="584.5" y1="241.4" x2="590.4" y2="233.2" stroke="#2b3352" stroke-width="1.1" opacity="0.78"></line><circle cx="601.6" cy="241.5" r="2.4" fill="#333d63" opacity="0.64"></circle><line x1="623.0" y1="225.0" x2="625.0" y2="230.4" stroke="#2b3352" stroke-width="1.1" opacity="0.79"></line><line x1="638.5" y1="227.8" x2="627.9" y2="235.6" stroke="#333d63" stroke-width="1.1" opacity="0.70"></line><line x1="642.9" y1="236.4" x2="636.4" y2="230.3" stroke="#4f46e5" stroke-width="1.1" opacity="0.63"></line><text x="640.4" y="234.9" font-size="12" fill="#0ea5a4" opacity="0.51">0</text></g><text x="24" y="460" font-family="Consolas, Menlo, monospace" font-size="13" fill="#4a5578">2026-07-24 · sin(2t+φ)·e^(−λt), sin(5t) · seed c9e3d5</text></svg>