<svg width="1200" height="480" viewBox="0 0 1200 480" xmlns="http://www.w3.org/2000/svg" role="img" aria-label="Generative art for 2026-07-23"><rect width="1200" height="480" fill="#0b0e1a"/><g font-family="Consolas, Menlo, monospace"><line x1="690.5" y1="411.2" x2="680.6" y2="411.8" stroke="#333d63" stroke-width="1.1" opacity="0.59"></line><circle cx="391.5" cy="408.7" r="2.2" fill="#333d63" opacity="0.83"></circle><circle cx="211.0" cy="352.7" r="2.0" fill="#3a466f" opacity="0.88"></circle><text x="229.2" y="250.9" font-size="10" fill="#3a466f" opacity="0.75">0</text><text x="423.8" y="148.9" font-size="11" fill="#3a466f" opacity="0.53">0</text><circle cx="689.0" cy="73.3" r="1.9" fill="#333d63" opacity="0.45"></circle><line x1="899.5" y1="55.7" x2="911.2" y2="59.0" stroke="#3a466f" stroke-width="1.1" opacity="0.62"></line><circle cx="949.6" cy="109.9" r="1.3" fill="#333d63" opacity="0.61"></circle><circle cx="816.8" cy="208.8" r="1.4" fill="#4f46e5" opacity="0.85"></circle><circle cx="581.1" cy="318.5" r="1.8" fill="#2b3352" opacity="0.57"></circle><text x="370.5" y="408.1" font-size="11" fill="#333d63" opacity="0.79">0</text><line x1="275.7" y1="429.4" x2="285.3" y2="419.5" stroke="#0ea5a4" stroke-width="1.1" opacity="0.46"></line><text x="360.6" y="374.6" font-size="10" fill="#4f46e5" opacity="0.44">0</text><circle cx="566.5" cy="281.8" r="1.3" fill="#4f46e5" opacity="0.61"></circle><line x1="786.1" y1="167.6" x2="796.0" y2="162.7" stroke="#4f46e5" stroke-width="1.1" opacity="0.63"></line><line x1="909.4" y1="90.9" x2="912.3" y2="80.0" stroke="#333d63" stroke-width="1.1" opacity="0.55"></line><line x1="869.9" y1="64.9" x2="859.2" y2="66.3" stroke="#333d63" stroke-width="1.1" opacity="0.43"></line><circle cx="694.0" cy="102.3" r="2.1" fill="#3a466f" opacity="0.49"></circle><circle cx="470.7" cy="193.8" r="2.2" fill="#4f46e5" opacity="0.64"></circle><circle cx="295.2" cy="295.0" r="1.8" fill="#333d63" opacity="0.76"></circle><circle cx="288.9" cy="365.7" r="2.0" fill="#3a466f" opacity="0.41"></circle><line x1="428.6" y1="392.8" x2="441.5" y2="393.1" stroke="#333d63" stroke-width="1.1" opacity="0.78"></line><circle cx="661.9" cy="371.4" r="1.1" fill="#eab308" opacity="0.74"><animate attributeName="opacity" values="0.25;0.9;0.25" dur="11.9s" repeatCount="indefinite"/></circle><circle cx="874.0" cy="299.2" r="1.2" fill="#2b3352" opacity="0.40"></circle><circle cx="949.1" cy="208.4" r="2.3" fill="#333d63" opacity="0.73"></circle><circle cx="855.0" cy="140.1" r="2.0" fill="#3a466f" opacity="0.40"></circle><line x1="639.1" y1="102.5" x2="629.7" y2="103.0" stroke="#2b3352" stroke-width="1.1" opacity="0.43"></line><line x1="387.4" y1="127.0" x2="376.3" y2="128.3" stroke="#0ea5a4" stroke-width="1.1" opacity="0.71"></line><circle cx="231.8" cy="168.9" r="1.9" fill="#4f46e5" opacity="0.73"></circle><line x1="250.3" y1="239.6" x2="254.8" y2="242.2" stroke="#333d63" stroke-width="1.1" opacity="0.70"></line><circle cx="436.5" cy="308.1" r="1.2" fill="#0ea5a4" opacity="0.52"></circle><circle cx="697.2" cy="350.6" r="2.2" fill="#333d63" opacity="0.44"></circle><circle cx="923.1" cy="350.6" r="1.2" fill="#3a466f" opacity="0.49"></circle><circle cx="993.2" cy="309.6" r="2.1" fill="#333d63" opacity="0.73"></circle><text x="881.2" y="262.1" font-size="11" fill="#2b3352" opacity="0.53">1</text><line x1="637.8" y1="207.6" x2="625.8" y2="204.9" stroke="#0ea5a4" stroke-width="1.1" opacity="0.69"></line><text x="379.8" y="155.8" font-size="12" fill="#2b3352" opacity="0.56">0</text><text x="224.6" y="143.9" font-size="12" fill="#4f46e5" opacity="0.67">0</text><line x1="248.2" y1="159.6" x2="256.0" y2="160.7" stroke="#eab308" stroke-width="1.1" opacity="0.36"><animate attributeName="opacity" values="0.25;0.9;0.25" dur="12.1s" repeatCount="indefinite"/></line><circle cx="431.9" cy="199.2" r="1.3" fill="#2b3352" opacity="0.76"></circle><circle cx="680.9" cy="244.0" r="1.6" fill="#0ea5a4" opacity="0.44"><animate attributeName="opacity" values="0.25;0.9;0.25" dur="11.9s" repeatCount="indefinite"/></circle><circle cx="896.2" cy="294.5" r="1.7" fill="#3a466f" opacity="0.61"></circle><line x1="967.9" y1="326.7" x2="956.9" y2="330.5" stroke="#2b3352" stroke-width="1.1" opacity="0.57"></line><line x1="867.5" y1="335.8" x2="854.9" y2="334.3" stroke="#0ea5a4" stroke-width="1.1" opacity="0.66"></line><circle cx="648.7" cy="310.4" r="2.3" fill="#333d63" opacity="0.88"></circle><text x="414.4" y="266.2" font-size="10" fill="#333d63" opacity="0.68">1</text><circle cx="278.5" cy="211.4" r="2.2" fill="#333d63" opacity="0.89"></circle><text x="296.9" y="164.3" font-size="12" fill="#4f46e5" opacity="0.68">1</text><line x1="442.5" y1="138.9" x2="453.6" y2="138.8" stroke="#4f46e5" stroke-width="1.1" opacity="0.38"></line><line x1="664.8" y1="154.8" x2="672.3" y2="155.3" stroke="#3a466f" stroke-width="1.1" opacity="0.76"></line><line x1="839.1" y1="196.4" x2="845.7" y2="199.2" stroke="#eab308" stroke-width="1.1" opacity="0.60"><animate attributeName="opacity" values="0.25;0.9;0.25" dur="8.0s" repeatCount="indefinite"/></line><line x1="892.0" y1="255.3" x2="885.7" y2="266.2" stroke="#eab308" stroke-width="1.1" opacity="0.75"><animate attributeName="opacity" values="0.25;0.9;0.25" dur="9.4s" repeatCount="indefinite"/></line><circle cx="812.2" cy="314.8" r="1.6" fill="#0ea5a4" opacity="0.77"><animate attributeName="opacity" values="0.25;0.9;0.25" dur="13.9s" repeatCount="indefinite"/></circle><circle cx="629.6" cy="342.1" r="1.8" fill="#0ea5a4" opacity="0.69"></circle><line x1="448.1" y1="338.9" x2="436.5" y2="338.2" stroke="#3a466f" stroke-width="1.1" opacity="0.61"></line><circle cx="357.0" cy="301.9" r="2.1" fill="#2b3352" opacity="0.69"></circle><circle cx="382.9" cy="239.5" r="2.0" fill="#4f46e5" opacity="0.50"></circle><circle cx="510.9" cy="176.8" r="2.1" fill="#2b3352" opacity="0.73"></circle><circle cx="674.7" cy="128.5" r="1.1" fill="#333d63" opacity="0.82"></circle><line x1="794.4" y1="124.4" x2="802.8" y2="129.1" stroke="#333d63" stroke-width="1.1" opacity="0.37"></line><line x1="813.5" y1="164.6" x2="807.5" y2="169.8" stroke="#4f46e5" stroke-width="1.1" opacity="0.38"></line><circle cx="723.7" cy="236.4" r="1.5" fill="#3a466f" opacity="0.54"></circle><line x1="575.5" y1="303.5" x2="564.4" y2="306.4" stroke="#3a466f" stroke-width="1.1" opacity="0.40"></line><text x="442.5" y="343.8" font-size="10" fill="#2b3352" opacity="0.57">0</text><line x1="404.9" y1="355.5" x2="410.6" y2="346.8" stroke="#4f46e5" stroke-width="1.1" opacity="0.73"></line><line x1="462.0" y1="324.4" x2="473.6" y2="317.6" stroke="#0ea5a4" stroke-width="1.1" opacity="0.47"></line><line x1="590.8" y1="252.7" x2="598.2" y2="250.2" stroke="#4f46e5" stroke-width="1.1" opacity="0.38"></line><line x1="726.9" y1="187.0" x2="738.2" y2="181.7" stroke="#2b3352" stroke-width="1.1" opacity="0.71"></line><circle cx="798.8" cy="145.7" r="1.9" fill="#0ea5a4" opacity="0.74"></circle><circle cx="753.9" cy="127.4" r="1.9" fill="#4f46e5" opacity="0.53"></circle><circle cx="643.9" cy="159.2" r="2.2" fill="#4f46e5" opacity="0.89"></circle><circle cx="495.1" cy="216.1" r="1.8" fill="#333d63" opacity="0.85"></circle><text x="402.7" y="276.1" font-size="12" fill="#2b3352" opacity="0.53">0</text><line x1="415.5" y1="327.8" x2="426.4" y2="330.2" stroke="#2b3352" stroke-width="1.1" opacity="0.80"></line><circle cx="518.4" cy="336.9" r="1.1" fill="#4f46e5" opacity="0.90"></circle><circle cx="665.2" cy="318.0" r="1.5" fill="#3a466f" opacity="0.57"></circle><line x1="781.5" y1="267.0" x2="788.6" y2="262.8" stroke="#0ea5a4" stroke-width="1.1" opacity="0.44"></line><line x1="823.2" y1="209.0" x2="811.9" y2="202.6" stroke="#0ea5a4" stroke-width="1.1" opacity="0.75"></line><line x1="752.1" y1="173.3" x2="745.2" y2="172.1" stroke="#0ea5a4" stroke-width="1.1" opacity="0.53"></line><circle cx="595.1" cy="157.4" r="1.1" fill="#333d63" opacity="0.82"></circle><line x1="451.9" y1="174.6" x2="445.2" y2="175.3" stroke="#0ea5a4" stroke-width="1.1" opacity="0.77"></line><circle cx="363.6" cy="203.3" r="1.0" fill="#4f46e5" opacity="0.43"></circle><line x1="392.3" y1="252.7" x2="403.0" y2="255.6" stroke="#0ea5a4" stroke-width="1.1" opacity="0.46"></line><text x="526.4" y="284.6" font-size="10" fill="#2b3352" opacity="0.47">0</text><circle cx="686.5" cy="311.3" r="2.4" fill="#333d63" opacity="0.75"></circle><circle cx="810.4" cy="299.8" r="2.3" fill="#2b3352" opacity="0.70"></circle><line x1="835.1" y1="286.0" x2="827.3" y2="276.1" stroke="#0ea5a4" stroke-width="1.1" opacity="0.56"></line><line x1="760.5" y1="248.5" x2="748.7" y2="245.6" stroke="#3a466f" stroke-width="1.1" opacity="0.77"></line><circle cx="602.8" cy="213.1" r="1.2" fill="#4f46e5" opacity="0.44"></circle><line x1="446.7" y1="190.1" x2="440.2" y2="189.0" stroke="#333d63" stroke-width="1.1" opacity="0.35"></line><text x="365.6" y="180.4" font-size="10" fill="#4f46e5" opacity="0.72">0</text><text x="395.8" y="185.4" font-size="10" fill="#0ea5a4" opacity="0.75">1</text><circle cx="515.3" cy="219.2" r="1.2" fill="#3a466f" opacity="0.86"></circle><circle cx="673.9" cy="248.8" r="1.9" fill="#eab308" opacity="0.41"><animate attributeName="opacity" values="0.25;0.9;0.25" dur="13.7s" repeatCount="indefinite"/></circle><circle cx="796.3" cy="274.6" r="2.4" fill="#eab308" opacity="0.52"><animate attributeName="opacity" values="0.25;0.9;0.25" dur="11.9s" repeatCount="indefinite"/></circle><text x="829.9" y="295.4" font-size="12" fill="#4f46e5" opacity="0.49">1</text><line x1="744.9" y1="292.4" x2="735.9" y2="292.9" stroke="#333d63" stroke-width="1.1" opacity="0.39"></line><circle cx="608.7" cy="282.2" r="1.9" fill="#4f46e5" opacity="0.81"></circle><line x1="470.7" y1="254.5" x2="464.4" y2="251.7" stroke="#4f46e5" stroke-width="1.1" opacity="0.69"></line><circle cx="390.5" cy="219.8" r="1.9" fill="#3a466f" opacity="0.62"></circle><text x="422.8" y="193.5" font-size="12" fill="#eab308" opacity="0.64">0<animate attributeName="opacity" values="0.25;0.9;0.25" dur="12.0s" repeatCount="indefinite"/></text><line x1="528.5" y1="177.2" x2="537.5" y2="177.2" stroke="#333d63" stroke-width="1.1" opacity="0.76"></line><circle cx="662.1" cy="187.6" r="2.1" fill="#0ea5a4" opacity="0.51"></circle><circle cx="760.4" cy="219.6" r="1.2" fill="#3a466f" opacity="0.74"></circle><circle cx="785.6" cy="252.2" r="2.0" fill="#0ea5a4" opacity="0.64"></circle><line x1="717.4" y1="288.7" x2="711.6" y2="290.2" stroke="#4f46e5" stroke-width="1.1" opacity="0.44"></line><text x="607.6" y="310.7" font-size="10" fill="#333d63" opacity="0.48">0</text><text x="489.8" y="298.8" font-size="12" fill="#4f46e5" opacity="0.50">0</text><circle cx="447.0" cy="272.8" r="1.0" fill="#2b3352" opacity="0.58"></circle><circle cx="473.9" cy="227.7" r="2.1" fill="#3a466f" opacity="0.45"></circle><text x="563.8" y="190.3" font-size="10" fill="#2b3352" opacity="0.41">1</text><text x="659.2" y="167.0" font-size="11" fill="#333d63" opacity="0.73">1</text><line x1="731.2" y1="171.0" x2="736.4" y2="179.8" stroke="#4f46e5" stroke-width="1.1" opacity="0.49"></line><line x1="721.3" y1="198.3" x2="717.2" y2="203.9" stroke="#3a466f" stroke-width="1.1" opacity="0.48"></line><line x1="659.9" y1="235.8" x2="654.2" y2="239.8" stroke="#4f46e5" stroke-width="1.1" opacity="0.50"></line><line x1="566.2" y1="285.1" x2="560.0" y2="286.9" stroke="#2b3352" stroke-width="1.1" opacity="0.38"></line><text x="493.5" y="302.2" font-size="11" fill="#333d63" opacity="0.65">1</text><circle cx="474.8" cy="306.3" r="1.6" fill="#3a466f" opacity="0.59"></circle><circle cx="523.6" cy="290.4" r="1.3" fill="#2b3352" opacity="0.60"></circle><circle cx="610.6" cy="249.2" r="2.3" fill="#3a466f" opacity="0.44"></circle><text x="694.7" y="203.1" font-size="10" fill="#3a466f" opacity="0.72">1</text><line x1="726.2" y1="177.3" x2="717.0" y2="172.7" stroke="#3a466f" stroke-width="1.1" opacity="0.45"></line><circle cx="693.5" cy="178.7" r="2.1" fill="#eab308" opacity="0.78"><animate attributeName="opacity" values="0.25;0.9;0.25" dur="11.0s" repeatCount="indefinite"/></circle><circle cx="607.6" cy="192.3" r="1.6" fill="#333d63" opacity="0.87"></circle><text x="530.5" y="226.9" font-size="12" fill="#2b3352" opacity="0.44">0</text><text x="481.1" y="264.8" font-size="10" fill="#3a466f" opacity="0.65">0</text><line x1="483.2" y1="300.5" x2="491.0" y2="299.8" stroke="#333d63" stroke-width="1.1" opacity="0.64"></line><circle cx="552.8" cy="299.7" r="1.2" fill="#0ea5a4" opacity="0.64"></circle><text x="650.7" y="277.6" font-size="12" fill="#333d63" opacity="0.58">1</text><circle cx="718.1" cy="256.7" r="2.0" fill="#0ea5a4" opacity="0.56"></circle><line x1="735.3" y1="220.3" x2="728.8" y2="215.1" stroke="#333d63" stroke-width="1.1" opacity="0.48"></line><circle cx="684.7" cy="190.0" r="1.8" fill="#0ea5a4" opacity="0.85"></circle><line x1="590.9" y1="191.6" x2="585.0" y2="191.3" stroke="#333d63" stroke-width="1.1" opacity="0.55"></line><circle cx="497.1" cy="194.8" r="1.9" fill="#3a466f" opacity="0.50"></circle><line x1="455.3" y1="226.9" x2="454.1" y2="235.8" stroke="#4f46e5" stroke-width="1.1" opacity="0.54"></line><line x1="483.1" y1="246.2" x2="492.9" y2="251.9" stroke="#4f46e5" stroke-width="1.1" opacity="0.36"></line><line x1="570.5" y1="270.7" x2="578.8" y2="272.6" stroke="#0ea5a4" stroke-width="1.1" opacity="0.61"><animate attributeName="opacity" values="0.25;0.9;0.25" dur="9.1s" repeatCount="indefinite"/></line><text x="672.5" y="282.3" font-size="11" fill="#333d63" opacity="0.62">0</text><line x1="740.6" y1="273.3" x2="748.5" y2="275.6" stroke="#333d63" stroke-width="1.1" opacity="0.54"></line><line x1="747.3" y1="265.3" x2="735.8" y2="258.7" stroke="#eab308" stroke-width="1.1" opacity="0.48"><animate attributeName="opacity" values="0.25;0.9;0.25" dur="7.6s" repeatCount="indefinite"/></line><line x1="678.8" y1="245.3" x2="668.3" y2="240.4" stroke="#2b3352" stroke-width="1.1" opacity="0.56"></line><line x1="581.5" y1="220.0" x2="573.8" y2="218.7" stroke="#4f46e5" stroke-width="1.1" opacity="0.61"></line><text x="492.3" y="210.2" font-size="10" fill="#4f46e5" opacity="0.40">0</text><line x1="453.4" y1="204.7" x2="442.7" y2="202.4" stroke="#3a466f" stroke-width="1.1" opacity="0.51"></line><text x="472.7" y="215.6" font-size="12" fill="#2b3352" opacity="0.62">0</text><circle cx="555.1" cy="231.8" r="1.4" fill="#2b3352" opacity="0.89"></circle><line x1="661.6" y1="245.0" x2="669.8" y2="247.8" stroke="#333d63" stroke-width="1.1" opacity="0.62"></line><line x1="723.4" y1="265.0" x2="734.4" y2="268.0" stroke="#0ea5a4" stroke-width="1.1" opacity="0.57"></line><circle cx="735.5" cy="272.2" r="1.7" fill="#0ea5a4" opacity="0.77"></circle><circle cx="685.0" cy="278.8" r="2.2" fill="#333d63" opacity="0.43"></circle><circle cx="597.7" cy="268.9" r="2.2" fill="#2b3352" opacity="0.45"></circle><circle cx="507.8" cy="239.5" r="2.0" fill="#3a466f" opacity="0.49"></circle><circle cx="471.7" cy="219.6" r="2.2" fill="#2b3352" opacity="0.88"></circle><circle cx="493.1" cy="203.6" r="2.0" fill="#eab308" opacity="0.76"></circle><circle cx="558.5" cy="201.3" r="2.1" fill="#2b3352" opacity="0.42"></circle><circle cx="642.2" cy="206.7" r="1.6" fill="#2b3352" opacity="0.67"></circle><circle cx="699.8" cy="225.4" r="1.6" fill="#4f46e5" opacity="0.46"></circle><circle cx="704.9" cy="255.5" r="1.9" fill="#333d63" opacity="0.87"></circle><circle cx="668.3" cy="270.4" r="1.1" fill="#3a466f" opacity="0.81"></circle><circle cx="589.9" cy="280.6" r="1.5" fill="#333d63" opacity="0.70"></circle><circle cx="530.3" cy="271.6" r="1.2" fill="#333d63" opacity="0.51"></circle><text x="502.1" y="263.4" font-size="12" fill="#3a466f" opacity="0.73">1</text><circle cx="523.4" cy="232.4" r="1.3" fill="#2b3352" opacity="0.56"></circle><line x1="578.5" y1="209.5" x2="590.7" y2="206.4" stroke="#0ea5a4" stroke-width="1.1" opacity="0.56"></line><circle cx="643.1" cy="196.1" r="2.1" fill="#4f46e5" opacity="0.70"></circle><line x1="686.6" y1="203.6" x2="676.6" y2="201.6" stroke="#eab308" stroke-width="1.1" opacity="0.57"></line><line x1="673.1" y1="219.5" x2="666.1" y2="224.2" stroke="#2b3352" stroke-width="1.1" opacity="0.79"></line><line x1="632.8" y1="246.1" x2="626.8" y2="248.0" stroke="#0ea5a4" stroke-width="1.1" opacity="0.36"></line><text x="574.7" y="268.9" font-size="11" fill="#2b3352" opacity="0.84">0</text><line x1="531.9" y1="284.8" x2="526.4" y2="284.7" stroke="#3a466f" stroke-width="1.1" opacity="0.44"></line><circle cx="531.6" cy="282.6" r="1.5" fill="#333d63" opacity="0.70"></circle><line x1="557.3" y1="259.2" x2="567.4" y2="258.2" stroke="#3a466f" stroke-width="1.1" opacity="0.76"></line><circle cx="610.6" cy="240.0" r="1.0" fill="#2b3352" opacity="0.41"></circle><circle cx="662.8" cy="214.6" r="1.4" fill="#2b3352" opacity="0.85"></circle><circle cx="677.9" cy="198.5" r="1.3" fill="#333d63" opacity="0.43"></circle><circle cx="649.5" cy="197.8" r="1.1" fill="#2b3352" opacity="0.42"></circle><line x1="600.5" y1="219.6" x2="586.9" y2="220.8" stroke="#3a466f" stroke-width="1.1" opacity="0.59"></line><circle cx="541.6" cy="236.1" r="1.8" fill="#2b3352" opacity="0.41"></circle><text x="526.8" y="265.2" font-size="12" fill="#4f46e5" opacity="0.71">1</text><text x="539.3" y="278.4" font-size="12" fill="#333d63" opacity="0.53">1</text><line x1="586.8" y1="273.7" x2="594.9" y2="274.1" stroke="#0ea5a4" stroke-width="1.1" opacity="0.43"></line><circle cx="642.0" cy="264.0" r="1.6" fill="#eab308" opacity="0.46"></circle><text x="684.9" y="246.4" font-size="11" fill="#3a466f" opacity="0.81">0</text><circle cx="677.1" cy="220.8" r="1.0" fill="#2b3352" opacity="0.57"></circle><circle cx="647.7" cy="206.8" r="1.8" fill="#4f46e5" opacity="0.84"></circle><line x1="586.5" y1="207.1" x2="577.0" y2="208.1" stroke="#2b3352" stroke-width="1.1" opacity="0.78"></line><circle cx="526.9" cy="211.7" r="1.8" fill="#333d63" opacity="0.47"></circle><line x1="510.6" y1="232.9" x2="511.7" y2="238.4" stroke="#4f46e5" stroke-width="1.1" opacity="0.68"></line><circle cx="528.7" cy="250.4" r="1.7" fill="#2b3352" opacity="0.57"></circle><circle cx="584.7" cy="259.3" r="1.8" fill="#3a466f" opacity="0.46"></circle><circle cx="655.7" cy="268.3" r="2.1" fill="#2b3352" opacity="0.76"></circle><line x1="690.9" y1="257.6" x2="694.2" y2="261.8" stroke="#3a466f" stroke-width="1.1" opacity="0.77"></line><text x="681.9" y="247.5" font-size="11" fill="#3a466f" opacity="0.69">1</text><text x="649.6" y="235.5" font-size="10" fill="#3a466f" opacity="0.75">0</text><circle cx="583.5" cy="232.3" r="1.1" fill="#0ea5a4" opacity="0.79"></circle><circle cx="528.5" cy="217.5" r="1.6" fill="#0ea5a4" opacity="0.63"></circle><line x1="503.4" y1="213.1" x2="507.2" y2="216.5" stroke="#333d63" stroke-width="1.1" opacity="0.36"></line><circle cx="533.0" cy="226.1" r="1.3" fill="#333d63" opacity="0.43"></circle><circle cx="578.7" cy="236.9" r="1.1" fill="#eab308" opacity="0.52"></circle><line x1="640.5" y1="241.5" x2="649.0" y2="245.1" stroke="#3a466f" stroke-width="1.1" opacity="0.57"></line><circle cx="682.3" cy="255.2" r="1.2" fill="#3a466f" opacity="0.41"></circle><circle cx="679.8" cy="258.7" r="1.3" fill="#333d63" opacity="0.44"></circle><circle cx="648.2" cy="257.0" r="2.0" fill="#3a466f" opacity="0.55"></circle><line x1="581.0" y1="247.3" x2="573.8" y2="248.7" stroke="#eab308" stroke-width="1.1" opacity="0.35"></line><circle cx="536.1" cy="240.7" r="2.3" fill="#2b3352" opacity="0.56"></circle><line x1="517.0" y1="227.1" x2="524.6" y2="220.9" stroke="#4f46e5" stroke-width="1.1" opacity="0.56"></line><text x="532.6" y="223.0" font-size="12" fill="#eab308" opacity="0.63">1</text><text x="581.9" y="211.5" font-size="12" fill="#333d63" opacity="0.85">0</text><line x1="638.6" y1="218.7" x2="645.8" y2="223.5" stroke="#eab308" stroke-width="1.1" opacity="0.78"></line><line x1="666.0" y1="237.7" x2="677.2" y2="240.9" stroke="#2b3352" stroke-width="1.1" opacity="0.46"></line><line x1="660.4" y1="245.3" x2="659.3" y2="251.4" stroke="#3a466f" stroke-width="1.1" opacity="0.39"></line><circle cx="632.3" cy="264.6" r="1.2" fill="#3a466f" opacity="0.66"></circle><line x1="591.2" y1="261.1" x2="579.9" y2="264.7" stroke="#4f46e5" stroke-width="1.1" opacity="0.65"></line><line x1="546.6" y1="267.4" x2="543.5" y2="257.7" stroke="#3a466f" stroke-width="1.1" opacity="0.71"></line><text x="542.3" y="253.5" font-size="10" fill="#3a466f" opacity="0.77">1</text><line x1="557.8" y1="231.7" x2="570.4" y2="227.3" stroke="#4f46e5" stroke-width="1.1" opacity="0.71"></line><circle cx="591.0" cy="213.4" r="1.4" fill="#333d63" opacity="0.63"></circle><text x="634.3" y="209.3" font-size="10" fill="#3a466f" opacity="0.80">0</text><line x1="654.5" y1="221.6" x2="649.3" y2="213.2" stroke="#333d63" stroke-width="1.1" opacity="0.45"></line><circle cx="646.7" cy="224.7" r="2.2" fill="#4f46e5" opacity="0.75"></circle><circle cx="612.5" cy="242.7" r="2.1" fill="#333d63" opacity="0.83"></circle><circle cx="582.6" cy="263.8" r="1.1" fill="#2b3352" opacity="0.44"></circle><line x1="558.6" y1="270.7" x2="551.2" y2="267.2" stroke="#333d63" stroke-width="1.1" opacity="0.71"></line><circle cx="558.0" cy="268.0" r="2.1" fill="#3a466f" opacity="0.51"></circle><text x="580.6" y="258.1" font-size="10" fill="#3a466f" opacity="0.68">1</text><circle cx="617.4" cy="234.3" r="1.9" fill="#3a466f" opacity="0.59"></circle><text x="634.6" y="226.8" font-size="12" fill="#0ea5a4" opacity="0.53">1</text><line x1="641.2" y1="210.0" x2="646.3" y2="222.1" stroke="#0ea5a4" stroke-width="1.1" opacity="0.70"></line><text x="632.6" y="212.6" font-size="11" fill="#2b3352" opacity="0.46">1</text><line x1="598.1" y1="222.2" x2="589.4" y2="227.3" stroke="#eab308" stroke-width="1.1" opacity="0.77"></line><circle cx="565.5" cy="246.9" r="2.0" fill="#2b3352" opacity="0.84"></circle><line x1="554.0" y1="260.5" x2="544.8" y2="250.5" stroke="#0ea5a4" stroke-width="1.1" opacity="0.45"></line><circle cx="562.2" cy="262.9" r="1.2" fill="#333d63" opacity="0.86"></circle><line x1="591.6" y1="265.0" x2="597.6" y2="262.9" stroke="#2b3352" stroke-width="1.1" opacity="0.41"></line><line x1="629.6" y1="249.2" x2="635.7" y2="250.1" stroke="#2b3352" stroke-width="1.1" opacity="0.69"></line><circle cx="652.1" cy="238.5" r="1.2" fill="#3a466f" opacity="0.63"></circle><line x1="642.4" y1="226.7" x2="643.0" y2="221.7" stroke="#eab308" stroke-width="1.1" opacity="0.51"></line><text x="620.8" y="225.9" font-size="11" fill="#3a466f" opacity="0.83">1</text><line x1="587.2" y1="226.4" x2="581.8" y2="224.6" stroke="#333d63" stroke-width="1.1" opacity="0.59"></line><line x1="554.4" y1="226.2" x2="544.7" y2="229.7" stroke="#3a466f" stroke-width="1.1" opacity="0.35"></line><text x="538.9" y="233.4" font-size="12" fill="#3a466f" opacity="0.45">0</text><circle cx="558.7" cy="242.1" r="2.1" fill="#3a466f" opacity="0.80"></circle><circle cx="601.5" cy="256.3" r="1.8" fill="#0ea5a4" opacity="0.69"></circle><circle cx="635.2" cy="252.8" r="1.1" fill="#4f46e5" opacity="0.48"></circle><line x1="660.9" y1="258.9" x2="658.9" y2="253.1" stroke="#333d63" stroke-width="1.1" opacity="0.39"></line><line x1="648.2" y1="241.3" x2="640.6" y2="249.0" stroke="#333d63" stroke-width="1.1" opacity="0.48"></line><line x1="626.1" y1="240.2" x2="619.4" y2="238.2" stroke="#2b3352" stroke-width="1.1" opacity="0.58"></line><circle cx="582.3" cy="234.9" r="1.9" fill="#3a466f" opacity="0.85"></circle><circle cx="553.2" cy="231.0" r="2.0" fill="#2b3352" opacity="0.58"></circle><line x1="548.0" y1="231.9" x2="541.4" y2="220.4" stroke="#333d63" stroke-width="1.1" opacity="0.62"></line><circle cx="564.5" cy="229.5" r="1.4" fill="#3a466f" opacity="0.52"></circle><circle cx="592.7" cy="233.9" r="1.7" fill="#2b3352" opacity="0.61"></circle><text x="635.6" y="240.8" font-size="11" fill="#3a466f" opacity="0.58">0</text><text x="657.2" y="248.8" font-size="10" fill="#333d63" opacity="0.74">1</text><circle cx="651.9" cy="258.4" r="1.6" fill="#2b3352" opacity="0.53"></circle><circle cx="627.2" cy="254.3" r="1.8" fill="#333d63" opacity="0.68"></circle><text x="581.7" y="247.7" font-size="10" fill="#2b3352" opacity="0.69">1</text><circle cx="558.2" cy="234.4" r="1.2" fill="#3a466f" opacity="0.71"></circle><text x="547.6" y="225.1" font-size="11" fill="#2b3352" opacity="0.77">0</text><line x1="563.8" y1="225.6" x2="571.3" y2="225.1" stroke="#eab308" stroke-width="1.1" opacity="0.48"></line><text x="599.1" y="221.5" font-size="10" fill="#333d63" opacity="0.43">0</text><line x1="631.1" y1="229.7" x2="635.0" y2="233.6" stroke="#333d63" stroke-width="1.1" opacity="0.63"></line><circle cx="644.7" cy="239.3" r="1.5" fill="#0ea5a4" opacity="0.44"></circle><line x1="635.8" y1="250.4" x2="624.4" y2="246.7" stroke="#0ea5a4" stroke-width="1.1" opacity="0.49"></line><text x="615.3" y="252.7" font-size="10" fill="#333d63" opacity="0.77">0</text><text x="590.9" y="258.3" font-size="12" fill="#0ea5a4" opacity="0.85">0</text><circle cx="571.5" cy="254.0" r="1.6" fill="#0ea5a4" opacity="0.84"></circle><circle cx="562.5" cy="246.9" r="2.2" fill="#3a466f" opacity="0.48"></circle><text x="575.2" y="233.9" font-size="10" fill="#eab308" opacity="0.66">1</text><circle cx="602.4" cy="226.1" r="2.0" fill="#3a466f" opacity="0.67"></circle><text x="620.6" y="221.7" font-size="12" fill="#4f46e5" opacity="0.53">0</text><circle cx="635.3" cy="230.1" r="1.5" fill="#4f46e5" opacity="0.83"></circle><line x1="622.0" y1="234.2" x2="618.2" y2="240.8" stroke="#4f46e5" stroke-width="1.1" opacity="0.58"></line><circle cx="610.1" cy="250.3" r="2.0" fill="#333d63" opacity="0.81"></circle><text x="585.3" y="257.5" font-size="10" fill="#3a466f" opacity="0.76">0</text><line x1="572.5" y1="253.5" x2="569.8" y2="258.0" stroke="#3a466f" stroke-width="1.1" opacity="0.77"></line><circle cx="576.8" cy="255.8" r="1.7" fill="#333d63" opacity="0.72"></circle><text x="590.6" y="243.1" font-size="12" fill="#333d63" opacity="0.51">1</text><circle cx="617.1" cy="238.6" r="2.0" fill="#4f46e5" opacity="0.58"></circle><text x="631.1" y="226.0" font-size="10" fill="#2b3352" opacity="0.74">0</text><line x1="622.6" y1="222.8" x2="633.9" y2="226.6" stroke="#0ea5a4" stroke-width="1.1" opacity="0.47"></line><line x1="619.2" y1="225.4" x2="612.0" y2="226.7" stroke="#3a466f" stroke-width="1.1" opacity="0.44"></line><line x1="593.4" y1="238.5" x2="585.8" y2="234.6" stroke="#4f46e5" stroke-width="1.1" opacity="0.49"></line><line x1="577.5" y1="236.7" x2="570.5" y2="246.8" stroke="#4f46e5" stroke-width="1.1" opacity="0.69"></line><text x="572.9" y="249.2" font-size="12" fill="#0ea5a4" opacity="0.67">1</text><circle cx="574.2" cy="258.3" r="1.4" fill="#333d63" opacity="0.72"></circle><circle cx="601.2" cy="257.3" r="1.6" fill="#0ea5a4" opacity="0.54"></circle><line x1="623.1" y1="243.1" x2="633.1" y2="251.3" stroke="#333d63" stroke-width="1.1" opacity="0.77"></line><text x="636.7" y="242.4" font-size="12" fill="#0ea5a4" opacity="0.54">0</text><line x1="625.5" y1="230.2" x2="620.5" y2="231.7" stroke="#eab308" stroke-width="1.1" opacity="0.35"></line><circle cx="606.7" cy="232.4" r="2.0" fill="#4f46e5" opacity="0.75"></circle><circle cx="585.6" cy="232.1" r="2.4" fill="#2b3352" opacity="0.66"></circle><text x="564.3" y="235.9" font-size="12" fill="#eab308" opacity="0.71">0</text><circle cx="569.1" cy="237.7" r="2.3" fill="#4f46e5" opacity="0.57"></circle><text x="578.9" y="249.3" font-size="10" fill="#4f46e5" opacity="0.70">1</text><circle cx="596.5" cy="250.4" r="1.1" fill="#333d63" opacity="0.45"></circle><circle cx="624.9" cy="250.6" r="1.8" fill="#333d63" opacity="0.49"></circle><line x1="637.6" y1="249.7" x2="631.5" y2="237.1" stroke="#4f46e5" stroke-width="1.1" opacity="0.68"></line><circle cx="626.4" cy="246.2" r="2.1" fill="#eab308" opacity="0.40"></circle><line x1="611.7" y1="240.0" x2="602.9" y2="236.5" stroke="#4f46e5" stroke-width="1.1" opacity="0.55"></line><text x="583.1" y="237.6" font-size="11" fill="#eab308" opacity="0.72">0</text><text x="565.6" y="225.8" font-size="11" fill="#4f46e5" opacity="0.41">1</text><circle cx="562.6" cy="236.8" r="1.4" fill="#eab308" opacity="0.60"></circle><text x="582.6" y="230.0" font-size="12" fill="#3a466f" opacity="0.47">0</text><circle cx="605.6" cy="240.7" r="1.4" fill="#333d63" opacity="0.67"></circle><text x="627.2" y="240.4" font-size="11" fill="#2b3352" opacity="0.44">0</text><line x1="632.2" y1="241.9" x2="634.2" y2="248.0" stroke="#4f46e5" stroke-width="1.1" opacity="0.77"></line><circle cx="634.9" cy="250.9" r="1.3" fill="#2b3352" opacity="0.50"></circle><text x="607.3" y="242.4" font-size="10" fill="#2b3352" opacity="0.52">1</text><circle cx="582.8" cy="242.2" r="1.8" fill="#333d63" opacity="0.85"></circle><circle cx="567.4" cy="236.7" r="2.1" fill="#3a466f" opacity="0.61"></circle><text x="568.9" y="230.5" font-size="11" fill="#3a466f" opacity="0.84">0</text><circle cx="582.2" cy="229.1" r="1.8" fill="#2b3352" opacity="0.44"></circle><circle cx="595.3" cy="229.1" r="1.6" fill="#2b3352" opacity="0.81"></circle><circle cx="623.6" cy="234.7" r="1.5" fill="#0ea5a4" opacity="0.79"></circle><text x="631.8" y="240.7" font-size="11" fill="#3a466f" opacity="0.56">1</text><circle cx="620.2" cy="243.2" r="2.3" fill="#0ea5a4" opacity="0.88"></circle><circle cx="609.7" cy="253.5" r="2.0" fill="#333d63" opacity="0.68"></circle><circle cx="585.7" cy="251.1" r="1.3" fill="#eab308" opacity="0.46"></circle><circle cx="582.0" cy="243.0" r="1.0" fill="#2b3352" opacity="0.59"></circle><line x1="581.5" y1="237.2" x2="574.3" y2="246.8" stroke="#2b3352" stroke-width="1.1" opacity="0.42"></line><circle cx="592.8" cy="238.2" r="2.0" fill="#2b3352" opacity="0.77"></circle><text x="605.9" y="225.8" font-size="12" fill="#333d63" opacity="0.49">0</text><circle cx="621.0" cy="231.1" r="1.4" fill="#2b3352" opacity="0.72"></circle><line x1="615.6" y1="231.0" x2="625.4" y2="236.0" stroke="#333d63" stroke-width="1.1" opacity="0.43"></line><circle cx="618.4" cy="232.0" r="2.0" fill="#2b3352" opacity="0.50"></circle><line x1="598.6" y1="238.2" x2="596.8" y2="247.0" stroke="#333d63" stroke-width="1.1" opacity="0.58"></line><text x="592.0" y="247.7" font-size="11" fill="#2b3352" opacity="0.67">0</text><circle cx="585.9" cy="254.8" r="1.3" fill="#2b3352" opacity="0.52"></circle><line x1="579.0" y1="244.1" x2="583.8" y2="245.9" stroke="#2b3352" stroke-width="1.1" opacity="0.64"></line><line x1="599.2" y1="247.4" x2="600.4" y2="234.9" stroke="#0ea5a4" stroke-width="1.1" opacity="0.65"></line><line x1="605.3" y1="235.6" x2="615.8" y2="235.1" stroke="#0ea5a4" stroke-width="1.1" opacity="0.72"></line><circle cx="617.2" cy="235.2" r="1.4" fill="#4f46e5" opacity="0.84"></circle><circle cx="617.6" cy="235.8" r="1.3" fill="#4f46e5" opacity="0.58"></circle><text x="606.2" y="231.9" font-size="12" fill="#333d63" opacity="0.66">0</text><circle cx="588.8" cy="233.1" r="2.2" fill="#2b3352" opacity="0.63"></circle><line x1="584.0" y1="243.2" x2="571.8" y2="245.8" stroke="#0ea5a4" stroke-width="1.1" opacity="0.41"></line><text x="579.1" y="248.0" font-size="10" fill="#0ea5a4" opacity="0.60">0</text><circle cx="589.6" cy="248.2" r="1.6" fill="#3a466f" opacity="0.89"></circle><text x="596.8" y="245.7" font-size="10" fill="#333d63" opacity="0.43">1</text><circle cx="609.5" cy="241.1" r="2.3" fill="#333d63" opacity="0.69"></circle><circle cx="624.5" cy="239.4" r="2.1" fill="#2b3352" opacity="0.86"></circle><circle cx="619.4" cy="238.5" r="1.3" fill="#2b3352" opacity="0.43"></circle><circle cx="608.3" cy="230.7" r="1.8" fill="#3a466f" opacity="0.53"></circle><circle cx="587.0" cy="236.9" r="2.0" fill="#eab308" opacity="0.70"></circle><text x="583.8" y="232.0" font-size="10" fill="#3a466f" opacity="0.61">1</text><line x1="576.5" y1="239.6" x2="582.9" y2="241.4" stroke="#3a466f" stroke-width="1.1" opacity="0.46"></line><circle cx="588.6" cy="240.5" r="1.7" fill="#2b3352" opacity="0.56"></circle><line x1="603.9" y1="246.1" x2="617.6" y2="246.7" stroke="#2b3352" stroke-width="1.1" opacity="0.62"></line><line x1="621.8" y1="248.8" x2="613.6" y2="237.5" stroke="#eab308" stroke-width="1.1" opacity="0.79"></line><line x1="625.7" y1="248.4" x2="618.8" y2="239.4" stroke="#333d63" stroke-width="1.1" opacity="0.71"></line><line x1="618.5" y1="246.9" x2="614.1" y2="240.3" stroke="#3a466f" stroke-width="1.1" opacity="0.53"></line><circle cx="603.2" cy="235.5" r="2.3" fill="#0ea5a4" opacity="0.67"></circle><line x1="588.6" y1="235.2" x2="577.1" y2="235.1" stroke="#333d63" stroke-width="1.1" opacity="0.77"></line><text x="584.6" y="239.4" font-size="12" fill="#3a466f" opacity="0.57">0</text><line x1="583.5" y1="231.9" x2="577.6" y2="238.8" stroke="#2b3352" stroke-width="1.1" opacity="0.58"></line><line x1="591.3" y1="238.7" x2="599.8" y2="228.3" stroke="#eab308" stroke-width="1.1" opacity="0.75"></line><circle cx="597.9" cy="241.3" r="1.8" fill="#0ea5a4" opacity="0.41"></circle><line x1="619.5" y1="240.9" x2="616.6" y2="248.0" stroke="#3a466f" stroke-width="1.1" opacity="0.69"></line><text x="622.2" y="243.8" font-size="10" fill="#3a466f" opacity="0.78">0</text><line x1="612.4" y1="250.8" x2="614.2" y2="244.7" stroke="#eab308" stroke-width="1.1" opacity="0.48"></line><circle cx="603.2" cy="249.3" r="1.7" fill="#eab308" opacity="0.64"></circle><circle cx="586.5" cy="240.0" r="2.2" fill="#0ea5a4" opacity="0.55"></circle><line x1="586.9" y1="240.0" x2="574.0" y2="235.2" stroke="#2b3352" stroke-width="1.1" opacity="0.62"></line><circle cx="586.5" cy="236.8" r="1.6" fill="#2b3352" opacity="0.63"></circle><line x1="593.3" y1="235.2" x2="589.5" y2="224.0" stroke="#333d63" stroke-width="1.1" opacity="0.72"></line><text x="600.6" y="238.9" font-size="12" fill="#3a466f" opacity="0.47">1</text><circle cx="612.8" cy="237.2" r="1.2" fill="#333d63" opacity="0.77"></circle><circle cx="616.4" cy="239.9" r="2.1" fill="#0ea5a4" opacity="0.41"></circle><circle cx="609.0" cy="243.4" r="1.6" fill="#3a466f" opacity="0.42"></circle></g><text x="24" y="460" font-family="Consolas, Menlo, monospace" font-size="13" fill="#4a5578">2026-07-23 · sin(5t+φ)·e^(−λt), sin(6t) · seed 8d610c</text></svg>