<svg width="1200" height="480" viewBox="0 0 1200 480" xmlns="http://www.w3.org/2000/svg" role="img" aria-label="Generative art for 2026-08-09"><rect width="1200" height="480" fill="#0b0e1a"/><g font-family="Consolas, Menlo, monospace"><circle cx="279.5" cy="330.8" r="1.7" fill="#3a466f" opacity="0.66"></circle><circle cx="249.9" cy="136.6" r="1.2" fill="#0ea5a4" opacity="0.47"></circle><circle cx="581.9" cy="101.9" r="2.3" fill="#2b3352" opacity="0.77"></circle><circle cx="1052.7" cy="207.1" r="1.6" fill="#333d63" opacity="0.61"></circle><circle cx="846.8" cy="239.9" r="1.1" fill="#eab308" opacity="0.63"><animate attributeName="opacity" values="0.25;0.9;0.25" dur="10.7s" repeatCount="indefinite"/></circle><text x="302.1" y="162.0" font-size="10" fill="#333d63" opacity="0.49">0</text><circle cx="70.1" cy="196.6" r="1.1" fill="#3a466f" opacity="0.40"></circle><circle cx="275.7" cy="350.4" r="1.3" fill="#2b3352" opacity="0.53"></circle><line x1="624.6" y1="426.8" x2="636.0" y2="425.3" stroke="#2b3352" stroke-width="1.1" opacity="0.65"></line><circle cx="790.6" cy="308.9" r="2.0" fill="#4f46e5" opacity="0.51"></circle><circle cx="748.6" cy="93.7" r="1.4" fill="#2b3352" opacity="0.79"></circle><line x1="719.0" y1="10.6" x2="725.2" y2="22.5" stroke="#4f46e5" stroke-width="1.1" opacity="0.40"></line><line x1="802.0" y1="143.8" x2="805.3" y2="152.9" stroke="#2b3352" stroke-width="1.1" opacity="0.46"></line><text x="820.5" y="350.5" font-size="11" fill="#333d63" opacity="0.81">1</text><line x1="571.6" y1="408.6" x2="564.4" y2="407.5" stroke="#2b3352" stroke-width="1.1" opacity="0.53"></line><line x1="199.1" y1="304.1" x2="193.1" y2="300.8" stroke="#2b3352" stroke-width="1.1" opacity="0.54"></line><text x="83.2" y="187.8" font-size="10" fill="#eab308" opacity="0.45">1<animate attributeName="opacity" values="0.25;0.9;0.25" dur="10.3s" repeatCount="indefinite"/></text><circle cx="408.8" cy="192.1" r="2.0" fill="#3a466f" opacity="0.64"></circle><circle cx="925.0" cy="277.0" r="1.1" fill="#0ea5a4" opacity="0.69"><animate attributeName="opacity" values="0.25;0.9;0.25" dur="8.5s" repeatCount="indefinite"/></circle><line x1="1160.9" y1="275.8" x2="1152.8" y2="268.7" stroke="#eab308" stroke-width="1.1" opacity="0.62"><animate attributeName="opacity" values="0.25;0.9;0.25" dur="6.6s" repeatCount="indefinite"/></line><line x1="929.2" y1="174.7" x2="915.9" y2="170.5" stroke="#333d63" stroke-width="1.1" opacity="0.71"></line><text x="513.1" y="94.2" font-size="12" fill="#3a466f" opacity="0.69">0</text><line x1="296.1" y1="175.8" x2="295.5" y2="182.9" stroke="#3a466f" stroke-width="1.1" opacity="0.66"></line><circle cx="369.0" cy="370.3" r="1.3" fill="#3a466f" opacity="0.64"></circle><text x="508.8" y="449.4" font-size="12" fill="#3a466f" opacity="0.55">1</text><circle cx="527.0" cy="328.2" r="2.0" fill="#0ea5a4" opacity="0.62"></circle><line x1="507.0" y1="124.0" x2="514.2" y2="114.6" stroke="#0ea5a4" stroke-width="1.1" opacity="0.57"><animate attributeName="opacity" values="0.25;0.9;0.25" dur="8.3s" repeatCount="indefinite"/></line><circle cx="666.6" cy="51.6" r="1.5" fill="#4f46e5" opacity="0.67"></circle><circle cx="941.8" cy="157.6" r="2.3" fill="#333d63" opacity="0.68"></circle><line x1="1025.7" y1="305.0" x2="1017.2" y2="309.1" stroke="#2b3352" stroke-width="1.1" opacity="0.71"></line><text x="732.1" y="326.3" font-size="11" fill="#3a466f" opacity="0.72">0</text><circle cx="263.3" cy="249.0" r="1.4" fill="#3a466f" opacity="0.83"></circle><circle cx="53.9" cy="199.2" r="1.7" fill="#0ea5a4" opacity="0.48"><animate attributeName="opacity" values="0.25;0.9;0.25" dur="11.0s" repeatCount="indefinite"/></circle><circle cx="300.6" cy="268.0" r="1.5" fill="#333d63" opacity="0.56"></circle><circle cx="748.3" cy="341.8" r="1.1" fill="#333d63" opacity="0.54"></circle><circle cx="983.9" cy="289.8" r="1.1" fill="#2b3352" opacity="0.82"></circle><circle cx="883.2" cy="136.9" r="1.7" fill="#2b3352" opacity="0.86"></circle><circle cx="649.6" cy="47.9" r="2.2" fill="#0ea5a4" opacity="0.79"><animate attributeName="opacity" values="0.25;0.9;0.25" dur="8.1s" repeatCount="indefinite"/></circle><line x1="549.8" y1="150.6" x2="550.5" y2="160.5" stroke="#333d63" stroke-width="1.1" opacity="0.44"></line><line x1="567.1" y1="345.4" x2="567.4" y2="351.7" stroke="#333d63" stroke-width="1.1" opacity="0.66"></line><circle cx="509.4" cy="435.9" r="1.8" fill="#333d63" opacity="0.54"></circle><text x="353.3" y="338.0" font-size="12" fill="#333d63" opacity="0.77">0</text><line x1="287.6" y1="167.0" x2="295.8" y2="161.1" stroke="#3a466f" stroke-width="1.1" opacity="0.38"></line><circle cx="530.3" cy="120.5" r="1.1" fill="#4f46e5" opacity="0.72"></circle><line x1="933.5" y1="197.4" x2="939.5" y2="199.6" stroke="#4f46e5" stroke-width="1.1" opacity="0.79"></line><line x1="1117.0" y1="278.3" x2="1110.4" y2="279.4" stroke="#0ea5a4" stroke-width="1.1" opacity="0.67"></line><line x1="868.4" y1="254.6" x2="858.2" y2="252.5" stroke="#3a466f" stroke-width="1.1" opacity="0.74"></line><circle cx="403.6" cy="175.0" r="1.7" fill="#2b3352" opacity="0.42"></circle><line x1="156.1" y1="197.9" x2="155.6" y2="203.2" stroke="#3a466f" stroke-width="1.1" opacity="0.56"></line><line x1="281.4" y1="316.3" x2="288.7" y2="318.9" stroke="#eab308" stroke-width="1.1" opacity="0.72"><animate attributeName="opacity" values="0.25;0.9;0.25" dur="13.8s" repeatCount="indefinite"/></line><line x1="584.1" y1="398.6" x2="591.1" y2="398.3" stroke="#4f46e5" stroke-width="1.1" opacity="0.75"></line><text x="752.0" y="318.0" font-size="11" fill="#3a466f" opacity="0.42">0</text><circle cx="730.7" cy="145.7" r="1.8" fill="#2b3352" opacity="0.53"></circle><circle cx="689.9" cy="43.9" r="1.6" fill="#0ea5a4" opacity="0.51"></circle><circle cx="755.2" cy="133.8" r="1.9" fill="#3a466f" opacity="0.59"></circle><line x1="791.2" y1="310.2" x2="786.9" y2="317.9" stroke="#2b3352" stroke-width="1.1" opacity="0.70"></line><circle cx="613.5" cy="385.2" r="2.2" fill="#4f46e5" opacity="0.52"></circle><circle cx="305.2" cy="310.0" r="1.2" fill="#3a466f" opacity="0.88"></circle><line x1="155.2" y1="202.6" x2="161.4" y2="197.4" stroke="#3a466f" stroke-width="1.1" opacity="0.77"></line><text x="384.4" y="195.3" font-size="10" fill="#4f46e5" opacity="0.73">0</text><line x1="820.1" y1="255.8" x2="825.7" y2="256.9" stroke="#3a466f" stroke-width="1.1" opacity="0.54"></line><line x1="1072.1" y1="283.0" x2="1069.4" y2="274.0" stroke="#2b3352" stroke-width="1.1" opacity="0.55"></line><text x="920.7" y="198.8" font-size="10" fill="#3a466f" opacity="0.56">1</text><text x="572.6" y="114.9" font-size="12" fill="#333d63" opacity="0.54">1</text><line x1="356.5" y1="166.7" x2="354.1" y2="172.0" stroke="#333d63" stroke-width="1.1" opacity="0.38"></line><text x="395.6" y="319.6" font-size="11" fill="#3a466f" opacity="0.73">1</text><circle cx="511.7" cy="413.0" r="1.2" fill="#0ea5a4" opacity="0.82"></circle><text x="536.8" y="342.4" font-size="12" fill="#2b3352" opacity="0.47">1</text><circle cx="526.4" cy="164.6" r="2.4" fill="#2b3352" opacity="0.72"></circle><line x1="626.1" y1="76.4" x2="636.7" y2="78.2" stroke="#333d63" stroke-width="1.1" opacity="0.56"></line><text x="850.3" y="152.8" font-size="12" fill="#3a466f" opacity="0.78">0</text><line x1="968.4" y1="279.0" x2="958.5" y2="288.3" stroke="#3a466f" stroke-width="1.1" opacity="0.71"></line><line x1="762.5" y1="321.1" x2="748.9" y2="319.5" stroke="#3a466f" stroke-width="1.1" opacity="0.63"></line><line x1="370.1" y1="251.2" x2="358.5" y2="249.5" stroke="#3a466f" stroke-width="1.1" opacity="0.58"></line><circle cx="136.2" cy="211.2" r="1.1" fill="#eab308" opacity="0.46"><animate attributeName="opacity" values="0.25;0.9;0.25" dur="7.5s" repeatCount="indefinite"/></circle><line x1="298.6" y1="252.1" x2="309.7" y2="254.7" stroke="#333d63" stroke-width="1.1" opacity="0.76"></line><circle cx="676.3" cy="322.1" r="1.5" fill="#333d63" opacity="0.89"></circle><circle cx="921.1" cy="300.4" r="1.1" fill="#2b3352" opacity="0.78"></circle><line x1="869.5" y1="180.0" x2="859.5" y2="172.5" stroke="#3a466f" stroke-width="1.1" opacity="0.40"></line><text x="673.9" y="89.3" font-size="10" fill="#3a466f" opacity="0.52">1</text><line x1="568.7" y1="139.3" x2="566.9" y2="147.9" stroke="#333d63" stroke-width="1.1" opacity="0.72"></line><line x1="575.2" y1="313.0" x2="575.1" y2="324.6" stroke="#0ea5a4" stroke-width="1.1" opacity="0.45"></line><text x="544.0" y="397.8" font-size="11" fill="#333d63" opacity="0.55">0</text><line x1="412.8" y1="341.4" x2="403.0" y2="332.1" stroke="#333d63" stroke-width="1.1" opacity="0.62"></line><text x="329.8" y="195.2" font-size="10" fill="#3a466f" opacity="0.68">0</text><line x1="502.0" y1="135.2" x2="510.6" y2="135.8" stroke="#333d63" stroke-width="1.1" opacity="0.66"></line><circle cx="831.0" cy="187.3" r="2.3" fill="#333d63" opacity="0.56"></circle><circle cx="1027.1" cy="272.9" r="2.0" fill="#2b3352" opacity="0.87"></circle><circle cx="866.9" cy="253.9" r="1.9" fill="#4f46e5" opacity="0.40"></circle><circle cx="496.7" cy="198.3" r="1.1" fill="#333d63" opacity="0.78"></circle><circle cx="242.0" cy="195.4" r="1.3" fill="#0ea5a4" opacity="0.67"></circle><circle cx="300.0" cy="279.3" r="2.0" fill="#3a466f" opacity="0.80"></circle><line x1="552.5" y1="371.3" x2="562.6" y2="371.5" stroke="#4f46e5" stroke-width="1.1" opacity="0.45"></line><circle cx="728.1" cy="325.5" r="1.2" fill="#4f46e5" opacity="0.70"></circle><line x1="720.3" y1="181.5" x2="716.8" y2="173.7" stroke="#3a466f" stroke-width="1.1" opacity="0.63"></line><line x1="682.4" y1="84.4" x2="678.1" y2="77.2" stroke="#2b3352" stroke-width="1.1" opacity="0.54"></line><line x1="721.8" y1="130.4" x2="726.8" y2="141.6" stroke="#2b3352" stroke-width="1.1" opacity="0.35"></line><circle cx="768.4" cy="279.7" r="2.2" fill="#2b3352" opacity="0.85"></circle><circle cx="643.4" cy="362.5" r="1.2" fill="#2b3352" opacity="0.85"></circle><line x1="380.8" y1="308.2" x2="369.0" y2="303.8" stroke="#2b3352" stroke-width="1.1" opacity="0.49"></line><line x1="220.0" y1="219.3" x2="223.2" y2="213.4" stroke="#0ea5a4" stroke-width="1.1" opacity="0.45"></line><circle cx="375.1" cy="191.8" r="1.5" fill="#333d63" opacity="0.48"></circle><line x1="729.7" y1="254.5" x2="738.9" y2="255.2" stroke="#4f46e5" stroke-width="1.1" opacity="0.62"></line><circle cx="977.8" cy="274.4" r="1.1" fill="#0ea5a4" opacity="0.64"></circle><text x="901.1" y="218.7" font-size="10" fill="#3a466f" opacity="0.50">0</text><line x1="616.5" y1="139.9" x2="609.8" y2="139.6" stroke="#4f46e5" stroke-width="1.1" opacity="0.55"></line><line x1="399.6" y1="164.1" x2="396.4" y2="171.0" stroke="#0ea5a4" stroke-width="1.1" opacity="0.71"></line><circle cx="413.1" cy="287.2" r="2.3" fill="#eab308" opacity="0.74"><animate attributeName="opacity" values="0.25;0.9;0.25" dur="6.4s" repeatCount="indefinite"/></circle><circle cx="515.8" cy="388.2" r="2.1" fill="#4f46e5" opacity="0.74"></circle><line x1="554.9" y1="340.5" x2="552.2" y2="328.9" stroke="#2b3352" stroke-width="1.1" opacity="0.71"></line><text x="539.4" y="195.9" font-size="11" fill="#3a466f" opacity="0.67">0</text><text x="606.7" y="111.8" font-size="11" fill="#2b3352" opacity="0.64">1</text><line x1="787.4" y1="151.3" x2="794.0" y2="155.4" stroke="#2b3352" stroke-width="1.1" opacity="0.47"></line><circle cx="910.8" cy="261.4" r="1.8" fill="#eab308" opacity="0.88"><animate attributeName="opacity" values="0.25;0.9;0.25" dur="14.0s" repeatCount="indefinite"/></circle><line x1="776.8" y1="313.6" x2="771.7" y2="312.9" stroke="#4f46e5" stroke-width="1.1" opacity="0.77"></line><circle cx="451.4" cy="266.3" r="2.3" fill="#333d63" opacity="0.44"></circle><text x="219.0" y="216.3" font-size="12" fill="#0ea5a4" opacity="0.41">0</text><circle cx="308.2" cy="244.9" r="1.8" fill="#eab308" opacity="0.88"><animate attributeName="opacity" values="0.25;0.9;0.25" dur="7.3s" repeatCount="indefinite"/></circle><text x="617.4" y="304.1" font-size="10" fill="#2b3352" opacity="0.69">0</text><line x1="856.8" y1="297.3" x2="862.7" y2="291.6" stroke="#4f46e5" stroke-width="1.1" opacity="0.75"></line><circle cx="834.5" cy="199.4" r="2.4" fill="#2b3352" opacity="0.66"></circle><circle cx="674.4" cy="110.9" r="2.3" fill="#4f46e5" opacity="0.71"></circle><circle cx="576.2" cy="148.3" r="2.3" fill="#3a466f" opacity="0.60"></circle><circle cx="580.1" cy="273.3" r="2.1" fill="#4f46e5" opacity="0.60"></circle><line x1="561.5" y1="372.9" x2="553.8" y2="375.1" stroke="#333d63" stroke-width="1.1" opacity="0.54"></line><text x="457.2" y="334.1" font-size="10" fill="#0ea5a4" opacity="0.71">1</text><line x1="370.7" y1="222.1" x2="373.2" y2="214.8" stroke="#333d63" stroke-width="1.1" opacity="0.36"></line><line x1="481.8" y1="147.9" x2="488.7" y2="148.6" stroke="#eab308" stroke-width="1.1" opacity="0.73"></line><text x="751.0" y="185.2" font-size="11" fill="#2b3352" opacity="0.51">1</text><circle cx="953.2" cy="257.3" r="1.5" fill="#3a466f" opacity="0.52"></circle><circle cx="864.2" cy="266.2" r="1.4" fill="#2b3352" opacity="0.67"></circle><line x1="553.0" y1="209.0" x2="545.4" y2="207.9" stroke="#333d63" stroke-width="1.1" opacity="0.55"></line><circle cx="306.2" cy="200.8" r="2.0" fill="#333d63" opacity="0.83"></circle><line x1="325.3" y1="269.3" x2="333.1" y2="272.5" stroke="#0ea5a4" stroke-width="1.1" opacity="0.62"></line><text x="528.9" y="340.4" font-size="11" fill="#3a466f" opacity="0.55">1</text><line x1="698.2" y1="322.9" x2="701.0" y2="316.9" stroke="#2b3352" stroke-width="1.1" opacity="0.65"></line><circle cx="707.7" cy="212.2" r="1.2" fill="#3a466f" opacity="0.61"></circle><text x="660.1" y="116.7" font-size="12" fill="#333d63" opacity="0.56">0</text><text x="690.5" y="142.5" font-size="12" fill="#4f46e5" opacity="0.48">0</text><line x1="742.6" y1="261.0" x2="740.1" y2="271.6" stroke="#2b3352" stroke-width="1.1" opacity="0.75"></line><text x="659.3" y="340.2" font-size="11" fill="#2b3352" opacity="0.58">1</text><text x="452.6" y="314.2" font-size="10" fill="#3a466f" opacity="0.55">1</text><circle cx="294.3" cy="226.3" r="2.1" fill="#3a466f" opacity="0.61"></circle><line x1="378.9" y1="194.2" x2="390.6" y2="196.4" stroke="#0ea5a4" stroke-width="1.1" opacity="0.47"></line><line x1="665.7" y1="246.2" x2="674.3" y2="246.8" stroke="#2b3352" stroke-width="1.1" opacity="0.78"></line><line x1="903.7" y1="277.3" x2="915.1" y2="273.0" stroke="#0ea5a4" stroke-width="1.1" opacity="0.60"></line><circle cx="875.3" cy="232.9" r="1.2" fill="#2b3352" opacity="0.68"></circle><circle cx="644.1" cy="159.1" r="1.5" fill="#2b3352" opacity="0.62"></circle><line x1="454.8" y1="174.6" x2="447.1" y2="177.8" stroke="#eab308" stroke-width="1.1" opacity="0.44"></line><circle cx="430.3" cy="267.6" r="2.2" fill="#3a466f" opacity="0.59"></circle><circle cx="516.6" cy="360.2" r="1.2" fill="#3a466f" opacity="0.67"></circle><circle cx="564.8" cy="336.4" r="2.3" fill="#333d63" opacity="0.40"></circle><text x="543.6" y="224.2" font-size="12" fill="#2b3352" opacity="0.44">0</text><line x1="579.2" y1="129.7" x2="585.2" y2="129.4" stroke="#333d63" stroke-width="1.1" opacity="0.48"></line><circle cx="727.8" cy="153.5" r="1.9" fill="#4f46e5" opacity="0.69"></circle><line x1="853.8" y1="240.5" x2="855.3" y2="254.4" stroke="#4f46e5" stroke-width="1.1" opacity="0.56"></line><text x="775.6" y="299.9" font-size="10" fill="#4f46e5" opacity="0.43">0</text><circle cx="508.3" cy="264.5" r="1.1" fill="#2b3352" opacity="0.65"></circle><line x1="291.6" y1="219.7" x2="284.4" y2="218.5" stroke="#2b3352" stroke-width="1.1" opacity="0.62"></line><line x1="327.6" y1="236.6" x2="340.2" y2="239.0" stroke="#4f46e5" stroke-width="1.1" opacity="0.46"></line><line x1="571.8" y1="287.0" x2="577.2" y2="287.8" stroke="#3a466f" stroke-width="1.1" opacity="0.46"></line><text x="790.3" y="292.4" font-size="10" fill="#333d63" opacity="0.46">0</text><circle cx="816.1" cy="222.4" r="1.5" fill="#3a466f" opacity="0.62"></circle><circle cx="684.2" cy="142.9" r="1.8" fill="#4f46e5" opacity="0.60"></circle><line x1="583.3" y1="154.8" x2="576.9" y2="166.0" stroke="#eab308" stroke-width="1.1" opacity="0.51"></line><text x="574.5" y="257.6" font-size="11" fill="#4f46e5" opacity="0.60">0</text><circle cx="571.0" cy="348.6" r="1.2" fill="#333d63" opacity="0.87"></circle><line x1="490.4" y1="327.8" x2="483.7" y2="323.4" stroke="#0ea5a4" stroke-width="1.1" opacity="0.35"></line><circle cx="412.8" cy="237.5" r="1.8" fill="#2b3352" opacity="0.42"></circle><line x1="479.7" y1="172.7" x2="489.6" y2="171.2" stroke="#4f46e5" stroke-width="1.1" opacity="0.58"></line><circle cx="695.0" cy="194.7" r="1.3" fill="#0ea5a4" opacity="0.59"></circle><line x1="882.4" y1="247.3" x2="888.7" y2="250.8" stroke="#333d63" stroke-width="1.1" opacity="0.51"></line><line x1="847.5" y1="260.2" x2="837.3" y2="258.9" stroke="#2b3352" stroke-width="1.1" opacity="0.63"></line><circle cx="601.0" cy="220.9" r="1.3" fill="#2b3352" opacity="0.60"></circle><line x1="376.1" y1="203.5" x2="362.7" y2="204.1" stroke="#0ea5a4" stroke-width="1.1" opacity="0.45"></line><circle cx="357.5" cy="250.5" r="1.1" fill="#2b3352" opacity="0.60"></circle><circle cx="512.4" cy="320.5" r="2.4" fill="#2b3352" opacity="0.70"></circle><line x1="660.4" y1="321.4" x2="669.1" y2="315.0" stroke="#333d63" stroke-width="1.1" opacity="0.60"></line><circle cx="691.3" cy="233.2" r="1.2" fill="#3a466f" opacity="0.60"></circle><circle cx="659.1" cy="136.8" r="2.1" fill="#0ea5a4" opacity="0.70"></circle><text x="672.6" y="144.6" font-size="11" fill="#3a466f" opacity="0.76">0</text><text x="715.1" y="238.0" font-size="10" fill="#4f46e5" opacity="0.54">0</text><circle cx="672.4" cy="323.9" r="1.7" fill="#eab308" opacity="0.90"></circle><circle cx="501.5" cy="309.2" r="1.3" fill="#2b3352" opacity="0.52"></circle><line x1="345.9" y1="245.6" x2="342.2" y2="238.1" stroke="#0ea5a4" stroke-width="1.1" opacity="0.50"></line><circle cx="393.1" cy="201.4" r="2.0" fill="#3a466f" opacity="0.80"></circle><circle cx="616.7" cy="234.5" r="1.0" fill="#333d63" opacity="0.86"></circle><text x="835.1" y="270.3" font-size="10" fill="#2b3352" opacity="0.52">1</text><line x1="856.2" y1="243.7" x2="845.3" y2="238.3" stroke="#0ea5a4" stroke-width="1.1" opacity="0.65"></line><circle cx="676.0" cy="186.0" r="1.8" fill="#2b3352" opacity="0.41"></circle><line x1="492.6" y1="174.7" x2="486.0" y2="177.3" stroke="#eab308" stroke-width="1.1" opacity="0.54"></line><circle cx="451.6" cy="250.8" r="2.4" fill="#2b3352" opacity="0.48"></circle><circle cx="521.5" cy="330.5" r="1.6" fill="#333d63" opacity="0.85"></circle><circle cx="568.8" cy="336.3" r="2.3" fill="#4f46e5" opacity="0.42"></circle><line x1="559.0" y1="240.9" x2="555.9" y2="228.3" stroke="#3a466f" stroke-width="1.1" opacity="0.56"></line><circle cx="578.9" cy="151.8" r="2.0" fill="#0ea5a4" opacity="0.79"></circle><text x="696.0" y="165.4" font-size="12" fill="#333d63" opacity="0.53">0</text><line x1="810.1" y1="234.6" x2="812.5" y2="243.3" stroke="#2b3352" stroke-width="1.1" opacity="0.71"></line><text x="773.2" y="286.4" font-size="11" fill="#2b3352" opacity="0.54">0</text><text x="559.5" y="271.4" font-size="12" fill="#4f46e5" opacity="0.56">0</text><circle cx="355.2" cy="226.9" r="1.6" fill="#0ea5a4" opacity="0.43"></circle><line x1="351.0" y1="225.1" x2="363.5" y2="229.9" stroke="#333d63" stroke-width="1.1" opacity="0.58"></line><line x1="549.4" y1="278.7" x2="562.6" y2="280.0" stroke="#0ea5a4" stroke-width="1.1" opacity="0.48"></line><circle cx="751.0" cy="292.4" r="1.8" fill="#2b3352" opacity="0.55"></circle><circle cx="792.1" cy="241.1" r="2.4" fill="#333d63" opacity="0.74"></circle><line x1="689.9" y1="165.2" x2="680.6" y2="160.7" stroke="#eab308" stroke-width="1.1" opacity="0.47"></line><circle cx="594.6" cy="159.0" r="2.3" fill="#333d63" opacity="0.88"></circle><line x1="577.5" y1="241.1" x2="579.6" y2="251.3" stroke="#2b3352" stroke-width="1.1" opacity="0.38"></line><line x1="587.6" y1="318.1" x2="581.1" y2="325.5" stroke="#3a466f" stroke-width="1.1" opacity="0.76"></line><circle cx="520.2" cy="330.6" r="2.0" fill="#4f46e5" opacity="0.83"></circle><line x1="453.1" y1="246.5" x2="448.6" y2="240.1" stroke="#0ea5a4" stroke-width="1.1" opacity="0.73"></line><circle cx="473.9" cy="188.4" r="1.9" fill="#eab308" opacity="0.56"></circle><circle cx="655.4" cy="196.7" r="1.8" fill="#0ea5a4" opacity="0.81"></circle><line x1="823.2" y1="242.1" x2="829.7" y2="244.5" stroke="#2b3352" stroke-width="1.1" opacity="0.57"></line><text x="823.8" y="257.4" font-size="12" fill="#3a466f" opacity="0.44">0</text><circle cx="630.8" cy="228.4" r="2.1" fill="#3a466f" opacity="0.47"></circle><line x1="434.5" y1="210.1" x2="427.8" y2="209.5" stroke="#3a466f" stroke-width="1.1" opacity="0.69"></line><line x1="388.2" y1="233.4" x2="396.5" y2="243.8" stroke="#2b3352" stroke-width="1.1" opacity="0.37"></line><line x1="511.1" y1="307.0" x2="520.3" y2="308.1" stroke="#4f46e5" stroke-width="1.1" opacity="0.70"></line><text x="643.0" y="306.6" font-size="11" fill="#4f46e5" opacity="0.75">1</text><line x1="679.9" y1="240.8" x2="678.3" y2="234.7" stroke="#333d63" stroke-width="1.1" opacity="0.37"></line><circle cx="647.7" cy="158.8" r="1.2" fill="#333d63" opacity="0.50"></circle><circle cx="659.9" cy="156.1" r="2.3" fill="#0ea5a4" opacity="0.74"></circle><text x="695.5" y="229.1" font-size="11" fill="#eab308" opacity="0.49">0</text><line x1="671.2" y1="295.0" x2="663.6" y2="300.2" stroke="#0ea5a4" stroke-width="1.1" opacity="0.56"></line><line x1="537.4" y1="306.3" x2="527.4" y2="302.3" stroke="#eab308" stroke-width="1.1" opacity="0.75"></line><line x1="395.4" y1="248.0" x2="387.6" y2="239.3" stroke="#333d63" stroke-width="1.1" opacity="0.49"></line><line x1="404.1" y1="213.2" x2="411.3" y2="212.7" stroke="#2b3352" stroke-width="1.1" opacity="0.53"></line><circle cx="580.5" cy="224.7" r="2.3" fill="#eab308" opacity="0.41"></circle><line x1="786.0" y1="258.9" x2="791.7" y2="259.6" stroke="#4f46e5" stroke-width="1.1" opacity="0.50"></line><text x="822.5" y="243.0" font-size="12" fill="#0ea5a4" opacity="0.55">1</text><text x="689.0" y="199.1" font-size="11" fill="#2b3352" opacity="0.56">1</text><circle cx="520.4" cy="176.1" r="1.7" fill="#4f46e5" opacity="0.77"></circle><line x1="471.7" y1="240.5" x2="478.4" y2="252.7" stroke="#3a466f" stroke-width="1.1" opacity="0.55"></line><line x1="525.5" y1="310.1" x2="533.6" y2="316.5" stroke="#4f46e5" stroke-width="1.1" opacity="0.59"></line><circle cx="572.2" cy="321.0" r="1.9" fill="#4f46e5" opacity="0.62"></circle><circle cx="558.6" cy="250.8" r="1.9" fill="#0ea5a4" opacity="0.75"></circle><line x1="570.0" y1="176.6" x2="580.9" y2="169.9" stroke="#2b3352" stroke-width="1.1" opacity="0.44"></line><line x1="654.1" y1="170.0" x2="664.9" y2="172.5" stroke="#3a466f" stroke-width="1.1" opacity="0.70"></line><text x="768.2" y="226.6" font-size="10" fill="#3a466f" opacity="0.73">0</text><text x="761.2" y="275.6" font-size="10" fill="#333d63" opacity="0.45">0</text><line x1="598.8" y1="263.9" x2="589.3" y2="263.4" stroke="#3a466f" stroke-width="1.1" opacity="0.69"></line><text x="409.0" y="227.4" font-size="12" fill="#2b3352" opacity="0.60">0</text><line x1="385.7" y1="224.8" x2="390.9" y2="227.6" stroke="#eab308" stroke-width="1.1" opacity="0.47"></line><circle cx="529.6" cy="265.0" r="1.3" fill="#3a466f" opacity="0.58"></circle><text x="705.6" y="286.6" font-size="11" fill="#333d63" opacity="0.57">1</text><line x1="756.6" y1="241.2" x2="754.7" y2="233.8" stroke="#4f46e5" stroke-width="1.1" opacity="0.37"></line><line x1="684.4" y1="178.1" x2="673.1" y2="173.5" stroke="#eab308" stroke-width="1.1" opacity="0.76"></line><line x1="597.9" y1="163.3" x2="590.3" y2="175.0" stroke="#333d63" stroke-width="1.1" opacity="0.47"></line><circle cx="586.3" cy="227.6" r="1.3" fill="#3a466f" opacity="0.60"></circle><text x="586.9" y="298.5" font-size="10" fill="#4f46e5" opacity="0.66">1</text><line x1="544.4" y1="311.2" x2="537.2" y2="309.6" stroke="#2b3352" stroke-width="1.1" opacity="0.65"></line><line x1="483.3" y1="262.3" x2="478.6" y2="255.1" stroke="#333d63" stroke-width="1.1" opacity="0.53"></line><circle cx="490.5" cy="199.9" r="1.9" fill="#2b3352" opacity="0.48"></circle><circle cx="616.4" cy="192.7" r="1.3" fill="#3a466f" opacity="0.52"></circle><circle cx="778.7" cy="232.9" r="1.8" fill="#3a466f" opacity="0.64"></circle><circle cx="796.1" cy="256.3" r="1.0" fill="#0ea5a4" opacity="0.65"></circle><text x="657.2" y="237.9" font-size="12" fill="#0ea5a4" opacity="0.71">1</text><circle cx="469.8" cy="214.0" r="1.6" fill="#4f46e5" opacity="0.48"></circle><line x1="414.8" y1="230.0" x2="422.4" y2="239.4" stroke="#333d63" stroke-width="1.1" opacity="0.76"></line><text x="506.0" y="282.1" font-size="11" fill="#333d63" opacity="0.70">1</text><line x1="624.9" y1="298.4" x2="631.6" y2="298.2" stroke="#333d63" stroke-width="1.1" opacity="0.75"></line><circle cx="672.7" cy="252.6" r="2.3" fill="#333d63" opacity="0.70"></circle><line x1="649.7" y1="181.1" x2="643.4" y2="172.8" stroke="#3a466f" stroke-width="1.1" opacity="0.44"></line><circle cx="646.1" cy="157.4" r="1.9" fill="#333d63" opacity="0.57"></circle><text x="669.5" y="224.1" font-size="11" fill="#333d63" opacity="0.47">1</text><circle cx="667.3" cy="285.9" r="2.0" fill="#0ea5a4" opacity="0.81"></circle><circle cx="574.7" cy="297.4" r="1.5" fill="#333d63" opacity="0.55"></circle><circle cx="446.4" cy="250.7" r="1.8" fill="#0ea5a4" opacity="0.78"></circle><line x1="427.3" y1="215.2" x2="432.9" y2="215.3" stroke="#2b3352" stroke-width="1.1" opacity="0.78"></line><circle cx="561.2" cy="223.1" r="1.1" fill="#333d63" opacity="0.76"></circle><line x1="736.7" y1="255.7" x2="748.0" y2="256.6" stroke="#4f46e5" stroke-width="1.1" opacity="0.56"></line><line x1="794.8" y1="247.7" x2="787.8" y2="244.8" stroke="#2b3352" stroke-width="1.1" opacity="0.76"></line><line x1="692.3" y1="214.3" x2="679.3" y2="209.2" stroke="#0ea5a4" stroke-width="1.1" opacity="0.44"></line><line x1="546.3" y1="193.2" x2="535.0" y2="192.8" stroke="#2b3352" stroke-width="1.1" opacity="0.77"></line><circle cx="498.1" cy="224.2" r="2.1" fill="#0ea5a4" opacity="0.85"></circle><text x="534.3" y="290.3" font-size="12" fill="#2b3352" opacity="0.85">1</text><circle cx="569.1" cy="311.8" r="1.6" fill="#333d63" opacity="0.49"></circle><line x1="574.0" y1="262.1" x2="571.3" y2="253.0" stroke="#2b3352" stroke-width="1.1" opacity="0.64"></line><text x="576.6" y="196.7" font-size="12" fill="#3a466f" opacity="0.53">1</text><text x="634.2" y="176.5" font-size="12" fill="#333d63" opacity="0.53">1</text><circle cx="731.1" cy="223.0" r="1.1" fill="#3a466f" opacity="0.71"></circle><circle cx="740.0" cy="266.5" r="1.5" fill="#eab308" opacity="0.87"></circle><line x1="623.9" y1="270.6" x2="615.2" y2="268.9" stroke="#2b3352" stroke-width="1.1" opacity="0.77"></line><circle cx="460.2" cy="235.6" r="2.1" fill="#4f46e5" opacity="0.43"></circle><text x="407.7" y="229.6" font-size="11" fill="#3a466f" opacity="0.43">1</text><circle cx="511.2" cy="253.3" r="1.4" fill="#2b3352" opacity="0.41"></circle><circle cx="667.7" cy="274.0" r="1.5" fill="#0ea5a4" opacity="0.72"></circle><text x="733.3" y="252.2" font-size="11" fill="#eab308" opacity="0.73">1</text><text x="690.9" y="193.6" font-size="10" fill="#3a466f" opacity="0.79">0</text><line x1="605.0" y1="178.3" x2="595.3" y2="180.1" stroke="#3a466f" stroke-width="1.1" opacity="0.71"></line><line x1="589.4" y1="222.6" x2="586.5" y2="229.7" stroke="#eab308" stroke-width="1.1" opacity="0.57"></line><line x1="586.5" y1="287.6" x2="588.3" y2="298.6" stroke="#2b3352" stroke-width="1.1" opacity="0.54"></line><line x1="562.6" y1="302.3" x2="550.5" y2="301.9" stroke="#3a466f" stroke-width="1.1" opacity="0.78"></line></g><text x="24" y="460" font-family="Consolas, Menlo, monospace" font-size="13" fill="#4a5578">2026-08-09 · sin(5t+φ)·e^(−λt), sin(8t) · seed edd878</text></svg>