<svg width="1200" height="480" viewBox="0 0 1200 480" xmlns="http://www.w3.org/2000/svg" role="img" aria-label="Generative art for 2026-07-18"><rect width="1200" height="480" fill="#0b0e1a"/><g font-family="Consolas, Menlo, monospace"><line x1="281.6" y1="260.9" x2="273.0" y2="256.0" stroke="#4f46e5" stroke-width="1.1" opacity="0.46"></line><line x1="132.0" y1="168.1" x2="126.8" y2="164.6" stroke="#0ea5a4" stroke-width="1.1" opacity="0.59"><animate attributeName="opacity" values="0.25;0.9;0.25" dur="12.2s" repeatCount="indefinite"/></line><circle cx="84.4" cy="108.2" r="2.1" fill="#4f46e5" opacity="0.85"></circle><circle cx="161.3" cy="104.3" r="1.8" fill="#4f46e5" opacity="0.88"></circle><text x="338.2" y="151.9" font-size="11" fill="#2b3352" opacity="0.64">1</text><circle cx="577.3" cy="231.7" r="2.1" fill="#4f46e5" opacity="0.65"></circle><circle cx="822.6" cy="322.6" r="1.8" fill="#333d63" opacity="0.77"></circle><circle cx="1013.6" cy="377.7" r="1.2" fill="#3a466f" opacity="0.84"></circle><circle cx="1111.1" cy="376.4" r="1.2" fill="#0ea5a4" opacity="0.78"></circle><circle cx="1068.0" cy="315.9" r="2.3" fill="#4f46e5" opacity="0.87"></circle><circle cx="936.9" cy="234.7" r="1.8" fill="#3a466f" opacity="0.84"></circle><line x1="724.0" y1="137.9" x2="714.7" y2="135.9" stroke="#2b3352" stroke-width="1.1" opacity="0.43"></line><text x="490.9" y="96.4" font-size="11" fill="#eab308" opacity="0.49">0<animate attributeName="opacity" values="0.25;0.9;0.25" dur="12.5s" repeatCount="indefinite"/></text><text x="295.2" y="94.1" font-size="10" fill="#333d63" opacity="0.45">1</text><line x1="177.8" y1="162.1" x2="170.8" y2="173.7" stroke="#333d63" stroke-width="1.1" opacity="0.62"></line><circle cx="159.9" cy="252.9" r="1.5" fill="#2b3352" opacity="0.62"></circle><circle cx="241.4" cy="351.4" r="1.0" fill="#0ea5a4" opacity="0.72"></circle><line x1="387.1" y1="408.5" x2="392.6" y2="409.1" stroke="#eab308" stroke-width="1.1" opacity="0.78"><animate attributeName="opacity" values="0.25;0.9;0.25" dur="6.8s" repeatCount="indefinite"/></line><circle cx="562.8" cy="402.2" r="1.1" fill="#4f46e5" opacity="0.50"></circle><text x="733.0" y="341.9" font-size="12" fill="#3a466f" opacity="0.43">0</text><circle cx="874.6" cy="240.8" r="2.2" fill="#2b3352" opacity="0.44"></circle><text x="944.1" y="137.5" font-size="10" fill="#3a466f" opacity="0.79">1</text><text x="956.5" y="72.4" font-size="10" fill="#4f46e5" opacity="0.54">0</text><circle cx="900.5" cy="61.8" r="1.1" fill="#4f46e5" opacity="0.42"></circle><line x1="782.3" y1="111.7" x2="770.9" y2="119.8" stroke="#0ea5a4" stroke-width="1.1" opacity="0.44"></line><circle cx="650.6" cy="211.1" r="1.5" fill="#4f46e5" opacity="0.66"></circle><line x1="504.6" y1="320.9" x2="496.5" y2="325.1" stroke="#4f46e5" stroke-width="1.1" opacity="0.67"></line><circle cx="374.5" cy="400.0" r="1.3" fill="#4f46e5" opacity="0.81"></circle><circle cx="275.8" cy="423.1" r="1.4" fill="#3a466f" opacity="0.76"></circle><circle cx="248.0" cy="383.7" r="1.1" fill="#0ea5a4" opacity="0.65"></circle><circle cx="278.4" cy="298.5" r="1.0" fill="#3a466f" opacity="0.71"></circle><circle cx="373.4" cy="189.3" r="1.1" fill="#eab308" opacity="0.43"><animate attributeName="opacity" values="0.25;0.9;0.25" dur="11.3s" repeatCount="indefinite"/></circle><text x="524.9" y="109.7" font-size="10" fill="#3a466f" opacity="0.49">0</text><line x1="710.6" y1="78.2" x2="722.0" y2="76.9" stroke="#4f46e5" stroke-width="1.1" opacity="0.58"></line><line x1="865.3" y1="106.1" x2="874.9" y2="108.5" stroke="#0ea5a4" stroke-width="1.1" opacity="0.50"></line><line x1="987.8" y1="179.0" x2="994.0" y2="189.6" stroke="#0ea5a4" stroke-width="1.1" opacity="0.77"></line><text x="1023.8" y="273.4" font-size="10" fill="#3a466f" opacity="0.54">1</text><text x="964.7" y="349.0" font-size="10" fill="#3a466f" opacity="0.59">1</text><line x1="818.2" y1="386.3" x2="804.9" y2="385.3" stroke="#2b3352" stroke-width="1.1" opacity="0.71"></line><circle cx="618.1" cy="364.4" r="1.3" fill="#3a466f" opacity="0.70"></circle><circle cx="399.5" cy="291.5" r="2.2" fill="#4f46e5" opacity="0.60"></circle><text x="224.4" y="205.0" font-size="10" fill="#4f46e5" opacity="0.66">0</text><circle cx="147.3" cy="137.0" r="1.1" fill="#0ea5a4" opacity="0.83"></circle><line x1="161.4" y1="117.4" x2="175.1" y2="115.6" stroke="#2b3352" stroke-width="1.1" opacity="0.62"></line><line x1="285.1" y1="131.6" x2="292.0" y2="134.6" stroke="#4f46e5" stroke-width="1.1" opacity="0.63"></line><circle cx="486.7" cy="202.6" r="1.3" fill="#3a466f" opacity="0.66"></circle><circle cx="715.4" cy="276.6" r="2.1" fill="#333d63" opacity="0.60"></circle><text x="913.1" y="343.8" font-size="11" fill="#333d63" opacity="0.82">0</text><circle cx="1034.3" cy="368.1" r="1.0" fill="#333d63" opacity="0.57"></circle><circle cx="1054.0" cy="335.0" r="1.3" fill="#4f46e5" opacity="0.83"></circle><line x1="961.5" y1="264.2" x2="955.7" y2="261.0" stroke="#2b3352" stroke-width="1.1" opacity="0.38"></line><circle cx="800.4" cy="184.5" r="1.2" fill="#3a466f" opacity="0.64"></circle><line x1="588.8" y1="115.4" x2="580.6" y2="114.7" stroke="#333d63" stroke-width="1.1" opacity="0.68"></line><circle cx="398.0" cy="102.3" r="1.9" fill="#2b3352" opacity="0.68"></circle><circle cx="259.1" cy="134.4" r="1.2" fill="#0ea5a4" opacity="0.65"></circle><line x1="205.1" y1="213.0" x2="205.5" y2="225.8" stroke="#2b3352" stroke-width="1.1" opacity="0.55"></line><circle cx="235.4" cy="301.5" r="1.8" fill="#4f46e5" opacity="0.59"></circle><line x1="349.4" y1="373.8" x2="354.9" y2="375.5" stroke="#3a466f" stroke-width="1.1" opacity="0.44"></line><line x1="501.0" y1="396.9" x2="511.1" y2="395.9" stroke="#2b3352" stroke-width="1.1" opacity="0.73"></line><circle cx="654.4" cy="360.5" r="1.8" fill="#3a466f" opacity="0.58"></circle><line x1="804.7" y1="285.1" x2="813.8" y2="275.0" stroke="#3a466f" stroke-width="1.1" opacity="0.79"></line><circle cx="890.4" cy="185.1" r="2.1" fill="#2b3352" opacity="0.52"></circle><line x1="925.4" y1="106.7" x2="922.9" y2="100.2" stroke="#3a466f" stroke-width="1.1" opacity="0.57"></line><circle cx="898.9" cy="69.8" r="2.2" fill="#333d63" opacity="0.42"></circle><line x1="816.1" y1="95.9" x2="805.2" y2="101.8" stroke="#3a466f" stroke-width="1.1" opacity="0.63"></line><text x="698.2" y="176.5" font-size="10" fill="#4f46e5" opacity="0.77">1</text><circle cx="566.1" cy="272.4" r="1.2" fill="#3a466f" opacity="0.76"></circle><line x1="444.3" y1="359.6" x2="432.2" y2="364.4" stroke="#333d63" stroke-width="1.1" opacity="0.53"></line><line x1="339.9" y1="398.8" x2="330.2" y2="402.3" stroke="#4f46e5" stroke-width="1.1" opacity="0.67"></line><line x1="293.0" y1="394.8" x2="289.5" y2="388.8" stroke="#333d63" stroke-width="1.1" opacity="0.35"></line><text x="297.4" y="329.4" font-size="12" fill="#0ea5a4" opacity="0.84">1</text><text x="354.9" y="236.4" font-size="11" fill="#0ea5a4" opacity="0.77">0</text><circle cx="469.7" cy="148.8" r="2.0" fill="#3a466f" opacity="0.51"></circle><line x1="621.4" y1="100.1" x2="634.9" y2="97.5" stroke="#333d63" stroke-width="1.1" opacity="0.73"></line><circle cx="777.8" cy="102.1" r="1.6" fill="#2b3352" opacity="0.59"></circle><circle cx="911.0" cy="156.5" r="1.4" fill="#0ea5a4" opacity="0.84"></circle><line x1="969.7" y1="231.4" x2="971.1" y2="237.1" stroke="#333d63" stroke-width="1.1" opacity="0.66"></line><text x="950.5" y="311.5" font-size="12" fill="#333d63" opacity="0.44">1</text><circle cx="858.7" cy="360.0" r="1.1" fill="#2b3352" opacity="0.70"></circle><circle cx="692.4" cy="361.1" r="2.1" fill="#2b3352" opacity="0.55"></circle><line x1="504.4" y1="322.6" x2="495.2" y2="318.6" stroke="#0ea5a4" stroke-width="1.1" opacity="0.67"></line><circle cx="331.2" cy="248.1" r="1.5" fill="#2b3352" opacity="0.46"></circle><circle cx="214.6" cy="169.2" r="2.0" fill="#3a466f" opacity="0.83"></circle><line x1="183.4" y1="137.1" x2="188.5" y2="133.7" stroke="#333d63" stroke-width="1.1" opacity="0.67"></line><line x1="258.9" y1="129.9" x2="268.9" y2="133.4" stroke="#0ea5a4" stroke-width="1.1" opacity="0.76"></line><circle cx="411.9" cy="174.5" r="1.4" fill="#0ea5a4" opacity="0.74"></circle><line x1="609.5" y1="245.3" x2="615.7" y2="247.5" stroke="#4f46e5" stroke-width="1.1" opacity="0.41"></line><circle cx="806.0" cy="316.6" r="2.1" fill="#4f46e5" opacity="0.61"></circle><circle cx="945.5" cy="349.7" r="2.0" fill="#333d63" opacity="0.80"></circle><line x1="1004.8" y1="340.6" x2="1006.2" y2="332.4" stroke="#2b3352" stroke-width="1.1" opacity="0.56"></line><circle cx="970.5" cy="292.9" r="1.1" fill="#3a466f" opacity="0.43"></circle><circle cx="845.9" cy="225.0" r="1.5" fill="#333d63" opacity="0.70"></circle><circle cx="668.1" cy="151.6" r="1.5" fill="#3a466f" opacity="0.79"></circle><line x1="490.1" y1="116.4" x2="478.7" y2="116.4" stroke="#2b3352" stroke-width="1.1" opacity="0.50"></line><circle cx="337.8" cy="133.3" r="1.7" fill="#2b3352" opacity="0.84"></circle><text x="252.7" y="183.9" font-size="12" fill="#4f46e5" opacity="0.53">0</text><line x1="250.1" y1="256.7" x2="256.2" y2="266.3" stroke="#3a466f" stroke-width="1.1" opacity="0.79"></line><line x1="327.6" y1="339.9" x2="338.6" y2="344.3" stroke="#333d63" stroke-width="1.1" opacity="0.44"></line><line x1="448.4" y1="378.3" x2="454.2" y2="378.5" stroke="#eab308" stroke-width="1.1" opacity="0.75"><animate attributeName="opacity" values="0.25;0.9;0.25" dur="10.1s" repeatCount="indefinite"/></line><circle cx="592.8" cy="368.6" r="1.6" fill="#3a466f" opacity="0.48"></circle><text x="727.3" y="310.5" font-size="10" fill="#3a466f" opacity="0.70">1</text><circle cx="833.9" cy="231.1" r="2.0" fill="#2b3352" opacity="0.70"></circle><circle cx="888.8" cy="151.3" r="2.1" fill="#3a466f" opacity="0.59"></circle><circle cx="873.8" cy="99.9" r="1.6" fill="#2b3352" opacity="0.46"></circle><line x1="826.4" y1="98.1" x2="818.4" y2="100.7" stroke="#333d63" stroke-width="1.1" opacity="0.78"></line><circle cx="735.4" cy="150.8" r="1.7" fill="#4f46e5" opacity="0.61"></circle><circle cx="618.7" cy="222.5" r="1.5" fill="#2b3352" opacity="0.56"></circle><line x1="501.6" y1="309.9" x2="496.6" y2="314.3" stroke="#3a466f" stroke-width="1.1" opacity="0.39"></line><text x="405.6" y="371.9" font-size="11" fill="#3a466f" opacity="0.65">0</text><line x1="339.3" y1="384.9" x2="331.1" y2="381.8" stroke="#4f46e5" stroke-width="1.1" opacity="0.61"></line><text x="311.7" y="351.4" font-size="12" fill="#333d63" opacity="0.41">1</text><text x="352.8" y="271.0" font-size="10" fill="#2b3352" opacity="0.75">1</text><line x1="436.5" y1="187.7" x2="444.7" y2="182.7" stroke="#2b3352" stroke-width="1.1" opacity="0.38"></line><line x1="568.2" y1="129.3" x2="580.2" y2="123.9" stroke="#4f46e5" stroke-width="1.1" opacity="0.55"></line><circle cx="707.1" cy="104.5" r="1.1" fill="#2b3352" opacity="0.51"></circle><line x1="826.7" y1="139.3" x2="832.5" y2="141.1" stroke="#333d63" stroke-width="1.1" opacity="0.40"></line><circle cx="916.6" cy="197.9" r="1.8" fill="#4f46e5" opacity="0.75"></circle><text x="933.1" y="275.7" font-size="10" fill="#333d63" opacity="0.59">1</text><line x1="880.0" y1="337.0" x2="866.4" y2="339.8" stroke="#eab308" stroke-width="1.1" opacity="0.39"><animate attributeName="opacity" values="0.25;0.9;0.25" dur="11.4s" repeatCount="indefinite"/></line><circle cx="751.0" cy="351.1" r="1.8" fill="#333d63" opacity="0.50"></circle><circle cx="589.6" cy="329.6" r="1.5" fill="#0ea5a4" opacity="0.48"></circle><circle cx="420.3" cy="276.3" r="2.2" fill="#2b3352" opacity="0.81"></circle><circle cx="286.5" cy="210.7" r="2.0" fill="#333d63" opacity="0.69"></circle><line x1="231.6" y1="152.7" x2="227.5" y2="146.5" stroke="#3a466f" stroke-width="1.1" opacity="0.67"></line><circle cx="254.2" cy="144.0" r="1.0" fill="#2b3352" opacity="0.69"></circle><line x1="368.2" y1="160.3" x2="376.7" y2="163.7" stroke="#333d63" stroke-width="1.1" opacity="0.51"></line><line x1="531.5" y1="217.4" x2="543.7" y2="221.8" stroke="#0ea5a4" stroke-width="1.1" opacity="0.49"></line><text x="717.3" y="285.4" font-size="10" fill="#2b3352" opacity="0.52">1</text><circle cx="871.3" cy="323.3" r="1.4" fill="#333d63" opacity="0.87"></circle><line x1="953.4" y1="333.4" x2="958.3" y2="334.9" stroke="#333d63" stroke-width="1.1" opacity="0.66"></line><line x1="948.9" y1="304.3" x2="944.1" y2="299.6" stroke="#333d63" stroke-width="1.1" opacity="0.76"></line><text x="868.3" y="253.2" font-size="11" fill="#333d63" opacity="0.62">1</text><text x="729.4" y="184.0" font-size="11" fill="#3a466f" opacity="0.55">0</text><circle cx="565.3" cy="145.6" r="1.6" fill="#333d63" opacity="0.82"></circle><line x1="424.1" y1="135.2" x2="414.4" y2="135.2" stroke="#eab308" stroke-width="1.1" opacity="0.47"><animate attributeName="opacity" values="0.25;0.9;0.25" dur="9.1s" repeatCount="indefinite"/></line><text x="314.3" y="160.4" font-size="12" fill="#0ea5a4" opacity="0.44">0</text><circle cx="283.1" cy="223.8" r="2.0" fill="#333d63" opacity="0.42"></circle><text x="316.4" y="299.6" font-size="12" fill="#333d63" opacity="0.42">1</text><text x="411.6" y="356.2" font-size="12" fill="#333d63" opacity="0.81">1</text><circle cx="534.5" cy="368.7" r="2.2" fill="#3a466f" opacity="0.61"></circle><circle cx="667.5" cy="330.7" r="1.0" fill="#333d63" opacity="0.51"></circle><circle cx="766.7" cy="261.1" r="1.9" fill="#eab308" opacity="0.52"><animate attributeName="opacity" values="0.25;0.9;0.25" dur="6.7s" repeatCount="indefinite"/></circle><circle cx="835.7" cy="183.6" r="1.1" fill="#3a466f" opacity="0.42"></circle><circle cx="862.4" cy="127.1" r="2.1" fill="#0ea5a4" opacity="0.48"></circle><text x="830.0" y="104.0" font-size="10" fill="#3a466f" opacity="0.78">0</text><line x1="759.2" y1="131.4" x2="751.4" y2="136.2" stroke="#0ea5a4" stroke-width="1.1" opacity="0.37"><animate attributeName="opacity" values="0.25;0.9;0.25" dur="12.1s" repeatCount="indefinite"/></line><line x1="666.3" y1="200.1" x2="655.4" y2="205.5" stroke="#4f46e5" stroke-width="1.1" opacity="0.53"></line><circle cx="559.6" cy="269.0" r="1.0" fill="#333d63" opacity="0.77"></circle><circle cx="454.2" cy="341.1" r="1.2" fill="#4f46e5" opacity="0.51"></circle><text x="385.8" y="368.4" font-size="12" fill="#eab308" opacity="0.65">1<animate attributeName="opacity" values="0.25;0.9;0.25" dur="12.3s" repeatCount="indefinite"/></text><line x1="342.4" y1="354.1" x2="346.2" y2="344.8" stroke="#4f46e5" stroke-width="1.1" opacity="0.71"></line><circle cx="359.1" cy="296.3" r="2.0" fill="#333d63" opacity="0.45"></circle><circle cx="411.7" cy="230.1" r="2.1" fill="#0ea5a4" opacity="0.45"></circle><circle cx="512.4" cy="160.9" r="1.8" fill="#4f46e5" opacity="0.87"></circle><circle cx="640.3" cy="126.1" r="2.0" fill="#4f46e5" opacity="0.79"></circle><circle cx="761.4" cy="133.4" r="2.1" fill="#2b3352" opacity="0.64"></circle><circle cx="858.1" cy="179.3" r="1.5" fill="#4f46e5" opacity="0.43"></circle><line x1="904.4" y1="240.7" x2="901.1" y2="253.5" stroke="#4f46e5" stroke-width="1.1" opacity="0.79"></line><circle cx="871.3" cy="301.5" r="1.7" fill="#3a466f" opacity="0.84"></circle><text x="787.9" y="342.0" font-size="12" fill="#0ea5a4" opacity="0.70">1</text><circle cx="653.6" cy="335.5" r="1.7" fill="#0ea5a4" opacity="0.41"></circle><circle cx="495.0" cy="293.8" r="2.3" fill="#333d63" opacity="0.75"></circle><line x1="365.7" y1="233.2" x2="358.5" y2="230.1" stroke="#3a466f" stroke-width="1.1" opacity="0.69"></line><circle cx="282.5" cy="180.6" r="1.1" fill="#3a466f" opacity="0.88"></circle><line x1="271.7" y1="152.3" x2="280.5" y2="150.5" stroke="#0ea5a4" stroke-width="1.1" opacity="0.39"></line><circle cx="348.6" cy="156.3" r="1.5" fill="#333d63" opacity="0.45"></circle><circle cx="469.8" cy="198.1" r="1.5" fill="#333d63" opacity="0.51"></circle><circle cx="637.6" cy="253.5" r="1.9" fill="#3a466f" opacity="0.58"></circle><circle cx="786.0" cy="300.2" r="1.4" fill="#333d63" opacity="0.52"></circle><circle cx="887.1" cy="325.0" r="1.2" fill="#3a466f" opacity="0.61"></circle><text x="920.8" y="321.3" font-size="11" fill="#333d63" opacity="0.41">0</text><text x="887.3" y="276.7" font-size="11" fill="#2b3352" opacity="0.73">0</text><circle cx="775.2" cy="219.8" r="1.3" fill="#0ea5a4" opacity="0.46"></circle><line x1="631.6" y1="166.1" x2="623.3" y2="163.4" stroke="#0ea5a4" stroke-width="1.1" opacity="0.77"></line><line x1="490.7" y1="138.0" x2="480.1" y2="139.2" stroke="#2b3352" stroke-width="1.1" opacity="0.74"></line><text x="385.8" y="154.9" font-size="12" fill="#eab308" opacity="0.67">1<animate attributeName="opacity" values="0.25;0.9;0.25" dur="8.5s" repeatCount="indefinite"/></text><line x1="325.9" y1="208.5" x2="322.1" y2="212.6" stroke="#4f46e5" stroke-width="1.1" opacity="0.57"></line><circle cx="328.2" cy="263.3" r="2.1" fill="#333d63" opacity="0.46"></circle><circle cx="395.5" cy="325.1" r="1.1" fill="#333d63" opacity="0.54"></circle><circle cx="489.6" cy="355.6" r="1.6" fill="#3a466f" opacity="0.72"></circle><text x="614.2" y="340.4" font-size="11" fill="#2b3352" opacity="0.47">1</text><circle cx="715.5" cy="287.7" r="1.1" fill="#333d63" opacity="0.83"></circle><circle cx="790.5" cy="225.5" r="1.1" fill="#0ea5a4" opacity="0.69"></circle><circle cx="826.1" cy="160.1" r="1.4" fill="#4f46e5" opacity="0.82"></circle><circle cx="818.1" cy="128.7" r="2.4" fill="#4f46e5" opacity="0.54"></circle><circle cx="773.2" cy="125.4" r="1.3" fill="#3a466f" opacity="0.75"></circle><circle cx="690.8" cy="171.9" r="1.5" fill="#eab308" opacity="0.71"><animate attributeName="opacity" values="0.25;0.9;0.25" dur="6.5s" repeatCount="indefinite"/></circle><line x1="602.6" y1="235.5" x2="593.7" y2="244.3" stroke="#0ea5a4" stroke-width="1.1" opacity="0.70"></line><line x1="512.4" y1="305.2" x2="504.3" y2="310.8" stroke="#333d63" stroke-width="1.1" opacity="0.56"></line><line x1="438.2" y1="351.7" x2="430.3" y2="353.0" stroke="#2b3352" stroke-width="1.1" opacity="0.43"></line><line x1="378.8" y1="348.8" x2="366.5" y2="348.3" stroke="#3a466f" stroke-width="1.1" opacity="0.61"></line><text x="369.0" y="319.1" font-size="10" fill="#2b3352" opacity="0.55">1</text><circle cx="404.0" cy="259.4" r="2.0" fill="#333d63" opacity="0.44"></circle><line x1="488.8" y1="192.8" x2="498.6" y2="182.9" stroke="#0ea5a4" stroke-width="1.1" opacity="0.67"></line><circle cx="580.8" cy="150.3" r="2.3" fill="#333d63" opacity="0.74"></circle><circle cx="694.5" cy="137.6" r="1.6" fill="#0ea5a4" opacity="0.78"></circle><circle cx="797.7" cy="161.9" r="1.2" fill="#333d63" opacity="0.46"></circle><circle cx="859.5" cy="214.1" r="2.1" fill="#2b3352" opacity="0.67"></circle><line x1="859.9" y1="274.9" x2="857.4" y2="284.1" stroke="#eab308" stroke-width="1.1" opacity="0.36"></line><text x="804.1" y="318.1" font-size="10" fill="#333d63" opacity="0.60">1</text><circle cx="706.3" cy="325.3" r="1.1" fill="#4f46e5" opacity="0.44"></circle><text x="571.3" y="311.0" font-size="10" fill="#0ea5a4" opacity="0.40">0</text><line x1="432.2" y1="261.2" x2="427.9" y2="258.3" stroke="#333d63" stroke-width="1.1" opacity="0.53"></line><text x="342.4" y="208.5" font-size="10" fill="#4f46e5" opacity="0.48">1</text><circle cx="298.3" cy="163.8" r="1.4" fill="#eab308" opacity="0.70"></circle><text x="340.9" y="162.7" font-size="10" fill="#2b3352" opacity="0.79">1</text><text x="430.6" y="189.7" font-size="10" fill="#3a466f" opacity="0.56">1</text><line x1="564.0" y1="232.7" x2="572.8" y2="234.8" stroke="#3a466f" stroke-width="1.1" opacity="0.57"></line><text x="711.9" y="283.0" font-size="10" fill="#0ea5a4" opacity="0.85">0</text><line x1="824.9" y1="316.7" x2="833.0" y2="316.9" stroke="#eab308" stroke-width="1.1" opacity="0.47"></line><line x1="887.5" y1="321.7" x2="890.9" y2="312.0" stroke="#2b3352" stroke-width="1.1" opacity="0.45"></line><line x1="881.2" y1="292.4" x2="873.0" y2="285.6" stroke="#4f46e5" stroke-width="1.1" opacity="0.52"></line><circle cx="805.6" cy="237.9" r="2.3" fill="#333d63" opacity="0.58"></circle><circle cx="689.5" cy="188.1" r="1.6" fill="#4f46e5" opacity="0.50"></circle><line x1="552.4" y1="154.7" x2="546.1" y2="154.3" stroke="#2b3352" stroke-width="1.1" opacity="0.58"></line><circle cx="441.1" cy="151.3" r="1.0" fill="#2b3352" opacity="0.47"></circle><circle cx="367.6" cy="180.8" r="1.2" fill="#2b3352" opacity="0.71"></circle><text x="343.6" y="233.9" font-size="11" fill="#333d63" opacity="0.84">1</text><line x1="386.0" y1="292.1" x2="395.6" y2="302.1" stroke="#4f46e5" stroke-width="1.1" opacity="0.46"></line><circle cx="461.1" cy="337.9" r="2.1" fill="#0ea5a4" opacity="0.83"></circle><circle cx="561.0" cy="337.4" r="2.3" fill="#3a466f" opacity="0.67"></circle><line x1="669.8" y1="310.3" x2="680.4" y2="301.4" stroke="#2b3352" stroke-width="1.1" opacity="0.63"></line><line x1="752.4" y1="249.3" x2="756.8" y2="243.5" stroke="#0ea5a4" stroke-width="1.1" opacity="0.69"></line><circle cx="794.3" cy="194.0" r="1.4" fill="#333d63" opacity="0.85"></circle><line x1="803.8" y1="145.4" x2="800.9" y2="138.4" stroke="#3a466f" stroke-width="1.1" opacity="0.36"></line><circle cx="775.3" cy="128.0" r="1.9" fill="#2b3352" opacity="0.75"></circle><text x="720.2" y="154.6" font-size="11" fill="#2b3352" opacity="0.77">0</text><circle cx="632.9" cy="208.5" r="2.4" fill="#3a466f" opacity="0.51"></circle><circle cx="550.2" cy="271.2" r="1.7" fill="#4f46e5" opacity="0.48"></circle><text x="477.5" y="329.5" font-size="12" fill="#2b3352" opacity="0.60">0</text><circle cx="420.2" cy="339.4" r="1.2" fill="#3a466f" opacity="0.44"></circle><circle cx="401.3" cy="330.6" r="2.3" fill="#4f46e5" opacity="0.74"></circle><text x="409.8" y="282.0" font-size="10" fill="#eab308" opacity="0.47">1</text><line x1="467.8" y1="215.6" x2="477.1" y2="208.0" stroke="#333d63" stroke-width="1.1" opacity="0.79"></line><text x="545.6" y="172.5" font-size="11" fill="#333d63" opacity="0.49">1</text><line x1="641.9" y1="146.2" x2="654.5" y2="145.5" stroke="#2b3352" stroke-width="1.1" opacity="0.68"></line><line x1="743.2" y1="160.0" x2="756.5" y2="162.5" stroke="#2b3352" stroke-width="1.1" opacity="0.65"></line><line x1="812.0" y1="201.1" x2="816.3" y2="203.9" stroke="#3a466f" stroke-width="1.1" opacity="0.37"></line><text x="834.8" y="245.1" font-size="10" fill="#4f46e5" opacity="0.84">1</text><line x1="818.8" y1="299.3" x2="810.6" y2="302.2" stroke="#3a466f" stroke-width="1.1" opacity="0.40"></line><text x="742.8" y="324.3" font-size="11" fill="#2b3352" opacity="0.77">0</text><circle cx="622.9" cy="307.2" r="1.8" fill="#4f46e5" opacity="0.54"></circle><circle cx="502.4" cy="272.6" r="1.8" fill="#2b3352" opacity="0.52"></circle><line x1="400.0" y1="226.8" x2="389.9" y2="222.6" stroke="#0ea5a4" stroke-width="1.1" opacity="0.38"></line><text x="344.2" y="188.5" font-size="10" fill="#333d63" opacity="0.46">1</text><text x="341.1" y="165.1" font-size="10" fill="#3a466f" opacity="0.63">0</text><line x1="409.2" y1="172.7" x2="415.4" y2="176.3" stroke="#333d63" stroke-width="1.1" opacity="0.35"></line><text x="516.1" y="214.1" font-size="12" fill="#0ea5a4" opacity="0.72">0</text><text x="648.2" y="257.1" font-size="11" fill="#4f46e5" opacity="0.79">1</text><line x1="765.2" y1="300.6" x2="771.0" y2="300.8" stroke="#333d63" stroke-width="1.1" opacity="0.49"></line><line x1="844.1" y1="315.3" x2="855.0" y2="306.8" stroke="#4f46e5" stroke-width="1.1" opacity="0.53"></line><line x1="854.2" y1="292.6" x2="857.7" y2="288.1" stroke="#2b3352" stroke-width="1.1" opacity="0.58"></line><circle cx="822.1" cy="262.3" r="1.0" fill="#3a466f" opacity="0.59"></circle><text x="729.7" y="211.4" font-size="11" fill="#333d63" opacity="0.65">0</text><text x="606.9" y="174.7" font-size="10" fill="#3a466f" opacity="0.53">0</text><text x="502.9" y="155.2" font-size="10" fill="#333d63" opacity="0.46">1</text><line x1="415.0" y1="179.4" x2="407.5" y2="181.8" stroke="#0ea5a4" stroke-width="1.1" opacity="0.37"></line><line x1="370.4" y1="219.7" x2="374.2" y2="229.2" stroke="#eab308" stroke-width="1.1" opacity="0.41"></line><line x1="387.2" y1="263.6" x2="390.3" y2="268.8" stroke="#0ea5a4" stroke-width="1.1" opacity="0.35"></line><circle cx="441.7" cy="315.8" r="1.4" fill="#0ea5a4" opacity="0.48"></circle><text x="528.2" y="334.7" font-size="12" fill="#2b3352" opacity="0.57">0</text><circle cx="621.9" cy="316.3" r="2.0" fill="#3a466f" opacity="0.53"></circle><circle cx="699.0" cy="276.9" r="2.2" fill="#3a466f" opacity="0.52"></circle><circle cx="756.3" cy="214.0" r="2.3" fill="#0ea5a4" opacity="0.74"></circle><text x="783.3" y="167.6" font-size="10" fill="#333d63" opacity="0.50">0</text><circle cx="771.6" cy="146.7" r="1.1" fill="#3a466f" opacity="0.75"></circle><circle cx="729.4" cy="156.6" r="1.8" fill="#333d63" opacity="0.57"></circle><circle cx="670.1" cy="193.1" r="1.7" fill="#3a466f" opacity="0.60"></circle><text x="596.8" y="243.4" font-size="11" fill="#2b3352" opacity="0.53">1</text><line x1="516.3" y1="304.2" x2="505.6" y2="308.8" stroke="#3a466f" stroke-width="1.1" opacity="0.51"></line><text x="462.3" y="335.4" font-size="12" fill="#eab308" opacity="0.66">1</text><circle cx="425.8" cy="329.4" r="1.4" fill="#4f46e5" opacity="0.76"></circle><circle cx="419.1" cy="297.3" r="1.3" fill="#eab308" opacity="0.50"></circle><text x="449.1" y="250.4" font-size="10" fill="#0ea5a4" opacity="0.53">1</text><circle cx="514.2" cy="190.2" r="1.6" fill="#3a466f" opacity="0.55"></circle><circle cx="596.4" cy="157.5" r="1.1" fill="#0ea5a4" opacity="0.67"></circle><line x1="689.1" y1="154.1" x2="698.6" y2="157.0" stroke="#4f46e5" stroke-width="1.1" opacity="0.52"></line><circle cx="763.1" cy="187.6" r="1.7" fill="#2b3352" opacity="0.41"></circle><line x1="805.0" y1="229.0" x2="811.7" y2="237.5" stroke="#333d63" stroke-width="1.1" opacity="0.76"></line><line x1="808.1" y1="275.7" x2="802.0" y2="282.3" stroke="#333d63" stroke-width="1.1" opacity="0.39"></line><line x1="762.7" y1="304.7" x2="749.2" y2="308.2" stroke="#3a466f" stroke-width="1.1" opacity="0.73"></line><text x="673.0" y="312.6" font-size="12" fill="#0ea5a4" opacity="0.70">0</text><circle cx="559.9" cy="289.4" r="2.1" fill="#2b3352" opacity="0.57"></circle></g><text x="24" y="460" font-family="Consolas, Menlo, monospace" font-size="13" fill="#4a5578">2026-07-18 · sin(3t+φ)·e^(−λt), sin(4t) · seed 98e979</text></svg>