<svg width="1200" height="480" viewBox="0 0 1200 480" xmlns="http://www.w3.org/2000/svg" role="img" aria-label="Generative art for 2026-08-06"><rect width="1200" height="480" fill="#0b0e1a"/><g font-family="Consolas, Menlo, monospace"><text x="168.2" y="290.9" font-size="10" fill="#2b3352" opacity="0.76">0</text><line x1="249.6" y1="157.2" x2="259.3" y2="153.1" stroke="#2b3352" stroke-width="1.1" opacity="0.63"></line><circle cx="547.0" cy="62.6" r="2.1" fill="#2b3352" opacity="0.84"></circle><text x="865.4" y="64.7" font-size="11" fill="#4f46e5" opacity="0.62">1</text><circle cx="983.2" cy="155.5" r="2.3" fill="#333d63" opacity="0.63"></circle><line x1="827.2" y1="291.0" x2="821.9" y2="294.2" stroke="#333d63" stroke-width="1.1" opacity="0.65"></line><line x1="546.4" y1="411.4" x2="533.0" y2="413.9" stroke="#2b3352" stroke-width="1.1" opacity="0.45"></line><circle cx="307.8" cy="432.1" r="1.3" fill="#4f46e5" opacity="0.72"></circle><line x1="298.9" y1="352.4" x2="305.5" y2="346.0" stroke="#2b3352" stroke-width="1.1" opacity="0.80"></line><line x1="493.5" y1="208.9" x2="498.5" y2="206.3" stroke="#4f46e5" stroke-width="1.1" opacity="0.69"></line><line x1="756.6" y1="77.6" x2="763.5" y2="75.4" stroke="#0ea5a4" stroke-width="1.1" opacity="0.40"></line><line x1="900.1" y1="40.3" x2="894.3" y2="45.5" stroke="#333d63" stroke-width="1.1" opacity="0.49"></line><text x="813.0" y="99.9" font-size="11" fill="#333d63" opacity="0.57">0</text><line x1="577.0" y1="246.4" x2="569.0" y2="250.6" stroke="#eab308" stroke-width="1.1" opacity="0.75"><animate attributeName="opacity" values="0.25;0.9;0.25" dur="11.7s" repeatCount="indefinite"/></line><circle cx="359.2" cy="373.4" r="1.2" fill="#4f46e5" opacity="0.68"></circle><circle cx="320.4" cy="442.6" r="2.0" fill="#eab308" opacity="0.80"><animate attributeName="opacity" values="0.25;0.9;0.25" dur="11.1s" repeatCount="indefinite"/></circle><circle cx="493.1" cy="392.6" r="2.0" fill="#3a466f" opacity="0.55"></circle><line x1="748.5" y1="266.4" x2="759.5" y2="258.8" stroke="#333d63" stroke-width="1.1" opacity="0.72"></line><line x1="906.8" y1="124.5" x2="909.2" y2="120.0" stroke="#3a466f" stroke-width="1.1" opacity="0.53"></line><text x="856.1" y="56.4" font-size="10" fill="#0ea5a4" opacity="0.70">0</text><circle cx="611.5" cy="85.0" r="1.3" fill="#333d63" opacity="0.62"></circle><text x="346.4" y="198.0" font-size="12" fill="#3a466f" opacity="0.63">1</text><circle cx="241.0" cy="323.5" r="1.5" fill="#333d63" opacity="0.84"></circle><text x="385.6" y="396.6" font-size="11" fill="#0ea5a4" opacity="0.64">0</text><circle cx="686.0" cy="387.5" r="1.4" fill="#333d63" opacity="0.75"></circle><circle cx="950.0" cy="301.7" r="1.1" fill="#3a466f" opacity="0.61"></circle><line x1="988.5" y1="201.5" x2="983.8" y2="198.1" stroke="#0ea5a4" stroke-width="1.1" opacity="0.52"></line><line x1="760.9" y1="115.7" x2="751.6" y2="114.7" stroke="#2b3352" stroke-width="1.1" opacity="0.57"></line><text x="421.0" y="101.6" font-size="10" fill="#eab308" opacity="0.80">1<animate attributeName="opacity" values="0.25;0.9;0.25" dur="11.2s" repeatCount="indefinite"/></text><line x1="180.8" y1="154.2" x2="174.8" y2="162.6" stroke="#0ea5a4" stroke-width="1.1" opacity="0.46"></line><circle cx="217.7" cy="249.1" r="1.4" fill="#4f46e5" opacity="0.60"></circle><circle cx="494.3" cy="325.0" r="2.1" fill="#2b3352" opacity="0.56"></circle><circle cx="854.8" cy="355.1" r="2.0" fill="#eab308" opacity="0.67"><animate attributeName="opacity" values="0.25;0.9;0.25" dur="7.4s" repeatCount="indefinite"/></circle><circle cx="1053.9" cy="332.7" r="1.4" fill="#0ea5a4" opacity="0.53"></circle><text x="964.3" y="272.3" font-size="12" fill="#0ea5a4" opacity="0.79">0</text><circle cx="638.1" cy="204.6" r="1.5" fill="#4f46e5" opacity="0.50"></circle><circle cx="287.3" cy="147.2" r="1.6" fill="#2b3352" opacity="0.81"></circle><circle cx="129.0" cy="141.5" r="1.8" fill="#2b3352" opacity="0.61"></circle><text x="268.9" y="181.6" font-size="12" fill="#2b3352" opacity="0.78">0</text><circle cx="621.5" cy="238.4" r="2.0" fill="#eab308" opacity="0.60"><animate attributeName="opacity" values="0.25;0.9;0.25" dur="9.4s" repeatCount="indefinite"/></circle><line x1="953.0" y1="301.6" x2="959.0" y2="302.7" stroke="#4f46e5" stroke-width="1.1" opacity="0.71"></line><circle cx="1056.3" cy="335.9" r="1.3" fill="#0ea5a4" opacity="0.60"></circle><line x1="866.0" y1="334.8" x2="859.2" y2="333.8" stroke="#333d63" stroke-width="1.1" opacity="0.46"></line><circle cx="514.3" cy="287.4" r="2.3" fill="#4f46e5" opacity="0.66"></circle><circle cx="228.4" cy="217.9" r="2.0" fill="#2b3352" opacity="0.88"></circle><line x1="184.7" y1="151.1" x2="194.7" y2="147.9" stroke="#333d63" stroke-width="1.1" opacity="0.60"></line><circle cx="403.6" cy="130.3" r="2.0" fill="#2b3352" opacity="0.59"></circle><line x1="734.9" y1="158.6" x2="742.1" y2="160.2" stroke="#333d63" stroke-width="1.1" opacity="0.75"></line><line x1="969.9" y1="232.6" x2="973.0" y2="236.9" stroke="#eab308" stroke-width="1.1" opacity="0.71"><animate attributeName="opacity" values="0.25;0.9;0.25" dur="9.3s" repeatCount="indefinite"/></line><line x1="959.9" y1="321.4" x2="953.4" y2="323.2" stroke="#3a466f" stroke-width="1.1" opacity="0.41"></line><line x1="716.2" y1="363.6" x2="706.8" y2="364.3" stroke="#4f46e5" stroke-width="1.1" opacity="0.70"></line><line x1="426.1" y1="349.9" x2="414.6" y2="347.6" stroke="#333d63" stroke-width="1.1" opacity="0.41"></line><line x1="256.8" y1="277.7" x2="256.4" y2="269.3" stroke="#0ea5a4" stroke-width="1.1" opacity="0.57"></line><circle cx="330.6" cy="173.1" r="1.5" fill="#4f46e5" opacity="0.66"></circle><line x1="559.0" y1="105.4" x2="567.4" y2="104.6" stroke="#3a466f" stroke-width="1.1" opacity="0.61"></line><circle cx="812.5" cy="109.8" r="1.8" fill="#2b3352" opacity="0.89"></circle><line x1="889.2" y1="177.1" x2="885.4" y2="190.2" stroke="#333d63" stroke-width="1.1" opacity="0.54"></line><circle cx="784.7" cy="278.5" r="1.9" fill="#333d63" opacity="0.46"></circle><text x="549.6" y="372.8" font-size="12" fill="#3a466f" opacity="0.76">1</text><circle cx="374.2" cy="386.2" r="1.2" fill="#4f46e5" opacity="0.55"></circle><line x1="367.1" y1="329.7" x2="373.1" y2="323.1" stroke="#4f46e5" stroke-width="1.1" opacity="0.62"></line><circle cx="524.6" cy="216.7" r="2.4" fill="#0ea5a4" opacity="0.73"></circle><circle cx="722.5" cy="112.0" r="1.2" fill="#3a466f" opacity="0.74"></circle><text x="831.6" y="84.6" font-size="11" fill="#3a466f" opacity="0.79">1</text><circle cx="760.8" cy="134.5" r="1.1" fill="#0ea5a4" opacity="0.60"></circle><text x="583.7" y="239.0" font-size="10" fill="#2b3352" opacity="0.79">1</text><circle cx="411.5" cy="347.5" r="1.4" fill="#3a466f" opacity="0.56"></circle><line x1="381.0" y1="394.6" x2="387.8" y2="393.5" stroke="#4f46e5" stroke-width="1.1" opacity="0.78"></line><circle cx="508.8" cy="357.6" r="1.4" fill="#333d63" opacity="0.53"></circle><line x1="710.2" y1="254.8" x2="718.8" y2="250.3" stroke="#333d63" stroke-width="1.1" opacity="0.60"></line><line x1="841.2" y1="154.1" x2="843.4" y2="146.9" stroke="#eab308" stroke-width="1.1" opacity="0.58"><animate attributeName="opacity" values="0.25;0.9;0.25" dur="10.2s" repeatCount="indefinite"/></line><circle cx="792.5" cy="101.3" r="1.5" fill="#2b3352" opacity="0.85"></circle><text x="607.8" y="117.8" font-size="10" fill="#2b3352" opacity="0.42">1</text><line x1="395.7" y1="205.1" x2="387.9" y2="210.9" stroke="#3a466f" stroke-width="1.1" opacity="0.51"></line><circle cx="319.7" cy="295.4" r="1.8" fill="#4f46e5" opacity="0.44"></circle><circle cx="438.1" cy="366.1" r="1.5" fill="#0ea5a4" opacity="0.89"></circle><line x1="670.6" y1="356.2" x2="680.7" y2="354.1" stroke="#333d63" stroke-width="1.1" opacity="0.71"></line><circle cx="871.1" cy="295.8" r="1.1" fill="#0ea5a4" opacity="0.62"></circle><circle cx="900.5" cy="207.8" r="1.8" fill="#3a466f" opacity="0.42"></circle><circle cx="725.9" cy="140.5" r="2.1" fill="#2b3352" opacity="0.53"></circle><circle cx="466.1" cy="138.0" r="2.1" fill="#4f46e5" opacity="0.75"></circle><text x="275.3" y="178.1" font-size="11" fill="#2b3352" opacity="0.51">0</text><circle cx="299.0" cy="242.9" r="1.1" fill="#2b3352" opacity="0.45"></circle><line x1="523.5" y1="305.5" x2="535.5" y2="307.2" stroke="#4f46e5" stroke-width="1.1" opacity="0.67"></line><circle cx="793.8" cy="329.4" r="2.2" fill="#2b3352" opacity="0.83"></circle><line x1="956.0" y1="310.1" x2="957.9" y2="304.7" stroke="#333d63" stroke-width="1.1" opacity="0.61"></line><circle cx="888.5" cy="261.8" r="2.0" fill="#eab308" opacity="0.53"><animate attributeName="opacity" values="0.25;0.9;0.25" dur="10.2s" repeatCount="indefinite"/></circle><circle cx="632.0" cy="204.0" r="1.1" fill="#3a466f" opacity="0.61"></circle><line x1="351.9" y1="165.7" x2="346.6" y2="165.7" stroke="#333d63" stroke-width="1.1" opacity="0.43"></line><text x="234.5" y="170.3" font-size="10" fill="#eab308" opacity="0.66">0<animate attributeName="opacity" values="0.25;0.9;0.25" dur="6.4s" repeatCount="indefinite"/></text><line x1="348.5" y1="188.7" x2="362.0" y2="191.7" stroke="#333d63" stroke-width="1.1" opacity="0.55"></line><circle cx="620.6" cy="240.0" r="1.2" fill="#eab308" opacity="0.52"><animate attributeName="opacity" values="0.25;0.9;0.25" dur="13.9s" repeatCount="indefinite"/></circle><line x1="878.2" y1="290.3" x2="887.4" y2="291.7" stroke="#3a466f" stroke-width="1.1" opacity="0.46"></line><text x="949.0" y="309.6" font-size="12" fill="#4f46e5" opacity="0.52">1</text><circle cx="810.0" cy="307.5" r="1.5" fill="#eab308" opacity="0.74"><animate attributeName="opacity" values="0.25;0.9;0.25" dur="6.1s" repeatCount="indefinite"/></circle><line x1="536.2" y1="273.0" x2="525.1" y2="271.0" stroke="#333d63" stroke-width="1.1" opacity="0.53"></line><line x1="312.5" y1="215.1" x2="304.7" y2="212.4" stroke="#eab308" stroke-width="1.1" opacity="0.43"><animate attributeName="opacity" values="0.25;0.9;0.25" dur="12.2s" repeatCount="indefinite"/></line><circle cx="280.5" cy="167.7" r="2.0" fill="#0ea5a4" opacity="0.46"></circle><circle cx="448.6" cy="153.4" r="2.0" fill="#333d63" opacity="0.52"></circle><line x1="699.5" y1="175.3" x2="708.3" y2="177.2" stroke="#0ea5a4" stroke-width="1.1" opacity="0.77"></line><line x1="882.4" y1="238.3" x2="889.0" y2="243.7" stroke="#333d63" stroke-width="1.1" opacity="0.46"></line><line x1="878.7" y1="304.4" x2="869.9" y2="306.7" stroke="#0ea5a4" stroke-width="1.1" opacity="0.71"></line><line x1="690.6" y1="332.7" x2="682.1" y2="333.7" stroke="#333d63" stroke-width="1.1" opacity="0.75"></line><line x1="469.4" y1="332.0" x2="463.1" y2="330.1" stroke="#0ea5a4" stroke-width="1.1" opacity="0.50"></line><line x1="340.7" y1="274.1" x2="336.9" y2="261.4" stroke="#eab308" stroke-width="1.1" opacity="0.55"></line><text x="392.5" y="187.4" font-size="11" fill="#4f46e5" opacity="0.61">0</text><circle cx="566.0" cy="142.2" r="1.6" fill="#3a466f" opacity="0.61"></circle><line x1="764.0" y1="132.5" x2="769.0" y2="134.5" stroke="#4f46e5" stroke-width="1.1" opacity="0.48"></line><circle cx="835.1" cy="193.5" r="1.3" fill="#3a466f" opacity="0.88"></circle><circle cx="736.4" cy="276.7" r="1.0" fill="#333d63" opacity="0.80"></circle><circle cx="570.0" cy="341.3" r="1.2" fill="#0ea5a4" opacity="0.83"></circle><line x1="423.3" y1="361.7" x2="415.1" y2="355.0" stroke="#333d63" stroke-width="1.1" opacity="0.40"></line><circle cx="418.2" cy="306.5" r="1.1" fill="#0ea5a4" opacity="0.50"></circle><text x="535.7" y="218.8" font-size="12" fill="#2b3352" opacity="0.74">1</text><line x1="689.0" y1="148.2" x2="696.6" y2="144.9" stroke="#3a466f" stroke-width="1.1" opacity="0.80"></line><line x1="778.6" y1="119.9" x2="775.8" y2="125.3" stroke="#eab308" stroke-width="1.1" opacity="0.58"></line><line x1="723.5" y1="163.0" x2="717.1" y2="166.4" stroke="#333d63" stroke-width="1.1" opacity="0.58"></line><circle cx="584.7" cy="237.1" r="1.1" fill="#eab308" opacity="0.68"></circle><circle cx="455.4" cy="318.7" r="1.8" fill="#3a466f" opacity="0.84"></circle><text x="433.2" y="354.5" font-size="12" fill="#2b3352" opacity="0.67">0</text><circle cx="529.8" cy="334.4" r="1.6" fill="#3a466f" opacity="0.62"></circle><circle cx="688.7" cy="250.1" r="1.9" fill="#2b3352" opacity="0.64"></circle><line x1="787.7" y1="171.1" x2="790.6" y2="162.0" stroke="#2b3352" stroke-width="1.1" opacity="0.49"></line><circle cx="757.6" cy="136.1" r="2.0" fill="#3a466f" opacity="0.43"></circle><circle cx="610.0" cy="142.2" r="1.0" fill="#3a466f" opacity="0.51"></circle><line x1="448.3" y1="206.3" x2="442.4" y2="211.0" stroke="#4f46e5" stroke-width="1.1" opacity="0.76"></line><circle cx="378.3" cy="283.2" r="2.3" fill="#0ea5a4" opacity="0.86"></circle><circle cx="470.8" cy="338.1" r="1.8" fill="#4f46e5" opacity="0.46"></circle><circle cx="657.5" cy="334.7" r="1.1" fill="#333d63" opacity="0.71"></circle><circle cx="815.2" cy="280.8" r="2.1" fill="#0ea5a4" opacity="0.76"></circle><text x="828.4" y="216.4" font-size="10" fill="#2b3352" opacity="0.82">1</text><line x1="699.7" y1="162.1" x2="690.7" y2="161.6" stroke="#4f46e5" stroke-width="1.1" opacity="0.71"></line><circle cx="495.5" cy="161.6" r="1.1" fill="#0ea5a4" opacity="0.64"></circle><text x="349.0" y="190.4" font-size="11" fill="#2b3352" opacity="0.48">1</text><line x1="371.7" y1="240.0" x2="377.6" y2="243.4" stroke="#333d63" stroke-width="1.1" opacity="0.55"></line><line x1="535.1" y1="294.4" x2="546.0" y2="295.2" stroke="#3a466f" stroke-width="1.1" opacity="0.70"></line><text x="748.3" y="305.7" font-size="12" fill="#3a466f" opacity="0.74">0</text><circle cx="874.2" cy="299.8" r="1.8" fill="#0ea5a4" opacity="0.43"></circle><line x1="825.7" y1="263.9" x2="818.7" y2="261.4" stroke="#3a466f" stroke-width="1.1" opacity="0.43"></line><text x="625.2" y="217.8" font-size="10" fill="#2b3352" opacity="0.69">1</text><line x1="407.5" y1="182.4" x2="400.5" y2="182.3" stroke="#3a466f" stroke-width="1.1" opacity="0.62"></line><line x1="317.8" y1="186.3" x2="325.5" y2="184.3" stroke="#0ea5a4" stroke-width="1.1" opacity="0.41"></line><text x="399.0" y="198.9" font-size="10" fill="#3a466f" opacity="0.59">0</text><line x1="607.5" y1="239.9" x2="621.3" y2="241.9" stroke="#0ea5a4" stroke-width="1.1" opacity="0.55"></line><circle cx="818.3" cy="273.9" r="1.7" fill="#333d63" opacity="0.48"></circle><text x="879.9" y="302.9" font-size="10" fill="#0ea5a4" opacity="0.54">0</text><line x1="764.9" y1="289.4" x2="757.2" y2="289.3" stroke="#3a466f" stroke-width="1.1" opacity="0.57"></line><circle cx="551.1" cy="263.8" r="1.1" fill="#333d63" opacity="0.44"></circle><line x1="374.3" y1="220.9" x2="369.0" y2="218.8" stroke="#4f46e5" stroke-width="1.1" opacity="0.41"></line><circle cx="353.0" cy="182.9" r="1.5" fill="#2b3352" opacity="0.42"></circle><text x="475.7" y="173.1" font-size="10" fill="#4f46e5" opacity="0.78">0</text><circle cx="685.8" cy="190.7" r="2.2" fill="#3a466f" opacity="0.64"></circle><text x="816.2" y="242.0" font-size="12" fill="#3a466f" opacity="0.46">1</text><circle cx="815.1" cy="283.6" r="1.8" fill="#333d63" opacity="0.87"></circle><circle cx="673.7" cy="312.2" r="1.6" fill="#3a466f" opacity="0.56"></circle><text x="494.3" y="310.4" font-size="12" fill="#2b3352" opacity="0.42">0</text><circle cx="398.7" cy="267.4" r="2.2" fill="#2b3352" opacity="0.77"></circle><circle cx="438.5" cy="197.2" r="1.1" fill="#3a466f" opacity="0.74"></circle><circle cx="581.9" cy="164.6" r="1.8" fill="#3a466f" opacity="0.86"></circle><line x1="726.2" y1="155.8" x2="738.3" y2="160.6" stroke="#4f46e5" stroke-width="1.1" opacity="0.69"></line><line x1="779.1" y1="202.1" x2="773.7" y2="211.5" stroke="#333d63" stroke-width="1.1" opacity="0.57"></line><circle cx="712.7" cy="269.1" r="2.1" fill="#0ea5a4" opacity="0.47"></circle><circle cx="575.9" cy="316.9" r="2.1" fill="#0ea5a4" opacity="0.62"></circle><circle cx="469.4" cy="330.8" r="2.4" fill="#3a466f" opacity="0.67"></circle><circle cx="456.1" cy="298.1" r="1.7" fill="#eab308" opacity="0.69"></circle><circle cx="553.1" cy="221.3" r="1.1" fill="#333d63" opacity="0.43"></circle><text x="677.7" y="168.5" font-size="10" fill="#4f46e5" opacity="0.54">0</text><text x="739.0" y="147.0" font-size="12" fill="#2b3352" opacity="0.83">0</text><line x1="703.4" y1="173.9" x2="697.1" y2="177.7" stroke="#333d63" stroke-width="1.1" opacity="0.63"></line><circle cx="592.0" cy="238.2" r="2.3" fill="#333d63" opacity="0.58"></circle><circle cx="484.0" cy="307.8" r="1.8" fill="#4f46e5" opacity="0.87"></circle><line x1="471.7" y1="337.1" x2="481.4" y2="331.2" stroke="#0ea5a4" stroke-width="1.1" opacity="0.51"></line><circle cx="545.9" cy="311.4" r="1.8" fill="#4f46e5" opacity="0.59"></circle><text x="670.1" y="255.9" font-size="11" fill="#eab308" opacity="0.79">0</text><circle cx="750.4" cy="184.4" r="1.3" fill="#3a466f" opacity="0.89"></circle><circle cx="720.0" cy="154.9" r="1.9" fill="#2b3352" opacity="0.73"></circle><text x="606.8" y="165.6" font-size="11" fill="#2b3352" opacity="0.84">0</text><line x1="484.2" y1="221.2" x2="477.9" y2="224.2" stroke="#eab308" stroke-width="1.1" opacity="0.40"></line><circle cx="425.8" cy="277.0" r="1.9" fill="#eab308" opacity="0.87"></circle><line x1="496.6" y1="308.3" x2="501.6" y2="309.3" stroke="#2b3352" stroke-width="1.1" opacity="0.45"></line><circle cx="639.6" cy="310.8" r="1.6" fill="#3a466f" opacity="0.71"></circle><line x1="762.6" y1="268.0" x2="773.6" y2="261.4" stroke="#333d63" stroke-width="1.1" opacity="0.62"></line><line x1="777.3" y1="217.7" x2="768.6" y2="211.8" stroke="#eab308" stroke-width="1.1" opacity="0.40"></line><line x1="676.6" y1="183.4" x2="670.9" y2="182.6" stroke="#3a466f" stroke-width="1.1" opacity="0.46"></line><circle cx="513.2" cy="174.1" r="1.6" fill="#3a466f" opacity="0.67"></circle><circle cx="401.4" cy="195.9" r="2.1" fill="#333d63" opacity="0.43"></circle><line x1="415.4" y1="242.6" x2="423.9" y2="245.8" stroke="#2b3352" stroke-width="1.1" opacity="0.38"></line><line x1="557.0" y1="283.1" x2="564.6" y2="283.6" stroke="#333d63" stroke-width="1.1" opacity="0.39"></line><line x1="713.9" y1="289.0" x2="720.8" y2="289.7" stroke="#3a466f" stroke-width="1.1" opacity="0.69"></line><circle cx="814.1" cy="277.6" r="2.4" fill="#2b3352" opacity="0.69"></circle><circle cx="767.7" cy="258.0" r="2.3" fill="#3a466f" opacity="0.42"></circle><circle cx="614.2" cy="218.2" r="1.1" fill="#3a466f" opacity="0.56"></circle><text x="451.2" y="199.5" font-size="11" fill="#eab308" opacity="0.53">1</text><line x1="382.8" y1="193.9" x2="387.0" y2="200.9" stroke="#eab308" stroke-width="1.1" opacity="0.40"></line><text x="450.6" y="215.3" font-size="10" fill="#2b3352" opacity="0.44">0</text><line x1="614.9" y1="235.1" x2="621.0" y2="236.7" stroke="#2b3352" stroke-width="1.1" opacity="0.78"></line><line x1="770.6" y1="266.4" x2="776.0" y2="268.3" stroke="#333d63" stroke-width="1.1" opacity="0.42"></line><line x1="807.9" y1="287.7" x2="797.2" y2="285.7" stroke="#3a466f" stroke-width="1.1" opacity="0.49"></line><circle cx="731.5" cy="281.8" r="2.3" fill="#4f46e5" opacity="0.57"></circle><circle cx="566.8" cy="262.9" r="1.7" fill="#2b3352" opacity="0.85"></circle><circle cx="430.9" cy="225.0" r="2.0" fill="#333d63" opacity="0.45"></circle><circle cx="403.1" cy="193.3" r="1.7" fill="#3a466f" opacity="0.61"></circle><line x1="510.1" y1="184.1" x2="518.2" y2="185.1" stroke="#4f46e5" stroke-width="1.1" opacity="0.79"></line><line x1="663.9" y1="207.6" x2="675.1" y2="208.5" stroke="#4f46e5" stroke-width="1.1" opacity="0.35"></line><circle cx="769.0" cy="236.0" r="1.6" fill="#3a466f" opacity="0.55"></circle><circle cx="765.4" cy="282.0" r="1.6" fill="#3a466f" opacity="0.50"></circle><text x="661.2" y="305.2" font-size="11" fill="#2b3352" opacity="0.45">0</text><circle cx="521.2" cy="288.0" r="2.1" fill="#333d63" opacity="0.54"></circle><circle cx="442.3" cy="262.5" r="1.4" fill="#3a466f" opacity="0.85"></circle><line x1="475.9" y1="205.6" x2="483.3" y2="203.4" stroke="#3a466f" stroke-width="1.1" opacity="0.46"></line><circle cx="583.0" cy="175.7" r="2.0" fill="#4f46e5" opacity="0.71"></circle><circle cx="701.3" cy="172.7" r="1.4" fill="#0ea5a4" opacity="0.88"></circle><circle cx="733.1" cy="208.8" r="1.7" fill="#3a466f" opacity="0.81"></circle><line x1="682.8" y1="259.5" x2="676.6" y2="263.1" stroke="#0ea5a4" stroke-width="1.1" opacity="0.66"></line><text x="582.5" y="305.9" font-size="12" fill="#2b3352" opacity="0.75">0</text><line x1="499.7" y1="310.0" x2="492.0" y2="307.9" stroke="#4f46e5" stroke-width="1.1" opacity="0.58"></line><line x1="492.0" y1="286.9" x2="499.3" y2="275.4" stroke="#3a466f" stroke-width="1.1" opacity="0.60"></line><line x1="557.4" y1="225.1" x2="568.9" y2="221.1" stroke="#eab308" stroke-width="1.1" opacity="0.62"></line><circle cx="654.0" cy="183.8" r="1.3" fill="#4f46e5" opacity="0.64"></circle><circle cx="705.7" cy="171.9" r="2.0" fill="#3a466f" opacity="0.60"></circle><text x="675.3" y="186.4" font-size="10" fill="#4f46e5" opacity="0.44">1</text><circle cx="596.4" cy="245.4" r="1.7" fill="#4f46e5" opacity="0.79"></circle><line x1="509.8" y1="285.6" x2="502.3" y2="295.9" stroke="#2b3352" stroke-width="1.1" opacity="0.41"></line><line x1="491.5" y1="316.0" x2="500.4" y2="313.2" stroke="#3a466f" stroke-width="1.1" opacity="0.73"></line><circle cx="564.2" cy="294.6" r="1.2" fill="#0ea5a4" opacity="0.47"></circle><circle cx="649.0" cy="244.0" r="1.3" fill="#333d63" opacity="0.89"></circle><circle cx="716.4" cy="194.1" r="1.5" fill="#3a466f" opacity="0.41"></circle><text x="692.4" y="175.2" font-size="11" fill="#2b3352" opacity="0.51">0</text><line x1="605.8" y1="183.4" x2="598.8" y2="185.5" stroke="#2b3352" stroke-width="1.1" opacity="0.70"></line><circle cx="506.1" cy="225.3" r="1.9" fill="#0ea5a4" opacity="0.55"></circle><circle cx="465.9" cy="269.4" r="1.1" fill="#eab308" opacity="0.71"></circle><line x1="517.5" y1="292.6" x2="529.9" y2="295.1" stroke="#2b3352" stroke-width="1.1" opacity="0.69"></line><circle cx="627.2" cy="294.8" r="1.4" fill="#333d63" opacity="0.48"></circle><text x="726.8" y="270.3" font-size="10" fill="#2b3352" opacity="0.68">0</text><circle cx="738.2" cy="223.6" r="1.8" fill="#2b3352" opacity="0.73"></circle><circle cx="653.2" cy="199.7" r="2.3" fill="#2b3352" opacity="0.74"></circle><line x1="530.6" y1="188.6" x2="525.0" y2="189.7" stroke="#333d63" stroke-width="1.1" opacity="0.76"></line><line x1="445.9" y1="204.0" x2="442.4" y2="213.4" stroke="#3a466f" stroke-width="1.1" opacity="0.75"></line><line x1="456.6" y1="246.1" x2="467.7" y2="248.4" stroke="#2b3352" stroke-width="1.1" opacity="0.50"></line><line x1="564.0" y1="274.2" x2="570.9" y2="274.5" stroke="#3a466f" stroke-width="1.1" opacity="0.76"></line><circle cx="696.0" cy="280.5" r="1.3" fill="#2b3352" opacity="0.87"></circle><line x1="765.4" y1="277.4" x2="768.4" y2="268.0" stroke="#4f46e5" stroke-width="1.1" opacity="0.38"></line><line x1="729.1" y1="251.0" x2="722.2" y2="248.8" stroke="#4f46e5" stroke-width="1.1" opacity="0.61"></line><line x1="620.8" y1="220.6" x2="615.8" y2="220.4" stroke="#4f46e5" stroke-width="1.1" opacity="0.77"></line><circle cx="485.1" cy="205.8" r="1.4" fill="#4f46e5" opacity="0.81"></circle><line x1="428.5" y1="198.9" x2="432.9" y2="206.8" stroke="#0ea5a4" stroke-width="1.1" opacity="0.61"></line><circle cx="477.0" cy="218.9" r="1.7" fill="#0ea5a4" opacity="0.64"></circle><circle cx="607.0" cy="234.0" r="2.0" fill="#eab308" opacity="0.49"></circle><text x="730.8" y="261.9" font-size="11" fill="#2b3352" opacity="0.75">0</text><text x="766.7" y="277.0" font-size="10" fill="#4f46e5" opacity="0.47">1</text><circle cx="698.7" cy="275.9" r="2.0" fill="#2b3352" opacity="0.52"></circle><circle cx="575.3" cy="259.8" r="1.6" fill="#333d63" opacity="0.60"></circle><text x="466.8" y="230.6" font-size="11" fill="#2b3352" opacity="0.44">0</text><circle cx="446.8" cy="213.1" r="1.8" fill="#333d63" opacity="0.40"></circle><line x1="528.1" y1="199.5" x2="536.2" y2="199.7" stroke="#eab308" stroke-width="1.1" opacity="0.54"></line><circle cx="650.0" cy="213.7" r="1.5" fill="#0ea5a4" opacity="0.62"></circle><circle cx="732.7" cy="236.3" r="1.6" fill="#0ea5a4" opacity="0.47"></circle><circle cx="727.5" cy="268.1" r="1.8" fill="#0ea5a4" opacity="0.85"></circle><circle cx="645.5" cy="286.7" r="1.8" fill="#2b3352" opacity="0.79"></circle><line x1="530.4" y1="283.0" x2="517.8" y2="277.6" stroke="#3a466f" stroke-width="1.1" opacity="0.67"></line><circle cx="475.7" cy="247.7" r="2.3" fill="#0ea5a4" opacity="0.79"></circle><text x="495.0" y="214.4" font-size="10" fill="#2b3352" opacity="0.49">1</text><circle cx="581.6" cy="191.8" r="1.3" fill="#333d63" opacity="0.84"></circle><line x1="679.1" y1="189.8" x2="687.8" y2="193.7" stroke="#333d63" stroke-width="1.1" opacity="0.76"></line><circle cx="709.2" cy="211.6" r="1.3" fill="#4f46e5" opacity="0.42"></circle><text x="665.7" y="250.2" font-size="10" fill="#333d63" opacity="0.83">1</text><text x="588.7" y="282.1" font-size="10" fill="#333d63" opacity="0.49">1</text><line x1="517.9" y1="289.7" x2="512.4" y2="290.7" stroke="#333d63" stroke-width="1.1" opacity="0.58"></line><circle cx="510.2" cy="271.1" r="1.0" fill="#4f46e5" opacity="0.72"></circle><line x1="569.0" y1="232.8" x2="578.6" y2="227.4" stroke="#0ea5a4" stroke-width="1.1" opacity="0.76"></line><line x1="643.5" y1="200.0" x2="652.9" y2="194.0" stroke="#333d63" stroke-width="1.1" opacity="0.37"></line><text x="685.2" y="179.0" font-size="11" fill="#3a466f" opacity="0.60">0</text><circle cx="654.2" cy="205.1" r="1.0" fill="#2b3352" opacity="0.87"></circle><line x1="593.8" y1="237.6" x2="587.4" y2="242.2" stroke="#2b3352" stroke-width="1.1" opacity="0.59"></line><line x1="535.6" y1="275.5" x2="530.1" y2="280.0" stroke="#2b3352" stroke-width="1.1" opacity="0.46"></line><circle cx="519.7" cy="293.8" r="1.9" fill="#4f46e5" opacity="0.56"></circle><circle cx="573.0" cy="285.1" r="2.1" fill="#4f46e5" opacity="0.67"></circle><text x="638.2" y="249.8" font-size="12" fill="#2b3352" opacity="0.68">0</text><text x="692.5" y="210.6" font-size="12" fill="#3a466f" opacity="0.51">0</text><line x1="677.9" y1="185.7" x2="665.4" y2="187.1" stroke="#4f46e5" stroke-width="1.1" opacity="0.42"></line><line x1="596.9" y1="196.2" x2="585.6" y2="200.9" stroke="#2b3352" stroke-width="1.1" opacity="0.54"></line><text x="523.8" y="229.0" font-size="11" fill="#3a466f" opacity="0.62">1</text><circle cx="503.7" cy="268.1" r="2.2" fill="#4f46e5" opacity="0.66"></circle><text x="538.5" y="289.8" font-size="10" fill="#eab308" opacity="0.58">0</text><circle cx="628.1" cy="285.0" r="1.4" fill="#333d63" opacity="0.76"></circle><text x="701.0" y="262.3" font-size="12" fill="#eab308" opacity="0.51">1</text><text x="707.2" y="225.6" font-size="11" fill="#4f46e5" opacity="0.62">0</text><circle cx="645.9" cy="208.3" r="1.5" fill="#3a466f" opacity="0.47"></circle><text x="544.3" y="197.0" font-size="11" fill="#0ea5a4" opacity="0.53">0</text><text x="479.0" y="219.3" font-size="12" fill="#0ea5a4" opacity="0.43">1</text><circle cx="491.6" cy="247.1" r="2.3" fill="#3a466f" opacity="0.42"></circle><circle cx="574.2" cy="265.1" r="1.6" fill="#3a466f" opacity="0.78"></circle><circle cx="668.9" cy="278.1" r="1.7" fill="#333d63" opacity="0.40"></circle><circle cx="728.2" cy="261.6" r="2.3" fill="#2b3352" opacity="0.47"></circle><text x="702.7" y="251.2" font-size="11" fill="#333d63" opacity="0.74">0</text><circle cx="609.7" cy="233.4" r="1.8" fill="#333d63" opacity="0.47"></circle><text x="512.9" y="218.9" font-size="12" fill="#0ea5a4" opacity="0.48">1</text><line x1="471.6" y1="218.0" x2="467.2" y2="205.8" stroke="#2b3352" stroke-width="1.1" opacity="0.59"></line><line x1="510.0" y1="217.9" x2="519.2" y2="221.5" stroke="#eab308" stroke-width="1.1" opacity="0.38"></line><line x1="601.6" y1="240.1" x2="610.5" y2="241.2" stroke="#3a466f" stroke-width="1.1" opacity="0.41"></line><circle cx="704.3" cy="259.8" r="2.3" fill="#4f46e5" opacity="0.56"></circle><line x1="729.2" y1="262.9" x2="722.8" y2="267.1" stroke="#2b3352" stroke-width="1.1" opacity="0.68"></line><line x1="679.3" y1="271.1" x2="667.8" y2="267.9" stroke="#eab308" stroke-width="1.1" opacity="0.41"></line><circle cx="580.6" cy="257.8" r="2.2" fill="#3a466f" opacity="0.86"></circle><text x="499.6" y="236.8" font-size="11" fill="#4f46e5" opacity="0.47">0</text><text x="478.8" y="209.3" font-size="12" fill="#333d63" opacity="0.49">1</text><line x1="538.6" y1="213.0" x2="550.9" y2="211.6" stroke="#2b3352" stroke-width="1.1" opacity="0.56"></line><circle cx="632.5" cy="213.2" r="1.1" fill="#333d63" opacity="0.41"></circle><line x1="707.1" y1="239.7" x2="712.8" y2="251.1" stroke="#333d63" stroke-width="1.1" opacity="0.58"></line><line x1="704.5" y1="260.5" x2="696.8" y2="263.4" stroke="#3a466f" stroke-width="1.1" opacity="0.79"></line><circle cx="630.0" cy="279.0" r="2.2" fill="#0ea5a4" opacity="0.68"></circle><text x="556.0" y="274.2" font-size="11" fill="#4f46e5" opacity="0.74">1</text><line x1="498.6" y1="245.5" x2="506.2" y2="240.1" stroke="#333d63" stroke-width="1.1" opacity="0.43"></line><circle cx="521.8" cy="225.4" r="2.1" fill="#4f46e5" opacity="0.64"></circle><circle cx="594.9" cy="205.6" r="1.4" fill="#2b3352" opacity="0.73"></circle><line x1="655.5" y1="205.6" x2="668.9" y2="205.5" stroke="#333d63" stroke-width="1.1" opacity="0.47"></line><text x="684.9" y="225.7" font-size="12" fill="#333d63" opacity="0.78">1</text><line x1="654.6" y1="252.0" x2="645.2" y2="256.0" stroke="#2b3352" stroke-width="1.1" opacity="0.37"></line><text x="590.5" y="282.5" font-size="11" fill="#eab308" opacity="0.55">1</text><text x="532.3" y="279.4" font-size="12" fill="#3a466f" opacity="0.78">0</text><text x="536.6" y="270.0" font-size="12" fill="#eab308" opacity="0.42">1</text><line x1="572.5" y1="236.1" x2="583.6" y2="230.0" stroke="#4f46e5" stroke-width="1.1" opacity="0.62"></line><line x1="638.5" y1="201.9" x2="645.3" y2="200.6" stroke="#2b3352" stroke-width="1.1" opacity="0.50"></line><text x="665.3" y="199.0" font-size="10" fill="#333d63" opacity="0.42">0</text><line x1="648.4" y1="215.8" x2="637.4" y2="217.4" stroke="#333d63" stroke-width="1.1" opacity="0.60"></line><circle cx="590.3" cy="235.5" r="2.3" fill="#3a466f" opacity="0.47"></circle><line x1="546.8" y1="275.0" x2="535.0" y2="277.0" stroke="#eab308" stroke-width="1.1" opacity="0.37"></line><line x1="542.8" y1="281.7" x2="549.7" y2="284.9" stroke="#eab308" stroke-width="1.1" opacity="0.66"></line><text x="577.0" y="272.0" font-size="11" fill="#4f46e5" opacity="0.49">0</text><line x1="635.3" y1="248.7" x2="639.1" y2="244.5" stroke="#4f46e5" stroke-width="1.1" opacity="0.67"></line><circle cx="671.0" cy="210.7" r="1.2" fill="#2b3352" opacity="0.69"></circle><text x="652.3" y="197.8" font-size="11" fill="#3a466f" opacity="0.65">1</text><line x1="601.2" y1="209.0" x2="592.2" y2="210.4" stroke="#2b3352" stroke-width="1.1" opacity="0.62"></line><line x1="541.7" y1="230.4" x2="533.1" y2="236.9" stroke="#2b3352" stroke-width="1.1" opacity="0.40"></line><circle cx="526.1" cy="259.6" r="2.4" fill="#4f46e5" opacity="0.83"></circle><circle cx="551.4" cy="279.8" r="1.1" fill="#3a466f" opacity="0.56"></circle><line x1="624.5" y1="267.5" x2="629.7" y2="268.0" stroke="#2b3352" stroke-width="1.1" opacity="0.62"></line><line x1="672.9" y1="250.7" x2="681.6" y2="248.6" stroke="#eab308" stroke-width="1.1" opacity="0.75"></line><text x="678.7" y="227.5" font-size="10" fill="#eab308" opacity="0.60">0</text><line x1="635.3" y1="216.6" x2="624.2" y2="213.4" stroke="#3a466f" stroke-width="1.1" opacity="0.43"></line><circle cx="558.5" cy="214.2" r="1.6" fill="#2b3352" opacity="0.49"></circle><circle cx="504.6" cy="225.4" r="1.3" fill="#4f46e5" opacity="0.81"></circle><line x1="512.6" y1="239.5" x2="525.1" y2="245.3" stroke="#2b3352" stroke-width="1.1" opacity="0.75"></line><circle cx="576.5" cy="253.0" r="1.6" fill="#2b3352" opacity="0.51"></circle><circle cx="652.5" cy="267.1" r="1.9" fill="#0ea5a4" opacity="0.54"></circle><line x1="704.1" y1="266.1" x2="700.3" y2="252.9" stroke="#2b3352" stroke-width="1.1" opacity="0.42"></line><line x1="679.2" y1="241.9" x2="669.2" y2="242.0" stroke="#4f46e5" stroke-width="1.1" opacity="0.46"></line><line x1="612.7" y1="228.2" x2="605.5" y2="227.9" stroke="#4f46e5" stroke-width="1.1" opacity="0.68"></line><circle cx="534.3" cy="222.0" r="1.6" fill="#eab308" opacity="0.45"></circle><text x="494.0" y="221.2" font-size="11" fill="#3a466f" opacity="0.71">0</text><line x1="530.7" y1="231.4" x2="537.6" y2="230.7" stroke="#2b3352" stroke-width="1.1" opacity="0.54"></line><circle cx="610.5" cy="238.8" r="1.5" fill="#3a466f" opacity="0.54"></circle><circle cx="674.7" cy="255.3" r="1.9" fill="#4f46e5" opacity="0.57"></circle><circle cx="700.7" cy="266.5" r="1.8" fill="#0ea5a4" opacity="0.59"></circle><circle cx="654.7" cy="262.0" r="2.0" fill="#3a466f" opacity="0.58"></circle><circle cx="578.1" cy="253.6" r="1.5" fill="#eab308" opacity="0.61"></circle><circle cx="515.6" cy="236.5" r="1.3" fill="#2b3352" opacity="0.44"></circle><circle cx="503.4" cy="220.0" r="2.2" fill="#3a466f" opacity="0.58"></circle><line x1="550.9" y1="215.4" x2="561.4" y2="215.7" stroke="#2b3352" stroke-width="1.1" opacity="0.71"></line><circle cx="627.3" cy="225.2" r="2.4" fill="#eab308" opacity="0.52"></circle><circle cx="681.4" cy="234.7" r="1.3" fill="#333d63" opacity="0.59"></circle><circle cx="673.6" cy="253.2" r="1.0" fill="#2b3352" opacity="0.72"></circle><line x1="629.7" y1="273.5" x2="620.5" y2="271.5" stroke="#3a466f" stroke-width="1.1" opacity="0.69"></line><circle cx="560.6" cy="268.6" r="1.4" fill="#333d63" opacity="0.51"></circle></g><text x="24" y="460" font-family="Consolas, Menlo, monospace" font-size="13" fill="#4a5578">2026-08-06 · sin(7t+φ)·e^(−λt), sin(6t) · seed 6c3e2d</text></svg>