<svg width="1200" height="480" viewBox="0 0 1200 480" xmlns="http://www.w3.org/2000/svg" role="img" aria-label="Generative art for 2026-07-21"><rect width="1200" height="480" fill="#0b0e1a"/><g font-family="Consolas, Menlo, monospace"><line x1="501.6" y1="277.6" x2="500.5" y2="272.6" stroke="#3a466f" stroke-width="1.1" opacity="0.56"></line><line x1="489.6" y1="68.0" x2="495.5" y2="58.9" stroke="#333d63" stroke-width="1.1" opacity="0.40"></line><circle cx="622.3" cy="19.5" r="2.0" fill="#2b3352" opacity="0.60"></circle><line x1="793.4" y1="161.6" x2="799.3" y2="172.6" stroke="#2b3352" stroke-width="1.1" opacity="0.62"></line><line x1="815.7" y1="365.3" x2="809.5" y2="371.5" stroke="#4f46e5" stroke-width="1.1" opacity="0.63"></line><line x1="617.3" y1="450.9" x2="606.4" y2="448.9" stroke="#eab308" stroke-width="1.1" opacity="0.51"><animate attributeName="opacity" values="0.25;0.9;0.25" dur="13.0s" repeatCount="indefinite"/></line><circle cx="345.2" cy="349.9" r="2.3" fill="#0ea5a4" opacity="0.54"><animate attributeName="opacity" values="0.25;0.9;0.25" dur="7.1s" repeatCount="indefinite"/></circle><line x1="272.6" y1="176.4" x2="277.0" y2="171.4" stroke="#333d63" stroke-width="1.1" opacity="0.61"></line><circle cx="506.8" cy="71.3" r="2.3" fill="#2b3352" opacity="0.71"></circle><circle cx="864.1" cy="119.1" r="1.6" fill="#3a466f" opacity="0.76"></circle><line x1="1009.4" y1="266.5" x2="1003.0" y2="277.1" stroke="#2b3352" stroke-width="1.1" opacity="0.71"></line><line x1="790.8" y1="364.5" x2="782.4" y2="365.2" stroke="#2b3352" stroke-width="1.1" opacity="0.47"></line><circle cx="371.3" cy="345.9" r="1.9" fill="#4f46e5" opacity="0.85"></circle><line x1="121.3" y1="253.8" x2="123.5" y2="246.7" stroke="#3a466f" stroke-width="1.1" opacity="0.53"></line><circle cx="306.1" cy="166.7" r="1.4" fill="#2b3352" opacity="0.86"></circle><circle cx="759.7" cy="153.7" r="2.1" fill="#3a466f" opacity="0.69"></circle><text x="1095.6" y="211.9" font-size="12" fill="#0ea5a4" opacity="0.52">0</text><text x="983.4" y="278.5" font-size="12" fill="#2b3352" opacity="0.62">0</text><circle cx="533.1" cy="294.2" r="1.8" fill="#333d63" opacity="0.89"></circle><line x1="141.3" y1="257.1" x2="134.9" y2="256.5" stroke="#3a466f" stroke-width="1.1" opacity="0.79"></line><line x1="151.0" y1="238.7" x2="159.2" y2="237.9" stroke="#2b3352" stroke-width="1.1" opacity="0.71"></line><text x="552.5" y="228.4" font-size="10" fill="#3a466f" opacity="0.50">0</text><circle cx="1001.7" cy="240.5" r="1.8" fill="#3a466f" opacity="0.74"></circle><circle cx="1082.8" cy="225.8" r="1.9" fill="#2b3352" opacity="0.65"></circle><circle cx="745.6" cy="205.6" r="1.1" fill="#333d63" opacity="0.83"></circle><circle cx="295.4" cy="214.1" r="2.3" fill="#4f46e5" opacity="0.88"></circle><circle cx="133.1" cy="256.0" r="2.3" fill="#333d63" opacity="0.65"></circle><line x1="380.0" y1="299.7" x2="390.3" y2="300.1" stroke="#333d63" stroke-width="1.1" opacity="0.50"></line><circle cx="799.7" cy="305.7" r="2.2" fill="#333d63" opacity="0.53"></circle><circle cx="1017.6" cy="243.0" r="1.3" fill="#2b3352" opacity="0.85"></circle><line x1="859.0" y1="163.4" x2="845.3" y2="161.9" stroke="#2b3352" stroke-width="1.1" opacity="0.79"></line><text x="497.0" y="144.1" font-size="11" fill="#4f46e5" opacity="0.77">0</text><line x1="255.4" y1="203.8" x2="252.4" y2="212.0" stroke="#0ea5a4" stroke-width="1.1" opacity="0.70"></line><circle cx="332.4" cy="308.0" r="1.6" fill="#0ea5a4" opacity="0.67"></circle><circle cx="619.1" cy="357.5" r="2.2" fill="#2b3352" opacity="0.65"></circle><circle cx="857.3" cy="307.2" r="2.0" fill="#eab308" opacity="0.68"><animate attributeName="opacity" values="0.25;0.9;0.25" dur="10.6s" repeatCount="indefinite"/></circle><circle cx="834.4" cy="185.3" r="1.1" fill="#333d63" opacity="0.40"></circle><line x1="631.4" y1="104.7" x2="623.3" y2="104.1" stroke="#2b3352" stroke-width="1.1" opacity="0.65"></line><circle cx="442.9" cy="141.3" r="1.5" fill="#333d63" opacity="0.62"></circle><circle cx="422.7" cy="275.2" r="1.6" fill="#4f46e5" opacity="0.64"></circle><circle cx="548.2" cy="378.1" r="2.2" fill="#2b3352" opacity="0.60"></circle><line x1="678.2" y1="367.3" x2="684.1" y2="360.4" stroke="#333d63" stroke-width="1.1" opacity="0.64"></line><line x1="705.7" y1="239.6" x2="701.9" y2="230.1" stroke="#2b3352" stroke-width="1.1" opacity="0.51"></line><line x1="630.8" y1="114.1" x2="622.3" y2="106.2" stroke="#333d63" stroke-width="1.1" opacity="0.61"></line><line x1="569.0" y1="100.1" x2="566.6" y2="108.0" stroke="#0ea5a4" stroke-width="1.1" opacity="0.64"></line><circle cx="573.2" cy="201.5" r="2.2" fill="#3a466f" opacity="0.65"></circle><line x1="606.3" y1="346.4" x2="611.6" y2="357.8" stroke="#333d63" stroke-width="1.1" opacity="0.51"></line><text x="610.0" y="383.8" font-size="12" fill="#2b3352" opacity="0.71">0</text><line x1="559.4" y1="301.2" x2="557.1" y2="296.2" stroke="#3a466f" stroke-width="1.1" opacity="0.63"></line><line x1="528.3" y1="170.3" x2="529.8" y2="159.5" stroke="#2b3352" stroke-width="1.1" opacity="0.78"></line><circle cx="576.4" cy="97.3" r="1.9" fill="#3a466f" opacity="0.60"></circle><line x1="690.1" y1="161.1" x2="693.7" y2="164.9" stroke="#eab308" stroke-width="1.1" opacity="0.58"><animate attributeName="opacity" values="0.25;0.9;0.25" dur="7.6s" repeatCount="indefinite"/></line><text x="738.0" y="278.9" font-size="12" fill="#0ea5a4" opacity="0.57">1<animate attributeName="opacity" values="0.25;0.9;0.25" dur="7.4s" repeatCount="indefinite"/></text><circle cx="657.3" cy="365.9" r="1.0" fill="#2b3352" opacity="0.61"></circle><text x="490.3" y="329.1" font-size="11" fill="#333d63" opacity="0.67">1</text><circle cx="399.6" cy="230.0" r="2.3" fill="#0ea5a4" opacity="0.73"></circle><line x1="494.7" y1="146.6" x2="505.7" y2="144.4" stroke="#4f46e5" stroke-width="1.1" opacity="0.77"></line><line x1="701.8" y1="151.1" x2="714.0" y2="154.3" stroke="#0ea5a4" stroke-width="1.1" opacity="0.76"></line><text x="842.1" y="232.6" font-size="11" fill="#0ea5a4" opacity="0.55">0</text><text x="775.6" y="302.6" font-size="11" fill="#333d63" opacity="0.44">0</text><text x="528.4" y="322.1" font-size="11" fill="#2b3352" opacity="0.43">0</text><circle cx="328.6" cy="264.7" r="1.1" fill="#4f46e5" opacity="0.79"></circle><line x1="362.4" y1="202.9" x2="371.8" y2="201.2" stroke="#4f46e5" stroke-width="1.1" opacity="0.61"></line><text x="614.5" y="179.9" font-size="12" fill="#2b3352" opacity="0.83">1</text><circle cx="866.3" cy="209.0" r="1.3" fill="#2b3352" opacity="0.41"></circle><line x1="885.0" y1="248.4" x2="876.7" y2="250.8" stroke="#0ea5a4" stroke-width="1.1" opacity="0.42"><animate attributeName="opacity" values="0.25;0.9;0.25" dur="9.4s" repeatCount="indefinite"/></line><line x1="652.3" y1="270.9" x2="640.3" y2="270.8" stroke="#2b3352" stroke-width="1.1" opacity="0.62"></line><line x1="374.1" y1="260.8" x2="368.1" y2="259.9" stroke="#2b3352" stroke-width="1.1" opacity="0.66"></line><line x1="298.5" y1="237.9" x2="303.9" y2="237.7" stroke="#4f46e5" stroke-width="1.1" opacity="0.79"></line><circle cx="489.2" cy="232.1" r="1.4" fill="#4f46e5" opacity="0.79"></circle><circle cx="775.5" cy="239.1" r="1.2" fill="#333d63" opacity="0.61"></circle><line x1="901.6" y1="238.8" x2="892.9" y2="233.4" stroke="#2b3352" stroke-width="1.1" opacity="0.51"></line><circle cx="762.8" cy="223.6" r="1.9" fill="#3a466f" opacity="0.41"></circle><circle cx="482.3" cy="226.1" r="1.6" fill="#3a466f" opacity="0.87"></circle><text x="316.1" y="237.0" font-size="12" fill="#0ea5a4" opacity="0.67">0</text><text x="406.5" y="265.2" font-size="12" fill="#3a466f" opacity="0.54">1</text><text x="655.6" y="276.7" font-size="11" fill="#333d63" opacity="0.51">0</text><line x1="836.8" y1="257.4" x2="847.2" y2="249.6" stroke="#2b3352" stroke-width="1.1" opacity="0.59"></line><circle cx="807.3" cy="211.1" r="2.2" fill="#333d63" opacity="0.76"></circle><circle cx="598.9" cy="180.2" r="2.1" fill="#eab308" opacity="0.56"><animate attributeName="opacity" values="0.25;0.9;0.25" dur="12.1s" repeatCount="indefinite"/></circle><circle cx="418.4" cy="208.8" r="1.1" fill="#2b3352" opacity="0.81"></circle><line x1="406.5" y1="265.4" x2="413.8" y2="269.7" stroke="#2b3352" stroke-width="1.1" opacity="0.54"></line><text x="554.1" y="309.5" font-size="12" fill="#2b3352" opacity="0.59">1</text><text x="728.1" y="293.0" font-size="12" fill="#333d63" opacity="0.75">1</text><text x="767.1" y="222.3" font-size="12" fill="#333d63" opacity="0.56">1</text><line x1="654.5" y1="165.1" x2="647.1" y2="163.4" stroke="#333d63" stroke-width="1.1" opacity="0.56"></line><line x1="529.6" y1="164.7" x2="522.9" y2="168.6" stroke="#333d63" stroke-width="1.1" opacity="0.76"></line><line x1="483.7" y1="237.0" x2="486.4" y2="245.2" stroke="#333d63" stroke-width="1.1" opacity="0.61"></line><circle cx="548.6" cy="308.3" r="2.0" fill="#2b3352" opacity="0.46"></circle><circle cx="631.0" cy="321.5" r="1.5" fill="#2b3352" opacity="0.72"></circle><text x="668.3" y="267.8" font-size="10" fill="#4f46e5" opacity="0.49">1</text><text x="640.3" y="185.1" font-size="11" fill="#4f46e5" opacity="0.43">1</text><circle cx="593.2" cy="143.2" r="1.2" fill="#333d63" opacity="0.89"></circle><text x="578.9" y="196.6" font-size="10" fill="#333d63" opacity="0.48">1</text><line x1="595.8" y1="284.3" x2="599.3" y2="290.1" stroke="#3a466f" stroke-width="1.1" opacity="0.60"></line><line x1="610.9" y1="325.9" x2="603.7" y2="330.5" stroke="#333d63" stroke-width="1.1" opacity="0.56"></line><circle cx="578.3" cy="302.4" r="1.7" fill="#4f46e5" opacity="0.74"></circle><circle cx="556.4" cy="223.0" r="1.4" fill="#4f46e5" opacity="0.52"></circle><circle cx="573.9" cy="165.5" r="2.1" fill="#2b3352" opacity="0.90"></circle><line x1="635.3" y1="174.7" x2="640.7" y2="178.6" stroke="#2b3352" stroke-width="1.1" opacity="0.37"></line><text x="680.5" y="239.1" font-size="10" fill="#4f46e5" opacity="0.77">0</text><circle cx="657.3" cy="308.0" r="1.7" fill="#2b3352" opacity="0.53"></circle><circle cx="560.8" cy="302.4" r="1.0" fill="#eab308" opacity="0.75"><animate attributeName="opacity" values="0.25;0.9;0.25" dur="11.4s" repeatCount="indefinite"/></circle><text x="484.1" y="248.3" font-size="11" fill="#4f46e5" opacity="0.70">1</text><text x="502.5" y="195.4" font-size="12" fill="#3a466f" opacity="0.78">0</text><line x1="622.8" y1="179.5" x2="635.0" y2="181.2" stroke="#0ea5a4" stroke-width="1.1" opacity="0.74"></line><circle cx="740.0" cy="211.4" r="1.7" fill="#3a466f" opacity="0.57"></circle><line x1="734.3" y1="274.4" x2="722.2" y2="276.2" stroke="#4f46e5" stroke-width="1.1" opacity="0.43"></line><circle cx="608.7" cy="294.9" r="1.6" fill="#4f46e5" opacity="0.73"></circle><line x1="457.3" y1="265.2" x2="447.6" y2="260.5" stroke="#3a466f" stroke-width="1.1" opacity="0.63"></line><line x1="432.6" y1="224.2" x2="439.6" y2="222.6" stroke="#2b3352" stroke-width="1.1" opacity="0.37"></line><text x="563.0" y="207.4" font-size="10" fill="#3a466f" opacity="0.47">1</text><line x1="731.1" y1="222.3" x2="741.7" y2="222.6" stroke="#4f46e5" stroke-width="1.1" opacity="0.73"></line><text x="789.8" y="246.5" font-size="12" fill="#0ea5a4" opacity="0.73">0</text><line x1="685.6" y1="263.2" x2="674.8" y2="262.3" stroke="#0ea5a4" stroke-width="1.1" opacity="0.47"></line><line x1="507.3" y1="253.3" x2="497.9" y2="253.0" stroke="#3a466f" stroke-width="1.1" opacity="0.38"></line><circle cx="410.0" cy="246.9" r="1.9" fill="#2b3352" opacity="0.77"></circle><line x1="485.3" y1="234.0" x2="491.9" y2="234.4" stroke="#2b3352" stroke-width="1.1" opacity="0.37"></line><circle cx="662.8" cy="241.9" r="1.2" fill="#0ea5a4" opacity="0.76"><animate attributeName="opacity" values="0.25;0.9;0.25" dur="10.0s" repeatCount="indefinite"/></circle><circle cx="777.6" cy="243.6" r="1.4" fill="#2b3352" opacity="0.89"></circle><line x1="732.2" y1="237.0" x2="725.5" y2="235.8" stroke="#4f46e5" stroke-width="1.1" opacity="0.53"></line><line x1="580.4" y1="230.4" x2="570.4" y2="230.1" stroke="#2b3352" stroke-width="1.1" opacity="0.60"></line><text x="441.6" y="229.3" font-size="12" fill="#2b3352" opacity="0.59">1</text><circle cx="445.6" cy="254.3" r="1.8" fill="#333d63" opacity="0.80"></circle><text x="591.4" y="264.5" font-size="10" fill="#2b3352" opacity="0.53">1</text><text x="721.6" y="254.7" font-size="12" fill="#333d63" opacity="0.56">0</text><circle cx="741.0" cy="235.0" r="1.6" fill="#0ea5a4" opacity="0.77"></circle><text x="646.4" y="203.5" font-size="11" fill="#2b3352" opacity="0.65">1</text><line x1="510.6" y1="211.7" x2="499.9" y2="215.0" stroke="#4f46e5" stroke-width="1.1" opacity="0.56"></line><line x1="466.0" y1="239.1" x2="471.7" y2="245.1" stroke="#333d63" stroke-width="1.1" opacity="0.40"></line><circle cx="547.7" cy="275.0" r="2.4" fill="#333d63" opacity="0.61"></circle><line x1="648.9" y1="286.5" x2="658.3" y2="282.0" stroke="#2b3352" stroke-width="1.1" opacity="0.68"></line><circle cx="704.4" cy="248.3" r="1.6" fill="#2b3352" opacity="0.86"></circle><line x1="653.3" y1="200.7" x2="646.6" y2="198.1" stroke="#2b3352" stroke-width="1.1" opacity="0.73"></line><text x="576.5" y="195.1" font-size="10" fill="#333d63" opacity="0.73">1</text><circle cx="533.9" cy="221.6" r="2.1" fill="#2b3352" opacity="0.90"></circle><text x="548.9" y="275.0" font-size="10" fill="#3a466f" opacity="0.54">0</text><circle cx="600.6" cy="300.4" r="1.9" fill="#eab308" opacity="0.60"><animate attributeName="opacity" values="0.25;0.9;0.25" dur="12.0s" repeatCount="indefinite"/></circle><text x="636.9" y="272.8" font-size="10" fill="#3a466f" opacity="0.56">0</text><circle cx="629.0" cy="218.9" r="1.5" fill="#2b3352" opacity="0.76"></circle><circle cx="600.3" cy="188.3" r="1.4" fill="#333d63" opacity="0.51"></circle><text x="582.5" y="195.3" font-size="10" fill="#0ea5a4" opacity="0.62">1</text><text x="601.3" y="253.9" font-size="12" fill="#eab308" opacity="0.46">0<animate attributeName="opacity" values="0.25;0.9;0.25" dur="11.1s" repeatCount="indefinite"/></text><circle cx="608.3" cy="296.3" r="1.1" fill="#0ea5a4" opacity="0.58"></circle><circle cx="599.3" cy="286.3" r="2.1" fill="#333d63" opacity="0.82"></circle><circle cx="580.3" cy="236.3" r="1.0" fill="#3a466f" opacity="0.74"></circle><line x1="577.6" y1="202.0" x2="582.9" y2="193.4" stroke="#2b3352" stroke-width="1.1" opacity="0.53"></line><line x1="606.6" y1="195.7" x2="614.8" y2="197.5" stroke="#2b3352" stroke-width="1.1" opacity="0.67"></line><circle cx="642.1" cy="228.4" r="1.4" fill="#333d63" opacity="0.79"></circle><text x="642.3" y="276.5" font-size="10" fill="#3a466f" opacity="0.55">0</text><circle cx="591.4" cy="290.7" r="2.4" fill="#eab308" opacity="0.62"><animate attributeName="opacity" values="0.25;0.9;0.25" dur="11.7s" repeatCount="indefinite"/></circle><line x1="543.8" y1="256.4" x2="539.2" y2="253.9" stroke="#2b3352" stroke-width="1.1" opacity="0.52"></line><circle cx="535.1" cy="220.0" r="1.6" fill="#2b3352" opacity="0.55"></circle><line x1="592.7" y1="203.9" x2="600.2" y2="203.5" stroke="#3a466f" stroke-width="1.1" opacity="0.44"></line><circle cx="672.4" cy="211.7" r="2.0" fill="#2b3352" opacity="0.65"></circle><circle cx="693.6" cy="251.2" r="1.6" fill="#eab308" opacity="0.62"></circle><circle cx="632.9" cy="265.0" r="1.8" fill="#2b3352" opacity="0.48"></circle><line x1="541.8" y1="258.2" x2="536.2" y2="257.8" stroke="#2b3352" stroke-width="1.1" opacity="0.44"></line><line x1="494.7" y1="233.9" x2="503.8" y2="231.6" stroke="#4f46e5" stroke-width="1.1" opacity="0.65"></line><circle cx="551.2" cy="222.5" r="2.0" fill="#3a466f" opacity="0.48"></circle><circle cx="655.1" cy="218.0" r="1.2" fill="#3a466f" opacity="0.60"></circle><circle cx="707.5" cy="238.6" r="1.5" fill="#4f46e5" opacity="0.85"></circle><circle cx="675.8" cy="243.3" r="1.1" fill="#4f46e5" opacity="0.74"></circle><text x="574.6" y="252.3" font-size="12" fill="#3a466f" opacity="0.55">0</text><circle cx="493.0" cy="241.4" r="1.4" fill="#0ea5a4" opacity="0.51"></circle><circle cx="513.5" cy="236.4" r="1.8" fill="#4f46e5" opacity="0.48"></circle><text x="609.7" y="241.4" font-size="10" fill="#333d63" opacity="0.74">0</text><circle cx="694.5" cy="245.2" r="2.3" fill="#4f46e5" opacity="0.50"></circle><line x1="703.0" y1="232.3" x2="691.0" y2="234.7" stroke="#eab308" stroke-width="1.1" opacity="0.52"></line><circle cx="611.5" cy="237.7" r="1.1" fill="#333d63" opacity="0.77"></circle><text x="521.2" y="239.5" font-size="12" fill="#eab308" opacity="0.48">0</text><text x="503.6" y="243.9" font-size="10" fill="#333d63" opacity="0.44">0</text><circle cx="560.1" cy="249.1" r="1.9" fill="#2b3352" opacity="0.52"></circle><text x="660.4" y="247.3" font-size="12" fill="#333d63" opacity="0.43">0</text><line x1="696.1" y1="234.7" x2="688.2" y2="233.7" stroke="#3a466f" stroke-width="1.1" opacity="0.70"></line><circle cx="650.3" cy="225.6" r="1.1" fill="#eab308" opacity="0.41"></circle><text x="570.0" y="219.7" font-size="10" fill="#3a466f" opacity="0.74">0</text><line x1="515.7" y1="241.5" x2="527.8" y2="243.3" stroke="#333d63" stroke-width="1.1" opacity="0.45"></line><line x1="548.0" y1="257.4" x2="553.6" y2="259.3" stroke="#4f46e5" stroke-width="1.1" opacity="0.60"></line><circle cx="615.1" cy="267.0" r="2.0" fill="#333d63" opacity="0.62"></circle><circle cx="654.4" cy="255.8" r="1.0" fill="#333d63" opacity="0.81"></circle><line x1="642.4" y1="218.7" x2="629.7" y2="216.0" stroke="#0ea5a4" stroke-width="1.1" opacity="0.42"></line><circle cx="600.8" cy="215.1" r="1.2" fill="#2b3352" opacity="0.52"></circle><text x="558.8" y="220.5" font-size="10" fill="#4f46e5" opacity="0.61">1</text><line x1="564.6" y1="247.9" x2="568.7" y2="256.5" stroke="#3a466f" stroke-width="1.1" opacity="0.71"></line><circle cx="596.6" cy="266.3" r="1.6" fill="#333d63" opacity="0.74"></circle><text x="624.7" y="260.7" font-size="10" fill="#4f46e5" opacity="0.56">1</text><text x="619.2" y="238.5" font-size="12" fill="#3a466f" opacity="0.82">0</text><circle cx="605.3" cy="213.8" r="2.1" fill="#3a466f" opacity="0.82"></circle><circle cx="588.8" cy="208.2" r="1.2" fill="#eab308" opacity="0.85"></circle><text x="600.4" y="238.0" font-size="10" fill="#eab308" opacity="0.61">0</text><circle cx="604.0" cy="263.7" r="1.5" fill="#2b3352" opacity="0.82"></circle><text x="598.1" y="276.8" font-size="12" fill="#2b3352" opacity="0.80">1</text><text x="591.4" y="244.6" font-size="12" fill="#333d63" opacity="0.82">1</text><text x="579.0" y="222.7" font-size="12" fill="#3a466f" opacity="0.68">0</text><line x1="595.8" y1="210.0" x2="603.9" y2="210.9" stroke="#eab308" stroke-width="1.1" opacity="0.77"></line><line x1="618.7" y1="228.0" x2="629.6" y2="233.3" stroke="#4f46e5" stroke-width="1.1" opacity="0.54"></line><line x1="634.7" y1="253.7" x2="628.2" y2="257.9" stroke="#eab308" stroke-width="1.1" opacity="0.70"></line><line x1="609.2" y1="266.7" x2="597.5" y2="267.1" stroke="#3a466f" stroke-width="1.1" opacity="0.75"></line><circle cx="574.0" cy="258.6" r="2.0" fill="#4f46e5" opacity="0.88"></circle><line x1="559.0" y1="233.3" x2="557.9" y2="223.1" stroke="#3a466f" stroke-width="1.1" opacity="0.52"></line><line x1="585.7" y1="220.1" x2="593.7" y2="217.0" stroke="#3a466f" stroke-width="1.1" opacity="0.46"></line><line x1="625.0" y1="221.0" x2="638.0" y2="225.1" stroke="#0ea5a4" stroke-width="1.1" opacity="0.36"></line><circle cx="658.1" cy="235.8" r="2.0" fill="#4f46e5" opacity="0.56"></circle><circle cx="635.5" cy="257.5" r="2.0" fill="#3a466f" opacity="0.66"></circle><text x="572.7" y="251.2" font-size="12" fill="#333d63" opacity="0.82">0</text><line x1="532.1" y1="240.2" x2="543.4" y2="238.3" stroke="#3a466f" stroke-width="1.1" opacity="0.71"></line><line x1="557.6" y1="226.2" x2="569.7" y2="229.3" stroke="#333d63" stroke-width="1.1" opacity="0.51"></line><circle cx="606.9" cy="226.5" r="1.1" fill="#333d63" opacity="0.69"></circle><circle cx="664.7" cy="240.9" r="2.3" fill="#2b3352" opacity="0.44"></circle><text x="660.8" y="242.5" font-size="11" fill="#4f46e5" opacity="0.51">1</text><circle cx="601.7" cy="244.8" r="1.6" fill="#3a466f" opacity="0.43"></circle><circle cx="537.0" cy="245.5" r="2.1" fill="#2b3352" opacity="0.90"></circle><circle cx="538.1" cy="242.1" r="2.2" fill="#333d63" opacity="0.86"></circle><line x1="581.9" y1="232.7" x2="591.7" y2="235.6" stroke="#eab308" stroke-width="1.1" opacity="0.78"></line><circle cx="651.3" cy="234.7" r="2.2" fill="#0ea5a4" opacity="0.79"></circle><circle cx="668.6" cy="236.1" r="1.7" fill="#333d63" opacity="0.83"></circle><circle cx="631.2" cy="236.1" r="1.3" fill="#3a466f" opacity="0.44"></circle><circle cx="572.0" cy="236.5" r="1.5" fill="#3a466f" opacity="0.48"></circle><text x="540.0" y="246.0" font-size="11" fill="#4f46e5" opacity="0.62">0</text><line x1="560.7" y1="251.5" x2="570.1" y2="249.6" stroke="#2b3352" stroke-width="1.1" opacity="0.52"></line><text x="616.7" y="245.0" font-size="10" fill="#3a466f" opacity="0.51">0</text><circle cx="656.2" cy="243.4" r="1.1" fill="#3a466f" opacity="0.45"></circle><text x="639.5" y="230.6" font-size="11" fill="#4f46e5" opacity="0.52">0</text><line x1="592.4" y1="227.8" x2="585.0" y2="227.7" stroke="#2b3352" stroke-width="1.1" opacity="0.70"></line><circle cx="555.6" cy="239.0" r="1.1" fill="#3a466f" opacity="0.82"></circle><text x="556.5" y="251.4" font-size="12" fill="#0ea5a4" opacity="0.70">1</text><line x1="602.6" y1="251.4" x2="607.9" y2="255.9" stroke="#333d63" stroke-width="1.1" opacity="0.37"></line><circle cx="637.0" cy="251.4" r="2.2" fill="#2b3352" opacity="0.69"></circle><circle cx="631.0" cy="234.9" r="1.1" fill="#0ea5a4" opacity="0.62"></circle><circle cx="614.4" cy="228.0" r="2.2" fill="#333d63" opacity="0.48"></circle><text x="579.3" y="231.1" font-size="12" fill="#333d63" opacity="0.42">1</text><line x1="569.7" y1="245.4" x2="580.5" y2="247.1" stroke="#eab308" stroke-width="1.1" opacity="0.62"></line><circle cx="594.8" cy="254.6" r="2.2" fill="#333d63" opacity="0.70"></circle><line x1="605.2" y1="260.3" x2="615.3" y2="253.3" stroke="#3a466f" stroke-width="1.1" opacity="0.80"></line><line x1="617.9" y1="247.7" x2="614.0" y2="239.3" stroke="#3a466f" stroke-width="1.1" opacity="0.59"></line><circle cx="601.2" cy="218.9" r="2.3" fill="#333d63" opacity="0.48"></circle><circle cx="593.3" cy="217.5" r="1.0" fill="#eab308" opacity="0.72"></circle><text x="590.3" y="237.7" font-size="10" fill="#3a466f" opacity="0.58">0</text><text x="596.3" y="256.6" font-size="11" fill="#2b3352" opacity="0.60">1</text><circle cx="606.6" cy="256.5" r="1.4" fill="#0ea5a4" opacity="0.72"></circle><line x1="599.1" y1="252.7" x2="595.7" y2="248.8" stroke="#333d63" stroke-width="1.1" opacity="0.65"></line><text x="584.2" y="237.7" font-size="11" fill="#3a466f" opacity="0.52">0</text><circle cx="592.4" cy="220.2" r="1.9" fill="#0ea5a4" opacity="0.68"></circle><circle cx="608.2" cy="224.6" r="1.5" fill="#2b3352" opacity="0.46"></circle><circle cx="622.8" cy="246.1" r="2.3" fill="#3a466f" opacity="0.42"></circle><circle cx="606.3" cy="255.2" r="2.3" fill="#3a466f" opacity="0.63"></circle><text x="585.0" y="249.8" font-size="12" fill="#2b3352" opacity="0.60">0</text><line x1="575.3" y1="245.5" x2="573.9" y2="240.0" stroke="#0ea5a4" stroke-width="1.1" opacity="0.74"></line><circle cx="578.0" cy="228.9" r="2.0" fill="#333d63" opacity="0.71"></circle><circle cx="604.5" cy="226.2" r="1.3" fill="#2b3352" opacity="0.78"></circle><text x="635.2" y="239.5" font-size="10" fill="#333d63" opacity="0.66">0</text><circle cx="628.9" cy="243.9" r="1.8" fill="#0ea5a4" opacity="0.58"></circle><circle cx="595.2" cy="249.9" r="2.3" fill="#3a466f" opacity="0.69"></circle><line x1="565.9" y1="244.4" x2="557.8" y2="239.0" stroke="#2b3352" stroke-width="1.1" opacity="0.63"></line><line x1="567.0" y1="238.5" x2="572.0" y2="234.1" stroke="#2b3352" stroke-width="1.1" opacity="0.62"></line><line x1="600.2" y1="229.3" x2="612.4" y2="235.4" stroke="#4f46e5" stroke-width="1.1" opacity="0.56"></line><circle cx="626.3" cy="235.5" r="1.8" fill="#333d63" opacity="0.82"></circle><circle cx="642.7" cy="242.0" r="1.3" fill="#3a466f" opacity="0.72"></circle><circle cx="609.0" cy="240.2" r="2.2" fill="#3a466f" opacity="0.74"></circle><line x1="571.2" y1="237.9" x2="562.5" y2="244.9" stroke="#2b3352" stroke-width="1.1" opacity="0.67"></line><text x="558.0" y="241.2" font-size="10" fill="#eab308" opacity="0.41">0</text><circle cx="583.3" cy="239.1" r="1.1" fill="#3a466f" opacity="0.56"></circle><circle cx="623.1" cy="244.2" r="1.3" fill="#4f46e5" opacity="0.70"></circle><circle cx="643.3" cy="238.3" r="1.1" fill="#333d63" opacity="0.82"></circle><circle cx="626.9" cy="235.5" r="1.8" fill="#3a466f" opacity="0.89"></circle><text x="585.6" y="243.3" font-size="11" fill="#333d63" opacity="0.82">1</text><circle cx="568.7" cy="236.3" r="2.0" fill="#333d63" opacity="0.59"></circle><circle cx="567.1" cy="246.2" r="2.2" fill="#4f46e5" opacity="0.49"></circle><circle cx="600.6" cy="239.9" r="1.7" fill="#0ea5a4" opacity="0.77"></circle><circle cx="627.6" cy="245.3" r="1.9" fill="#333d63" opacity="0.68"></circle><text x="633.4" y="237.9" font-size="10" fill="#2b3352" opacity="0.46">0</text><text x="602.4" y="231.6" font-size="12" fill="#2b3352" opacity="0.70">0</text><circle cx="578.3" cy="234.3" r="2.4" fill="#3a466f" opacity="0.48"></circle><line x1="570.4" y1="240.2" x2="578.8" y2="247.1" stroke="#3a466f" stroke-width="1.1" opacity="0.71"></line><circle cx="585.8" cy="254.2" r="1.7" fill="#4f46e5" opacity="0.82"></circle><line x1="609.3" y1="253.5" x2="619.1" y2="246.2" stroke="#eab308" stroke-width="1.1" opacity="0.55"></line><text x="618.1" y="237.9" font-size="10" fill="#0ea5a4" opacity="0.69">1</text><text x="607.6" y="229.3" font-size="12" fill="#2b3352" opacity="0.77">0</text><line x1="597.7" y1="230.6" x2="589.8" y2="230.9" stroke="#333d63" stroke-width="1.1" opacity="0.50"></line><line x1="587.5" y1="236.9" x2="582.2" y2="244.3" stroke="#333d63" stroke-width="1.1" opacity="0.43"></line><circle cx="591.2" cy="250.4" r="2.3" fill="#3a466f" opacity="0.49"></circle><circle cx="605.2" cy="252.7" r="2.3" fill="#2b3352" opacity="0.55"></circle><circle cx="612.4" cy="243.3" r="1.6" fill="#3a466f" opacity="0.54"></circle><circle cx="602.3" cy="232.0" r="2.3" fill="#333d63" opacity="0.77"></circle><line x1="593.5" y1="222.6" x2="598.2" y2="228.1" stroke="#3a466f" stroke-width="1.1" opacity="0.71"></line><line x1="595.4" y1="231.3" x2="600.9" y2="242.2" stroke="#3a466f" stroke-width="1.1" opacity="0.48"></line><line x1="604.1" y1="241.3" x2="597.7" y2="251.3" stroke="#0ea5a4" stroke-width="1.1" opacity="0.56"></line><text x="605.0" y="254.4" font-size="10" fill="#333d63" opacity="0.61">0</text><circle cx="593.0" cy="251.7" r="1.1" fill="#3a466f" opacity="0.49"></circle><text x="594.2" y="236.5" font-size="10" fill="#4f46e5" opacity="0.74">1</text><circle cx="600.2" cy="227.5" r="1.1" fill="#3a466f" opacity="0.43"></circle><circle cx="602.1" cy="234.3" r="1.4" fill="#4f46e5" opacity="0.62"></circle><circle cx="616.3" cy="240.8" r="1.9" fill="#3a466f" opacity="0.82"></circle><circle cx="609.0" cy="251.1" r="1.8" fill="#3a466f" opacity="0.83"></circle><line x1="599.1" y1="248.1" x2="586.0" y2="248.9" stroke="#3a466f" stroke-width="1.1" opacity="0.56"></line><circle cx="589.9" cy="248.6" r="2.1" fill="#3a466f" opacity="0.51"></circle><line x1="590.4" y1="231.7" x2="585.1" y2="236.7" stroke="#333d63" stroke-width="1.1" opacity="0.43"></line><circle cx="602.3" cy="226.3" r="2.1" fill="#2b3352" opacity="0.54"></circle><circle cx="619.1" cy="230.6" r="1.3" fill="#333d63" opacity="0.53"></circle><text x="617.6" y="246.9" font-size="11" fill="#4f46e5" opacity="0.50">1</text><circle cx="597.9" cy="249.3" r="2.0" fill="#4f46e5" opacity="0.52"></circle><line x1="588.6" y1="248.2" x2="584.1" y2="245.5" stroke="#4f46e5" stroke-width="1.1" opacity="0.56"></line><line x1="582.0" y1="237.8" x2="571.5" y2="237.4" stroke="#333d63" stroke-width="1.1" opacity="0.51"></line><circle cx="587.3" cy="231.3" r="2.1" fill="#3a466f" opacity="0.88"></circle><line x1="618.2" y1="238.1" x2="624.2" y2="231.2" stroke="#0ea5a4" stroke-width="1.1" opacity="0.37"></line><circle cx="624.2" cy="243.1" r="1.9" fill="#2b3352" opacity="0.59"></circle><line x1="612.3" y1="241.2" x2="601.2" y2="244.2" stroke="#0ea5a4" stroke-width="1.1" opacity="0.36"></line><text x="586.4" y="236.6" font-size="11" fill="#2b3352" opacity="0.55">1</text><line x1="575.7" y1="237.2" x2="571.4" y2="248.6" stroke="#0ea5a4" stroke-width="1.1" opacity="0.46"></line><circle cx="576.8" cy="237.1" r="2.1" fill="#3a466f" opacity="0.56"></circle><circle cx="605.4" cy="236.9" r="1.5" fill="#2b3352" opacity="0.54"></circle><circle cx="623.4" cy="242.2" r="2.1" fill="#4f46e5" opacity="0.67"></circle><text x="617.6" y="244.7" font-size="11" fill="#2b3352" opacity="0.46">1</text><line x1="603.0" y1="241.5" x2="597.6" y2="239.7" stroke="#333d63" stroke-width="1.1" opacity="0.42"></line><circle cx="578.7" cy="242.3" r="1.6" fill="#0ea5a4" opacity="0.72"></circle><circle cx="576.8" cy="245.6" r="1.7" fill="#333d63" opacity="0.83"></circle><line x1="595.3" y1="242.5" x2="608.1" y2="244.3" stroke="#4f46e5" stroke-width="1.1" opacity="0.72"></line><circle cx="614.4" cy="237.9" r="2.2" fill="#3a466f" opacity="0.69"></circle><circle cx="621.2" cy="235.6" r="1.2" fill="#3a466f" opacity="0.41"></circle><text x="611.2" y="229.9" font-size="11" fill="#4f46e5" opacity="0.59">0</text><line x1="594.2" y1="238.4" x2="582.6" y2="235.6" stroke="#333d63" stroke-width="1.1" opacity="0.59"></line><line x1="579.3" y1="237.5" x2="588.7" y2="246.4" stroke="#0ea5a4" stroke-width="1.1" opacity="0.50"></line><line x1="586.1" y1="248.0" x2="598.6" y2="244.1" stroke="#3a466f" stroke-width="1.1" opacity="0.47"></line><line x1="606.2" y1="241.4" x2="611.4" y2="249.4" stroke="#3a466f" stroke-width="1.1" opacity="0.80"></line><circle cx="608.4" cy="241.6" r="1.5" fill="#4f46e5" opacity="0.83"></circle><text x="609.8" y="240.6" font-size="11" fill="#4f46e5" opacity="0.78">1</text><circle cx="598.4" cy="234.1" r="2.3" fill="#333d63" opacity="0.53"></circle><circle cx="590.1" cy="232.2" r="1.8" fill="#eab308" opacity="0.48"></circle><circle cx="595.1" cy="241.0" r="2.1" fill="#4f46e5" opacity="0.41"></circle><circle cx="604.2" cy="248.8" r="1.2" fill="#333d63" opacity="0.67"></circle><circle cx="609.1" cy="250.1" r="1.4" fill="#333d63" opacity="0.80"></circle><circle cx="605.2" cy="237.8" r="2.4" fill="#333d63" opacity="0.48"></circle><circle cx="603.1" cy="238.0" r="1.4" fill="#2b3352" opacity="0.76"></circle><circle cx="598.9" cy="237.5" r="1.9" fill="#2b3352" opacity="0.74"></circle><text x="597.8" y="245.6" font-size="12" fill="#333d63" opacity="0.66">0</text><line x1="595.5" y1="247.7" x2="608.2" y2="246.3" stroke="#3a466f" stroke-width="1.1" opacity="0.47"></line><circle cx="596.2" cy="241.5" r="1.5" fill="#3a466f" opacity="0.59"></circle></g><text x="24" y="460" font-family="Consolas, Menlo, monospace" font-size="13" fill="#4a5578">2026-07-21 · sin(7t+φ)·e^(−λt), sin(8t) · seed 6e8a15</text></svg>