<svg width="1200" height="480" viewBox="0 0 1200 480" xmlns="http://www.w3.org/2000/svg" role="img" aria-label="Generative art for 2026-08-19"><rect width="1200" height="480" fill="#0b0e1a"/><g font-family="Consolas, Menlo, monospace"><circle cx="311.2" cy="240.0" r="2.3" fill="#2b3352" opacity="0.56"></circle><line x1="196.1" y1="116.3" x2="190.5" y2="108.9" stroke="#3a466f" stroke-width="1.1" opacity="0.75"></line><text x="149.4" y="83.3" font-size="11" fill="#3a466f" opacity="0.49">0</text><line x1="156.9" y1="170.3" x2="160.2" y2="176.6" stroke="#333d63" stroke-width="1.1" opacity="0.43"></line><circle cx="236.9" cy="312.5" r="2.1" fill="#2b3352" opacity="0.66"></circle><line x1="336.6" y1="399.2" x2="342.2" y2="400.1" stroke="#2b3352" stroke-width="1.1" opacity="0.65"></line><circle cx="475.0" cy="374.3" r="1.4" fill="#0ea5a4" opacity="0.82"></circle><circle cx="607.9" cy="260.9" r="2.2" fill="#2b3352" opacity="0.42"></circle><line x1="723.8" y1="136.0" x2="730.7" y2="130.7" stroke="#3a466f" stroke-width="1.1" opacity="0.46"></line><line x1="839.4" y1="84.4" x2="848.6" y2="85.2" stroke="#4f46e5" stroke-width="1.1" opacity="0.66"></line><text x="939.6" y="141.3" font-size="10" fill="#2b3352" opacity="0.44">0</text><text x="993.8" y="276.7" font-size="12" fill="#333d63" opacity="0.54">0</text><text x="1002.5" y="365.4" font-size="10" fill="#0ea5a4" opacity="0.63">0</text><circle cx="948.8" cy="361.3" r="2.1" fill="#0ea5a4" opacity="0.42"></circle><text x="838.4" y="268.3" font-size="10" fill="#4f46e5" opacity="0.54">1</text><circle cx="709.7" cy="158.8" r="1.4" fill="#4f46e5" opacity="0.52"></circle><circle cx="579.3" cy="101.6" r="1.5" fill="#4f46e5" opacity="0.47"></circle><circle cx="456.9" cy="143.7" r="2.4" fill="#eab308" opacity="0.77"><animate attributeName="opacity" values="0.25;0.9;0.25" dur="7.2s" repeatCount="indefinite"/></circle><line x1="365.1" y1="264.5" x2="358.4" y2="271.9" stroke="#3a466f" stroke-width="1.1" opacity="0.65"></line><line x1="296.1" y1="355.0" x2="294.1" y2="360.2" stroke="#0ea5a4" stroke-width="1.1" opacity="0.50"></line><line x1="270.5" y1="374.7" x2="267.8" y2="369.4" stroke="#0ea5a4" stroke-width="1.1" opacity="0.51"></line><circle cx="262.0" cy="294.7" r="1.6" fill="#0ea5a4" opacity="0.79"></circle><circle cx="307.0" cy="186.2" r="1.7" fill="#4f46e5" opacity="0.75"></circle><circle cx="377.7" cy="114.0" r="1.2" fill="#0ea5a4" opacity="0.48"></circle><circle cx="487.8" cy="139.7" r="1.3" fill="#333d63" opacity="0.75"></circle><circle cx="613.4" cy="242.3" r="1.8" fill="#4f46e5" opacity="0.58"></circle><line x1="733.2" y1="334.0" x2="743.6" y2="338.0" stroke="#3a466f" stroke-width="1.1" opacity="0.68"></line><circle cx="828.6" cy="352.5" r="1.8" fill="#2b3352" opacity="0.47"></circle><circle cx="886.5" cy="298.8" r="1.1" fill="#333d63" opacity="0.53"></circle><text x="908.8" y="187.3" font-size="10" fill="#eab308" opacity="0.63">1<animate attributeName="opacity" values="0.25;0.9;0.25" dur="7.3s" repeatCount="indefinite"/></text><circle cx="887.5" cy="118.7" r="1.4" fill="#4f46e5" opacity="0.46"></circle><circle cx="846.7" cy="137.3" r="2.4" fill="#4f46e5" opacity="0.61"></circle><circle cx="778.4" cy="225.8" r="1.6" fill="#4f46e5" opacity="0.57"></circle><line x1="694.6" y1="320.7" x2="685.7" y2="323.6" stroke="#333d63" stroke-width="1.1" opacity="0.64"></line><circle cx="594.7" cy="356.2" r="2.0" fill="#2b3352" opacity="0.85"></circle><text x="484.5" y="311.5" font-size="12" fill="#333d63" opacity="0.46">0</text><text x="399.1" y="218.0" font-size="11" fill="#333d63" opacity="0.62">1</text><line x1="330.0" y1="150.5" x2="327.7" y2="144.1" stroke="#2b3352" stroke-width="1.1" opacity="0.71"></line><circle cx="308.7" cy="149.4" r="2.2" fill="#3a466f" opacity="0.50"></circle><circle cx="331.7" cy="218.2" r="2.4" fill="#3a466f" opacity="0.60"></circle><circle cx="387.8" cy="302.2" r="2.1" fill="#3a466f" opacity="0.88"></circle><circle cx="455.6" cy="346.2" r="1.8" fill="#eab308" opacity="0.42"><animate attributeName="opacity" values="0.25;0.9;0.25" dur="13.4s" repeatCount="indefinite"/></circle><line x1="539.9" y1="315.0" x2="544.9" y2="309.9" stroke="#0ea5a4" stroke-width="1.1" opacity="0.39"><animate attributeName="opacity" values="0.25;0.9;0.25" dur="10.3s" repeatCount="indefinite"/></line><line x1="620.2" y1="230.2" x2="628.8" y2="221.9" stroke="#0ea5a4" stroke-width="1.1" opacity="0.43"></line><circle cx="702.8" cy="155.2" r="2.0" fill="#eab308" opacity="0.41"><animate attributeName="opacity" values="0.25;0.9;0.25" dur="13.9s" repeatCount="indefinite"/></circle><line x1="775.2" y1="140.7" x2="781.1" y2="148.6" stroke="#eab308" stroke-width="1.1" opacity="0.72"><animate attributeName="opacity" values="0.25;0.9;0.25" dur="8.3s" repeatCount="indefinite"/></line><circle cx="825.2" cy="199.7" r="1.4" fill="#333d63" opacity="0.83"></circle><circle cx="848.7" cy="275.2" r="1.9" fill="#2b3352" opacity="0.45"></circle><circle cx="843.9" cy="329.6" r="2.0" fill="#0ea5a4" opacity="0.79"></circle><text x="794.4" y="301.5" font-size="10" fill="#2b3352" opacity="0.60">0</text><text x="732.2" y="238.6" font-size="12" fill="#333d63" opacity="0.68">0</text><circle cx="639.6" cy="172.5" r="2.0" fill="#333d63" opacity="0.81"></circle><line x1="560.5" y1="159.5" x2="548.4" y2="159.3" stroke="#0ea5a4" stroke-width="1.1" opacity="0.58"><animate attributeName="opacity" values="0.25;0.9;0.25" dur="7.7s" repeatCount="indefinite"/></line><text x="485.7" y="201.3" font-size="12" fill="#2b3352" opacity="0.43">1</text><circle cx="440.4" cy="277.9" r="2.2" fill="#3a466f" opacity="0.53"></circle><text x="407.0" y="326.5" font-size="10" fill="#2b3352" opacity="0.84">1</text><circle cx="393.0" cy="307.7" r="1.5" fill="#2b3352" opacity="0.70"></circle><circle cx="391.0" cy="255.7" r="1.4" fill="#eab308" opacity="0.87"><animate attributeName="opacity" values="0.25;0.9;0.25" dur="11.0s" repeatCount="indefinite"/></circle><line x1="423.7" y1="184.9" x2="433.3" y2="179.1" stroke="#3a466f" stroke-width="1.1" opacity="0.39"></line><circle cx="482.3" cy="159.9" r="1.6" fill="#333d63" opacity="0.57"></circle><text x="556.8" y="196.9" font-size="12" fill="#4f46e5" opacity="0.58">0</text><circle cx="636.2" cy="257.6" r="2.3" fill="#3a466f" opacity="0.85"></circle><text x="710.0" y="303.5" font-size="10" fill="#2b3352" opacity="0.54">0</text><text x="760.3" y="308.7" font-size="12" fill="#4f46e5" opacity="0.42">1</text><text x="784.0" y="258.3" font-size="12" fill="#0ea5a4" opacity="0.43">1</text><line x1="787.4" y1="187.7" x2="787.9" y2="182.5" stroke="#333d63" stroke-width="1.1" opacity="0.35"></line><line x1="769.1" y1="168.9" x2="765.8" y2="161.0" stroke="#4f46e5" stroke-width="1.1" opacity="0.48"></line><circle cx="744.7" cy="190.9" r="1.7" fill="#3a466f" opacity="0.79"></circle><line x1="699.5" y1="249.5" x2="692.7" y2="254.1" stroke="#3a466f" stroke-width="1.1" opacity="0.38"></line><circle cx="643.0" cy="302.7" r="1.3" fill="#4f46e5" opacity="0.62"></circle><line x1="575.0" y1="308.8" x2="565.5" y2="303.3" stroke="#3a466f" stroke-width="1.1" opacity="0.78"></line><circle cx="507.3" cy="269.2" r="2.2" fill="#2b3352" opacity="0.70"></circle><line x1="461.3" y1="208.7" x2="454.4" y2="203.1" stroke="#eab308" stroke-width="1.1" opacity="0.45"><animate attributeName="opacity" values="0.25;0.9;0.25" dur="10.0s" repeatCount="indefinite"/></line><circle cx="430.9" cy="174.1" r="1.3" fill="#2b3352" opacity="0.82"></circle><line x1="425.2" y1="191.7" x2="424.0" y2="196.8" stroke="#eab308" stroke-width="1.1" opacity="0.63"><animate attributeName="opacity" values="0.25;0.9;0.25" dur="13.8s" repeatCount="indefinite"/></line><circle cx="438.5" cy="239.1" r="1.2" fill="#3a466f" opacity="0.71"></circle><circle cx="473.3" cy="293.1" r="2.3" fill="#2b3352" opacity="0.76"></circle><text x="533.1" y="305.2" font-size="10" fill="#2b3352" opacity="0.43">1</text><text x="583.3" y="267.2" font-size="12" fill="#4f46e5" opacity="0.68">1</text><text x="628.6" y="222.3" font-size="10" fill="#0ea5a4" opacity="0.60">0</text><text x="678.8" y="181.8" font-size="12" fill="#2b3352" opacity="0.49">1</text><circle cx="717.0" cy="182.2" r="1.5" fill="#2b3352" opacity="0.44"></circle><text x="742.1" y="231.6" font-size="12" fill="#0ea5a4" opacity="0.53">1</text><circle cx="753.8" cy="281.6" r="2.2" fill="#4f46e5" opacity="0.52"></circle><text x="747.8" y="296.1" font-size="11" fill="#3a466f" opacity="0.46">1</text><line x1="718.6" y1="268.3" x2="708.4" y2="264.2" stroke="#2b3352" stroke-width="1.1" opacity="0.48"></line><line x1="660.7" y1="228.1" x2="657.0" y2="219.3" stroke="#2b3352" stroke-width="1.1" opacity="0.56"></line><line x1="614.5" y1="186.1" x2="609.1" y2="186.3" stroke="#2b3352" stroke-width="1.1" opacity="0.55"></line><line x1="559.4" y1="192.0" x2="550.1" y2="197.8" stroke="#0ea5a4" stroke-width="1.1" opacity="0.77"><animate attributeName="opacity" values="0.25;0.9;0.25" dur="9.3s" repeatCount="indefinite"/></line><line x1="523.3" y1="232.4" x2="511.6" y2="238.4" stroke="#0ea5a4" stroke-width="1.1" opacity="0.72"></line><line x1="495.7" y1="270.5" x2="490.5" y2="275.9" stroke="#2b3352" stroke-width="1.1" opacity="0.45"></line><text x="471.5" y="299.5" font-size="11" fill="#4f46e5" opacity="0.63">0</text><circle cx="472.1" cy="277.5" r="2.0" fill="#4f46e5" opacity="0.65"></circle><text x="479.9" y="231.9" font-size="10" fill="#3a466f" opacity="0.67">0</text><circle cx="494.7" cy="195.1" r="1.2" fill="#333d63" opacity="0.70"></circle><line x1="538.2" y1="198.7" x2="548.3" y2="196.5" stroke="#333d63" stroke-width="1.1" opacity="0.43"></line><text x="584.3" y="216.7" font-size="10" fill="#3a466f" opacity="0.53">1</text><circle cx="631.9" cy="257.7" r="2.1" fill="#0ea5a4" opacity="0.79"></circle><circle cx="676.0" cy="288.6" r="2.2" fill="#0ea5a4" opacity="0.68"></circle><line x1="711.0" y1="270.2" x2="706.9" y2="264.5" stroke="#3a466f" stroke-width="1.1" opacity="0.51"></line><circle cx="714.0" cy="232.2" r="1.7" fill="#4f46e5" opacity="0.70"></circle><line x1="711.4" y1="204.5" x2="715.6" y2="197.2" stroke="#2b3352" stroke-width="1.1" opacity="0.38"></line><circle cx="698.6" cy="195.8" r="1.0" fill="#0ea5a4" opacity="0.52"></circle><line x1="675.9" y1="216.5" x2="675.0" y2="226.3" stroke="#0ea5a4" stroke-width="1.1" opacity="0.71"></line><line x1="647.1" y1="259.8" x2="642.1" y2="263.4" stroke="#3a466f" stroke-width="1.1" opacity="0.45"></line><circle cx="609.1" cy="278.7" r="2.0" fill="#4f46e5" opacity="0.51"></circle><circle cx="575.1" cy="273.2" r="1.9" fill="#3a466f" opacity="0.52"></circle><circle cx="538.2" cy="243.5" r="1.9" fill="#2b3352" opacity="0.54"></circle><text x="510.2" y="208.1" font-size="12" fill="#4f46e5" opacity="0.65">1</text><circle cx="489.9" cy="204.3" r="2.0" fill="#2b3352" opacity="0.48"></circle><circle cx="485.8" cy="217.1" r="1.2" fill="#3a466f" opacity="0.65"></circle><text x="509.3" y="253.6" font-size="11" fill="#3a466f" opacity="0.59">1</text><line x1="533.2" y1="274.9" x2="541.4" y2="282.5" stroke="#2b3352" stroke-width="1.1" opacity="0.72"></line><line x1="568.5" y1="281.3" x2="570.6" y2="269.3" stroke="#2b3352" stroke-width="1.1" opacity="0.68"></line><text x="596.7" y="253.4" font-size="10" fill="#4f46e5" opacity="0.57">1</text><circle cx="633.5" cy="220.3" r="2.1" fill="#eab308" opacity="0.81"><animate attributeName="opacity" values="0.25;0.9;0.25" dur="11.4s" repeatCount="indefinite"/></circle><text x="656.9" y="199.7" font-size="10" fill="#0ea5a4" opacity="0.76">1</text><circle cx="679.8" cy="216.8" r="1.0" fill="#eab308" opacity="0.78"></circle><circle cx="701.2" cy="237.7" r="2.0" fill="#4f46e5" opacity="0.62"></circle><circle cx="701.1" cy="264.3" r="1.4" fill="#0ea5a4" opacity="0.81"></circle><circle cx="688.1" cy="268.7" r="1.4" fill="#4f46e5" opacity="0.45"></circle><text x="657.9" y="249.5" font-size="12" fill="#4f46e5" opacity="0.49">0</text><line x1="626.8" y1="225.8" x2="624.2" y2="212.8" stroke="#4f46e5" stroke-width="1.1" opacity="0.72"></line><line x1="599.3" y1="206.6" x2="592.7" y2="205.7" stroke="#333d63" stroke-width="1.1" opacity="0.62"></line><line x1="571.5" y1="217.2" x2="558.3" y2="219.2" stroke="#2b3352" stroke-width="1.1" opacity="0.72"></line><line x1="548.8" y1="243.7" x2="543.3" y2="245.7" stroke="#3a466f" stroke-width="1.1" opacity="0.37"></line><circle cx="531.0" cy="268.4" r="1.7" fill="#0ea5a4" opacity="0.51"></circle><circle cx="520.4" cy="276.9" r="1.3" fill="#0ea5a4" opacity="0.66"></circle><circle cx="517.8" cy="251.3" r="1.0" fill="#0ea5a4" opacity="0.67"></circle><circle cx="524.7" cy="232.3" r="1.1" fill="#333d63" opacity="0.59"></circle><circle cx="537.1" cy="212.8" r="1.0" fill="#4f46e5" opacity="0.51"></circle><circle cx="571.0" cy="215.3" r="2.2" fill="#2b3352" opacity="0.60"></circle><text x="603.1" y="239.7" font-size="12" fill="#333d63" opacity="0.63">0</text><circle cx="635.4" cy="264.5" r="1.9" fill="#0ea5a4" opacity="0.82"></circle><text x="648.6" y="269.9" font-size="11" fill="#4f46e5" opacity="0.51">1</text><text x="669.4" y="253.2" font-size="11" fill="#2b3352" opacity="0.44">1</text><circle cx="680.7" cy="229.2" r="1.2" fill="#0ea5a4" opacity="0.41"></circle><circle cx="670.9" cy="214.1" r="1.8" fill="#2b3352" opacity="0.73"></circle><line x1="656.7" y1="218.3" x2="661.3" y2="212.2" stroke="#4f46e5" stroke-width="1.1" opacity="0.56"></line><line x1="645.5" y1="226.9" x2="642.9" y2="234.2" stroke="#0ea5a4" stroke-width="1.1" opacity="0.59"></line><circle cx="628.3" cy="257.4" r="1.3" fill="#0ea5a4" opacity="0.71"></circle><line x1="607.1" y1="265.4" x2="595.7" y2="267.3" stroke="#2b3352" stroke-width="1.1" opacity="0.54"></line><text x="578.2" y="262.2" font-size="12" fill="#333d63" opacity="0.69">0</text><text x="552.6" y="238.8" font-size="11" fill="#eab308" opacity="0.48">0</text><circle cx="540.1" cy="217.8" r="1.2" fill="#2b3352" opacity="0.53"></circle><line x1="531.5" y1="221.0" x2="524.3" y2="212.1" stroke="#333d63" stroke-width="1.1" opacity="0.63"></line><line x1="530.4" y1="235.1" x2="543.1" y2="237.6" stroke="#3a466f" stroke-width="1.1" opacity="0.49"></line><circle cx="542.4" cy="256.0" r="2.2" fill="#2b3352" opacity="0.59"></circle><circle cx="564.3" cy="262.9" r="1.4" fill="#333d63" opacity="0.52"></circle><circle cx="578.4" cy="261.5" r="1.5" fill="#4f46e5" opacity="0.80"></circle><line x1="606.8" y1="240.5" x2="607.4" y2="234.2" stroke="#4f46e5" stroke-width="1.1" opacity="0.60"></line><circle cx="619.6" cy="222.3" r="2.0" fill="#3a466f" opacity="0.62"></circle><text x="644.5" y="210.3" font-size="12" fill="#2b3352" opacity="0.84">1</text><text x="657.4" y="228.8" font-size="12" fill="#333d63" opacity="0.71">1</text><circle cx="656.8" cy="243.1" r="1.4" fill="#3a466f" opacity="0.86"></circle><line x1="660.6" y1="262.5" x2="656.7" y2="258.8" stroke="#4f46e5" stroke-width="1.1" opacity="0.61"></line><circle cx="649.0" cy="258.0" r="1.7" fill="#333d63" opacity="0.79"></circle><circle cx="639.1" cy="238.1" r="1.4" fill="#4f46e5" opacity="0.88"></circle><line x1="614.8" y1="219.4" x2="609.9" y2="222.2" stroke="#0ea5a4" stroke-width="1.1" opacity="0.61"></line><text x="589.3" y="218.5" font-size="10" fill="#333d63" opacity="0.83">1</text><line x1="575.1" y1="229.0" x2="568.8" y2="233.5" stroke="#333d63" stroke-width="1.1" opacity="0.71"></line><line x1="555.8" y1="241.9" x2="558.4" y2="247.3" stroke="#2b3352" stroke-width="1.1" opacity="0.71"></line><circle cx="553.0" cy="265.1" r="1.4" fill="#333d63" opacity="0.67"></circle><circle cx="552.1" cy="264.8" r="2.2" fill="#eab308" opacity="0.47"></circle><line x1="554.4" y1="243.4" x2="549.5" y2="242.3" stroke="#4f46e5" stroke-width="1.1" opacity="0.69"></line><circle cx="560.0" cy="232.2" r="1.2" fill="#2b3352" opacity="0.72"></circle><circle cx="566.7" cy="225.0" r="1.5" fill="#3a466f" opacity="0.73"></circle><line x1="585.7" y1="223.0" x2="589.5" y2="229.3" stroke="#2b3352" stroke-width="1.1" opacity="0.60"></line><circle cx="611.4" cy="243.9" r="2.0" fill="#333d63" opacity="0.85"></circle><text x="627.3" y="259.0" font-size="10" fill="#3a466f" opacity="0.52">0</text><line x1="636.6" y1="262.4" x2="639.4" y2="256.4" stroke="#3a466f" stroke-width="1.1" opacity="0.77"></line><line x1="647.9" y1="243.6" x2="635.1" y2="238.7" stroke="#333d63" stroke-width="1.1" opacity="0.41"></line><line x1="642.4" y1="233.1" x2="645.7" y2="229.0" stroke="#2b3352" stroke-width="1.1" opacity="0.41"></line><circle cx="648.0" cy="220.9" r="2.3" fill="#2b3352" opacity="0.73"></circle><circle cx="641.5" cy="224.1" r="1.2" fill="#333d63" opacity="0.73"></circle><line x1="620.2" y1="240.8" x2="627.9" y2="246.6" stroke="#eab308" stroke-width="1.1" opacity="0.69"></line><circle cx="617.0" cy="249.5" r="1.8" fill="#eab308" opacity="0.56"></circle><circle cx="590.3" cy="252.3" r="1.1" fill="#333d63" opacity="0.66"></circle><circle cx="584.1" cy="245.8" r="1.6" fill="#333d63" opacity="0.66"></circle><line x1="570.1" y1="232.6" x2="559.6" y2="231.2" stroke="#4f46e5" stroke-width="1.1" opacity="0.49"></line><circle cx="553.1" cy="221.0" r="1.8" fill="#0ea5a4" opacity="0.89"></circle><line x1="555.1" y1="230.6" x2="561.2" y2="219.1" stroke="#4f46e5" stroke-width="1.1" opacity="0.45"></line><line x1="562.5" y1="236.3" x2="560.7" y2="243.2" stroke="#0ea5a4" stroke-width="1.1" opacity="0.51"></line><line x1="565.8" y1="254.0" x2="575.3" y2="252.3" stroke="#2b3352" stroke-width="1.1" opacity="0.69"></line><circle cx="581.5" cy="256.9" r="1.4" fill="#4f46e5" opacity="0.67"></circle><line x1="595.1" y1="247.9" x2="599.8" y2="236.6" stroke="#333d63" stroke-width="1.1" opacity="0.50"></line><circle cx="602.9" cy="241.4" r="1.8" fill="#4f46e5" opacity="0.76"></circle><circle cx="617.7" cy="228.2" r="1.4" fill="#3a466f" opacity="0.64"></circle><line x1="632.7" y1="226.2" x2="624.0" y2="229.7" stroke="#4f46e5" stroke-width="1.1" opacity="0.75"></line><text x="633.9" y="239.9" font-size="10" fill="#2b3352" opacity="0.48">0</text><line x1="636.3" y1="253.4" x2="644.1" y2="242.8" stroke="#2b3352" stroke-width="1.1" opacity="0.77"></line><line x1="635.6" y1="256.9" x2="636.7" y2="243.9" stroke="#0ea5a4" stroke-width="1.1" opacity="0.57"></line><line x1="635.4" y1="248.8" x2="627.1" y2="247.1" stroke="#0ea5a4" stroke-width="1.1" opacity="0.60"></line><circle cx="619.0" cy="234.8" r="2.2" fill="#0ea5a4" opacity="0.48"></circle><text x="607.9" y="223.9" font-size="12" fill="#0ea5a4" opacity="0.47">1</text><line x1="597.4" y1="226.7" x2="584.4" y2="229.4" stroke="#333d63" stroke-width="1.1" opacity="0.71"></line><text x="578.2" y="239.0" font-size="12" fill="#2b3352" opacity="0.59">0</text><line x1="576.4" y1="248.6" x2="566.6" y2="248.9" stroke="#2b3352" stroke-width="1.1" opacity="0.58"></line><circle cx="565.0" cy="257.3" r="1.7" fill="#eab308" opacity="0.79"></circle><line x1="566.0" y1="251.2" x2="570.0" y2="244.5" stroke="#333d63" stroke-width="1.1" opacity="0.76"></line><line x1="565.0" y1="239.3" x2="574.2" y2="237.4" stroke="#2b3352" stroke-width="1.1" opacity="0.50"></line><line x1="576.6" y1="226.0" x2="573.1" y2="238.8" stroke="#4f46e5" stroke-width="1.1" opacity="0.60"></line><line x1="582.7" y1="222.2" x2="586.9" y2="233.3" stroke="#0ea5a4" stroke-width="1.1" opacity="0.53"></line><line x1="599.7" y1="232.0" x2="592.5" y2="243.1" stroke="#4f46e5" stroke-width="1.1" opacity="0.75"></line><line x1="604.2" y1="246.5" x2="611.5" y2="245.9" stroke="#0ea5a4" stroke-width="1.1" opacity="0.61"></line><line x1="617.8" y1="254.7" x2="623.0" y2="245.0" stroke="#2b3352" stroke-width="1.1" opacity="0.60"></line><circle cx="629.7" cy="255.1" r="2.0" fill="#333d63" opacity="0.45"></circle><circle cx="634.6" cy="240.6" r="1.7" fill="#0ea5a4" opacity="0.41"></circle><circle cx="625.3" cy="227.5" r="1.1" fill="#333d63" opacity="0.80"></circle><line x1="624.4" y1="231.8" x2="626.5" y2="224.0" stroke="#3a466f" stroke-width="1.1" opacity="0.55"></line><circle cx="622.7" cy="231.6" r="2.4" fill="#2b3352" opacity="0.89"></circle><circle cx="607.6" cy="240.1" r="1.8" fill="#333d63" opacity="0.82"></circle><text x="606.6" y="248.2" font-size="12" fill="#0ea5a4" opacity="0.72">1</text><text x="598.4" y="245.2" font-size="11" fill="#333d63" opacity="0.54">1</text><circle cx="588.9" cy="242.2" r="2.1" fill="#2b3352" opacity="0.80"></circle><line x1="582.8" y1="230.1" x2="574.4" y2="233.7" stroke="#2b3352" stroke-width="1.1" opacity="0.37"></line><circle cx="569.9" cy="229.1" r="1.2" fill="#4f46e5" opacity="0.70"></circle><circle cx="572.3" cy="239.1" r="2.3" fill="#333d63" opacity="0.55"></circle><circle cx="574.1" cy="246.9" r="2.1" fill="#0ea5a4" opacity="0.55"></circle><line x1="578.4" y1="252.5" x2="583.5" y2="249.5" stroke="#0ea5a4" stroke-width="1.1" opacity="0.51"></line><line x1="586.5" y1="248.3" x2="596.7" y2="249.2" stroke="#4f46e5" stroke-width="1.1" opacity="0.50"></line><circle cx="598.1" cy="239.0" r="2.1" fill="#3a466f" opacity="0.75"></circle><circle cx="611.4" cy="240.9" r="1.4" fill="#3a466f" opacity="0.60"></circle><text x="611.3" y="236.1" font-size="11" fill="#3a466f" opacity="0.83">1</text><circle cx="623.6" cy="233.0" r="1.1" fill="#2b3352" opacity="0.73"></circle><line x1="618.7" y1="236.2" x2="624.6" y2="242.1" stroke="#3a466f" stroke-width="1.1" opacity="0.71"></line><circle cx="628.4" cy="247.7" r="2.0" fill="#2b3352" opacity="0.55"></circle><text x="621.4" y="250.2" font-size="10" fill="#0ea5a4" opacity="0.56">0</text><line x1="622.1" y1="241.8" x2="608.4" y2="243.3" stroke="#0ea5a4" stroke-width="1.1" opacity="0.61"></line><line x1="610.0" y1="235.5" x2="604.9" y2="235.2" stroke="#4f46e5" stroke-width="1.1" opacity="0.54"></line><circle cx="602.1" cy="235.9" r="1.8" fill="#3a466f" opacity="0.76"></circle><text x="590.3" y="232.7" font-size="10" fill="#333d63" opacity="0.78">1</text><line x1="592.6" y1="233.6" x2="588.1" y2="238.3" stroke="#333d63" stroke-width="1.1" opacity="0.78"></line><circle cx="578.8" cy="246.0" r="1.9" fill="#2b3352" opacity="0.60"></circle><line x1="586.1" y1="243.8" x2="580.2" y2="248.0" stroke="#3a466f" stroke-width="1.1" opacity="0.68"></line><text x="573.6" y="243.3" font-size="11" fill="#eab308" opacity="0.65">0</text><circle cx="585.4" cy="240.4" r="2.3" fill="#333d63" opacity="0.82"></circle><circle cx="583.6" cy="238.0" r="1.4" fill="#2b3352" opacity="0.58"></circle><text x="589.8" y="233.5" font-size="10" fill="#2b3352" opacity="0.82">1</text><circle cx="596.5" cy="234.0" r="1.5" fill="#eab308" opacity="0.72"></circle><circle cx="609.7" cy="242.7" r="1.9" fill="#4f46e5" opacity="0.65"></circle><circle cx="614.6" cy="249.8" r="1.5" fill="#333d63" opacity="0.82"></circle><circle cx="619.7" cy="241.3" r="2.3" fill="#2b3352" opacity="0.84"></circle><circle cx="622.6" cy="233.4" r="1.1" fill="#4f46e5" opacity="0.87"></circle><text x="618.4" y="229.5" font-size="10" fill="#3a466f" opacity="0.82">0</text><text x="612.3" y="230.5" font-size="12" fill="#2b3352" opacity="0.74">0</text><line x1="611.2" y1="236.4" x2="610.1" y2="246.5" stroke="#2b3352" stroke-width="1.1" opacity="0.58"></line><text x="603.5" y="240.6" font-size="11" fill="#333d63" opacity="0.82">1</text><circle cx="604.5" cy="243.2" r="1.6" fill="#2b3352" opacity="0.80"></circle><line x1="589.9" y1="243.4" x2="600.2" y2="246.2" stroke="#333d63" stroke-width="1.1" opacity="0.51"></line></g><text x="24" y="460" font-family="Consolas, Menlo, monospace" font-size="13" fill="#4a5578">2026-08-19 · sin(2t+φ)·e^(−λt), sin(5t) · seed 800f0f</text></svg>