<svg width="1200" height="480" viewBox="0 0 1200 480" xmlns="http://www.w3.org/2000/svg" role="img" aria-label="Generative art for 2026-07-20"><rect width="1200" height="480" fill="#0b0e1a"/><g font-family="Consolas, Menlo, monospace"><line x1="525.1" y1="362.6" x2="513.9" y2="359.7" stroke="#3a466f" stroke-width="1.1" opacity="0.47"></line><circle cx="156.3" cy="251.2" r="1.4" fill="#4f46e5" opacity="0.75"></circle><circle cx="305.7" cy="193.8" r="1.9" fill="#333d63" opacity="0.75"></circle><circle cx="827.1" cy="172.6" r="1.8" fill="#3a466f" opacity="0.85"></circle><circle cx="1115.8" cy="139.5" r="2.0" fill="#4f46e5" opacity="0.47"></circle><circle cx="857.0" cy="97.6" r="1.6" fill="#333d63" opacity="0.71"></circle><circle cx="402.5" cy="68.4" r="2.4" fill="#3a466f" opacity="0.51"></circle><circle cx="302.4" cy="92.8" r="1.3" fill="#0ea5a4" opacity="0.81"></circle><line x1="649.6" y1="179.7" x2="660.0" y2="183.0" stroke="#333d63" stroke-width="1.1" opacity="0.62"></line><circle cx="968.3" cy="280.8" r="1.3" fill="#4f46e5" opacity="0.70"></circle><circle cx="831.4" cy="340.3" r="2.1" fill="#333d63" opacity="0.70"></circle><line x1="364.8" y1="346.6" x2="354.0" y2="346.5" stroke="#0ea5a4" stroke-width="1.1" opacity="0.48"></line><line x1="121.4" y1="350.0" x2="130.8" y2="351.9" stroke="#3a466f" stroke-width="1.1" opacity="0.53"></line><circle cx="369.8" cy="364.2" r="2.1" fill="#333d63" opacity="0.55"></circle><circle cx="812.7" cy="376.7" r="1.1" fill="#333d63" opacity="0.61"></circle><circle cx="903.5" cy="335.2" r="2.0" fill="#333d63" opacity="0.47"></circle><circle cx="586.5" cy="239.5" r="1.8" fill="#3a466f" opacity="0.82"></circle><text x="289.7" y="147.1" font-size="10" fill="#0ea5a4" opacity="0.40">0</text><line x1="428.7" y1="112.5" x2="441.0" y2="111.8" stroke="#2b3352" stroke-width="1.1" opacity="0.70"></line><text x="839.9" y="117.1" font-size="12" fill="#2b3352" opacity="0.82">0</text><text x="1047.2" y="136.6" font-size="11" fill="#eab308" opacity="0.66">0<animate attributeName="opacity" values="0.25;0.9;0.25" dur="6.7s" repeatCount="indefinite"/></text><circle cx="790.7" cy="150.5" r="1.6" fill="#0ea5a4" opacity="0.64"></circle><circle cx="379.5" cy="161.6" r="2.0" fill="#3a466f" opacity="0.84"></circle><text x="283.6" y="212.0" font-size="11" fill="#4f46e5" opacity="0.56">0</text><text x="591.5" y="291.8" font-size="10" fill="#2b3352" opacity="0.41">0</text><line x1="855.0" y1="363.7" x2="864.9" y2="373.5" stroke="#2b3352" stroke-width="1.1" opacity="0.58"></line><circle cx="735.3" cy="389.2" r="1.1" fill="#4f46e5" opacity="0.54"></circle><text x="365.6" y="349.4" font-size="11" fill="#eab308" opacity="0.53">0<animate attributeName="opacity" values="0.25;0.9;0.25" dur="12.6s" repeatCount="indefinite"/></text><text x="203.5" y="304.5" font-size="12" fill="#0ea5a4" opacity="0.83">1</text><circle cx="465.0" cy="290.4" r="2.4" fill="#3a466f" opacity="0.85"></circle><circle cx="841.5" cy="271.2" r="1.5" fill="#3a466f" opacity="0.83"></circle><text x="912.2" y="217.4" font-size="12" fill="#333d63" opacity="0.67">0</text><text x="633.4" y="146.6" font-size="11" fill="#333d63" opacity="0.42">0</text><text x="380.9" y="95.9" font-size="12" fill="#4f46e5" opacity="0.70">0</text><circle cx="482.1" cy="107.2" r="2.2" fill="#0ea5a4" opacity="0.58"></circle><circle cx="806.0" cy="155.3" r="1.9" fill="#2b3352" opacity="0.50"></circle><line x1="937.4" y1="203.2" x2="931.0" y2="206.9" stroke="#4f46e5" stroke-width="1.1" opacity="0.36"></line><circle cx="699.0" cy="242.2" r="1.8" fill="#3a466f" opacity="0.59"></circle><line x1="340.5" y1="252.1" x2="332.7" y2="254.2" stroke="#3a466f" stroke-width="1.1" opacity="0.57"></line><circle cx="289.2" cy="290.7" r="1.2" fill="#eab308" opacity="0.49"><animate attributeName="opacity" values="0.25;0.9;0.25" dur="12.5s" repeatCount="indefinite"/></circle><text x="564.0" y="342.1" font-size="10" fill="#333d63" opacity="0.51">0</text><line x1="810.8" y1="376.2" x2="819.4" y2="371.7" stroke="#2b3352" stroke-width="1.1" opacity="0.70"></line><text x="714.5" y="343.7" font-size="11" fill="#0ea5a4" opacity="0.47">0</text><line x1="420.7" y1="284.6" x2="414.6" y2="282.8" stroke="#4f46e5" stroke-width="1.1" opacity="0.59"></line><circle cx="318.5" cy="232.5" r="1.3" fill="#0ea5a4" opacity="0.59"><animate attributeName="opacity" values="0.25;0.9;0.25" dur="7.9s" repeatCount="indefinite"/></circle><line x1="540.5" y1="203.3" x2="546.7" y2="203.0" stroke="#2b3352" stroke-width="1.1" opacity="0.41"></line><circle cx="865.4" cy="191.0" r="1.0" fill="#2b3352" opacity="0.81"></circle><circle cx="897.2" cy="164.5" r="1.5" fill="#4f46e5" opacity="0.78"></circle><text x="635.8" y="136.4" font-size="12" fill="#3a466f" opacity="0.76">1</text><circle cx="403.8" cy="132.0" r="2.1" fill="#2b3352" opacity="0.77"></circle><line x1="482.1" y1="170.4" x2="494.1" y2="173.0" stroke="#333d63" stroke-width="1.1" opacity="0.71"></line><line x1="738.9" y1="229.1" x2="747.8" y2="232.7" stroke="#2b3352" stroke-width="1.1" opacity="0.47"></line><circle cx="833.7" cy="285.2" r="2.0" fill="#eab308" opacity="0.61"><animate attributeName="opacity" values="0.25;0.9;0.25" dur="11.3s" repeatCount="indefinite"/></circle><line x1="624.0" y1="308.6" x2="618.0" y2="308.6" stroke="#3a466f" stroke-width="1.1" opacity="0.68"></line><line x1="339.5" y1="303.1" x2="332.8" y2="304.1" stroke="#4f46e5" stroke-width="1.1" opacity="0.77"></line><text x="330.2" y="311.7" font-size="10" fill="#0ea5a4" opacity="0.79">0</text><text x="579.6" y="332.1" font-size="10" fill="#3a466f" opacity="0.50">1</text><line x1="801.3" y1="320.9" x2="806.7" y2="314.8" stroke="#2b3352" stroke-width="1.1" opacity="0.70"></line><circle cx="729.3" cy="269.9" r="1.3" fill="#3a466f" opacity="0.71"></circle><circle cx="486.9" cy="203.8" r="1.3" fill="#eab308" opacity="0.71"><animate attributeName="opacity" values="0.25;0.9;0.25" dur="6.6s" repeatCount="indefinite"/></circle><text x="408.0" y="161.4" font-size="11" fill="#333d63" opacity="0.77">1</text><text x="599.2" y="154.8" font-size="12" fill="#333d63" opacity="0.74">0</text><line x1="842.2" y1="176.3" x2="850.8" y2="175.5" stroke="#333d63" stroke-width="1.1" opacity="0.71"></line><circle cx="847.0" cy="175.8" r="2.2" fill="#333d63" opacity="0.77"></circle><circle cx="599.0" cy="185.8" r="2.1" fill="#3a466f" opacity="0.78"></circle><text x="397.2" y="196.7" font-size="12" fill="#4f46e5" opacity="0.53">1</text><circle cx="467.0" cy="246.0" r="2.1" fill="#333d63" opacity="0.73"></circle><text x="683.8" y="293.2" font-size="11" fill="#3a466f" opacity="0.69">0</text><line x1="763.6" y1="334.6" x2="756.7" y2="334.0" stroke="#4f46e5" stroke-width="1.1" opacity="0.73"></line><circle cx="591.8" cy="327.9" r="1.2" fill="#0ea5a4" opacity="0.52"></circle><line x1="375.5" y1="298.4" x2="366.3" y2="295.7" stroke="#3a466f" stroke-width="1.1" opacity="0.75"></line><line x1="388.7" y1="279.5" x2="402.5" y2="278.1" stroke="#333d63" stroke-width="1.1" opacity="0.61"></line><text x="626.8" y="272.4" font-size="12" fill="#3a466f" opacity="0.73">0</text><line x1="807.8" y1="248.8" x2="814.5" y2="241.3" stroke="#3a466f" stroke-width="1.1" opacity="0.78"></line><text x="739.8" y="214.3" font-size="12" fill="#3a466f" opacity="0.59">0</text><circle cx="534.4" cy="159.2" r="1.0" fill="#3a466f" opacity="0.47"></circle><circle cx="455.9" cy="142.6" r="2.1" fill="#4f46e5" opacity="0.42"></circle><line x1="604.7" y1="164.2" x2="612.9" y2="165.7" stroke="#2b3352" stroke-width="1.1" opacity="0.77"></line><circle cx="798.3" cy="205.8" r="1.9" fill="#2b3352" opacity="0.67"></circle><circle cx="775.8" cy="232.6" r="1.9" fill="#333d63" opacity="0.80"></circle><line x1="550.6" y1="247.7" x2="543.7" y2="247.4" stroke="#3a466f" stroke-width="1.1" opacity="0.44"></line><circle cx="396.4" cy="262.2" r="2.0" fill="#eab308" opacity="0.49"><animate attributeName="opacity" values="0.25;0.9;0.25" dur="6.8s" repeatCount="indefinite"/></circle><line x1="457.0" y1="287.6" x2="465.2" y2="289.2" stroke="#0ea5a4" stroke-width="1.1" opacity="0.44"></line><circle cx="662.8" cy="318.9" r="1.7" fill="#333d63" opacity="0.55"></circle><text x="734.5" y="325.6" font-size="12" fill="#3a466f" opacity="0.69">1</text><line x1="601.9" y1="287.4" x2="594.1" y2="286.8" stroke="#3a466f" stroke-width="1.1" opacity="0.57"></line><circle cx="433.8" cy="256.2" r="1.5" fill="#3a466f" opacity="0.70"></circle><text x="458.4" y="220.9" font-size="10" fill="#4f46e5" opacity="0.72">1</text><circle cx="663.8" cy="217.6" r="1.7" fill="#4f46e5" opacity="0.50"></circle><circle cx="809.9" cy="202.7" r="1.9" fill="#3a466f" opacity="0.69"></circle><text x="726.4" y="181.0" font-size="12" fill="#3a466f" opacity="0.54">0</text><line x1="543.9" y1="171.6" x2="538.8" y2="171.1" stroke="#4f46e5" stroke-width="1.1" opacity="0.57"></line><circle cx="471.5" cy="180.4" r="1.4" fill="#eab308" opacity="0.50"><animate attributeName="opacity" values="0.25;0.9;0.25" dur="9.6s" repeatCount="indefinite"/></circle><line x1="588.4" y1="209.2" x2="597.1" y2="211.5" stroke="#333d63" stroke-width="1.1" opacity="0.72"></line><circle cx="741.2" cy="254.9" r="2.2" fill="#4f46e5" opacity="0.49"></circle><line x1="710.9" y1="282.4" x2="704.1" y2="282.2" stroke="#4f46e5" stroke-width="1.1" opacity="0.76"></line><line x1="532.5" y1="287.4" x2="524.6" y2="286.8" stroke="#0ea5a4" stroke-width="1.1" opacity="0.71"></line><circle cx="410.8" cy="280.5" r="1.3" fill="#2b3352" opacity="0.49"></circle><circle cx="483.7" cy="289.8" r="2.0" fill="#3a466f" opacity="0.82"></circle><circle cx="663.9" cy="296.5" r="1.4" fill="#3a466f" opacity="0.44"></circle><circle cx="726.4" cy="284.7" r="1.4" fill="#2b3352" opacity="0.43"></circle><circle cx="616.6" cy="244.5" r="1.5" fill="#3a466f" opacity="0.82"></circle><line x1="482.2" y1="199.5" x2="477.0" y2="199.0" stroke="#333d63" stroke-width="1.1" opacity="0.62"></line><line x1="505.2" y1="185.2" x2="511.9" y2="185.3" stroke="#0ea5a4" stroke-width="1.1" opacity="0.66"></line><line x1="671.1" y1="188.6" x2="676.6" y2="189.1" stroke="#2b3352" stroke-width="1.1" opacity="0.49"></line><line x1="779.7" y1="204.3" x2="776.9" y2="198.6" stroke="#4f46e5" stroke-width="1.1" opacity="0.55"></line><text x="694.8" y="201.2" font-size="10" fill="#3a466f" opacity="0.42">0</text><text x="525.0" y="199.0" font-size="12" fill="#4f46e5" opacity="0.84">0</text><circle cx="472.4" cy="220.1" r="1.3" fill="#eab308" opacity="0.80"><animate attributeName="opacity" values="0.25;0.9;0.25" dur="9.2s" repeatCount="indefinite"/></circle><line x1="570.6" y1="257.6" x2="575.6" y2="258.7" stroke="#0ea5a4" stroke-width="1.1" opacity="0.72"></line><circle cx="691.4" cy="283.3" r="1.3" fill="#333d63" opacity="0.71"></circle><circle cx="672.3" cy="295.3" r="2.0" fill="#0ea5a4" opacity="0.80"><animate attributeName="opacity" values="0.25;0.9;0.25" dur="13.6s" repeatCount="indefinite"/></circle><text x="531.0" y="290.2" font-size="10" fill="#2b3352" opacity="0.79">1</text><line x1="437.7" y1="275.9" x2="442.7" y2="268.0" stroke="#3a466f" stroke-width="1.1" opacity="0.51"></line><line x1="519.7" y1="256.9" x2="530.2" y2="257.6" stroke="#333d63" stroke-width="1.1" opacity="0.44"></line><circle cx="684.2" cy="247.9" r="2.1" fill="#3a466f" opacity="0.64"></circle><circle cx="736.0" cy="240.6" r="1.6" fill="#4f46e5" opacity="0.47"></circle><circle cx="627.9" cy="211.0" r="1.3" fill="#3a466f" opacity="0.57"></circle><line x1="515.1" y1="186.1" x2="503.6" y2="181.0" stroke="#3a466f" stroke-width="1.1" opacity="0.41"></line><circle cx="534.8" cy="186.6" r="1.4" fill="#2b3352" opacity="0.88"></circle><line x1="668.5" y1="201.5" x2="678.9" y2="204.4" stroke="#3a466f" stroke-width="1.1" opacity="0.56"></line><line x1="739.6" y1="226.6" x2="727.4" y2="232.2" stroke="#3a466f" stroke-width="1.1" opacity="0.72"></line><line x1="659.3" y1="239.7" x2="649.7" y2="239.6" stroke="#4f46e5" stroke-width="1.1" opacity="0.79"></line><circle cx="518.2" cy="248.3" r="1.9" fill="#2b3352" opacity="0.73"></circle><line x1="468.6" y1="257.8" x2="477.8" y2="262.6" stroke="#3a466f" stroke-width="1.1" opacity="0.56"></line><circle cx="571.7" cy="279.9" r="1.9" fill="#333d63" opacity="0.51"></circle><line x1="677.3" y1="295.3" x2="687.2" y2="294.2" stroke="#2b3352" stroke-width="1.1" opacity="0.57"></line><line x1="664.0" y1="288.5" x2="652.1" y2="285.6" stroke="#4f46e5" stroke-width="1.1" opacity="0.59"></line><text x="546.4" y="261.9" font-size="12" fill="#2b3352" opacity="0.55">1</text><line x1="485.8" y1="238.4" x2="489.7" y2="228.4" stroke="#333d63" stroke-width="1.1" opacity="0.49"></line><line x1="558.4" y1="229.9" x2="563.8" y2="228.9" stroke="#3a466f" stroke-width="1.1" opacity="0.45"></line><line x1="690.0" y1="223.8" x2="695.5" y2="222.7" stroke="#2b3352" stroke-width="1.1" opacity="0.80"></line><circle cx="727.2" cy="209.7" r="1.5" fill="#3a466f" opacity="0.52"></circle><text x="633.3" y="198.0" font-size="11" fill="#2b3352" opacity="0.83">1</text><line x1="528.2" y1="188.8" x2="520.3" y2="193.5" stroke="#4f46e5" stroke-width="1.1" opacity="0.67"></line><line x1="541.2" y1="204.5" x2="549.0" y2="208.0" stroke="#2b3352" stroke-width="1.1" opacity="0.79"></line><circle cx="643.7" cy="236.4" r="2.3" fill="#3a466f" opacity="0.63"></circle><line x1="695.2" y1="258.7" x2="688.4" y2="265.3" stroke="#333d63" stroke-width="1.1" opacity="0.42"></line><text x="632.6" y="272.0" font-size="10" fill="#333d63" opacity="0.64">1</text><circle cx="505.0" cy="270.7" r="1.5" fill="#333d63" opacity="0.49"></circle><text x="481.8" y="265.3" font-size="11" fill="#3a466f" opacity="0.85">1</text><circle cx="579.2" cy="279.6" r="1.2" fill="#4f46e5" opacity="0.77"></circle><line x1="670.4" y1="277.7" x2="677.4" y2="273.9" stroke="#333d63" stroke-width="1.1" opacity="0.61"></line><text x="660.7" y="254.8" font-size="12" fill="#333d63" opacity="0.74">0</text><line x1="573.2" y1="233.3" x2="566.9" y2="231.3" stroke="#3a466f" stroke-width="1.1" opacity="0.78"></line><line x1="521.1" y1="207.1" x2="530.3" y2="211.3" stroke="#eab308" stroke-width="1.1" opacity="0.59"><animate attributeName="opacity" values="0.25;0.9;0.25" dur="13.5s" repeatCount="indefinite"/></line><circle cx="583.0" cy="211.7" r="2.1" fill="#333d63" opacity="0.61"></circle><line x1="688.7" y1="208.9" x2="694.3" y2="210.2" stroke="#0ea5a4" stroke-width="1.1" opacity="0.58"></line><circle cx="708.4" cy="215.7" r="2.3" fill="#333d63" opacity="0.80"></circle><circle cx="612.4" cy="220.2" r="1.4" fill="#333d63" opacity="0.65"></circle><circle cx="524.5" cy="220.6" r="1.6" fill="#0ea5a4" opacity="0.42"></circle><circle cx="529.6" cy="240.4" r="1.2" fill="#3a466f" opacity="0.82"></circle><line x1="623.0" y1="256.4" x2="633.3" y2="261.4" stroke="#4f46e5" stroke-width="1.1" opacity="0.72"></line><line x1="669.2" y1="275.6" x2="660.0" y2="279.1" stroke="#4f46e5" stroke-width="1.1" opacity="0.75"></line><circle cx="613.4" cy="276.6" r="1.5" fill="#0ea5a4" opacity="0.51"></circle><line x1="518.9" y1="269.0" x2="511.3" y2="265.4" stroke="#3a466f" stroke-width="1.1" opacity="0.80"></line><text x="507.8" y="257.5" font-size="11" fill="#0ea5a4" opacity="0.82">1<animate attributeName="opacity" values="0.25;0.9;0.25" dur="12.6s" repeatCount="indefinite"/></text><circle cx="598.0" cy="255.0" r="2.3" fill="#333d63" opacity="0.66"></circle><line x1="683.5" y1="248.8" x2="686.0" y2="242.6" stroke="#4f46e5" stroke-width="1.1" opacity="0.50"></line><text x="671.0" y="231.0" font-size="10" fill="#0ea5a4" opacity="0.42">1</text><text x="580.0" y="212.6" font-size="12" fill="#2b3352" opacity="0.43">0</text><circle cx="535.9" cy="204.2" r="2.2" fill="#333d63" opacity="0.69"></circle><circle cx="593.4" cy="203.7" r="2.2" fill="#4f46e5" opacity="0.70"></circle><line x1="673.7" y1="224.6" x2="687.2" y2="226.8" stroke="#2b3352" stroke-width="1.1" opacity="0.58"></line><line x1="678.7" y1="231.1" x2="667.9" y2="235.3" stroke="#3a466f" stroke-width="1.1" opacity="0.38"></line><circle cx="593.3" cy="242.5" r="2.4" fill="#4f46e5" opacity="0.49"></circle><line x1="517.7" y1="241.4" x2="512.6" y2="251.0" stroke="#3a466f" stroke-width="1.1" opacity="0.78"></line><circle cx="539.9" cy="253.5" r="2.0" fill="#0ea5a4" opacity="0.84"></circle><circle cx="611.0" cy="271.0" r="2.0" fill="#2b3352" opacity="0.59"></circle><circle cx="656.7" cy="268.4" r="1.6" fill="#3a466f" opacity="0.43"></circle><line x1="608.5" y1="264.5" x2="597.5" y2="261.7" stroke="#333d63" stroke-width="1.1" opacity="0.67"></line><circle cx="535.4" cy="241.4" r="1.1" fill="#2b3352" opacity="0.78"></circle><line x1="540.5" y1="234.0" x2="553.9" y2="231.6" stroke="#4f46e5" stroke-width="1.1" opacity="0.36"></line><circle cx="612.3" cy="232.6" r="1.3" fill="#4f46e5" opacity="0.81"></circle><circle cx="676.7" cy="224.0" r="2.2" fill="#2b3352" opacity="0.59"></circle><circle cx="665.4" cy="218.5" r="1.8" fill="#3a466f" opacity="0.47"></circle><circle cx="587.3" cy="217.1" r="1.3" fill="#4f46e5" opacity="0.81"></circle><text x="550.0" y="217.0" font-size="12" fill="#2b3352" opacity="0.54">1</text><circle cx="582.6" cy="231.3" r="1.1" fill="#333d63" opacity="0.59"></circle><text x="649.0" y="242.4" font-size="12" fill="#2b3352" opacity="0.50">0</text><circle cx="651.4" cy="257.6" r="1.4" fill="#0ea5a4" opacity="0.80"></circle><line x1="579.5" y1="254.1" x2="569.5" y2="256.4" stroke="#4f46e5" stroke-width="1.1" opacity="0.64"></line><line x1="525.4" y1="259.8" x2="515.7" y2="256.3" stroke="#4f46e5" stroke-width="1.1" opacity="0.47"></line><line x1="547.4" y1="265.5" x2="554.9" y2="262.6" stroke="#2b3352" stroke-width="1.1" opacity="0.60"></line><line x1="622.2" y1="266.5" x2="632.2" y2="262.2" stroke="#0ea5a4" stroke-width="1.1" opacity="0.68"></line><line x1="657.2" y1="263.6" x2="650.5" y2="253.9" stroke="#333d63" stroke-width="1.1" opacity="0.76"></line><text x="615.4" y="249.2" font-size="12" fill="#333d63" opacity="0.68">1</text><line x1="561.9" y1="224.8" x2="553.3" y2="224.7" stroke="#333d63" stroke-width="1.1" opacity="0.72"></line><circle cx="559.0" cy="219.0" r="2.0" fill="#4f46e5" opacity="0.59"></circle><circle cx="621.0" cy="223.9" r="2.2" fill="#3a466f" opacity="0.85"></circle><text x="676.9" y="224.5" font-size="11" fill="#4f46e5" opacity="0.58">0</text><circle cx="654.4" cy="225.2" r="2.3" fill="#333d63" opacity="0.44"></circle><circle cx="574.7" cy="220.9" r="1.9" fill="#4f46e5" opacity="0.87"></circle><line x1="542.7" y1="236.9" x2="547.6" y2="234.4" stroke="#2b3352" stroke-width="1.1" opacity="0.76"></line><line x1="579.1" y1="248.3" x2="591.3" y2="248.5" stroke="#4f46e5" stroke-width="1.1" opacity="0.52"></line><line x1="630.1" y1="255.5" x2="639.0" y2="259.6" stroke="#4f46e5" stroke-width="1.1" opacity="0.36"></line><circle cx="632.5" cy="269.9" r="2.4" fill="#333d63" opacity="0.51"></circle><circle cx="576.4" cy="264.8" r="1.2" fill="#2b3352" opacity="0.62"></circle><circle cx="538.1" cy="256.9" r="2.3" fill="#0ea5a4" opacity="0.67"></circle><line x1="556.4" y1="247.5" x2="566.9" y2="248.0" stroke="#2b3352" stroke-width="1.1" opacity="0.70"></line><circle cx="619.0" cy="243.5" r="1.9" fill="#2b3352" opacity="0.84"></circle><text x="653.5" y="237.4" font-size="10" fill="#4f46e5" opacity="0.79">0</text><text x="626.5" y="229.8" font-size="11" fill="#eab308" opacity="0.63">1</text><line x1="573.2" y1="214.1" x2="567.7" y2="215.8" stroke="#333d63" stroke-width="1.1" opacity="0.38"></line><line x1="566.9" y1="210.8" x2="576.4" y2="216.8" stroke="#3a466f" stroke-width="1.1" opacity="0.59"></line><line x1="622.3" y1="218.0" x2="626.2" y2="221.4" stroke="#3a466f" stroke-width="1.1" opacity="0.71"></line><line x1="659.5" y1="235.4" x2="652.0" y2="233.5" stroke="#2b3352" stroke-width="1.1" opacity="0.67"></line><line x1="636.4" y1="236.7" x2="627.4" y2="238.0" stroke="#333d63" stroke-width="1.1" opacity="0.76"></line><circle cx="569.4" cy="244.1" r="2.2" fill="#4f46e5" opacity="0.43"></circle><line x1="541.3" y1="252.7" x2="551.7" y2="246.4" stroke="#4f46e5" stroke-width="1.1" opacity="0.37"></line><text x="575.3" y="257.4" font-size="11" fill="#3a466f" opacity="0.53">1</text><circle cx="621.9" cy="261.2" r="2.0" fill="#333d63" opacity="0.52"></circle><line x1="629.3" y1="260.5" x2="619.1" y2="257.6" stroke="#4f46e5" stroke-width="1.1" opacity="0.54"></line><text x="587.5" y="246.7" font-size="12" fill="#4f46e5" opacity="0.45">1</text><circle cx="549.8" cy="237.3" r="1.2" fill="#2b3352" opacity="0.44"></circle><text x="581.4" y="231.1" font-size="12" fill="#2b3352" opacity="0.46">0</text><line x1="625.6" y1="229.5" x2="630.8" y2="230.3" stroke="#2b3352" stroke-width="1.1" opacity="0.59"></line><circle cx="652.8" cy="228.9" r="1.6" fill="#0ea5a4" opacity="0.81"></circle><text x="623.1" y="225.3" font-size="11" fill="#3a466f" opacity="0.50">1</text><circle cx="573.9" cy="226.6" r="1.9" fill="#2b3352" opacity="0.49"></circle><circle cx="567.5" cy="229.6" r="1.5" fill="#4f46e5" opacity="0.43"></circle><line x1="609.4" y1="234.6" x2="614.4" y2="236.2" stroke="#4f46e5" stroke-width="1.1" opacity="0.55"></line><circle cx="640.1" cy="244.7" r="2.4" fill="#eab308" opacity="0.90"></circle><line x1="620.7" y1="245.4" x2="612.2" y2="248.8" stroke="#4f46e5" stroke-width="1.1" opacity="0.51"></line><circle cx="566.4" cy="250.5" r="1.1" fill="#3a466f" opacity="0.73"></circle><line x1="545.4" y1="256.2" x2="551.5" y2="253.2" stroke="#2b3352" stroke-width="1.1" opacity="0.64"></line><circle cx="587.9" cy="252.3" r="1.2" fill="#eab308" opacity="0.82"></circle><circle cx="623.4" cy="258.9" r="1.0" fill="#3a466f" opacity="0.49"></circle><circle cx="628.6" cy="247.2" r="1.6" fill="#4f46e5" opacity="0.90"></circle><text x="592.4" y="243.2" font-size="11" fill="#4f46e5" opacity="0.51">1</text><circle cx="565.2" cy="231.3" r="1.2" fill="#3a466f" opacity="0.75"></circle><circle cx="590.7" cy="228.5" r="1.6" fill="#3a466f" opacity="0.59"></circle><line x1="625.7" y1="227.0" x2="635.5" y2="228.1" stroke="#3a466f" stroke-width="1.1" opacity="0.43"></line><line x1="640.4" y1="234.9" x2="642.7" y2="222.7" stroke="#333d63" stroke-width="1.1" opacity="0.79"></line><circle cx="618.6" cy="227.1" r="2.0" fill="#0ea5a4" opacity="0.47"></circle><line x1="569.1" y1="233.0" x2="555.2" y2="231.4" stroke="#333d63" stroke-width="1.1" opacity="0.56"></line><line x1="568.1" y1="241.9" x2="577.8" y2="239.6" stroke="#2b3352" stroke-width="1.1" opacity="0.45"></line><circle cx="602.4" cy="250.7" r="1.0" fill="#3a466f" opacity="0.43"></circle><line x1="626.5" y1="256.2" x2="634.8" y2="247.8" stroke="#3a466f" stroke-width="1.1" opacity="0.43"></line><text x="607.3" y="250.0" font-size="12" fill="#3a466f" opacity="0.70">1</text><line x1="569.1" y1="256.2" x2="562.4" y2="247.0" stroke="#333d63" stroke-width="1.1" opacity="0.64"></line><text x="561.2" y="241.9" font-size="12" fill="#2b3352" opacity="0.73">0</text><text x="585.8" y="247.0" font-size="11" fill="#0ea5a4" opacity="0.46">1</text><line x1="634.3" y1="244.7" x2="632.7" y2="238.4" stroke="#3a466f" stroke-width="1.1" opacity="0.69"></line><line x1="633.2" y1="241.3" x2="626.2" y2="236.4" stroke="#333d63" stroke-width="1.1" opacity="0.68"></line><circle cx="598.5" cy="228.7" r="1.9" fill="#4f46e5" opacity="0.41"></circle><circle cx="574.9" cy="229.1" r="1.9" fill="#0ea5a4" opacity="0.58"></circle><circle cx="597.0" cy="231.2" r="1.6" fill="#3a466f" opacity="0.49"></circle><circle cx="622.6" cy="229.5" r="1.5" fill="#3a466f" opacity="0.50"></circle><circle cx="639.4" cy="239.9" r="1.9" fill="#3a466f" opacity="0.83"></circle><circle cx="600.5" cy="235.0" r="1.7" fill="#3a466f" opacity="0.80"></circle><text x="570.8" y="247.1" font-size="11" fill="#0ea5a4" opacity="0.44">0</text><circle cx="571.7" cy="248.0" r="1.9" fill="#eab308" opacity="0.65"></circle><circle cx="595.6" cy="257.3" r="1.0" fill="#2b3352" opacity="0.59"></circle><circle cx="623.5" cy="256.2" r="1.6" fill="#4f46e5" opacity="0.82"></circle><circle cx="610.9" cy="248.4" r="1.3" fill="#333d63" opacity="0.64"></circle><circle cx="576.6" cy="249.6" r="1.5" fill="#0ea5a4" opacity="0.88"></circle><circle cx="574.6" cy="240.8" r="2.3" fill="#eab308" opacity="0.77"></circle><line x1="593.9" y1="237.0" x2="603.2" y2="236.1" stroke="#2b3352" stroke-width="1.1" opacity="0.61"></line><line x1="626.1" y1="235.1" x2="636.6" y2="233.6" stroke="#3a466f" stroke-width="1.1" opacity="0.52"></line><line x1="631.6" y1="237.6" x2="626.8" y2="234.1" stroke="#3a466f" stroke-width="1.1" opacity="0.44"></line><text x="598.5" y="227.1" font-size="12" fill="#0ea5a4" opacity="0.61">1</text><line x1="579.1" y1="223.2" x2="577.5" y2="234.4" stroke="#333d63" stroke-width="1.1" opacity="0.41"></line><text x="593.0" y="236.5" font-size="12" fill="#eab308" opacity="0.63">1</text><circle cx="622.2" cy="238.2" r="1.6" fill="#333d63" opacity="0.88"></circle><text x="628.9" y="251.1" font-size="11" fill="#333d63" opacity="0.57">1</text><text x="598.0" y="241.3" font-size="11" fill="#0ea5a4" opacity="0.58">0</text><line x1="572.3" y1="246.1" x2="563.6" y2="248.4" stroke="#3a466f" stroke-width="1.1" opacity="0.44"></line><circle cx="574.9" cy="247.0" r="1.3" fill="#333d63" opacity="0.75"></circle><text x="607.6" y="249.1" font-size="11" fill="#3a466f" opacity="0.68">0</text><circle cx="622.5" cy="251.2" r="1.3" fill="#2b3352" opacity="0.86"></circle><line x1="609.2" y1="242.4" x2="600.2" y2="239.8" stroke="#2b3352" stroke-width="1.1" opacity="0.42"></line><circle cx="590.0" cy="238.8" r="1.3" fill="#0ea5a4" opacity="0.70"></circle><circle cx="584.3" cy="227.5" r="2.4" fill="#0ea5a4" opacity="0.63"></circle><text x="609.0" y="236.8" font-size="11" fill="#0ea5a4" opacity="0.68">0</text><circle cx="632.5" cy="230.9" r="2.0" fill="#4f46e5" opacity="0.79"></circle><line x1="618.6" y1="231.8" x2="615.4" y2="237.5" stroke="#3a466f" stroke-width="1.1" opacity="0.47"></line><circle cx="591.3" cy="236.8" r="2.4" fill="#3a466f" opacity="0.88"></circle><text x="574.0" y="234.2" font-size="10" fill="#333d63" opacity="0.76">1</text><circle cx="588.0" cy="246.5" r="2.3" fill="#3a466f" opacity="0.70"></circle><circle cx="614.9" cy="243.1" r="1.8" fill="#2b3352" opacity="0.76"></circle><line x1="618.0" y1="251.9" x2="611.9" y2="249.3" stroke="#3a466f" stroke-width="1.1" opacity="0.75"></line><circle cx="597.9" cy="247.7" r="2.1" fill="#333d63" opacity="0.66"></circle><line x1="569.7" y1="241.4" x2="574.7" y2="246.2" stroke="#4f46e5" stroke-width="1.1" opacity="0.56"></line><text x="581.9" y="240.1" font-size="12" fill="#333d63" opacity="0.81">1</text><text x="609.9" y="248.1" font-size="12" fill="#333d63" opacity="0.54">1</text><line x1="625.9" y1="243.0" x2="620.1" y2="237.4" stroke="#333d63" stroke-width="1.1" opacity="0.50"></line><circle cx="609.6" cy="230.5" r="1.7" fill="#4f46e5" opacity="0.80"></circle><circle cx="590.5" cy="227.0" r="2.1" fill="#333d63" opacity="0.85"></circle><circle cx="587.2" cy="229.5" r="1.6" fill="#333d63" opacity="0.80"></circle><line x1="598.5" y1="227.6" x2="609.2" y2="233.4" stroke="#333d63" stroke-width="1.1" opacity="0.53"></line><line x1="626.8" y1="234.6" x2="621.8" y2="238.3" stroke="#333d63" stroke-width="1.1" opacity="0.57"></line><circle cx="618.6" cy="244.9" r="2.2" fill="#333d63" opacity="0.67"></circle><text x="585.9" y="242.5" font-size="10" fill="#3a466f" opacity="0.70">0</text><line x1="574.2" y1="237.6" x2="581.1" y2="247.6" stroke="#2b3352" stroke-width="1.1" opacity="0.63"></line><line x1="587.9" y1="247.2" x2="595.3" y2="246.2" stroke="#3a466f" stroke-width="1.1" opacity="0.74"></line><line x1="606.8" y1="251.8" x2="616.7" y2="246.2" stroke="#2b3352" stroke-width="1.1" opacity="0.67"></line><circle cx="609.6" cy="254.0" r="1.9" fill="#eab308" opacity="0.64"></circle></g><text x="24" y="460" font-family="Consolas, Menlo, monospace" font-size="13" fill="#4a5578">2026-07-20 · sin(3t+φ)·e^(−λt), sin(8t) · seed a9f068</text></svg>