<svg width="1200" height="480" viewBox="0 0 1200 480" xmlns="http://www.w3.org/2000/svg" role="img" aria-label="Generative art for 2026-09-26"><rect width="1200" height="480" fill="#0b0e1a"/><g font-family="Consolas, Menlo, monospace"><circle cx="753.6" cy="344.4" r="2.3" fill="#4f46e5" opacity="0.42"></circle><circle cx="498.3" cy="360.9" r="1.7" fill="#2b3352" opacity="0.82"></circle><circle cx="289.2" cy="345.2" r="1.6" fill="#333d63" opacity="0.59"></circle><text x="191.0" y="309.0" font-size="11" fill="#2b3352" opacity="0.68">1</text><circle cx="218.9" cy="255.7" r="1.1" fill="#2b3352" opacity="0.73"></circle><circle cx="337.3" cy="179.3" r="1.8" fill="#333d63" opacity="0.48"></circle><circle cx="499.7" cy="107.4" r="1.4" fill="#4f46e5" opacity="0.64"></circle><circle cx="662.2" cy="49.6" r="2.2" fill="#0ea5a4" opacity="0.66"></circle><circle cx="760.3" cy="18.8" r="2.3" fill="#333d63" opacity="0.57"></circle><text x="765.7" y="17.2" font-size="12" fill="#4f46e5" opacity="0.56">1</text><circle cx="670.3" cy="48.7" r="1.5" fill="#2b3352" opacity="0.65"></circle><circle cx="504.4" cy="115.5" r="1.1" fill="#4f46e5" opacity="0.41"></circle><text x="342.6" y="192.0" font-size="11" fill="#0ea5a4" opacity="0.66">0<animate attributeName="opacity" values="0.25;0.9;0.25" dur="12.4s" repeatCount="indefinite"/></text><line x1="224.3" y1="256.2" x2="218.1" y2="264.1" stroke="#4f46e5" stroke-width="1.1" opacity="0.71"></line><line x1="204.2" y1="316.4" x2="209.5" y2="319.0" stroke="#2b3352" stroke-width="1.1" opacity="0.42"></line><circle cx="308.4" cy="341.2" r="2.2" fill="#0ea5a4" opacity="0.45"></circle><circle cx="511.2" cy="347.8" r="1.1" fill="#eab308" opacity="0.82"><animate attributeName="opacity" values="0.25;0.9;0.25" dur="7.7s" repeatCount="indefinite"/></circle><line x1="755.2" y1="347.3" x2="762.3" y2="346.3" stroke="#333d63" stroke-width="1.1" opacity="0.68"></line><text x="984.7" y="324.2" font-size="10" fill="#2b3352" opacity="0.70">0</text><circle cx="1142.3" cy="308.7" r="1.2" fill="#4f46e5" opacity="0.48"></circle><line x1="1187.7" y1="306.2" x2="1174.5" y2="305.5" stroke="#3a466f" stroke-width="1.1" opacity="0.76"></line><line x1="1094.3" y1="318.2" x2="1080.4" y2="317.7" stroke="#eab308" stroke-width="1.1" opacity="0.66"><animate attributeName="opacity" values="0.25;0.9;0.25" dur="9.0s" repeatCount="indefinite"/></line><line x1="902.1" y1="326.5" x2="892.7" y2="327.7" stroke="#2b3352" stroke-width="1.1" opacity="0.36"></line><circle cx="651.2" cy="339.9" r="1.9" fill="#2b3352" opacity="0.52"></circle><circle cx="421.0" cy="345.4" r="1.7" fill="#2b3352" opacity="0.58"></circle><circle cx="266.8" cy="328.5" r="1.6" fill="#4f46e5" opacity="0.74"></circle><circle cx="212.0" cy="290.2" r="1.5" fill="#3a466f" opacity="0.78"></circle><circle cx="269.3" cy="233.6" r="2.3" fill="#2b3352" opacity="0.42"></circle><text x="409.3" y="159.8" font-size="12" fill="#2b3352" opacity="0.45">0</text><line x1="570.7" y1="97.6" x2="579.6" y2="93.1" stroke="#eab308" stroke-width="1.1" opacity="0.72"><animate attributeName="opacity" values="0.25;0.9;0.25" dur="6.2s" repeatCount="indefinite"/></line><text x="703.6" y="45.6" font-size="11" fill="#333d63" opacity="0.82">1</text><line x1="767.2" y1="24.9" x2="759.2" y2="18.6" stroke="#3a466f" stroke-width="1.1" opacity="0.59"></line><line x1="727.7" y1="37.7" x2="716.9" y2="41.1" stroke="#2b3352" stroke-width="1.1" opacity="0.42"></line><circle cx="610.4" cy="74.4" r="2.0" fill="#eab308" opacity="0.89"><animate attributeName="opacity" values="0.25;0.9;0.25" dur="12.8s" repeatCount="indefinite"/></circle><text x="449.9" y="143.9" font-size="12" fill="#2b3352" opacity="0.65">1</text><line x1="309.4" y1="211.3" x2="305.1" y2="214.2" stroke="#3a466f" stroke-width="1.1" opacity="0.59"></line><line x1="225.8" y1="284.0" x2="222.9" y2="291.3" stroke="#4f46e5" stroke-width="1.1" opacity="0.67"></line><circle cx="252.8" cy="322.4" r="2.3" fill="#4f46e5" opacity="0.78"></circle><circle cx="378.1" cy="350.8" r="1.3" fill="#2b3352" opacity="0.42"></circle><circle cx="588.5" cy="343.0" r="2.3" fill="#3a466f" opacity="0.62"></circle><text x="834.4" y="336.7" font-size="10" fill="#333d63" opacity="0.65">1</text><line x1="1026.8" y1="314.9" x2="1033.7" y2="314.1" stroke="#333d63" stroke-width="1.1" opacity="0.54"></line><circle cx="1142.5" cy="303.1" r="1.4" fill="#0ea5a4" opacity="0.87"></circle><circle cx="1133.1" cy="297.2" r="2.1" fill="#4f46e5" opacity="0.73"></circle><text x="1012.6" y="315.2" font-size="11" fill="#3a466f" opacity="0.74">1</text><circle cx="804.1" cy="329.3" r="1.8" fill="#3a466f" opacity="0.52"></circle><text x="573.7" y="341.0" font-size="11" fill="#333d63" opacity="0.82">0</text><line x1="367.8" y1="344.1" x2="360.4" y2="342.7" stroke="#333d63" stroke-width="1.1" opacity="0.78"></line><line x1="256.5" y1="317.6" x2="248.9" y2="313.6" stroke="#3a466f" stroke-width="1.1" opacity="0.53"></line><line x1="242.3" y1="269.9" x2="249.5" y2="261.8" stroke="#eab308" stroke-width="1.1" opacity="0.43"><animate attributeName="opacity" values="0.25;0.9;0.25" dur="10.2s" repeatCount="indefinite"/></line><circle cx="321.1" cy="215.5" r="1.8" fill="#3a466f" opacity="0.51"></circle><text x="475.6" y="145.4" font-size="11" fill="#3a466f" opacity="0.43">1</text><text x="627.6" y="77.9" font-size="12" fill="#eab308" opacity="0.70">0<animate attributeName="opacity" values="0.25;0.9;0.25" dur="6.1s" repeatCount="indefinite"/></text><line x1="730.0" y1="42.6" x2="739.9" y2="39.7" stroke="#3a466f" stroke-width="1.1" opacity="0.44"></line><text x="750.9" y="37.0" font-size="12" fill="#4f46e5" opacity="0.68">1</text><circle cx="685.0" cy="64.8" r="2.0" fill="#0ea5a4" opacity="0.45"></circle><circle cx="563.9" cy="104.8" r="2.2" fill="#4f46e5" opacity="0.56"></circle><circle cx="405.9" cy="177.8" r="1.9" fill="#333d63" opacity="0.69"></circle><circle cx="291.1" cy="242.2" r="1.2" fill="#4f46e5" opacity="0.62"></circle><circle cx="244.3" cy="296.5" r="2.0" fill="#3a466f" opacity="0.68"></circle><text x="308.9" y="327.0" font-size="12" fill="#0ea5a4" opacity="0.56">0</text><line x1="463.8" y1="343.6" x2="472.8" y2="343.2" stroke="#0ea5a4" stroke-width="1.1" opacity="0.43"></line><line x1="674.3" y1="330.3" x2="684.0" y2="330.7" stroke="#4f46e5" stroke-width="1.1" opacity="0.37"></line><circle cx="893.3" cy="322.1" r="2.1" fill="#0ea5a4" opacity="0.45"></circle><line x1="1060.5" y1="308.1" x2="1068.1" y2="306.3" stroke="#4f46e5" stroke-width="1.1" opacity="0.45"></line><circle cx="1129.8" cy="299.6" r="2.1" fill="#0ea5a4" opacity="0.60"></circle><line x1="1083.2" y1="298.5" x2="1071.1" y2="300.7" stroke="#eab308" stroke-width="1.1" opacity="0.46"><animate attributeName="opacity" values="0.25;0.9;0.25" dur="8.7s" repeatCount="indefinite"/></line><circle cx="928.9" cy="319.1" r="1.6" fill="#0ea5a4" opacity="0.89"><animate attributeName="opacity" values="0.25;0.9;0.25" dur="12.8s" repeatCount="indefinite"/></circle><circle cx="714.7" cy="329.7" r="2.2" fill="#3a466f" opacity="0.85"></circle><line x1="502.3" y1="333.9" x2="492.5" y2="334.7" stroke="#2b3352" stroke-width="1.1" opacity="0.38"></line><text x="331.8" y="333.2" font-size="11" fill="#0ea5a4" opacity="0.71">0<animate attributeName="opacity" values="0.25;0.9;0.25" dur="13.2s" repeatCount="indefinite"/></text><text x="250.5" y="297.9" font-size="10" fill="#0ea5a4" opacity="0.74">1</text><line x1="273.9" y1="247.0" x2="284.2" y2="242.5" stroke="#eab308" stroke-width="1.1" opacity="0.40"><animate attributeName="opacity" values="0.25;0.9;0.25" dur="12.8s" repeatCount="indefinite"/></line><text x="386.4" y="187.9" font-size="12" fill="#2b3352" opacity="0.42">0</text><circle cx="532.5" cy="122.8" r="1.9" fill="#4f46e5" opacity="0.43"></circle><circle cx="663.9" cy="79.8" r="1.1" fill="#333d63" opacity="0.77"></circle><line x1="738.4" y1="52.1" x2="748.6" y2="44.6" stroke="#333d63" stroke-width="1.1" opacity="0.65"></line><line x1="735.1" y1="56.3" x2="727.8" y2="56.5" stroke="#3a466f" stroke-width="1.1" opacity="0.79"></line><line x1="645.9" y1="79.3" x2="638.1" y2="83.3" stroke="#3a466f" stroke-width="1.1" opacity="0.55"></line><line x1="512.2" y1="138.8" x2="507.0" y2="140.6" stroke="#333d63" stroke-width="1.1" opacity="0.62"></line><circle cx="374.6" cy="199.1" r="1.8" fill="#0ea5a4" opacity="0.77"></circle><line x1="279.5" y1="263.2" x2="272.8" y2="268.9" stroke="#333d63" stroke-width="1.1" opacity="0.50"></line><line x1="266.3" y1="302.9" x2="273.5" y2="307.2" stroke="#0ea5a4" stroke-width="1.1" opacity="0.76"></line><text x="357.9" y="336.9" font-size="12" fill="#3a466f" opacity="0.73">1</text><circle cx="536.9" cy="332.9" r="1.2" fill="#333d63" opacity="0.74"></circle><circle cx="748.1" cy="331.6" r="1.8" fill="#333d63" opacity="0.77"></circle><text x="946.1" y="304.9" font-size="12" fill="#3a466f" opacity="0.63">1</text><text x="1067.1" y="294.8" font-size="11" fill="#2b3352" opacity="0.45">1</text><line x1="1099.1" y1="290.8" x2="1088.4" y2="294.1" stroke="#2b3352" stroke-width="1.1" opacity="0.76"></line><circle cx="1015.9" cy="298.6" r="2.0" fill="#3a466f" opacity="0.71"></circle><line x1="838.5" y1="322.2" x2="827.4" y2="321.9" stroke="#333d63" stroke-width="1.1" opacity="0.76"></line><text x="634.7" y="325.1" font-size="11" fill="#2b3352" opacity="0.52">0</text><line x1="435.4" y1="332.1" x2="423.8" y2="331.6" stroke="#3a466f" stroke-width="1.1" opacity="0.52"></line><line x1="314.3" y1="321.4" x2="307.2" y2="318.1" stroke="#2b3352" stroke-width="1.1" opacity="0.43"></line><text x="271.9" y="285.2" font-size="12" fill="#2b3352" opacity="0.57">0</text><line x1="324.1" y1="231.5" x2="328.9" y2="228.5" stroke="#333d63" stroke-width="1.1" opacity="0.54"></line><text x="439.1" y="166.4" font-size="10" fill="#333d63" opacity="0.63">1</text><circle cx="584.1" cy="108.1" r="2.2" fill="#3a466f" opacity="0.77"></circle><circle cx="689.0" cy="69.3" r="1.2" fill="#4f46e5" opacity="0.48"></circle><text x="743.5" y="56.6" font-size="11" fill="#3a466f" opacity="0.78">1</text><circle cx="703.8" cy="69.5" r="2.4" fill="#333d63" opacity="0.86"></circle><text x="601.5" y="106.0" font-size="12" fill="#2b3352" opacity="0.52">1</text><text x="465.5" y="161.6" font-size="12" fill="#3a466f" opacity="0.68">1</text><text x="348.6" y="224.0" font-size="11" fill="#3a466f" opacity="0.47">1</text><text x="279.3" y="277.8" font-size="10" fill="#3a466f" opacity="0.49">1</text><circle cx="309.7" cy="307.4" r="1.4" fill="#3a466f" opacity="0.82"></circle><text x="425.1" y="332.8" font-size="12" fill="#333d63" opacity="0.83">0</text><line x1="602.1" y1="324.2" x2="613.7" y2="324.6" stroke="#eab308" stroke-width="1.1" opacity="0.76"><animate attributeName="opacity" values="0.25;0.9;0.25" dur="8.9s" repeatCount="indefinite"/></line><text x="812.8" y="315.2" font-size="10" fill="#333d63" opacity="0.63">1</text><line x1="971.2" y1="304.8" x2="978.9" y2="303.4" stroke="#4f46e5" stroke-width="1.1" opacity="0.43"></line><circle cx="1061.5" cy="293.5" r="1.4" fill="#3a466f" opacity="0.66"></circle><line x1="1045.3" y1="289.0" x2="1038.8" y2="291.7" stroke="#0ea5a4" stroke-width="1.1" opacity="0.72"></line><text x="943.1" y="299.4" font-size="11" fill="#0ea5a4" opacity="0.71">0</text><circle cx="754.2" cy="322.3" r="1.7" fill="#333d63" opacity="0.75"></circle><circle cx="557.5" cy="330.7" r="2.0" fill="#3a466f" opacity="0.80"></circle><line x1="400.9" y1="322.7" x2="395.0" y2="322.4" stroke="#0ea5a4" stroke-width="1.1" opacity="0.56"></line><line x1="301.1" y1="302.3" x2="295.4" y2="297.6" stroke="#0ea5a4" stroke-width="1.1" opacity="0.45"></line><line x1="298.5" y1="261.0" x2="304.9" y2="256.1" stroke="#4f46e5" stroke-width="1.1" opacity="0.66"></line><line x1="374.9" y1="204.8" x2="380.5" y2="203.1" stroke="#3a466f" stroke-width="1.1" opacity="0.52"></line><circle cx="497.5" cy="150.1" r="1.5" fill="#2b3352" opacity="0.53"></circle><circle cx="622.3" cy="99.2" r="2.1" fill="#2b3352" opacity="0.83"></circle><circle cx="711.3" cy="77.1" r="1.5" fill="#4f46e5" opacity="0.78"></circle><circle cx="731.2" cy="71.1" r="2.2" fill="#eab308" opacity="0.42"></circle><circle cx="665.0" cy="88.8" r="1.2" fill="#3a466f" opacity="0.56"></circle><circle cx="550.7" cy="127.0" r="1.1" fill="#eab308" opacity="0.84"></circle><text x="429.0" y="188.6" font-size="11" fill="#3a466f" opacity="0.49">0</text><circle cx="331.2" cy="241.9" r="1.4" fill="#0ea5a4" opacity="0.86"></circle><line x1="293.6" y1="284.2" x2="298.2" y2="289.7" stroke="#3a466f" stroke-width="1.1" opacity="0.44"></line><text x="356.0" y="313.6" font-size="10" fill="#2b3352" opacity="0.52">0</text><line x1="496.2" y1="323.9" x2="504.6" y2="324.3" stroke="#3a466f" stroke-width="1.1" opacity="0.58"></line><line x1="672.0" y1="322.8" x2="678.7" y2="322.1" stroke="#333d63" stroke-width="1.1" opacity="0.63"></line><line x1="853.7" y1="309.0" x2="864.1" y2="307.7" stroke="#0ea5a4" stroke-width="1.1" opacity="0.78"></line><circle cx="994.6" cy="291.7" r="1.9" fill="#2b3352" opacity="0.46"></circle><line x1="1047.0" y1="292.4" x2="1042.8" y2="289.0" stroke="#0ea5a4" stroke-width="1.1" opacity="0.72"></line><line x1="992.9" y1="298.6" x2="985.1" y2="297.5" stroke="#0ea5a4" stroke-width="1.1" opacity="0.78"></line><line x1="862.6" y1="306.8" x2="856.3" y2="307.0" stroke="#0ea5a4" stroke-width="1.1" opacity="0.66"></line><circle cx="678.4" cy="312.9" r="1.4" fill="#3a466f" opacity="0.62"></circle><circle cx="496.8" cy="318.1" r="1.7" fill="#3a466f" opacity="0.64"></circle><line x1="368.1" y1="309.4" x2="354.4" y2="309.7" stroke="#0ea5a4" stroke-width="1.1" opacity="0.71"></line><text x="305.6" y="294.2" font-size="11" fill="#2b3352" opacity="0.60">1</text><line x1="332.8" y1="248.3" x2="339.2" y2="243.1" stroke="#333d63" stroke-width="1.1" opacity="0.48"></line><text x="429.7" y="194.3" font-size="12" fill="#0ea5a4" opacity="0.68">1</text><circle cx="545.6" cy="134.5" r="1.7" fill="#2b3352" opacity="0.41"></circle><circle cx="655.4" cy="102.3" r="2.3" fill="#4f46e5" opacity="0.60"></circle><circle cx="725.6" cy="78.4" r="1.2" fill="#2b3352" opacity="0.50"></circle><circle cx="709.9" cy="76.4" r="1.2" fill="#4f46e5" opacity="0.45"></circle><line x1="636.9" y1="106.2" x2="630.6" y2="109.0" stroke="#3a466f" stroke-width="1.1" opacity="0.39"></line><line x1="519.4" y1="150.7" x2="507.9" y2="156.8" stroke="#3a466f" stroke-width="1.1" opacity="0.75"></line><line x1="394.8" y1="214.2" x2="386.2" y2="218.2" stroke="#2b3352" stroke-width="1.1" opacity="0.48"></line><circle cx="321.4" cy="261.7" r="2.4" fill="#3a466f" opacity="0.69"></circle><circle cx="326.1" cy="302.3" r="1.3" fill="#2b3352" opacity="0.42"></circle><text x="406.0" y="318.4" font-size="12" fill="#3a466f" opacity="0.61">1</text><text x="562.3" y="324.1" font-size="10" fill="#0ea5a4" opacity="0.48">0</text><circle cx="737.8" cy="317.3" r="1.9" fill="#3a466f" opacity="0.45"></circle><line x1="900.7" y1="299.0" x2="913.7" y2="297.4" stroke="#2b3352" stroke-width="1.1" opacity="0.50"></line><text x="997.7" y="290.2" font-size="12" fill="#2b3352" opacity="0.51">1</text><circle cx="1014.9" cy="287.7" r="2.1" fill="#2b3352" opacity="0.66"></circle><circle cx="940.6" cy="299.2" r="1.6" fill="#0ea5a4" opacity="0.82"></circle><line x1="796.5" y1="301.2" x2="788.3" y2="302.6" stroke="#333d63" stroke-width="1.1" opacity="0.58"></line><text x="611.8" y="320.9" font-size="10" fill="#333d63" opacity="0.62">0</text><line x1="448.4" y1="323.5" x2="437.8" y2="320.6" stroke="#2b3352" stroke-width="1.1" opacity="0.42"></line><circle cx="353.0" cy="303.2" r="1.5" fill="#4f46e5" opacity="0.43"></circle><line x1="319.9" y1="267.0" x2="331.9" y2="261.4" stroke="#3a466f" stroke-width="1.1" opacity="0.45"></line><circle cx="376.9" cy="230.6" r="1.9" fill="#3a466f" opacity="0.80"></circle><text x="482.5" y="177.8" font-size="10" fill="#eab308" opacity="0.45">0</text><line x1="590.1" y1="130.1" x2="601.9" y2="125.9" stroke="#4f46e5" stroke-width="1.1" opacity="0.64"></line><line x1="687.8" y1="94.6" x2="695.5" y2="92.3" stroke="#0ea5a4" stroke-width="1.1" opacity="0.58"></line><text x="717.2" y="84.4" font-size="12" fill="#2b3352" opacity="0.82">0</text><line x1="681.3" y1="95.2" x2="670.2" y2="101.5" stroke="#4f46e5" stroke-width="1.1" opacity="0.48"></line><text x="588.1" y="126.2" font-size="12" fill="#4f46e5" opacity="0.68">0</text><circle cx="475.6" cy="174.0" r="2.2" fill="#3a466f" opacity="0.72"></circle><circle cx="380.3" cy="230.8" r="2.1" fill="#4f46e5" opacity="0.59"></circle><line x1="335.4" y1="276.5" x2="328.9" y2="285.1" stroke="#4f46e5" stroke-width="1.1" opacity="0.61"></line><circle cx="354.7" cy="302.8" r="1.6" fill="#4f46e5" opacity="0.67"></circle><circle cx="468.7" cy="320.2" r="1.8" fill="#333d63" opacity="0.70"></circle><line x1="619.7" y1="317.2" x2="625.2" y2="316.5" stroke="#2b3352" stroke-width="1.1" opacity="0.40"></line><circle cx="785.3" cy="305.0" r="1.9" fill="#4f46e5" opacity="0.43"></circle><line x1="923.4" y1="289.7" x2="935.8" y2="289.2" stroke="#eab308" stroke-width="1.1" opacity="0.59"></line><circle cx="992.7" cy="284.8" r="1.6" fill="#333d63" opacity="0.55"></circle><circle cx="975.3" cy="288.7" r="2.0" fill="#333d63" opacity="0.60"></circle><text x="871.5" y="290.4" font-size="12" fill="#333d63" opacity="0.40">0</text><circle cx="725.8" cy="304.0" r="2.3" fill="#3a466f" opacity="0.58"></circle><circle cx="555.9" cy="309.2" r="2.0" fill="#333d63" opacity="0.61"></circle><circle cx="422.6" cy="311.0" r="2.0" fill="#0ea5a4" opacity="0.49"></circle><circle cx="340.6" cy="292.8" r="1.0" fill="#2b3352" opacity="0.41"></circle><text x="348.9" y="251.3" font-size="11" fill="#3a466f" opacity="0.55">1</text><circle cx="414.6" cy="207.1" r="2.2" fill="#333d63" opacity="0.51"></circle><text x="523.5" y="166.3" font-size="11" fill="#4f46e5" opacity="0.45">1</text><circle cx="635.0" cy="128.1" r="1.2" fill="#3a466f" opacity="0.50"></circle><line x1="701.4" y1="102.4" x2="704.7" y2="97.8" stroke="#4f46e5" stroke-width="1.1" opacity="0.52"></line><circle cx="703.0" cy="98.4" r="1.0" fill="#4f46e5" opacity="0.42"></circle><circle cx="655.8" cy="113.2" r="2.1" fill="#333d63" opacity="0.43"></circle><line x1="552.2" y1="151.9" x2="545.6" y2="155.1" stroke="#3a466f" stroke-width="1.1" opacity="0.49"></line><circle cx="451.0" cy="205.7" r="1.6" fill="#2b3352" opacity="0.56"></circle><circle cx="367.0" cy="250.9" r="2.3" fill="#333d63" opacity="0.88"></circle><line x1="346.6" y1="284.1" x2="353.8" y2="291.4" stroke="#eab308" stroke-width="1.1" opacity="0.44"></line><circle cx="395.6" cy="307.1" r="1.6" fill="#4f46e5" opacity="0.85"></circle><line x1="517.5" y1="307.1" x2="527.5" y2="308.4" stroke="#0ea5a4" stroke-width="1.1" opacity="0.73"></line><line x1="679.6" y1="305.4" x2="687.6" y2="305.2" stroke="#0ea5a4" stroke-width="1.1" opacity="0.59"></line><circle cx="829.9" cy="298.0" r="1.4" fill="#0ea5a4" opacity="0.49"></circle><circle cx="944.7" cy="290.7" r="1.2" fill="#eab308" opacity="0.44"></circle><line x1="981.1" y1="282.0" x2="975.0" y2="281.6" stroke="#0ea5a4" stroke-width="1.1" opacity="0.48"></line><circle cx="931.1" cy="289.0" r="1.6" fill="#3a466f" opacity="0.88"></circle><text x="808.8" y="301.1" font-size="11" fill="#4f46e5" opacity="0.52">1</text><line x1="657.6" y1="302.9" x2="652.2" y2="303.6" stroke="#4f46e5" stroke-width="1.1" opacity="0.73"></line><text x="506.6" y="307.5" font-size="11" fill="#3a466f" opacity="0.68">1</text><text x="391.7" y="297.7" font-size="11" fill="#4f46e5" opacity="0.41">1</text><circle cx="351.1" cy="274.3" r="1.7" fill="#0ea5a4" opacity="0.64"></circle><text x="384.6" y="244.8" font-size="12" fill="#0ea5a4" opacity="0.51">1</text><circle cx="457.0" cy="194.1" r="1.5" fill="#eab308" opacity="0.80"></circle><circle cx="562.1" cy="151.6" r="1.6" fill="#4f46e5" opacity="0.57"></circle><text x="650.9" y="117.9" font-size="12" fill="#4f46e5" opacity="0.55">0</text><circle cx="706.3" cy="100.6" r="1.8" fill="#333d63" opacity="0.51"></circle><line x1="689.9" y1="112.3" x2="681.5" y2="112.1" stroke="#4f46e5" stroke-width="1.1" opacity="0.52"></line><line x1="620.2" y1="133.9" x2="611.5" y2="136.9" stroke="#333d63" stroke-width="1.1" opacity="0.69"></line><line x1="524.8" y1="167.1" x2="514.6" y2="172.7" stroke="#3a466f" stroke-width="1.1" opacity="0.47"></line><line x1="427.6" y1="213.2" x2="420.4" y2="218.1" stroke="#4f46e5" stroke-width="1.1" opacity="0.58"></line><circle cx="361.4" cy="257.6" r="2.0" fill="#3a466f" opacity="0.51"></circle><line x1="366.0" y1="289.4" x2="376.7" y2="293.5" stroke="#4f46e5" stroke-width="1.1" opacity="0.49"></line><text x="440.4" y="305.9" font-size="10" fill="#333d63" opacity="0.60">0</text><circle cx="571.7" cy="303.4" r="1.3" fill="#3a466f" opacity="0.43"></circle><circle cx="728.9" cy="295.8" r="2.2" fill="#2b3352" opacity="0.45"></circle><text x="863.4" y="290.9" font-size="10" fill="#eab308" opacity="0.63">1</text><line x1="938.5" y1="283.8" x2="948.3" y2="280.5" stroke="#eab308" stroke-width="1.1" opacity="0.44"></line><text x="947.0" y="273.7" font-size="12" fill="#3a466f" opacity="0.46">0</text><circle cx="883.3" cy="280.0" r="1.3" fill="#2b3352" opacity="0.87"></circle><line x1="753.0" y1="295.5" x2="741.2" y2="296.6" stroke="#2b3352" stroke-width="1.1" opacity="0.54"></line><text x="606.6" y="301.7" font-size="10" fill="#333d63" opacity="0.83">0</text><circle cx="469.5" cy="305.9" r="1.6" fill="#2b3352" opacity="0.82"></circle><line x1="381.6" y1="289.7" x2="371.1" y2="286.3" stroke="#0ea5a4" stroke-width="1.1" opacity="0.49"></line><circle cx="363.6" cy="264.0" r="1.6" fill="#0ea5a4" opacity="0.50"></circle><circle cx="410.6" cy="225.5" r="2.1" fill="#2b3352" opacity="0.42"></circle><text x="505.6" y="181.6" font-size="11" fill="#4f46e5" opacity="0.59">1</text><line x1="602.2" y1="148.3" x2="609.3" y2="144.1" stroke="#0ea5a4" stroke-width="1.1" opacity="0.72"></line><circle cx="671.6" cy="115.0" r="1.7" fill="#333d63" opacity="0.84"></circle><circle cx="696.1" cy="109.8" r="1.6" fill="#0ea5a4" opacity="0.64"></circle><line x1="668.8" y1="121.7" x2="655.6" y2="125.6" stroke="#0ea5a4" stroke-width="1.1" opacity="0.67"></line><line x1="585.6" y1="152.1" x2="574.5" y2="156.3" stroke="#3a466f" stroke-width="1.1" opacity="0.52"></line><line x1="495.3" y1="188.9" x2="488.6" y2="192.0" stroke="#eab308" stroke-width="1.1" opacity="0.75"></line><line x1="408.4" y1="232.8" x2="404.3" y2="235.9" stroke="#4f46e5" stroke-width="1.1" opacity="0.50"></line><text x="369.7" y="269.6" font-size="10" fill="#0ea5a4" opacity="0.55">1</text><line x1="395.2" y1="294.4" x2="404.2" y2="296.0" stroke="#3a466f" stroke-width="1.1" opacity="0.62"></line><circle cx="489.4" cy="302.5" r="1.8" fill="#333d63" opacity="0.81"></circle><line x1="625.8" y1="305.7" x2="633.1" y2="304.6" stroke="#2b3352" stroke-width="1.1" opacity="0.46"></line><line x1="769.5" y1="297.3" x2="776.4" y2="295.7" stroke="#4f46e5" stroke-width="1.1" opacity="0.59"></line><circle cx="879.1" cy="278.5" r="1.6" fill="#2b3352" opacity="0.46"></circle><line x1="938.9" y1="280.8" x2="932.6" y2="270.5" stroke="#eab308" stroke-width="1.1" opacity="0.61"></line><line x1="919.6" y1="281.9" x2="909.6" y2="281.2" stroke="#333d63" stroke-width="1.1" opacity="0.62"></line><line x1="823.5" y1="281.7" x2="818.2" y2="283.1" stroke="#2b3352" stroke-width="1.1" opacity="0.53"></line><line x1="697.7" y1="291.8" x2="687.9" y2="293.6" stroke="#4f46e5" stroke-width="1.1" opacity="0.73"></line><text x="559.1" y="307.8" font-size="11" fill="#333d63" opacity="0.48">0</text><line x1="445.3" y1="294.8" x2="435.8" y2="295.3" stroke="#3a466f" stroke-width="1.1" opacity="0.75"></line><text x="381.5" y="279.8" font-size="12" fill="#3a466f" opacity="0.67">0</text><line x1="383.5" y1="248.3" x2="392.6" y2="245.3" stroke="#4f46e5" stroke-width="1.1" opacity="0.58"></line><circle cx="452.6" cy="214.2" r="1.1" fill="#333d63" opacity="0.64"></circle><line x1="538.5" y1="173.3" x2="550.0" y2="168.9" stroke="#4f46e5" stroke-width="1.1" opacity="0.69"></line><line x1="626.6" y1="138.8" x2="636.4" y2="135.7" stroke="#3a466f" stroke-width="1.1" opacity="0.73"></line><line x1="682.3" y1="122.7" x2="688.4" y2="118.9" stroke="#3a466f" stroke-width="1.1" opacity="0.63"></line><line x1="685.8" y1="116.8" x2="681.4" y2="120.8" stroke="#eab308" stroke-width="1.1" opacity="0.52"></line><circle cx="642.1" cy="141.4" r="1.2" fill="#4f46e5" opacity="0.44"></circle><circle cx="550.9" cy="167.7" r="1.5" fill="#2b3352" opacity="0.44"></circle><circle cx="463.4" cy="203.2" r="1.9" fill="#3a466f" opacity="0.82"></circle><line x1="403.3" y1="252.4" x2="397.6" y2="254.5" stroke="#eab308" stroke-width="1.1" opacity="0.59"></line><text x="384.3" y="277.2" font-size="12" fill="#4f46e5" opacity="0.77">1</text><line x1="437.3" y1="300.5" x2="447.4" y2="299.8" stroke="#333d63" stroke-width="1.1" opacity="0.36"></line><circle cx="541.7" cy="296.5" r="1.1" fill="#333d63" opacity="0.52"></circle><circle cx="671.3" cy="293.9" r="2.2" fill="#0ea5a4" opacity="0.48"></circle><circle cx="798.0" cy="281.9" r="2.2" fill="#333d63" opacity="0.66"></circle><text x="897.0" y="278.2" font-size="12" fill="#4f46e5" opacity="0.69">1</text><circle cx="911.8" cy="275.6" r="1.2" fill="#0ea5a4" opacity="0.90"></circle><circle cx="879.3" cy="284.3" r="2.3" fill="#3a466f" opacity="0.65"></circle><line x1="771.8" y1="288.9" x2="762.0" y2="289.3" stroke="#0ea5a4" stroke-width="1.1" opacity="0.72"></line><line x1="637.6" y1="299.1" x2="630.7" y2="298.8" stroke="#0ea5a4" stroke-width="1.1" opacity="0.75"></line><text x="511.1" y="295.1" font-size="10" fill="#0ea5a4" opacity="0.73">1</text><line x1="417.6" y1="294.4" x2="411.0" y2="289.2" stroke="#0ea5a4" stroke-width="1.1" opacity="0.70"></line><circle cx="387.1" cy="275.3" r="2.1" fill="#333d63" opacity="0.57"></circle><text x="416.7" y="239.1" font-size="12" fill="#4f46e5" opacity="0.50">0</text><line x1="487.3" y1="204.4" x2="498.3" y2="197.8" stroke="#4f46e5" stroke-width="1.1" opacity="0.43"></line><text x="578.2" y="163.3" font-size="11" fill="#eab308" opacity="0.64">0</text><circle cx="647.4" cy="138.4" r="1.7" fill="#4f46e5" opacity="0.60"></circle><line x1="688.0" y1="122.0" x2="698.2" y2="129.5" stroke="#3a466f" stroke-width="1.1" opacity="0.40"></line><text x="671.2" y="132.2" font-size="10" fill="#2b3352" opacity="0.75">1</text><line x1="607.9" y1="152.8" x2="603.0" y2="154.8" stroke="#0ea5a4" stroke-width="1.1" opacity="0.78"></line><line x1="532.0" y1="183.3" x2="519.2" y2="188.9" stroke="#2b3352" stroke-width="1.1" opacity="0.40"></line><line x1="441.8" y1="224.9" x2="434.0" y2="230.7" stroke="#3a466f" stroke-width="1.1" opacity="0.60"></line><line x1="394.2" y1="262.0" x2="399.8" y2="272.4" stroke="#4f46e5" stroke-width="1.1" opacity="0.52"></line><text x="411.2" y="284.4" font-size="12" fill="#4f46e5" opacity="0.55">1</text><line x1="469.7" y1="294.9" x2="475.2" y2="295.4" stroke="#3a466f" stroke-width="1.1" opacity="0.41"></line><text x="590.3" y="294.9" font-size="10" fill="#4f46e5" opacity="0.67">1</text><line x1="716.1" y1="295.0" x2="724.3" y2="292.9" stroke="#0ea5a4" stroke-width="1.1" opacity="0.78"></line><circle cx="830.9" cy="275.9" r="2.2" fill="#3a466f" opacity="0.72"></circle><line x1="890.3" y1="270.5" x2="896.0" y2="272.4" stroke="#2b3352" stroke-width="1.1" opacity="0.39"></line><line x1="893.3" y1="272.8" x2="880.3" y2="274.8" stroke="#333d63" stroke-width="1.1" opacity="0.64"></line><circle cx="831.7" cy="284.6" r="1.8" fill="#eab308" opacity="0.87"></circle><text x="714.0" y="283.2" font-size="12" fill="#4f46e5" opacity="0.52">0</text><line x1="591.1" y1="289.4" x2="581.6" y2="291.6" stroke="#eab308" stroke-width="1.1" opacity="0.55"></line><text x="487.9" y="293.4" font-size="10" fill="#3a466f" opacity="0.79">1</text><circle cx="417.3" cy="278.4" r="1.0" fill="#3a466f" opacity="0.52"></circle><circle cx="398.6" cy="255.0" r="2.0" fill="#0ea5a4" opacity="0.87"></circle><circle cx="445.0" cy="228.3" r="2.0" fill="#2b3352" opacity="0.69"></circle><circle cx="519.3" cy="192.7" r="1.1" fill="#3a466f" opacity="0.82"></circle><line x1="610.2" y1="161.4" x2="614.5" y2="158.1" stroke="#2b3352" stroke-width="1.1" opacity="0.51"></line><line x1="671.9" y1="132.6" x2="682.4" y2="131.2" stroke="#333d63" stroke-width="1.1" opacity="0.49"></line><circle cx="681.0" cy="135.2" r="1.4" fill="#333d63" opacity="0.76"></circle><circle cx="648.5" cy="136.5" r="2.2" fill="#4f46e5" opacity="0.58"></circle><text x="586.1" y="163.8" font-size="11" fill="#4f46e5" opacity="0.76">1</text><line x1="504.9" y1="197.4" x2="495.8" y2="202.6" stroke="#4f46e5" stroke-width="1.1" opacity="0.53"></line><text x="439.5" y="232.7" font-size="11" fill="#4f46e5" opacity="0.61">0</text><circle cx="409.7" cy="271.9" r="2.1" fill="#2b3352" opacity="0.76"></circle><circle cx="432.5" cy="293.0" r="1.3" fill="#2b3352" opacity="0.82"></circle><circle cx="514.8" cy="298.5" r="2.2" fill="#0ea5a4" opacity="0.77"></circle><line x1="630.3" y1="286.1" x2="636.3" y2="286.9" stroke="#2b3352" stroke-width="1.1" opacity="0.44"></line><line x1="753.1" y1="279.5" x2="765.5" y2="280.6" stroke="#4f46e5" stroke-width="1.1" opacity="0.69"></line><line x1="847.5" y1="278.5" x2="858.7" y2="273.8" stroke="#2b3352" stroke-width="1.1" opacity="0.75"></line><circle cx="887.6" cy="268.6" r="1.8" fill="#333d63" opacity="0.72"></circle><line x1="866.1" y1="279.1" x2="857.7" y2="277.1" stroke="#3a466f" stroke-width="1.1" opacity="0.45"></line><text x="786.4" y="282.1" font-size="10" fill="#4f46e5" opacity="0.41">0</text></g><text x="24" y="460" font-family="Consolas, Menlo, monospace" font-size="13" fill="#4a5578">2026-09-26 · sin(2t+φ)·e^(−λt), sin(4t) · seed bd2176</text></svg>