<svg width="1200" height="480" viewBox="0 0 1200 480" xmlns="http://www.w3.org/2000/svg" role="img" aria-label="Generative art for 2026-07-17"><rect width="1200" height="480" fill="#0b0e1a"/><g font-family="Consolas, Menlo, monospace"><circle cx="194.2" cy="311.0" r="1.8" fill="#333d63" opacity="0.89"></circle><line x1="98.2" y1="232.8" x2="94.5" y2="228.6" stroke="#0ea5a4" stroke-width="1.1" opacity="0.56"><animate attributeName="opacity" values="0.25;0.9;0.25" dur="12.1s" repeatCount="indefinite"/></line><circle cx="69.4" cy="178.4" r="1.3" fill="#333d63" opacity="0.73"></circle><circle cx="97.4" cy="143.1" r="1.3" fill="#eab308" opacity="0.57"><animate attributeName="opacity" values="0.25;0.9;0.25" dur="6.9s" repeatCount="indefinite"/></circle><circle cx="201.8" cy="151.9" r="1.4" fill="#2b3352" opacity="0.52"></circle><line x1="362.1" y1="183.2" x2="373.8" y2="187.5" stroke="#2b3352" stroke-width="1.1" opacity="0.78"></line><text x="553.8" y="245.8" font-size="11" fill="#3a466f" opacity="0.82">0</text><line x1="744.9" y1="294.1" x2="751.6" y2="296.2" stroke="#333d63" stroke-width="1.1" opacity="0.74"></line><text x="913.4" y="331.8" font-size="10" fill="#333d63" opacity="0.45">1</text><text x="1018.8" y="337.4" font-size="10" fill="#eab308" opacity="0.81">0<animate attributeName="opacity" values="0.25;0.9;0.25" dur="13.5s" repeatCount="indefinite"/></text><line x1="1059.7" y1="307.4" x2="1064.7" y2="295.1" stroke="#eab308" stroke-width="1.1" opacity="0.75"><animate attributeName="opacity" values="0.25;0.9;0.25" dur="12.1s" repeatCount="indefinite"/></line><circle cx="1043.8" cy="246.9" r="1.5" fill="#4f46e5" opacity="0.47"></circle><circle cx="973.0" cy="179.4" r="1.6" fill="#333d63" opacity="0.44"></circle><circle cx="887.0" cy="108.6" r="1.0" fill="#2b3352" opacity="0.65"></circle><circle cx="782.5" cy="59.7" r="2.0" fill="#333d63" opacity="0.84"></circle><circle cx="710.2" cy="56.0" r="2.3" fill="#3a466f" opacity="0.85"></circle><circle cx="663.3" cy="76.4" r="2.3" fill="#eab308" opacity="0.89"><animate attributeName="opacity" values="0.25;0.9;0.25" dur="9.2s" repeatCount="indefinite"/></circle><circle cx="632.5" cy="137.5" r="1.6" fill="#3a466f" opacity="0.85"></circle><line x1="629.1" y1="224.3" x2="629.7" y2="235.0" stroke="#4f46e5" stroke-width="1.1" opacity="0.40"></line><text x="628.6" y="308.7" font-size="12" fill="#3a466f" opacity="0.42">0</text><text x="607.6" y="366.4" font-size="11" fill="#333d63" opacity="0.45">0</text><circle cx="559.6" cy="406.9" r="1.4" fill="#3a466f" opacity="0.43"></circle><circle cx="488.8" cy="404.3" r="1.6" fill="#3a466f" opacity="0.52"></circle><circle cx="383.4" cy="374.1" r="1.3" fill="#333d63" opacity="0.50"></circle><circle cx="296.6" cy="308.3" r="1.9" fill="#3a466f" opacity="0.73"></circle><circle cx="216.3" cy="245.9" r="1.8" fill="#2b3352" opacity="0.47"></circle><text x="176.4" y="196.9" font-size="10" fill="#3a466f" opacity="0.44">0</text><circle cx="187.4" cy="161.8" r="1.5" fill="#2b3352" opacity="0.49"></circle><line x1="252.9" y1="166.7" x2="266.7" y2="168.0" stroke="#2b3352" stroke-width="1.1" opacity="0.47"></line><line x1="380.0" y1="189.5" x2="388.2" y2="192.0" stroke="#0ea5a4" stroke-width="1.1" opacity="0.72"></line><circle cx="532.7" cy="235.7" r="1.6" fill="#333d63" opacity="0.74"></circle><line x1="688.6" y1="281.6" x2="702.3" y2="284.0" stroke="#eab308" stroke-width="1.1" opacity="0.47"><animate attributeName="opacity" values="0.25;0.9;0.25" dur="8.7s" repeatCount="indefinite"/></line><circle cx="821.5" cy="305.0" r="1.6" fill="#3a466f" opacity="0.64"></circle><circle cx="917.5" cy="325.1" r="1.2" fill="#333d63" opacity="0.73"></circle><text x="974.9" y="302.1" font-size="12" fill="#eab308" opacity="0.81">0<animate attributeName="opacity" values="0.25;0.9;0.25" dur="10.0s" repeatCount="indefinite"/></text><circle cx="957.6" cy="258.4" r="1.1" fill="#4f46e5" opacity="0.67"></circle><text x="916.4" y="208.7" font-size="11" fill="#333d63" opacity="0.50">1</text><line x1="840.0" y1="143.8" x2="830.0" y2="138.8" stroke="#3a466f" stroke-width="1.1" opacity="0.79"></line><line x1="764.5" y1="100.6" x2="756.4" y2="99.6" stroke="#0ea5a4" stroke-width="1.1" opacity="0.49"></line><text x="694.8" y="92.3" font-size="12" fill="#2b3352" opacity="0.64">1</text><text x="656.4" y="98.5" font-size="12" fill="#3a466f" opacity="0.81">1</text><text x="635.0" y="151.9" font-size="12" fill="#333d63" opacity="0.78">0</text><circle cx="620.3" cy="208.0" r="1.4" fill="#333d63" opacity="0.40"></circle><circle cx="616.8" cy="274.1" r="1.8" fill="#333d63" opacity="0.58"></circle><circle cx="604.7" cy="330.6" r="2.3" fill="#0ea5a4" opacity="0.86"></circle><text x="572.8" y="365.2" font-size="11" fill="#2b3352" opacity="0.74">0</text><circle cx="525.5" cy="369.8" r="2.3" fill="#2b3352" opacity="0.67"></circle><circle cx="453.7" cy="354.8" r="2.0" fill="#333d63" opacity="0.72"></circle><line x1="363.9" y1="305.6" x2="357.6" y2="302.0" stroke="#eab308" stroke-width="1.1" opacity="0.69"><animate attributeName="opacity" values="0.25;0.9;0.25" dur="9.6s" repeatCount="indefinite"/></line><line x1="297.8" y1="259.3" x2="289.7" y2="250.0" stroke="#eab308" stroke-width="1.1" opacity="0.48"><animate attributeName="opacity" values="0.25;0.9;0.25" dur="8.6s" repeatCount="indefinite"/></line><circle cx="257.5" cy="213.3" r="1.4" fill="#4f46e5" opacity="0.84"></circle><line x1="262.6" y1="181.8" x2="276.1" y2="179.8" stroke="#4f46e5" stroke-width="1.1" opacity="0.75"></line><text x="305.5" y="180.4" font-size="11" fill="#3a466f" opacity="0.40">0</text><text x="394.9" y="191.8" font-size="10" fill="#3a466f" opacity="0.80">0</text><line x1="517.7" y1="223.3" x2="528.0" y2="227.3" stroke="#2b3352" stroke-width="1.1" opacity="0.77"></line><circle cx="645.7" cy="264.9" r="2.3" fill="#0ea5a4" opacity="0.59"></circle><line x1="756.5" y1="298.4" x2="764.7" y2="298.2" stroke="#333d63" stroke-width="1.1" opacity="0.50"></line><line x1="847.8" y1="311.1" x2="858.9" y2="306.5" stroke="#3a466f" stroke-width="1.1" opacity="0.60"></line><line x1="893.3" y1="301.7" x2="896.0" y2="293.3" stroke="#3a466f" stroke-width="1.1" opacity="0.66"></line><line x1="899.8" y1="271.3" x2="895.6" y2="264.2" stroke="#333d63" stroke-width="1.1" opacity="0.37"></line><line x1="869.4" y1="224.4" x2="865.5" y2="221.3" stroke="#4f46e5" stroke-width="1.1" opacity="0.71"></line><circle cx="810.0" cy="178.5" r="1.8" fill="#2b3352" opacity="0.79"></circle><line x1="743.5" y1="138.8" x2="735.1" y2="134.0" stroke="#2b3352" stroke-width="1.1" opacity="0.66"></line><text x="691.2" y="114.5" font-size="12" fill="#0ea5a4" opacity="0.63">0</text><line x1="649.7" y1="124.0" x2="642.5" y2="131.3" stroke="#3a466f" stroke-width="1.1" opacity="0.80"></line><circle cx="633.5" cy="153.1" r="1.8" fill="#2b3352" opacity="0.51"></circle><circle cx="623.1" cy="202.4" r="2.1" fill="#2b3352" opacity="0.58"></circle><text x="614.9" y="262.6" font-size="12" fill="#2b3352" opacity="0.56">1</text><circle cx="609.3" cy="301.6" r="2.0" fill="#2b3352" opacity="0.78"></circle><line x1="590.8" y1="342.8" x2="577.3" y2="345.0" stroke="#eab308" stroke-width="1.1" opacity="0.51"><animate attributeName="opacity" values="0.25;0.9;0.25" dur="8.1s" repeatCount="indefinite"/></line><circle cx="549.6" cy="350.5" r="1.2" fill="#0ea5a4" opacity="0.89"></circle><circle cx="486.9" cy="333.6" r="2.2" fill="#4f46e5" opacity="0.65"></circle><text x="430.1" y="304.2" font-size="11" fill="#333d63" opacity="0.53">1</text><text x="365.6" y="266.2" font-size="10" fill="#333d63" opacity="0.43">0</text><circle cx="331.1" cy="225.9" r="2.0" fill="#2b3352" opacity="0.84"></circle><circle cx="326.2" cy="200.0" r="1.4" fill="#333d63" opacity="0.41"></circle><line x1="350.4" y1="184.6" x2="358.5" y2="187.2" stroke="#333d63" stroke-width="1.1" opacity="0.71"></line><line x1="418.7" y1="204.2" x2="430.8" y2="204.4" stroke="#2b3352" stroke-width="1.1" opacity="0.40"></line><line x1="511.0" y1="226.0" x2="516.1" y2="226.8" stroke="#4f46e5" stroke-width="1.1" opacity="0.43"></line><circle cx="610.4" cy="256.4" r="1.5" fill="#2b3352" opacity="0.58"></circle><line x1="710.1" y1="282.0" x2="722.6" y2="282.6" stroke="#3a466f" stroke-width="1.1" opacity="0.62"></line><line x1="779.5" y1="294.9" x2="790.3" y2="293.6" stroke="#333d63" stroke-width="1.1" opacity="0.47"></line><line x1="834.0" y1="284.8" x2="843.9" y2="279.7" stroke="#4f46e5" stroke-width="1.1" opacity="0.77"></line><line x1="835.1" y1="269.3" x2="836.1" y2="262.9" stroke="#2b3352" stroke-width="1.1" opacity="0.38"></line><line x1="816.9" y1="237.7" x2="813.8" y2="231.8" stroke="#eab308" stroke-width="1.1" opacity="0.66"><animate attributeName="opacity" values="0.25;0.9;0.25" dur="12.0s" repeatCount="indefinite"/></line><text x="777.6" y="197.8" font-size="11" fill="#2b3352" opacity="0.65">1</text><circle cx="722.6" cy="158.8" r="2.2" fill="#3a466f" opacity="0.81"></circle><line x1="683.4" y1="140.2" x2="677.9" y2="141.4" stroke="#2b3352" stroke-width="1.1" opacity="0.47"></line><circle cx="647.6" cy="140.7" r="1.8" fill="#eab308" opacity="0.42"><animate attributeName="opacity" values="0.25;0.9;0.25" dur="8.4s" repeatCount="indefinite"/></circle><text x="625.0" y="166.0" font-size="12" fill="#2b3352" opacity="0.72">1</text><circle cx="618.4" cy="199.0" r="1.0" fill="#2b3352" opacity="0.89"></circle><circle cx="615.9" cy="250.4" r="2.4" fill="#2b3352" opacity="0.72"></circle><line x1="611.3" y1="287.5" x2="609.1" y2="293.7" stroke="#333d63" stroke-width="1.1" opacity="0.64"></line><line x1="590.2" y1="316.0" x2="588.8" y2="329.4" stroke="#eab308" stroke-width="1.1" opacity="0.58"></line><circle cx="564.7" cy="324.3" r="1.9" fill="#2b3352" opacity="0.66"></circle><circle cx="518.6" cy="324.0" r="1.7" fill="#333d63" opacity="0.82"></circle><text x="475.0" y="294.9" font-size="10" fill="#eab308" opacity="0.48">0</text><circle cx="423.2" cy="268.7" r="1.0" fill="#3a466f" opacity="0.48"></circle><circle cx="384.5" cy="235.2" r="2.0" fill="#3a466f" opacity="0.43"></circle><circle cx="378.0" cy="210.2" r="2.3" fill="#4f46e5" opacity="0.67"></circle><circle cx="395.9" cy="194.3" r="1.9" fill="#333d63" opacity="0.42"></circle><text x="446.5" y="203.3" font-size="10" fill="#2b3352" opacity="0.45">0</text><text x="507.6" y="224.5" font-size="10" fill="#3a466f" opacity="0.67">1</text><text x="589.1" y="241.0" font-size="11" fill="#0ea5a4" opacity="0.81">0</text><text x="672.4" y="268.1" font-size="10" fill="#4f46e5" opacity="0.52">1</text><line x1="732.9" y1="284.2" x2="740.7" y2="283.1" stroke="#0ea5a4" stroke-width="1.1" opacity="0.36"></line><circle cx="779.2" cy="284.1" r="2.1" fill="#0ea5a4" opacity="0.67"></circle><circle cx="792.6" cy="261.8" r="1.2" fill="#0ea5a4" opacity="0.78"></circle><text x="781.1" y="238.0" font-size="10" fill="#3a466f" opacity="0.66">0</text><circle cx="753.8" cy="209.5" r="1.5" fill="#2b3352" opacity="0.68"></circle><circle cx="714.6" cy="184.7" r="1.2" fill="#3a466f" opacity="0.64"></circle><circle cx="669.4" cy="162.5" r="1.1" fill="#2b3352" opacity="0.57"></circle><circle cx="644.7" cy="167.0" r="1.4" fill="#0ea5a4" opacity="0.87"></circle><line x1="618.7" y1="172.0" x2="619.0" y2="177.8" stroke="#333d63" stroke-width="1.1" opacity="0.52"></line><circle cx="608.6" cy="204.0" r="1.3" fill="#0ea5a4" opacity="0.47"></circle><line x1="612.0" y1="241.1" x2="612.5" y2="249.4" stroke="#2b3352" stroke-width="1.1" opacity="0.42"></line><text x="609.0" y="274.6" font-size="10" fill="#2b3352" opacity="0.80">1</text><circle cx="595.9" cy="297.3" r="2.0" fill="#2b3352" opacity="0.44"></circle><text x="573.5" y="309.5" font-size="11" fill="#2b3352" opacity="0.55">0</text><circle cx="551.1" cy="303.4" r="1.3" fill="#0ea5a4" opacity="0.89"></circle><line x1="506.4" y1="295.9" x2="500.3" y2="290.0" stroke="#0ea5a4" stroke-width="1.1" opacity="0.78"></line><line x1="471.1" y1="269.5" x2="465.0" y2="265.3" stroke="#0ea5a4" stroke-width="1.1" opacity="0.47"></line><line x1="430.9" y1="243.3" x2="429.5" y2="231.7" stroke="#4f46e5" stroke-width="1.1" opacity="0.43"></line><text x="424.5" y="214.4" font-size="12" fill="#0ea5a4" opacity="0.47">1</text><circle cx="436.4" cy="203.0" r="2.3" fill="#4f46e5" opacity="0.86"></circle><line x1="459.2" y1="209.9" x2="464.2" y2="210.6" stroke="#2b3352" stroke-width="1.1" opacity="0.55"></line><circle cx="514.4" cy="220.5" r="2.0" fill="#0ea5a4" opacity="0.44"></circle><text x="578.0" y="240.6" font-size="12" fill="#333d63" opacity="0.80">0</text><text x="647.0" y="255.8" font-size="10" fill="#3a466f" opacity="0.48">1</text><circle cx="694.6" cy="276.0" r="2.0" fill="#333d63" opacity="0.47"></circle><circle cx="735.1" cy="277.3" r="1.3" fill="#0ea5a4" opacity="0.49"></circle><text x="748.6" y="260.0" font-size="11" fill="#2b3352" opacity="0.42">0</text><line x1="743.7" y1="251.6" x2="744.3" y2="240.6" stroke="#333d63" stroke-width="1.1" opacity="0.56"></line><text x="726.9" y="223.4" font-size="10" fill="#333d63" opacity="0.74">0</text><circle cx="694.2" cy="204.2" r="2.1" fill="#0ea5a4" opacity="0.64"></circle><circle cx="668.0" cy="181.1" r="1.6" fill="#0ea5a4" opacity="0.89"></circle><line x1="639.7" y1="179.0" x2="630.6" y2="178.2" stroke="#333d63" stroke-width="1.1" opacity="0.47"></line><line x1="625.2" y1="182.7" x2="618.1" y2="189.1" stroke="#3a466f" stroke-width="1.1" opacity="0.43"></line><circle cx="614.2" cy="199.3" r="1.2" fill="#2b3352" opacity="0.50"></circle><line x1="611.3" y1="234.3" x2="608.5" y2="245.7" stroke="#333d63" stroke-width="1.1" opacity="0.43"></line><circle cx="613.1" cy="257.9" r="1.8" fill="#3a466f" opacity="0.69"></circle><line x1="605.3" y1="280.8" x2="600.0" y2="286.2" stroke="#3a466f" stroke-width="1.1" opacity="0.78"></line><circle cx="588.1" cy="291.8" r="2.0" fill="#333d63" opacity="0.78"></circle><circle cx="562.1" cy="290.3" r="1.4" fill="#3a466f" opacity="0.83"></circle><circle cx="528.9" cy="289.1" r="1.9" fill="#3a466f" opacity="0.81"></circle><line x1="500.8" y1="264.0" x2="492.4" y2="260.9" stroke="#4f46e5" stroke-width="1.1" opacity="0.60"></line><line x1="474.5" y1="249.5" x2="469.5" y2="243.0" stroke="#3a466f" stroke-width="1.1" opacity="0.78"></line><circle cx="463.6" cy="230.7" r="1.0" fill="#4f46e5" opacity="0.57"></circle><circle cx="467.2" cy="220.4" r="1.7" fill="#0ea5a4" opacity="0.82"></circle><text x="484.6" y="211.8" font-size="10" fill="#333d63" opacity="0.83">1</text><line x1="528.7" y1="218.7" x2="532.9" y2="223.1" stroke="#333d63" stroke-width="1.1" opacity="0.62"></line><circle cx="569.8" cy="236.1" r="1.9" fill="#333d63" opacity="0.84"></circle><line x1="630.5" y1="251.3" x2="638.9" y2="255.1" stroke="#4f46e5" stroke-width="1.1" opacity="0.77"></line><line x1="672.4" y1="257.2" x2="681.0" y2="263.7" stroke="#333d63" stroke-width="1.1" opacity="0.67"></line><circle cx="701.9" cy="272.2" r="1.2" fill="#2b3352" opacity="0.87"></circle><circle cx="726.1" cy="265.5" r="2.2" fill="#4f46e5" opacity="0.77"></circle><circle cx="721.7" cy="247.8" r="1.2" fill="#4f46e5" opacity="0.43"></circle><line x1="705.8" y1="224.5" x2="695.7" y2="224.2" stroke="#2b3352" stroke-width="1.1" opacity="0.40"></line><line x1="680.6" y1="208.0" x2="672.8" y2="204.8" stroke="#333d63" stroke-width="1.1" opacity="0.42"></line><circle cx="651.9" cy="194.4" r="1.7" fill="#4f46e5" opacity="0.89"></circle><circle cx="631.2" cy="187.8" r="1.4" fill="#3a466f" opacity="0.44"></circle><line x1="622.4" y1="196.2" x2="610.3" y2="197.4" stroke="#eab308" stroke-width="1.1" opacity="0.40"></line><line x1="613.5" y1="210.7" x2="606.9" y2="214.7" stroke="#2b3352" stroke-width="1.1" opacity="0.38"></line><line x1="605.0" y1="227.7" x2="610.6" y2="239.3" stroke="#333d63" stroke-width="1.1" opacity="0.71"></line><line x1="610.2" y1="255.7" x2="601.0" y2="258.4" stroke="#2b3352" stroke-width="1.1" opacity="0.53"></line><text x="609.2" y="269.4" font-size="11" fill="#333d63" opacity="0.52">1</text><line x1="593.0" y1="282.7" x2="584.7" y2="286.1" stroke="#2b3352" stroke-width="1.1" opacity="0.42"></line><circle cx="571.3" cy="283.6" r="1.9" fill="#eab308" opacity="0.82"></circle><line x1="549.7" y1="277.3" x2="541.5" y2="274.2" stroke="#333d63" stroke-width="1.1" opacity="0.67"></line><circle cx="526.2" cy="263.7" r="1.7" fill="#2b3352" opacity="0.65"></circle><text x="504.1" y="252.2" font-size="12" fill="#333d63" opacity="0.83">1</text><line x1="491.5" y1="231.6" x2="484.5" y2="228.2" stroke="#333d63" stroke-width="1.1" opacity="0.46"></line><line x1="489.0" y1="219.9" x2="491.8" y2="228.0" stroke="#0ea5a4" stroke-width="1.1" opacity="0.78"></line><line x1="503.7" y1="219.9" x2="513.1" y2="220.1" stroke="#4f46e5" stroke-width="1.1" opacity="0.73"></line><circle cx="535.7" cy="219.4" r="1.5" fill="#2b3352" opacity="0.85"></circle><circle cx="568.0" cy="234.5" r="1.7" fill="#3a466f" opacity="0.65"></circle><line x1="614.7" y1="244.7" x2="621.7" y2="249.2" stroke="#2b3352" stroke-width="1.1" opacity="0.41"></line><text x="653.9" y="259.1" font-size="10" fill="#3a466f" opacity="0.68">0</text><text x="676.9" y="261.4" font-size="11" fill="#3a466f" opacity="0.44">0</text><circle cx="692.7" cy="261.2" r="1.8" fill="#0ea5a4" opacity="0.78"></circle><line x1="694.7" y1="254.5" x2="697.4" y2="245.7" stroke="#2b3352" stroke-width="1.1" opacity="0.70"></line><circle cx="690.4" cy="234.1" r="2.4" fill="#333d63" opacity="0.64"></circle><circle cx="667.8" cy="216.1" r="1.2" fill="#eab308" opacity="0.51"></circle><line x1="647.7" y1="210.3" x2="644.5" y2="204.3" stroke="#2b3352" stroke-width="1.1" opacity="0.77"></line><circle cx="628.6" cy="198.0" r="1.5" fill="#3a466f" opacity="0.88"></circle><line x1="618.3" y1="202.0" x2="605.8" y2="206.9" stroke="#3a466f" stroke-width="1.1" opacity="0.44"></line><circle cx="605.3" cy="216.6" r="1.7" fill="#3a466f" opacity="0.74"></circle><text x="607.6" y="224.1" font-size="10" fill="#3a466f" opacity="0.67">0</text><text x="609.2" y="245.0" font-size="10" fill="#0ea5a4" opacity="0.60">0</text><circle cx="609.4" cy="256.6" r="1.2" fill="#4f46e5" opacity="0.56"></circle><circle cx="591.2" cy="268.1" r="2.1" fill="#333d63" opacity="0.74"></circle><circle cx="586.9" cy="282.3" r="1.9" fill="#3a466f" opacity="0.43"></circle><circle cx="564.4" cy="272.0" r="2.2" fill="#2b3352" opacity="0.51"></circle><circle cx="542.3" cy="265.9" r="1.9" fill="#0ea5a4" opacity="0.88"></circle><circle cx="526.1" cy="251.2" r="1.8" fill="#333d63" opacity="0.71"></circle><circle cx="507.7" cy="230.7" r="1.1" fill="#4f46e5" opacity="0.47"></circle><circle cx="505.1" cy="221.5" r="1.2" fill="#333d63" opacity="0.89"></circle><circle cx="511.6" cy="226.8" r="2.0" fill="#333d63" opacity="0.67"></circle><line x1="533.2" y1="226.5" x2="545.6" y2="227.7" stroke="#4f46e5" stroke-width="1.1" opacity="0.65"></line><line x1="565.6" y1="229.1" x2="571.0" y2="232.4" stroke="#3a466f" stroke-width="1.1" opacity="0.49"></line><text x="602.8" y="247.3" font-size="12" fill="#333d63" opacity="0.63">1</text><line x1="634.5" y1="253.1" x2="645.3" y2="254.3" stroke="#0ea5a4" stroke-width="1.1" opacity="0.72"></line><text x="663.5" y="256.7" font-size="10" fill="#333d63" opacity="0.57">0</text><circle cx="673.3" cy="251.5" r="1.6" fill="#eab308" opacity="0.82"></circle><circle cx="679.3" cy="255.7" r="1.6" fill="#3a466f" opacity="0.54"></circle><text x="674.2" y="233.6" font-size="10" fill="#eab308" opacity="0.42">1</text><circle cx="663.6" cy="221.9" r="1.3" fill="#333d63" opacity="0.63"></circle><circle cx="640.4" cy="217.0" r="1.3" fill="#0ea5a4" opacity="0.85"></circle><line x1="626.6" y1="207.5" x2="613.4" y2="209.2" stroke="#3a466f" stroke-width="1.1" opacity="0.67"></line><line x1="616.1" y1="202.5" x2="612.1" y2="212.3" stroke="#333d63" stroke-width="1.1" opacity="0.60"></line><circle cx="612.7" cy="214.9" r="2.0" fill="#3a466f" opacity="0.56"></circle><text x="600.8" y="224.7" font-size="12" fill="#3a466f" opacity="0.82">1</text><circle cx="605.5" cy="243.0" r="1.3" fill="#0ea5a4" opacity="0.90"></circle><circle cx="607.1" cy="251.0" r="1.4" fill="#3a466f" opacity="0.51"></circle><circle cx="602.6" cy="263.2" r="1.6" fill="#3a466f" opacity="0.57"></circle><circle cx="594.2" cy="267.1" r="1.3" fill="#2b3352" opacity="0.54"></circle><line x1="577.4" y1="272.0" x2="571.9" y2="266.5" stroke="#eab308" stroke-width="1.1" opacity="0.61"></line><line x1="555.3" y1="264.2" x2="553.4" y2="253.1" stroke="#333d63" stroke-width="1.1" opacity="0.52"></line><circle cx="544.2" cy="252.7" r="1.3" fill="#3a466f" opacity="0.42"></circle><circle cx="525.1" cy="233.6" r="1.9" fill="#2b3352" opacity="0.81"></circle><text x="522.8" y="232.8" font-size="11" fill="#333d63" opacity="0.65">1</text><circle cx="527.4" cy="229.5" r="1.5" fill="#0ea5a4" opacity="0.63"></circle><circle cx="546.3" cy="232.5" r="1.9" fill="#333d63" opacity="0.51"></circle><circle cx="572.5" cy="237.5" r="2.4" fill="#333d63" opacity="0.76"></circle><circle cx="601.8" cy="239.2" r="1.0" fill="#0ea5a4" opacity="0.43"></circle><line x1="626.4" y1="245.7" x2="630.0" y2="252.0" stroke="#2b3352" stroke-width="1.1" opacity="0.43"></line><line x1="646.7" y1="257.8" x2="649.7" y2="253.0" stroke="#2b3352" stroke-width="1.1" opacity="0.46"></line><text x="655.9" y="249.0" font-size="11" fill="#3a466f" opacity="0.43">1</text><circle cx="669.7" cy="249.2" r="1.1" fill="#4f46e5" opacity="0.75"></circle><circle cx="656.0" cy="236.8" r="2.3" fill="#333d63" opacity="0.61"></circle><line x1="651.9" y1="228.1" x2="646.6" y2="228.4" stroke="#4f46e5" stroke-width="1.1" opacity="0.44"></line><line x1="641.9" y1="221.2" x2="634.1" y2="219.6" stroke="#eab308" stroke-width="1.1" opacity="0.61"></line><circle cx="627.5" cy="219.8" r="2.0" fill="#eab308" opacity="0.73"></circle><circle cx="615.0" cy="212.2" r="1.4" fill="#0ea5a4" opacity="0.70"></circle><text x="608.4" y="216.4" font-size="10" fill="#0ea5a4" opacity="0.42">1</text><circle cx="602.8" cy="229.1" r="1.0" fill="#eab308" opacity="0.65"></circle><circle cx="600.3" cy="239.9" r="1.5" fill="#0ea5a4" opacity="0.63"></circle><line x1="604.7" y1="248.2" x2="602.6" y2="253.4" stroke="#333d63" stroke-width="1.1" opacity="0.65"></line><line x1="600.8" y1="259.6" x2="591.7" y2="262.8" stroke="#333d63" stroke-width="1.1" opacity="0.65"></line><line x1="598.2" y1="258.8" x2="588.9" y2="265.0" stroke="#4f46e5" stroke-width="1.1" opacity="0.61"></line><circle cx="584.7" cy="263.1" r="1.6" fill="#333d63" opacity="0.57"></circle><circle cx="570.8" cy="256.2" r="1.2" fill="#3a466f" opacity="0.46"></circle><circle cx="556.1" cy="248.9" r="1.2" fill="#4f46e5" opacity="0.50"></circle><circle cx="543.3" cy="241.2" r="2.1" fill="#333d63" opacity="0.64"></circle><circle cx="538.1" cy="237.0" r="1.1" fill="#3a466f" opacity="0.51"></circle><line x1="546.6" y1="227.8" x2="540.7" y2="235.1" stroke="#0ea5a4" stroke-width="1.1" opacity="0.80"></line><line x1="549.4" y1="225.7" x2="556.2" y2="229.6" stroke="#2b3352" stroke-width="1.1" opacity="0.80"></line><line x1="568.2" y1="236.3" x2="581.0" y2="234.2" stroke="#333d63" stroke-width="1.1" opacity="0.60"></line><text x="588.3" y="239.2" font-size="10" fill="#2b3352" opacity="0.44">0</text><circle cx="617.5" cy="246.0" r="1.7" fill="#2b3352" opacity="0.78"></circle><line x1="627.5" y1="247.9" x2="633.3" y2="249.7" stroke="#2b3352" stroke-width="1.1" opacity="0.36"></line><circle cx="640.6" cy="251.6" r="2.3" fill="#333d63" opacity="0.62"></circle><text x="654.2" y="248.5" font-size="10" fill="#3a466f" opacity="0.74">1</text><circle cx="646.8" cy="241.3" r="2.4" fill="#2b3352" opacity="0.44"></circle><circle cx="646.4" cy="230.4" r="2.2" fill="#333d63" opacity="0.80"></circle><circle cx="638.8" cy="227.1" r="1.9" fill="#3a466f" opacity="0.76"></circle><line x1="627.9" y1="219.5" x2="622.2" y2="219.9" stroke="#4f46e5" stroke-width="1.1" opacity="0.37"></line><line x1="618.0" y1="213.6" x2="609.0" y2="221.2" stroke="#0ea5a4" stroke-width="1.1" opacity="0.46"></line><circle cx="601.5" cy="215.9" r="2.0" fill="#333d63" opacity="0.81"></circle><circle cx="599.9" cy="233.0" r="1.3" fill="#3a466f" opacity="0.85"></circle><line x1="607.5" y1="238.6" x2="597.1" y2="239.7" stroke="#4f46e5" stroke-width="1.1" opacity="0.51"></line><circle cx="604.6" cy="242.1" r="2.0" fill="#333d63" opacity="0.58"></circle><line x1="604.8" y1="259.4" x2="598.0" y2="253.1" stroke="#3a466f" stroke-width="1.1" opacity="0.62"></line><text x="590.4" y="259.6" font-size="12" fill="#333d63" opacity="0.49">1</text><circle cx="586.5" cy="259.9" r="1.4" fill="#4f46e5" opacity="0.84"></circle><line x1="582.0" y1="254.9" x2="575.0" y2="253.8" stroke="#3a466f" stroke-width="1.1" opacity="0.80"></line><line x1="562.9" y1="251.6" x2="564.9" y2="246.1" stroke="#4f46e5" stroke-width="1.1" opacity="0.71"></line><text x="554.1" y="247.6" font-size="11" fill="#2b3352" opacity="0.59">1</text><circle cx="549.2" cy="230.5" r="1.6" fill="#eab308" opacity="0.73"></circle><line x1="551.0" y1="234.6" x2="556.3" y2="230.5" stroke="#2b3352" stroke-width="1.1" opacity="0.69"></line><circle cx="558.5" cy="232.3" r="1.3" fill="#0ea5a4" opacity="0.47"></circle><circle cx="569.3" cy="228.5" r="1.0" fill="#4f46e5" opacity="0.45"></circle><line x1="594.2" y1="244.3" x2="594.8" y2="233.3" stroke="#2b3352" stroke-width="1.1" opacity="0.66"></line><line x1="610.0" y1="246.8" x2="615.1" y2="241.3" stroke="#4f46e5" stroke-width="1.1" opacity="0.77"></line><circle cx="622.5" cy="252.7" r="1.2" fill="#333d63" opacity="0.46"></circle><circle cx="636.4" cy="244.2" r="1.9" fill="#2b3352" opacity="0.69"></circle><line x1="641.7" y1="243.6" x2="640.8" y2="249.2" stroke="#0ea5a4" stroke-width="1.1" opacity="0.42"></line><line x1="644.1" y1="240.5" x2="638.3" y2="242.1" stroke="#0ea5a4" stroke-width="1.1" opacity="0.69"></line><circle cx="641.2" cy="241.9" r="1.9" fill="#2b3352" opacity="0.55"></circle><line x1="626.9" y1="227.8" x2="620.0" y2="236.2" stroke="#0ea5a4" stroke-width="1.1" opacity="0.37"></line><circle cx="613.8" cy="226.2" r="1.5" fill="#0ea5a4" opacity="0.86"></circle><text x="609.8" y="217.6" font-size="11" fill="#2b3352" opacity="0.63">0</text><text x="606.6" y="223.3" font-size="12" fill="#2b3352" opacity="0.46">1</text><line x1="603.6" y1="227.8" x2="602.1" y2="241.3" stroke="#3a466f" stroke-width="1.1" opacity="0.78"></line><circle cx="604.6" cy="235.1" r="1.8" fill="#3a466f" opacity="0.59"></circle><circle cx="601.0" cy="248.1" r="1.5" fill="#0ea5a4" opacity="0.52"></circle><circle cx="596.4" cy="246.4" r="1.8" fill="#3a466f" opacity="0.50"></circle><line x1="598.0" y1="249.7" x2="596.5" y2="256.1" stroke="#2b3352" stroke-width="1.1" opacity="0.45"></line><text x="586.4" y="255.5" font-size="10" fill="#4f46e5" opacity="0.77">0</text><line x1="589.3" y1="252.2" x2="583.6" y2="252.1" stroke="#0ea5a4" stroke-width="1.1" opacity="0.41"></line><line x1="580.2" y1="250.2" x2="572.7" y2="246.8" stroke="#2b3352" stroke-width="1.1" opacity="0.46"></line><circle cx="570.0" cy="242.4" r="1.2" fill="#0ea5a4" opacity="0.75"></circle><text x="558.2" y="240.4" font-size="12" fill="#4f46e5" opacity="0.71">1</text><line x1="556.3" y1="231.0" x2="566.0" y2="234.9" stroke="#2b3352" stroke-width="1.1" opacity="0.38"></line><text x="564.3" y="234.3" font-size="11" fill="#4f46e5" opacity="0.73">1</text><line x1="578.8" y1="236.0" x2="583.0" y2="228.0" stroke="#4f46e5" stroke-width="1.1" opacity="0.44"></line><text x="586.9" y="236.6" font-size="10" fill="#4f46e5" opacity="0.54">1</text><circle cx="608.1" cy="246.5" r="1.0" fill="#2b3352" opacity="0.50"></circle><text x="613.3" y="243.9" font-size="10" fill="#3a466f" opacity="0.77">1</text><line x1="626.6" y1="246.3" x2="634.8" y2="251.1" stroke="#eab308" stroke-width="1.1" opacity="0.43"></line><line x1="627.7" y1="252.3" x2="634.6" y2="243.5" stroke="#333d63" stroke-width="1.1" opacity="0.79"></line><circle cx="629.0" cy="244.4" r="2.0" fill="#eab308" opacity="0.46"></circle><circle cx="626.9" cy="242.1" r="1.8" fill="#0ea5a4" opacity="0.52"></circle><line x1="626.7" y1="237.7" x2="618.5" y2="227.6" stroke="#333d63" stroke-width="1.1" opacity="0.76"></line><circle cx="623.0" cy="228.0" r="1.5" fill="#0ea5a4" opacity="0.54"></circle><circle cx="611.3" cy="232.5" r="2.4" fill="#2b3352" opacity="0.84"></circle><text x="604.3" y="223.5" font-size="10" fill="#3a466f" opacity="0.84">0</text><line x1="607.2" y1="228.6" x2="595.6" y2="236.0" stroke="#4f46e5" stroke-width="1.1" opacity="0.57"></line><text x="604.3" y="230.3" font-size="10" fill="#2b3352" opacity="0.62">0</text><circle cx="597.6" cy="240.9" r="2.4" fill="#3a466f" opacity="0.53"></circle><text x="596.1" y="245.8" font-size="11" fill="#3a466f" opacity="0.84">0</text><circle cx="595.4" cy="249.5" r="2.0" fill="#4f46e5" opacity="0.76"></circle><line x1="596.1" y1="256.3" x2="592.8" y2="250.8" stroke="#333d63" stroke-width="1.1" opacity="0.56"></line><line x1="594.9" y1="256.1" x2="587.8" y2="250.9" stroke="#3a466f" stroke-width="1.1" opacity="0.42"></line><circle cx="586.7" cy="247.1" r="2.3" fill="#0ea5a4" opacity="0.89"></circle><circle cx="572.0" cy="247.2" r="2.1" fill="#0ea5a4" opacity="0.46"></circle><line x1="574.1" y1="239.3" x2="563.6" y2="235.9" stroke="#0ea5a4" stroke-width="1.1" opacity="0.59"></line><line x1="564.3" y1="230.7" x2="571.7" y2="236.9" stroke="#2b3352" stroke-width="1.1" opacity="0.53"></line><line x1="570.0" y1="234.0" x2="575.4" y2="234.7" stroke="#2b3352" stroke-width="1.1" opacity="0.42"></line><circle cx="583.6" cy="235.9" r="1.2" fill="#4f46e5" opacity="0.50"></circle><line x1="588.7" y1="243.2" x2="592.6" y2="236.9" stroke="#333d63" stroke-width="1.1" opacity="0.52"></line><text x="605.1" y="244.6" font-size="12" fill="#eab308" opacity="0.41">0</text><text x="605.9" y="239.7" font-size="11" fill="#2b3352" opacity="0.68">1</text><circle cx="619.2" cy="245.9" r="2.3" fill="#333d63" opacity="0.57"></circle><circle cx="623.5" cy="245.6" r="1.9" fill="#2b3352" opacity="0.75"></circle><circle cx="622.0" cy="247.8" r="1.4" fill="#3a466f" opacity="0.70"></circle><line x1="629.4" y1="237.7" x2="620.2" y2="239.5" stroke="#333d63" stroke-width="1.1" opacity="0.74"></line><circle cx="625.7" cy="231.6" r="1.8" fill="#4f46e5" opacity="0.67"></circle><line x1="610.6" y1="236.1" x2="613.4" y2="231.2" stroke="#2b3352" stroke-width="1.1" opacity="0.39"></line><circle cx="609.0" cy="225.2" r="1.1" fill="#2b3352" opacity="0.71"></circle><circle cx="605.3" cy="234.4" r="1.5" fill="#2b3352" opacity="0.62"></circle><line x1="608.4" y1="233.4" x2="601.6" y2="232.1" stroke="#0ea5a4" stroke-width="1.1" opacity="0.76"></line><circle cx="596.4" cy="238.1" r="1.1" fill="#3a466f" opacity="0.90"></circle><line x1="601.3" y1="242.4" x2="604.4" y2="232.6" stroke="#0ea5a4" stroke-width="1.1" opacity="0.68"></line><text x="607.0" y="240.3" font-size="12" fill="#4f46e5" opacity="0.84">0</text><line x1="602.0" y1="243.6" x2="598.3" y2="250.4" stroke="#2b3352" stroke-width="1.1" opacity="0.69"></line><line x1="592.8" y1="253.7" x2="600.7" y2="243.1" stroke="#4f46e5" stroke-width="1.1" opacity="0.73"></line><circle cx="595.0" cy="252.0" r="1.8" fill="#2b3352" opacity="0.77"></circle><line x1="590.7" y1="248.8" x2="580.9" y2="244.0" stroke="#eab308" stroke-width="1.1" opacity="0.46"></line></g><text x="24" y="460" font-family="Consolas, Menlo, monospace" font-size="13" fill="#4a5578">2026-07-17 · sin(2t+φ)·e^(−λt), sin(4t) · seed 587243</text></svg>