<svg width="1200" height="480" viewBox="0 0 1200 480" xmlns="http://www.w3.org/2000/svg" role="img" aria-label="Generative art for 2026-10-05"><rect width="1200" height="480" fill="#0b0e1a"/><g font-family="Consolas, Menlo, monospace"><line x1="971.3" y1="326.1" x2="965.4" y2="332.0" stroke="#4f46e5" stroke-width="1.1" opacity="0.72"></line><circle cx="814.3" cy="422.1" r="1.1" fill="#4f46e5" opacity="0.77"></circle><circle cx="604.8" cy="437.6" r="1.9" fill="#333d63" opacity="0.78"></circle><circle cx="428.1" cy="339.7" r="1.7" fill="#333d63" opacity="0.79"></circle><line x1="346.3" y1="190.8" x2="347.1" y2="179.4" stroke="#333d63" stroke-width="1.1" opacity="0.44"></line><circle cx="383.4" cy="56.2" r="2.2" fill="#4f46e5" opacity="0.52"></circle><line x1="472.4" y1="12.4" x2="481.7" y2="17.6" stroke="#4f46e5" stroke-width="1.1" opacity="0.48"></line><circle cx="575.6" cy="101.0" r="2.2" fill="#3a466f" opacity="0.60"></circle><circle cx="663.5" cy="256.8" r="1.2" fill="#eab308" opacity="0.50"><animate attributeName="opacity" values="0.25;0.9;0.25" dur="12.5s" repeatCount="indefinite"/></circle><circle cx="727.5" cy="398.5" r="1.9" fill="#3a466f" opacity="0.49"></circle><line x1="757.1" y1="464.4" x2="765.2" y2="463.7" stroke="#0ea5a4" stroke-width="1.1" opacity="0.42"></line><line x1="766.1" y1="415.1" x2="765.4" y2="408.5" stroke="#3a466f" stroke-width="1.1" opacity="0.58"></line><circle cx="736.6" cy="267.2" r="1.2" fill="#3a466f" opacity="0.48"></circle><text x="642.8" y="111.5" font-size="12" fill="#3a466f" opacity="0.68">0</text><text x="513.0" y="32.9" font-size="12" fill="#4f46e5" opacity="0.59">1</text><text x="382.9" y="59.5" font-size="12" fill="#0ea5a4" opacity="0.52">1</text><circle cx="310.1" cy="178.2" r="1.5" fill="#2b3352" opacity="0.89"></circle><circle cx="366.6" cy="317.9" r="1.6" fill="#eab308" opacity="0.67"><animate attributeName="opacity" values="0.25;0.9;0.25" dur="11.5s" repeatCount="indefinite"/></circle><line x1="544.7" y1="409.2" x2="551.1" y2="410.7" stroke="#4f46e5" stroke-width="1.1" opacity="0.52"></line><circle cx="781.3" cy="406.1" r="2.2" fill="#4f46e5" opacity="0.45"></circle><circle cx="965.6" cy="315.8" r="1.0" fill="#3a466f" opacity="0.79"></circle><circle cx="1002.5" cy="197.9" r="1.6" fill="#3a466f" opacity="0.82"></circle><line x1="843.0" y1="105.4" x2="833.7" y2="104.4" stroke="#2b3352" stroke-width="1.1" opacity="0.48"></line><line x1="554.9" y1="96.0" x2="541.3" y2="98.6" stroke="#2b3352" stroke-width="1.1" opacity="0.67"></line><line x1="266.4" y1="166.6" x2="258.7" y2="169.5" stroke="#3a466f" stroke-width="1.1" opacity="0.80"></line><line x1="115.1" y1="256.6" x2="113.2" y2="262.9" stroke="#4f46e5" stroke-width="1.1" opacity="0.46"></line><circle cx="180.7" cy="334.0" r="2.1" fill="#4f46e5" opacity="0.77"></circle><circle cx="464.6" cy="343.5" r="2.3" fill="#333d63" opacity="0.74"></circle><text x="828.5" y="290.4" font-size="12" fill="#0ea5a4" opacity="0.63">1<animate attributeName="opacity" values="0.25;0.9;0.25" dur="8.8s" repeatCount="indefinite"/></text><text x="1095.9" y="217.3" font-size="11" fill="#3a466f" opacity="0.56">0</text><circle cx="1122.0" cy="175.8" r="1.0" fill="#4f46e5" opacity="0.63"></circle><circle cx="908.2" cy="184.7" r="1.2" fill="#4f46e5" opacity="0.73"></circle><text x="542.0" y="225.0" font-size="10" fill="#3a466f" opacity="0.60">0</text><circle cx="197.2" cy="280.3" r="2.3" fill="#333d63" opacity="0.48"></circle><line x1="49.9" y1="295.5" x2="55.0" y2="294.1" stroke="#333d63" stroke-width="1.1" opacity="0.54"></line><text x="160.8" y="270.8" font-size="11" fill="#eab308" opacity="0.71">1<animate attributeName="opacity" values="0.25;0.9;0.25" dur="6.4s" repeatCount="indefinite"/></text><line x1="474.5" y1="212.1" x2="484.9" y2="210.9" stroke="#333d63" stroke-width="1.1" opacity="0.54"></line><circle cx="842.3" cy="167.0" r="2.1" fill="#3a466f" opacity="0.52"></circle><text x="1077.8" y="172.8" font-size="10" fill="#0ea5a4" opacity="0.58">0</text><line x1="1082.7" y1="217.7" x2="1072.0" y2="224.0" stroke="#0ea5a4" stroke-width="1.1" opacity="0.38"></line><circle cx="857.8" cy="291.9" r="1.4" fill="#333d63" opacity="0.47"></circle><circle cx="533.8" cy="344.8" r="1.5" fill="#4f46e5" opacity="0.50"></circle><circle cx="258.9" cy="341.8" r="1.3" fill="#3a466f" opacity="0.54"></circle><text x="165.5" y="266.6" font-size="10" fill="#333d63" opacity="0.58">0</text><line x1="270.7" y1="162.4" x2="283.2" y2="158.3" stroke="#eab308" stroke-width="1.1" opacity="0.41"><animate attributeName="opacity" values="0.25;0.9;0.25" dur="6.5s" repeatCount="indefinite"/></line><circle cx="502.8" cy="100.7" r="1.3" fill="#0ea5a4" opacity="0.52"></circle><circle cx="762.2" cy="111.9" r="1.3" fill="#4f46e5" opacity="0.41"></circle><line x1="913.8" y1="183.9" x2="916.2" y2="190.7" stroke="#333d63" stroke-width="1.1" opacity="0.53"></line><text x="914.3" y="311.6" font-size="11" fill="#3a466f" opacity="0.53">1</text><line x1="786.4" y1="401.1" x2="780.4" y2="401.9" stroke="#3a466f" stroke-width="1.1" opacity="0.40"></line><line x1="602.6" y1="403.7" x2="591.5" y2="401.0" stroke="#eab308" stroke-width="1.1" opacity="0.46"><animate attributeName="opacity" values="0.25;0.9;0.25" dur="9.9s" repeatCount="indefinite"/></line><line x1="456.3" y1="321.8" x2="449.6" y2="314.7" stroke="#333d63" stroke-width="1.1" opacity="0.53"></line><line x1="395.8" y1="194.0" x2="393.8" y2="181.5" stroke="#2b3352" stroke-width="1.1" opacity="0.43"></line><line x1="416.2" y1="89.9" x2="420.9" y2="83.0" stroke="#333d63" stroke-width="1.1" opacity="0.39"></line><text x="497.4" y="59.2" font-size="11" fill="#2b3352" opacity="0.60">0</text><line x1="585.5" y1="121.6" x2="591.3" y2="132.0" stroke="#2b3352" stroke-width="1.1" opacity="0.49"></line><text x="651.3" y="257.2" font-size="11" fill="#333d63" opacity="0.50">1</text><line x1="708.1" y1="377.2" x2="709.6" y2="382.4" stroke="#0ea5a4" stroke-width="1.1" opacity="0.55"></line><circle cx="734.8" cy="429.2" r="1.1" fill="#3a466f" opacity="0.53"></circle><circle cx="734.1" cy="380.7" r="1.6" fill="#2b3352" opacity="0.61"></circle><line x1="715.1" y1="262.6" x2="708.9" y2="252.2" stroke="#333d63" stroke-width="1.1" opacity="0.77"></line><line x1="640.0" y1="139.2" x2="632.3" y2="131.9" stroke="#eab308" stroke-width="1.1" opacity="0.80"><animate attributeName="opacity" values="0.25;0.9;0.25" dur="8.2s" repeatCount="indefinite"/></line><circle cx="525.8" cy="67.4" r="1.9" fill="#eab308" opacity="0.49"><animate attributeName="opacity" values="0.25;0.9;0.25" dur="12.9s" repeatCount="indefinite"/></circle><circle cx="417.4" cy="83.6" r="1.8" fill="#eab308" opacity="0.58"><animate attributeName="opacity" values="0.25;0.9;0.25" dur="7.3s" repeatCount="indefinite"/></circle><circle cx="355.9" cy="188.4" r="2.3" fill="#0ea5a4" opacity="0.83"></circle><circle cx="410.0" cy="307.8" r="1.3" fill="#333d63" opacity="0.85"></circle><line x1="557.3" y1="384.5" x2="570.9" y2="387.0" stroke="#2b3352" stroke-width="1.1" opacity="0.43"></line><text x="744.9" y="377.7" font-size="11" fill="#0ea5a4" opacity="0.55">0</text><circle cx="906.1" cy="301.2" r="2.0" fill="#333d63" opacity="0.80"></circle><line x1="931.8" y1="206.3" x2="927.8" y2="200.4" stroke="#333d63" stroke-width="1.1" opacity="0.75"></line><line x1="801.4" y1="128.3" x2="795.1" y2="127.6" stroke="#eab308" stroke-width="1.1" opacity="0.41"><animate attributeName="opacity" values="0.25;0.9;0.25" dur="7.9s" repeatCount="indefinite"/></line><line x1="562.2" y1="126.9" x2="553.4" y2="127.7" stroke="#3a466f" stroke-width="1.1" opacity="0.37"></line><text x="310.9" y="178.0" font-size="12" fill="#3a466f" opacity="0.43">1</text><line x1="184.5" y1="253.8" x2="185.1" y2="259.9" stroke="#2b3352" stroke-width="1.1" opacity="0.44"></line><circle cx="258.2" cy="310.3" r="2.3" fill="#eab308" opacity="0.66"><animate attributeName="opacity" values="0.25;0.9;0.25" dur="7.1s" repeatCount="indefinite"/></circle><circle cx="485.4" cy="323.1" r="1.4" fill="#333d63" opacity="0.71"></circle><circle cx="788.0" cy="277.7" r="1.2" fill="#3a466f" opacity="0.65"></circle><circle cx="1011.8" cy="229.1" r="2.3" fill="#4f46e5" opacity="0.41"></circle><line x1="1039.3" y1="188.9" x2="1032.1" y2="187.5" stroke="#2b3352" stroke-width="1.1" opacity="0.79"></line><circle cx="856.5" cy="189.2" r="1.9" fill="#3a466f" opacity="0.52"></circle><text x="555.8" y="229.9" font-size="11" fill="#3a466f" opacity="0.66">1</text><line x1="272.0" y1="275.3" x2="263.8" y2="275.9" stroke="#333d63" stroke-width="1.1" opacity="0.44"></line><line x1="140.1" y1="282.2" x2="152.4" y2="287.7" stroke="#2b3352" stroke-width="1.1" opacity="0.60"></line><circle cx="237.8" cy="262.2" r="1.7" fill="#4f46e5" opacity="0.81"></circle><text x="498.8" y="222.5" font-size="10" fill="#333d63" opacity="0.65">0</text><line x1="805.6" y1="185.9" x2="810.6" y2="185.2" stroke="#0ea5a4" stroke-width="1.1" opacity="0.74"></line><circle cx="996.2" cy="180.9" r="2.3" fill="#333d63" opacity="0.44"></circle><line x1="1001.9" y1="230.7" x2="993.4" y2="233.6" stroke="#333d63" stroke-width="1.1" opacity="0.54"></line><circle cx="824.4" cy="291.5" r="1.7" fill="#3a466f" opacity="0.87"></circle><circle cx="542.9" cy="328.2" r="2.1" fill="#2b3352" opacity="0.52"></circle><line x1="321.3" y1="323.9" x2="312.3" y2="320.8" stroke="#333d63" stroke-width="1.1" opacity="0.44"></line><text x="231.3" y="261.0" font-size="12" fill="#eab308" opacity="0.71">0<animate attributeName="opacity" values="0.25;0.9;0.25" dur="11.4s" repeatCount="indefinite"/></text><circle cx="322.8" cy="181.4" r="1.4" fill="#333d63" opacity="0.62"></circle><line x1="525.3" y1="126.2" x2="535.0" y2="124.8" stroke="#eab308" stroke-width="1.1" opacity="0.74"></line><text x="730.7" y="125.8" font-size="12" fill="#2b3352" opacity="0.47">1</text><text x="866.3" y="203.7" font-size="12" fill="#eab308" opacity="0.43">0</text><line x1="862.6" y1="295.7" x2="858.2" y2="300.5" stroke="#333d63" stroke-width="1.1" opacity="0.38"></line><line x1="755.9" y1="371.0" x2="747.0" y2="373.1" stroke="#3a466f" stroke-width="1.1" opacity="0.74"></line><line x1="600.7" y1="375.8" x2="593.1" y2="374.1" stroke="#2b3352" stroke-width="1.1" opacity="0.64"></line><circle cx="481.4" cy="308.2" r="1.6" fill="#2b3352" opacity="0.60"></circle><line x1="430.1" y1="206.0" x2="428.1" y2="194.0" stroke="#0ea5a4" stroke-width="1.1" opacity="0.46"></line><text x="444.0" y="110.3" font-size="10" fill="#0ea5a4" opacity="0.62">1</text><line x1="512.8" y1="84.8" x2="518.3" y2="86.9" stroke="#3a466f" stroke-width="1.1" opacity="0.68"></line><line x1="587.8" y1="140.0" x2="592.7" y2="149.1" stroke="#eab308" stroke-width="1.1" opacity="0.77"></line><line x1="648.9" y1="247.2" x2="651.2" y2="255.2" stroke="#4f46e5" stroke-width="1.1" opacity="0.58"></line><circle cx="686.4" cy="357.4" r="2.0" fill="#2b3352" opacity="0.57"></circle><text x="709.7" y="403.0" font-size="12" fill="#0ea5a4" opacity="0.51">1</text><line x1="719.9" y1="364.0" x2="718.6" y2="358.6" stroke="#0ea5a4" stroke-width="1.1" opacity="0.52"></line><circle cx="696.7" cy="262.6" r="1.5" fill="#333d63" opacity="0.81"></circle><circle cx="633.6" cy="157.6" r="1.3" fill="#2b3352" opacity="0.88"></circle><text x="537.3" y="93.8" font-size="10" fill="#4f46e5" opacity="0.53">1</text><line x1="446.6" y1="107.2" x2="442.1" y2="112.3" stroke="#4f46e5" stroke-width="1.1" opacity="0.69"></line><line x1="400.1" y1="193.1" x2="400.2" y2="202.8" stroke="#0ea5a4" stroke-width="1.1" opacity="0.50"></line><text x="433.6" y="296.4" font-size="11" fill="#333d63" opacity="0.43">0</text><text x="564.0" y="362.8" font-size="10" fill="#2b3352" opacity="0.80">0</text><circle cx="720.6" cy="364.6" r="1.7" fill="#2b3352" opacity="0.71"></circle><circle cx="859.2" cy="293.9" r="1.1" fill="#4f46e5" opacity="0.83"></circle><text x="875.5" y="212.8" font-size="12" fill="#3a466f" opacity="0.45">1</text><text x="775.1" y="145.7" font-size="12" fill="#3a466f" opacity="0.81">1</text><circle cx="570.3" cy="146.4" r="2.2" fill="#4f46e5" opacity="0.59"></circle><line x1="367.1" y1="182.9" x2="355.6" y2="188.6" stroke="#333d63" stroke-width="1.1" opacity="0.36"></line><text x="257.0" y="253.4" font-size="11" fill="#0ea5a4" opacity="0.62">1</text><circle cx="314.4" cy="305.5" r="2.4" fill="#0ea5a4" opacity="0.41"></circle><circle cx="505.0" cy="314.5" r="1.4" fill="#333d63" opacity="0.45"></circle><text x="753.9" y="269.5" font-size="12" fill="#3a466f" opacity="0.79">1</text><circle cx="939.3" cy="220.4" r="1.9" fill="#0ea5a4" opacity="0.51"></circle><circle cx="968.4" cy="196.1" r="1.3" fill="#3a466f" opacity="0.40"></circle><text x="815.0" y="197.1" font-size="12" fill="#0ea5a4" opacity="0.55">1</text><text x="558.8" y="235.2" font-size="11" fill="#333d63" opacity="0.76">1</text><line x1="317.0" y1="272.4" x2="305.4" y2="272.6" stroke="#4f46e5" stroke-width="1.1" opacity="0.67"></line><line x1="211.6" y1="283.7" x2="221.2" y2="276.5" stroke="#4f46e5" stroke-width="1.1" opacity="0.45"></line><text x="292.8" y="257.4" font-size="10" fill="#3a466f" opacity="0.67">0</text><line x1="519.8" y1="224.8" x2="524.7" y2="223.8" stroke="#2b3352" stroke-width="1.1" opacity="0.77"></line><line x1="763.9" y1="187.0" x2="774.8" y2="187.1" stroke="#333d63" stroke-width="1.1" opacity="0.58"></line><line x1="936.1" y1="186.8" x2="944.7" y2="192.8" stroke="#333d63" stroke-width="1.1" opacity="0.48"></line><text x="932.7" y="225.0" font-size="10" fill="#333d63" opacity="0.50">0</text><circle cx="779.5" cy="282.6" r="1.5" fill="#3a466f" opacity="0.65"></circle><text x="554.2" y="313.6" font-size="11" fill="#4f46e5" opacity="0.66">1</text><text x="365.8" y="305.7" font-size="12" fill="#3a466f" opacity="0.75">1</text><line x1="296.6" y1="253.6" x2="298.7" y2="247.9" stroke="#3a466f" stroke-width="1.1" opacity="0.63"></line><circle cx="362.6" cy="185.4" r="1.6" fill="#eab308" opacity="0.84"></circle><circle cx="538.1" cy="137.3" r="1.9" fill="#2b3352" opacity="0.80"></circle><circle cx="708.5" cy="144.0" r="1.4" fill="#2b3352" opacity="0.72"></circle><circle cx="813.0" cy="202.5" r="1.1" fill="#4f46e5" opacity="0.73"></circle><line x1="819.9" y1="292.1" x2="814.1" y2="296.7" stroke="#3a466f" stroke-width="1.1" opacity="0.69"></line><circle cx="727.2" cy="353.1" r="2.1" fill="#3a466f" opacity="0.58"></circle><circle cx="601.2" cy="358.9" r="1.6" fill="#4f46e5" opacity="0.40"></circle><line x1="497.9" y1="295.5" x2="491.8" y2="289.1" stroke="#3a466f" stroke-width="1.1" opacity="0.68"></line><line x1="449.8" y1="212.1" x2="450.7" y2="205.1" stroke="#eab308" stroke-width="1.1" opacity="0.54"></line><text x="470.6" y="132.8" font-size="10" fill="#2b3352" opacity="0.53">0</text><circle cx="518.8" cy="113.6" r="2.0" fill="#4f46e5" opacity="0.58"></circle><circle cx="583.0" cy="160.6" r="1.2" fill="#2b3352" opacity="0.59"></circle><circle cx="632.9" cy="251.3" r="1.9" fill="#0ea5a4" opacity="0.89"></circle><text x="670.3" y="337.3" font-size="11" fill="#2b3352" opacity="0.53">0</text><circle cx="691.2" cy="375.2" r="1.3" fill="#0ea5a4" opacity="0.45"></circle><circle cx="700.6" cy="334.7" r="1.8" fill="#3a466f" opacity="0.43"></circle><text x="678.1" y="262.1" font-size="11" fill="#3a466f" opacity="0.44">1</text><line x1="619.5" y1="164.9" x2="610.9" y2="154.6" stroke="#0ea5a4" stroke-width="1.1" opacity="0.52"></line><text x="550.4" y="118.1" font-size="10" fill="#0ea5a4" opacity="0.51">0</text><line x1="469.4" y1="129.1" x2="463.8" y2="136.3" stroke="#333d63" stroke-width="1.1" opacity="0.49"></line><line x1="435.4" y1="199.6" x2="434.9" y2="204.6" stroke="#eab308" stroke-width="1.1" opacity="0.50"></line><line x1="459.3" y1="285.8" x2="465.1" y2="290.6" stroke="#0ea5a4" stroke-width="1.1" opacity="0.40"></line><line x1="565.7" y1="338.1" x2="573.6" y2="340.1" stroke="#2b3352" stroke-width="1.1" opacity="0.55"></line><line x1="697.4" y1="334.0" x2="705.0" y2="333.1" stroke="#3a466f" stroke-width="1.1" opacity="0.42"></line><circle cx="818.1" cy="287.1" r="1.2" fill="#2b3352" opacity="0.43"></circle><line x1="831.3" y1="214.0" x2="824.0" y2="203.8" stroke="#2b3352" stroke-width="1.1" opacity="0.44"></line><circle cx="741.5" cy="166.6" r="1.4" fill="#3a466f" opacity="0.88"></circle><circle cx="571.4" cy="156.4" r="1.4" fill="#333d63" opacity="0.80"></circle><line x1="403.0" y1="192.6" x2="391.9" y2="198.2" stroke="#333d63" stroke-width="1.1" opacity="0.38"></line><line x1="307.9" y1="254.4" x2="310.0" y2="263.3" stroke="#2b3352" stroke-width="1.1" opacity="0.62"></line><circle cx="361.3" cy="287.5" r="2.3" fill="#2b3352" opacity="0.84"></circle><circle cx="527.5" cy="300.4" r="2.2" fill="#333d63" opacity="0.66"></circle><line x1="732.1" y1="267.8" x2="740.7" y2="266.3" stroke="#3a466f" stroke-width="1.1" opacity="0.36"></line><circle cx="884.8" cy="222.7" r="1.2" fill="#eab308" opacity="0.69"></circle><line x1="908.5" y1="206.6" x2="896.4" y2="203.1" stroke="#2b3352" stroke-width="1.1" opacity="0.62"></line><circle cx="774.9" cy="205.7" r="1.7" fill="#333d63" opacity="0.80"></circle><line x1="559.9" y1="234.5" x2="551.4" y2="235.5" stroke="#0ea5a4" stroke-width="1.1" opacity="0.44"></line><circle cx="363.1" cy="258.4" r="1.3" fill="#2b3352" opacity="0.78"></circle><line x1="283.7" y1="275.5" x2="279.6" y2="266.2" stroke="#3a466f" stroke-width="1.1" opacity="0.73"></line><line x1="347.9" y1="258.7" x2="356.3" y2="256.5" stroke="#2b3352" stroke-width="1.1" opacity="0.63"></line><text x="530.5" y="225.1" font-size="12" fill="#3a466f" opacity="0.65">1</text><line x1="737.8" y1="197.0" x2="748.7" y2="196.8" stroke="#4f46e5" stroke-width="1.1" opacity="0.63"></line><text x="881.2" y="196.7" font-size="10" fill="#eab308" opacity="0.56">0</text><circle cx="880.2" cy="230.2" r="1.6" fill="#333d63" opacity="0.49"></circle><line x1="758.9" y1="278.2" x2="746.6" y2="279.5" stroke="#333d63" stroke-width="1.1" opacity="0.64"></line><line x1="557.7" y1="300.4" x2="545.1" y2="301.8" stroke="#0ea5a4" stroke-width="1.1" opacity="0.58"></line><text x="408.3" y="294.0" font-size="11" fill="#333d63" opacity="0.58">0</text><circle cx="340.6" cy="255.1" r="1.9" fill="#0ea5a4" opacity="0.85"></circle><text x="402.8" y="199.8" font-size="11" fill="#0ea5a4" opacity="0.66">1</text><circle cx="544.2" cy="154.3" r="1.4" fill="#2b3352" opacity="0.59"></circle><line x1="692.2" y1="167.3" x2="697.5" y2="167.9" stroke="#4f46e5" stroke-width="1.1" opacity="0.52"></line><line x1="778.5" y1="215.1" x2="785.1" y2="221.8" stroke="#3a466f" stroke-width="1.1" opacity="0.56"></line><circle cx="787.4" cy="281.1" r="2.4" fill="#3a466f" opacity="0.82"></circle><line x1="707.2" y1="327.0" x2="701.0" y2="329.5" stroke="#0ea5a4" stroke-width="1.1" opacity="0.54"></line><line x1="600.9" y1="334.6" x2="593.4" y2="333.1" stroke="#3a466f" stroke-width="1.1" opacity="0.76"></line><circle cx="508.9" cy="290.0" r="1.7" fill="#0ea5a4" opacity="0.53"></circle><line x1="481.0" y1="218.3" x2="479.3" y2="207.2" stroke="#0ea5a4" stroke-width="1.1" opacity="0.42"></line><line x1="491.6" y1="148.3" x2="500.1" y2="139.8" stroke="#333d63" stroke-width="1.1" opacity="0.51"></line><text x="541.5" y="132.2" font-size="10" fill="#333d63" opacity="0.78">1</text><circle cx="584.4" cy="175.4" r="1.1" fill="#3a466f" opacity="0.75"></circle><circle cx="632.2" cy="250.7" r="2.3" fill="#3a466f" opacity="0.45"></circle><circle cx="664.9" cy="317.4" r="1.8" fill="#333d63" opacity="0.85"></circle><line x1="683.6" y1="351.0" x2="672.2" y2="344.9" stroke="#3a466f" stroke-width="1.1" opacity="0.37"></line><circle cx="686.5" cy="327.0" r="1.6" fill="#4f46e5" opacity="0.61"></circle><circle cx="660.3" cy="254.7" r="1.2" fill="#2b3352" opacity="0.50"></circle><text x="615.2" y="180.0" font-size="11" fill="#333d63" opacity="0.70">1</text><text x="558.7" y="133.0" font-size="12" fill="#2b3352" opacity="0.53">1</text><text x="489.0" y="156.8" font-size="12" fill="#2b3352" opacity="0.83">1</text><line x1="462.3" y1="208.3" x2="461.0" y2="220.7" stroke="#3a466f" stroke-width="1.1" opacity="0.58"></line><text x="488.4" y="274.4" font-size="10" fill="#0ea5a4" opacity="0.68">0</text><line x1="575.7" y1="319.4" x2="587.4" y2="324.1" stroke="#3a466f" stroke-width="1.1" opacity="0.67"></line><circle cx="681.0" cy="324.6" r="2.3" fill="#0ea5a4" opacity="0.76"></circle><line x1="783.1" y1="277.2" x2="786.2" y2="271.5" stroke="#333d63" stroke-width="1.1" opacity="0.55"></line><line x1="797.7" y1="215.8" x2="788.2" y2="208.1" stroke="#333d63" stroke-width="1.1" opacity="0.69"></line><text x="715.0" y="175.6" font-size="10" fill="#0ea5a4" opacity="0.60">1</text><circle cx="581.4" cy="165.8" r="2.1" fill="#eab308" opacity="0.50"></circle><line x1="439.1" y1="202.8" x2="430.5" y2="206.1" stroke="#2b3352" stroke-width="1.1" opacity="0.64"></line><circle cx="355.4" cy="247.5" r="1.7" fill="#2b3352" opacity="0.77"></circle><line x1="401.6" y1="289.3" x2="415.4" y2="289.1" stroke="#2b3352" stroke-width="1.1" opacity="0.57"></line><circle cx="539.0" cy="288.3" r="1.5" fill="#333d63" opacity="0.87"></circle><text x="711.6" y="270.1" font-size="10" fill="#4f46e5" opacity="0.68">0</text><circle cx="835.0" cy="230.0" r="1.8" fill="#4f46e5" opacity="0.79"></circle><circle cx="854.4" cy="212.8" r="1.8" fill="#3a466f" opacity="0.72"></circle><line x1="749.4" y1="216.5" x2="736.4" y2="216.3" stroke="#2b3352" stroke-width="1.1" opacity="0.48"></line><line x1="576.3" y1="234.7" x2="571.0" y2="235.3" stroke="#2b3352" stroke-width="1.1" opacity="0.60"></line><circle cx="403.4" cy="262.9" r="1.6" fill="#4f46e5" opacity="0.85"></circle><line x1="331.7" y1="266.7" x2="342.8" y2="264.3" stroke="#4f46e5" stroke-width="1.1" opacity="0.50"></line><circle cx="385.9" cy="249.8" r="1.6" fill="#2b3352" opacity="0.71"></circle><circle cx="542.3" cy="231.4" r="1.8" fill="#3a466f" opacity="0.63"></circle><circle cx="722.5" cy="210.4" r="2.0" fill="#2b3352" opacity="0.56"></circle><line x1="828.5" y1="205.4" x2="837.1" y2="207.9" stroke="#eab308" stroke-width="1.1" opacity="0.76"></line><circle cx="840.1" cy="229.0" r="1.4" fill="#2b3352" opacity="0.71"></circle><text x="734.1" y="267.6" font-size="12" fill="#333d63" opacity="0.77">0</text><text x="573.9" y="289.6" font-size="11" fill="#0ea5a4" opacity="0.57">0</text><line x1="435.0" y1="283.7" x2="422.9" y2="282.2" stroke="#0ea5a4" stroke-width="1.1" opacity="0.45"></line><text x="385.5" y="249.8" font-size="10" fill="#3a466f" opacity="0.65">1</text><text x="441.7" y="210.4" font-size="11" fill="#3a466f" opacity="0.84">1</text><line x1="554.4" y1="172.5" x2="567.8" y2="171.0" stroke="#3a466f" stroke-width="1.1" opacity="0.62"></line><circle cx="680.2" cy="179.9" r="2.2" fill="#333d63" opacity="0.48"></circle><circle cx="750.6" cy="210.8" r="1.8" fill="#eab308" opacity="0.59"></circle><circle cx="753.6" cy="269.6" r="1.8" fill="#333d63" opacity="0.61"></circle><text x="691.3" y="319.5" font-size="10" fill="#3a466f" opacity="0.65">0</text><text x="606.3" y="316.3" font-size="10" fill="#eab308" opacity="0.84">0</text><circle cx="523.4" cy="282.3" r="2.2" fill="#eab308" opacity="0.62"></circle><circle cx="495.4" cy="219.0" r="1.1" fill="#4f46e5" opacity="0.59"></circle><circle cx="509.9" cy="167.8" r="1.2" fill="#333d63" opacity="0.50"></circle><circle cx="544.5" cy="147.0" r="1.2" fill="#333d63" opacity="0.52"></circle><circle cx="588.3" cy="186.4" r="1.8" fill="#3a466f" opacity="0.69"></circle><circle cx="622.0" cy="243.7" r="2.1" fill="#333d63" opacity="0.45"></circle><circle cx="657.0" cy="301.3" r="1.5" fill="#3a466f" opacity="0.67"></circle><text x="667.6" y="334.1" font-size="11" fill="#333d63" opacity="0.47">1</text><circle cx="673.2" cy="314.2" r="2.0" fill="#2b3352" opacity="0.78"></circle><circle cx="653.3" cy="251.4" r="1.8" fill="#0ea5a4" opacity="0.49"></circle><circle cx="614.8" cy="190.9" r="1.8" fill="#eab308" opacity="0.64"></circle><circle cx="561.6" cy="154.9" r="1.6" fill="#4f46e5" opacity="0.69"></circle><line x1="513.5" y1="166.6" x2="506.0" y2="171.0" stroke="#333d63" stroke-width="1.1" opacity="0.60"></line><circle cx="481.6" cy="219.4" r="1.7" fill="#3a466f" opacity="0.88"></circle><line x1="503.0" y1="270.4" x2="508.9" y2="276.4" stroke="#4f46e5" stroke-width="1.1" opacity="0.68"></line><circle cx="578.9" cy="314.7" r="2.4" fill="#eab308" opacity="0.87"></circle><line x1="673.4" y1="307.6" x2="680.8" y2="306.0" stroke="#3a466f" stroke-width="1.1" opacity="0.71"></line><line x1="744.8" y1="277.5" x2="751.3" y2="269.6" stroke="#333d63" stroke-width="1.1" opacity="0.44"></line><circle cx="767.8" cy="225.6" r="2.0" fill="#3a466f" opacity="0.58"></circle><line x1="699.0" y1="182.3" x2="688.7" y2="182.1" stroke="#eab308" stroke-width="1.1" opacity="0.51"></line><line x1="577.6" y1="186.0" x2="570.1" y2="186.4" stroke="#2b3352" stroke-width="1.1" opacity="0.64"></line><line x1="464.5" y1="212.2" x2="453.6" y2="215.2" stroke="#333d63" stroke-width="1.1" opacity="0.58"></line><circle cx="397.8" cy="244.4" r="1.3" fill="#2b3352" opacity="0.76"></circle><line x1="432.4" y1="272.6" x2="442.4" y2="276.4" stroke="#333d63" stroke-width="1.1" opacity="0.71"></line><line x1="548.0" y1="281.2" x2="559.5" y2="279.9" stroke="#3a466f" stroke-width="1.1" opacity="0.61"></line><circle cx="695.0" cy="255.7" r="1.1" fill="#333d63" opacity="0.65"></circle><text x="806.9" y="234.1" font-size="10" fill="#3a466f" opacity="0.73">0</text><line x1="812.0" y1="209.3" x2="804.4" y2="211.3" stroke="#4f46e5" stroke-width="1.1" opacity="0.57"></line><line x1="732.1" y1="216.4" x2="725.4" y2="216.9" stroke="#3a466f" stroke-width="1.1" opacity="0.47"></line><line x1="570.7" y1="236.1" x2="562.6" y2="237.2" stroke="#eab308" stroke-width="1.1" opacity="0.73"></line><circle cx="431.4" cy="256.5" r="2.2" fill="#0ea5a4" opacity="0.68"></circle><text x="369.4" y="262.2" font-size="12" fill="#3a466f" opacity="0.59">1</text><line x1="419.5" y1="255.8" x2="429.6" y2="252.6" stroke="#333d63" stroke-width="1.1" opacity="0.62"></line><line x1="550.8" y1="234.7" x2="563.3" y2="231.2" stroke="#eab308" stroke-width="1.1" opacity="0.79"></line><line x1="698.5" y1="209.7" x2="709.3" y2="209.5" stroke="#eab308" stroke-width="1.1" opacity="0.79"></line><circle cx="792.8" cy="210.7" r="1.4" fill="#0ea5a4" opacity="0.42"></circle><line x1="791.8" y1="232.3" x2="786.8" y2="236.2" stroke="#0ea5a4" stroke-width="1.1" opacity="0.60"></line><line x1="704.4" y1="262.9" x2="697.9" y2="264.6" stroke="#eab308" stroke-width="1.1" opacity="0.58"></line><line x1="573.8" y1="285.7" x2="562.3" y2="285.7" stroke="#333d63" stroke-width="1.1" opacity="0.60"></line><line x1="465.8" y1="274.6" x2="455.8" y2="274.4" stroke="#333d63" stroke-width="1.1" opacity="0.54"></line><line x1="424.7" y1="245.7" x2="425.2" y2="238.0" stroke="#333d63" stroke-width="1.1" opacity="0.43"></line><line x1="464.8" y1="205.8" x2="471.1" y2="204.4" stroke="#2b3352" stroke-width="1.1" opacity="0.60"></line><line x1="568.4" y1="178.9" x2="578.8" y2="179.5" stroke="#2b3352" stroke-width="1.1" opacity="0.64"></line><text x="668.9" y="188.5" font-size="11" fill="#333d63" opacity="0.78">1</text><circle cx="727.8" cy="217.2" r="1.4" fill="#3a466f" opacity="0.59"></circle><circle cx="728.7" cy="272.5" r="1.3" fill="#3a466f" opacity="0.61"></circle><text x="669.6" y="304.9" font-size="10" fill="#2b3352" opacity="0.67">1</text><line x1="594.8" y1="310.9" x2="584.7" y2="304.3" stroke="#4f46e5" stroke-width="1.1" opacity="0.48"></line><line x1="540.9" y1="273.6" x2="532.3" y2="264.4" stroke="#333d63" stroke-width="1.1" opacity="0.43"></line><text x="518.1" y="220.8" font-size="12" fill="#4f46e5" opacity="0.49">0</text><circle cx="523.6" cy="179.9" r="1.9" fill="#0ea5a4" opacity="0.83"></circle><circle cx="551.8" cy="159.5" r="1.3" fill="#4f46e5" opacity="0.81"></circle><circle cx="587.7" cy="194.8" r="2.2" fill="#eab308" opacity="0.70"></circle><line x1="619.6" y1="245.1" x2="625.2" y2="254.3" stroke="#3a466f" stroke-width="1.1" opacity="0.42"></line><line x1="642.1" y1="295.3" x2="645.7" y2="302.8" stroke="#3a466f" stroke-width="1.1" opacity="0.57"></line><line x1="651.2" y1="321.6" x2="658.8" y2="315.3" stroke="#333d63" stroke-width="1.1" opacity="0.47"></line><line x1="652.8" y1="298.5" x2="655.8" y2="287.6" stroke="#333d63" stroke-width="1.1" opacity="0.54"></line><circle cx="640.9" cy="247.4" r="2.4" fill="#2b3352" opacity="0.65"></circle><line x1="619.2" y1="200.4" x2="614.9" y2="196.5" stroke="#4f46e5" stroke-width="1.1" opacity="0.72"></line><circle cx="563.6" cy="165.0" r="2.2" fill="#0ea5a4" opacity="0.52"></circle><line x1="520.8" y1="180.7" x2="512.2" y2="188.4" stroke="#333d63" stroke-width="1.1" opacity="0.36"></line><circle cx="502.9" cy="213.9" r="1.4" fill="#4f46e5" opacity="0.70"></circle><line x1="524.5" y1="269.3" x2="528.2" y2="273.8" stroke="#333d63" stroke-width="1.1" opacity="0.66"></line><text x="582.4" y="300.7" font-size="12" fill="#333d63" opacity="0.79">1</text><line x1="657.8" y1="296.2" x2="666.5" y2="294.7" stroke="#333d63" stroke-width="1.1" opacity="0.43"></line><circle cx="720.6" cy="272.2" r="2.0" fill="#2b3352" opacity="0.79"></circle><circle cx="730.6" cy="225.2" r="1.2" fill="#333d63" opacity="0.77"></circle><circle cx="679.9" cy="196.9" r="2.1" fill="#2b3352" opacity="0.59"></circle><circle cx="583.5" cy="187.4" r="1.0" fill="#333d63" opacity="0.85"></circle><circle cx="485.4" cy="218.6" r="2.2" fill="#0ea5a4" opacity="0.53"></circle><circle cx="434.6" cy="249.9" r="1.9" fill="#2b3352" opacity="0.84"></circle><line x1="457.2" y1="273.5" x2="469.9" y2="274.0" stroke="#eab308" stroke-width="1.1" opacity="0.72"></line><line x1="560.2" y1="275.5" x2="572.1" y2="273.6" stroke="#2b3352" stroke-width="1.1" opacity="0.67"></line><line x1="674.5" y1="251.5" x2="688.1" y2="251.1" stroke="#2b3352" stroke-width="1.1" opacity="0.67"></line><circle cx="768.4" cy="230.3" r="1.4" fill="#4f46e5" opacity="0.78"></circle><text x="784.0" y="214.3" font-size="11" fill="#333d63" opacity="0.61">0</text><line x1="705.8" y1="224.9" x2="692.5" y2="224.1" stroke="#0ea5a4" stroke-width="1.1" opacity="0.47"></line><circle cx="583.2" cy="229.8" r="2.0" fill="#333d63" opacity="0.65"></circle><circle cx="467.6" cy="257.8" r="2.1" fill="#333d63" opacity="0.66"></circle><circle cx="408.4" cy="261.2" r="2.0" fill="#333d63" opacity="0.43"></circle><circle cx="446.2" cy="254.4" r="1.6" fill="#3a466f" opacity="0.62"></circle><circle cx="563.5" cy="233.3" r="1.0" fill="#2b3352" opacity="0.49"></circle><text x="680.5" y="215.6" font-size="11" fill="#333d63" opacity="0.58">0</text><line x1="767.0" y1="219.9" x2="779.4" y2="219.1" stroke="#4f46e5" stroke-width="1.1" opacity="0.72"></line><circle cx="765.3" cy="239.0" r="1.0" fill="#2b3352" opacity="0.65"></circle><circle cx="686.6" cy="261.0" r="1.7" fill="#333d63" opacity="0.45"></circle><text x="582.8" y="278.3" font-size="11" fill="#3a466f" opacity="0.41">0</text><line x1="480.1" y1="278.4" x2="474.2" y2="273.4" stroke="#eab308" stroke-width="1.1" opacity="0.44"></line><text x="452.6" y="251.9" font-size="12" fill="#3a466f" opacity="0.43">1</text><circle cx="491.7" cy="215.7" r="1.3" fill="#333d63" opacity="0.89"></circle><circle cx="566.7" cy="186.6" r="1.7" fill="#333d63" opacity="0.86"></circle><circle cx="656.9" cy="191.8" r="1.7" fill="#0ea5a4" opacity="0.72"></circle><text x="709.1" y="221.6" font-size="12" fill="#4f46e5" opacity="0.41">1</text></g><text x="24" y="460" font-family="Consolas, Menlo, monospace" font-size="13" fill="#4a5578">2026-10-05 · sin(5t+φ)·e^(−λt), sin(6t) · seed f159f1</text></svg>